<?xml version="1.0" encoding="utf-8"?>
<svg id="master-artboard" viewBox="0 0 1750 980" version="1.1" xmlns="http://www.w3.org/2000/svg" x="0px" y="0px" width="1750px" height="980px" enable-background="new 0 0 1750 980">


<path d="M 0 725.799988 H 1750 V 979.999985 H 0 V 725.799988 Z" fill-rule="evenodd" clip-rule="evenodd" fill="#FFCC99"/>


<g>
	<g>
		<g>
			<path fill-rule="evenodd" clip-rule="evenodd" fill="#C47D47" d="M0,708.2c23.5-3.9,34.9,35.8,52.4,53.7c16,17,37.7,18.2,48.1,51&#10;&#9;&#9;&#9;&#9;C98.3,825.4,47.6,828.5,0,832.3V708.2z"/>
			<path fill-rule="evenodd" clip-rule="evenodd" fill="#A35E3B" d="M94.3,819.1C79,826.6,38.5,829.3,0,832.3v-10.1&#10;&#9;&#9;&#9;&#9;C33.2,820.3,58.7,829.8,94.3,819.1L94.3,819.1z"/>
			<path fill-rule="evenodd" clip-rule="evenodd" fill="#FFB773" d="M0,708.2c23.5-3.9,34.9,35.8,52.4,53.7&#10;&#9;&#9;&#9;&#9;c15.5,16.4,36.2,18.1,47,47.7c-3.7,3.5-7.4,5.3-11.1,4.2c-12.8-12-22-13-31-13.2c14,3.3,20.8,9.2,21.6,17.6&#10;&#9;&#9;&#9;&#9;c-17.2,1.5-33.9-0.9-49.6-12.3c-11.4,1.8-21.8,2-29.2-3v-57.7c12.7,3.8,13.4,18.8,22.9,25.5c8.4,8.4,10.7,21.2,25,25.2&#10;&#9;&#9;&#9;&#9;c-11.5-5.3-12.7-16.1-19-24.1C19.3,762.1,16.5,748,0,742.5V708.2z"/>
		</g>
		<g>
			<path fill-rule="evenodd" clip-rule="evenodd" fill="#C47D47" d="M40.1,845.6c-5.5-25.6-1.9-46,20.4-55.5&#10;&#9;&#9;&#9;&#9;c13.1-26.2,38.4-36.3,71.3-36.6c64.4-9.1,103.6,6.9,125.9,39.8c48.3,7.5,51.9,21.7,50.5,36.6c-7.8,8.2-29.5,10.7-73.2,4.2&#10;&#9;&#9;&#9;&#9;C198.8,853.2,131.9,856,40.1,845.6L40.1,845.6z"/>
			<path fill-rule="evenodd" clip-rule="evenodd" fill="#A35E3B" d="M40.1,845.6c-4.5-21-2.9-38.5,10.1-49.3&#10;&#9;&#9;&#9;&#9;c-5.3,11.7-5.1,22.3,1.9,31.6c16.7,7.9,37.6,6.6,59.9,2.2c29.1,16.5,55.7,14.3,81.7,7.9c-2.3-2.6-5.7-4.8-10.2-6.9&#10;&#9;&#9;&#9;&#9;c18.2,2.2,34.3-1.7,49.3-8.8c1.6-5,4-9.4,8.3-12.5c-4.6,23.9,29.5,22.5,56,26c-11.8,3.2-31.6,3-62.2-1.6&#10;&#9;&#9;&#9;&#9;C198.8,853.2,131.9,856,40.1,845.6L40.1,845.6z"/>
			<path fill-rule="evenodd" clip-rule="evenodd" fill="#FFB773" d="M95.3,759.3c10.7-3.9,23-5.7,36.5-5.8&#10;&#9;&#9;&#9;&#9;c64.4-9.1,103.6,6.9,125.9,39.8c30.5,4.7,43.2,12.1,48,20.7c-22.5,12-42.1,7.3-61-1.7c0.1-7.2,3.3-13,10.2-17.1&#10;&#9;&#9;&#9;&#9;c-11.3,2-21.2,6.9-29.4,15.3c-8.4,8.2-21.1,11.9-36.6,12.7c-8.6-4.1-17.3-4.8-26.2-3.5c-5.6-6.5-11.9-10.7-19.7-10.7&#10;&#9;&#9;&#9;&#9;c7.6,2.1,12.3,6.5,15.3,12.3c6.7,0.6,12,2.2,15.3,5.1c-0.1,2.3-3.2,3.9-10.6,4.7c-14.2-1.4-28-3.8-38.2-15.1&#10;&#9;&#9;&#9;&#9;c-27.5,3.6-51.7,4.5-60-8.6c3.6-11.5,12.1-15.9,21.6-19c6.1-10.5,16.6-16,28.9-19.4c-12.1,1.9-23.2,6.2-31.6,16.8&#10;&#9;&#9;&#9;&#9;c-5.7,0.5-11.3,1.4-16.7,4.1C70.9,775.6,81.6,766.3,95.3,759.3L95.3,759.3z M141.3,766.6c16.3-1.4,31.3,1.4,44.2,11.1&#10;&#9;&#9;&#9;&#9;c11.3-5.9,26.6-7.7,47.5-3.7c-9.1-5.7-20.3-7.7-35.2-3.3C177.7,761.7,159.1,762.3,141.3,766.6L141.3,766.6z"/>
		</g>
		<g>
			<path fill-rule="evenodd" clip-rule="evenodd" fill="#C47D47" d="M328.7,838.6c0.5-2.8,1.5-5.1,3.6-6.7c2.1-3.2,4.7-4.8,8.3-3.4&#10;&#9;&#9;&#9;&#9;c3,1,5.2,2.8,5.8,5.8c0.5,0.9,1.4,2.5,0.7,4.4C344.2,841.2,333.8,840.4,328.7,838.6L328.7,838.6z"/>
			<path fill-rule="evenodd" clip-rule="evenodd" fill="#A35E3B" d="M331.9,832.2c-1,1.9-1.2,3.4-1,4.7c4.2,2.2,9.2,2.6,14.5,2.6&#10;&#9;&#9;&#9;&#9;c-4.2,1.4-12.3,0.6-16.7-1C329.2,835.9,330.2,833.7,331.9,832.2L331.9,832.2z"/>
			<path fill-rule="evenodd" clip-rule="evenodd" fill="#FFB773" d="M337,828.1L337,828.1c1.1-0.2,2.3-0.1,3.6,0.4&#10;&#9;&#9;&#9;&#9;c3,1,5.2,2.8,5.8,5.8c0.4,0.7,1,1.9,0.9,3.2c-0.8,0.7-2.2,0.9-4.6,0.3c-4.8,0.6-8.6,0.1-9.9-3.3C333,831.7,334.3,829.8,337,828.1&#10;&#9;&#9;&#9;&#9;L337,828.1z"/>
		</g>
		<g>
			<path fill-rule="evenodd" clip-rule="evenodd" fill="#C47D47" d="M231.9,856.8c0.5-2.8,1.6-5.1,3.6-6.6c2.1-3.2,4.8-4.8,8.4-3.4&#10;&#9;&#9;&#9;&#9;c3,1,5.2,2.8,5.8,5.8c0.5,0.9,1.4,2.5,0.7,4.4C247.4,859.4,237.1,858.6,231.9,856.8L231.9,856.8z"/>
			<path fill-rule="evenodd" clip-rule="evenodd" fill="#A35E3B" d="M235.1,850.4c-1,1.9-1.2,3.4-1,4.7c4.2,2.2,9.2,2.7,14.5,2.6&#10;&#9;&#9;&#9;&#9;c-4.2,1.4-12.3,0.6-16.7-1C232.4,854.2,233.4,851.9,235.1,850.4L235.1,850.4z"/>
			<path fill-rule="evenodd" clip-rule="evenodd" fill="#FFB773" d="M240.3,846.3L240.3,846.3c1.1-0.2,2.3-0.1,3.6,0.4&#10;&#9;&#9;&#9;&#9;c3,1,5.2,2.8,5.8,5.8c0.4,0.7,1,1.8,0.9,3.2c-0.8,0.7-2.2,0.9-4.7,0.3c-4.8,0.6-8.5,0.1-9.8-3.3&#10;&#9;&#9;&#9;&#9;C236.3,849.9,237.6,848,240.3,846.3L240.3,846.3z"/>
		</g>
		<g>
			<path fill-rule="evenodd" clip-rule="evenodd" fill="#C47D47" d="M251,867c0.4-2.2,1.2-4.1,2.8-5.3c1.7-2.5,3.8-3.8,6.6-2.7&#10;&#9;&#9;&#9;&#9;c2.4,0.8,4.1,2.2,4.6,4.6c0.4,0.7,1.1,2,0.6,3.5C263.2,869,255,868.4,251,867L251,867z"/>
			<path fill-rule="evenodd" clip-rule="evenodd" fill="#A35E3B" d="M253.5,861.9c-0.8,1.5-0.9,2.7-0.8,3.7&#10;&#9;&#9;&#9;&#9;c3.3,1.7,7.3,2.1,11.4,2.1c-3.3,1.1-9.7,0.5-13.2-0.8C251.3,864.9,252.1,863.1,253.5,861.9L253.5,861.9z"/>
			<path fill-rule="evenodd" clip-rule="evenodd" fill="#FFB773" d="M257.5,858.7L257.5,858.7c0.8-0.2,1.8-0.1,2.8,0.3&#10;&#9;&#9;&#9;&#9;c2.4,0.8,4.1,2.2,4.6,4.6c0.3,0.6,0.8,1.4,0.7,2.5c-0.6,0.5-1.8,0.7-3.7,0.2c-3.7,0.5-6.8,0.1-7.8-2.6&#10;&#9;&#9;&#9;&#9;C254.3,861.5,255.4,860,257.5,858.7L257.5,858.7z"/>
		</g>
		<g>
			<path fill-rule="evenodd" clip-rule="evenodd" fill="#C47D47" d="M14.2,874.9c2-10.5,5.9-19.4,13.4-25c8-12.1,18-18.2,31.5-13&#10;&#9;&#9;&#9;&#9;c11.5,3.9,19.5,10.5,21.8,21.8c8.1,1.4,14.1,5.9,16.7,15.3C86.3,883.5,33.3,881.9,14.2,874.9L14.2,874.9z"/>
			<path fill-rule="evenodd" clip-rule="evenodd" fill="#A35E3B" d="M14.2,874.9c1.9-9.9,5.4-18.3,12-23.9&#10;&#9;&#9;&#9;&#9;c-3.8,7.1-4.6,12.8-3.7,17.8c18.1,9.5,40.3,10.3,63,9.8C65.3,882.6,29.3,880.4,14.2,874.9L14.2,874.9z"/>
			<path fill-rule="evenodd" clip-rule="evenodd" fill="#FFB773" d="M45.5,835.5c4.1-0.9,8.6-0.5,13.6,1.4&#10;&#9;&#9;&#9;&#9;c11.5,3.9,19.5,10.5,21.8,21.8c2.5,1,4.5,2.1,6,3.5c-1.9,2.8-5.9,2.7-11,1.2c-3.4-5.7-8.2-9.3-14.8-10.1&#10;&#9;&#9;&#9;&#9;c5.9,1.6,9.7,5.2,11.8,10.2c2.4,1.4,3.7,3.6,4.7,6c-1.3-1.8-3.3-3.3-7-3.8c0.3,2.7-0.7,4.9-3.6,6.3c-18,2.3-32.3,0.5-37.2-12.3&#10;&#9;&#9;&#9;&#9;c1.8-4.4,5.5-6.7,12.6-5.1c-3-2-6.3-3.1-10-2.7C34.1,845.9,37.1,840.2,45.5,835.5L45.5,835.5z"/>
		</g>
		<g>
			<path fill-rule="evenodd" clip-rule="evenodd" fill="#C47D47" d="M122,875.4c0.8-4.4,2.5-8.2,5.7-10.6c3.4-5.1,7.6-7.7,13.3-5.5&#10;&#9;&#9;&#9;&#9;c4.8,1.6,8.3,4.4,9.2,9.2c0.8,1.5,2.2,4,1.2,7C146.6,879.6,130.1,878.4,122,875.4L122,875.4z"/>
			<path fill-rule="evenodd" clip-rule="evenodd" fill="#A35E3B" d="M127.1,865.3c-1.6,3-1.9,5.4-1.6,7.5c6.7,3.5,14.7,4.2,23,4.2&#10;&#9;&#9;&#9;&#9;c-6.6,2.2-19.6,0.9-26.5-1.6C122.7,871.3,124.3,867.7,127.1,865.3L127.1,865.3z"/>
			<path fill-rule="evenodd" clip-rule="evenodd" fill="#FFB773" d="M135.2,858.8L135.2,858.8c1.7-0.4,3.6-0.2,5.7,0.6&#10;&#9;&#9;&#9;&#9;c4.8,1.6,8.3,4.4,9.2,9.2c0.6,1.2,1.6,2.9,1.5,5.1c-1.2,1.1-3.6,1.5-7.4,0.5c-7.6,1-13.7,0.2-15.7-5.2&#10;&#9;&#9;&#9;&#9;C128.8,864.5,130.9,861.5,135.2,858.8L135.2,858.8z"/>
		</g>
	</g>
	<g>
		<g>
			<path fill-rule="evenodd" clip-rule="evenodd" fill="#C47D47" d="M359.9,824.8c2-10.5,5.9-19.4,13.4-25c8-12.1,17.9-18.2,31.5-13&#10;&#9;&#9;&#9;&#9;c11.5,3.8,19.5,10.5,21.8,21.7c8.1,1.4,14.1,5.9,16.7,15.3C432.1,833.5,379.1,831.8,359.9,824.8L359.9,824.8z"/>
			<path fill-rule="evenodd" clip-rule="evenodd" fill="#A35E3B" d="M359.9,824.8c1.9-9.8,5.4-18.2,12-23.9&#10;&#9;&#9;&#9;&#9;c-3.8,7.1-4.5,12.8-3.7,17.8c18.1,9.4,40.3,10.3,63,9.8C411.1,832.5,375,830.3,359.9,824.8L359.9,824.8z"/>
			<path fill-rule="evenodd" clip-rule="evenodd" fill="#FFB773" d="M391.2,785.4c4.1-0.9,8.6-0.5,13.6,1.4&#10;&#9;&#9;&#9;&#9;c11.5,3.8,19.5,10.5,21.8,21.7c2.5,1,4.5,2.1,6,3.5c-1.9,2.8-5.9,2.7-11,1.2c-3.4-5.7-8.2-9.3-14.8-10.1&#10;&#9;&#9;&#9;&#9;c5.8,1.6,9.6,5.2,11.8,10.2c2.5,1.4,3.7,3.6,4.7,6c-1.3-1.8-3.3-3.3-7-3.8c0.3,2.7-0.7,4.9-3.6,6.2c-18,2.4-32.3,0.5-37.1-12.3&#10;&#9;&#9;&#9;&#9;c1.8-4.4,5.5-6.7,12.6-5.1c-3-2-6.3-3.1-9.9-2.7C379.8,795.8,382.8,790.1,391.2,785.4L391.2,785.4z"/>
		</g>
		<g>
			<path fill-rule="evenodd" clip-rule="evenodd" fill="#C47D47" d="M424.9,834.7c0.8-4.4,2.5-8.2,5.7-10.5&#10;&#9;&#9;&#9;&#9;c3.4-5.1,7.6-7.7,13.3-5.5c4.9,1.6,8.3,4.4,9.2,9.2c0.7,1.4,2.2,4,1.2,7C449.5,838.9,433,837.7,424.9,834.7L424.9,834.7z"/>
			<path fill-rule="evenodd" clip-rule="evenodd" fill="#A35E3B" d="M430,824.6c-1.6,3-1.9,5.4-1.6,7.5c6.7,3.5,14.7,4.2,23,4.2&#10;&#9;&#9;&#9;&#9;c-6.6,2.2-19.6,0.9-26.5-1.6C425.7,830.5,427.2,827,430,824.6L430,824.6z"/>
			<path fill-rule="evenodd" clip-rule="evenodd" fill="#FFB773" d="M438.2,818.1L438.2,818.1c1.7-0.4,3.6-0.2,5.7,0.6&#10;&#9;&#9;&#9;&#9;c4.9,1.6,8.3,4.4,9.2,9.2c0.6,1.1,1.6,2.9,1.5,5.1c-1.2,1-3.6,1.5-7.4,0.5c-7.6,1-13.6,0.2-15.7-5.2&#10;&#9;&#9;&#9;&#9;C431.8,823.8,433.9,820.7,438.2,818.1L438.2,818.1z"/>
		</g>
		<g>
			<path fill-rule="evenodd" clip-rule="evenodd" fill="#C47D47" d="M482.3,819.9c0.5-2.8,1.6-5.1,3.6-6.6c2.1-3.2,4.8-4.8,8.4-3.5&#10;&#9;&#9;&#9;&#9;c3,1.1,5.2,2.8,5.8,5.8c0.5,0.9,1.4,2.5,0.7,4.4C497.7,822.5,487.4,821.7,482.3,819.9L482.3,819.9z"/>
			<path fill-rule="evenodd" clip-rule="evenodd" fill="#A35E3B" d="M485.5,813.5c-1,1.9-1.2,3.4-1,4.7c4.2,2.2,9.2,2.6,14.5,2.6&#10;&#9;&#9;&#9;&#9;c-4.2,1.4-12.3,0.6-16.7-1C482.8,817.2,483.7,815,485.5,813.5L485.5,813.5z"/>
			<path fill-rule="evenodd" clip-rule="evenodd" fill="#FFB773" d="M490.6,809.4L490.6,809.4c1.1-0.2,2.3-0.1,3.6,0.3&#10;&#9;&#9;&#9;&#9;c3,1.1,5.2,2.8,5.8,5.8c0.4,0.7,1,1.9,0.9,3.2c-0.8,0.7-2.2,1-4.7,0.3c-4.8,0.6-8.6,0.1-9.8-3.3&#10;&#9;&#9;&#9;&#9;C486.6,813,487.9,811.1,490.6,809.4L490.6,809.4z"/>
		</g>
		<g>
			<path fill-rule="evenodd" clip-rule="evenodd" fill="#C47D47" d="M511.4,830.3c0.4-2.2,1.2-4.1,2.8-5.3c1.7-2.5,3.8-3.8,6.6-2.7&#10;&#9;&#9;&#9;&#9;c2.4,0.8,4.1,2.2,4.5,4.5c0.4,0.7,1.1,2,0.6,3.5C523.6,832.4,515.4,831.8,511.4,830.3L511.4,830.3z"/>
			<path fill-rule="evenodd" clip-rule="evenodd" fill="#A35E3B" d="M513.9,825.3c-0.8,1.5-1,2.7-0.8,3.7c3.3,1.7,7.3,2.1,11.4,2.1&#10;&#9;&#9;&#9;&#9;c-3.3,1.1-9.8,0.5-13.2-0.8C511.8,828.2,512.5,826.5,513.9,825.3L513.9,825.3z"/>
			<path fill-rule="evenodd" clip-rule="evenodd" fill="#FFB773" d="M517.9,822L517.9,822c0.9-0.2,1.8-0.1,2.9,0.3&#10;&#9;&#9;&#9;&#9;c2.4,0.8,4.1,2.2,4.5,4.5c0.3,0.6,0.8,1.5,0.8,2.5c-0.6,0.5-1.8,0.8-3.7,0.2c-3.8,0.5-6.8,0.1-7.8-2.6&#10;&#9;&#9;&#9;&#9;C514.7,824.9,515.8,823.4,517.9,822L517.9,822z"/>
		</g>
	</g>
</g>
<g>
	<g>
		<g>
			<path fill-rule="evenodd" clip-rule="evenodd" fill="#34C290" d="M1463.2,858.8c23.9-21.1,34.4-5.8,32.9,23.1&#10;&#9;&#9;&#9;&#9;c16.2-16.8,22.9-6.8,13.6,15.5c8.4-5.6,13.3-2.2,13.4,11.8c10-20.2,14.6-14.5,14.3,2.8c23.4-21.8,44.1-11.6,37.3,25.4&#10;&#9;&#9;&#9;&#9;c11.6,6.2,8,14-11.3,22.2c3.3-0.4,4.9,0.3,3.4,2.8c21.1-8.7,47.1-9.1,37.1,17.7h-290c-7.8-22.6,5.1-39,35.9-33.7&#10;&#9;&#9;&#9;&#9;c-14.3-18.2-9.8-26.4,13.4-20.1c-16.6-37.8-5.8-47.6,25.5-23c-2-22.8,16.2-17.5,21.7-3.2c1.1-15.9,6.8-19.3,17.6-6.5&#10;&#9;&#9;&#9;&#9;C1419.7,856.6,1429.8,829.6,1463.2,858.8L1463.2,858.8z"/>
			<path fill-rule="evenodd" clip-rule="evenodd" fill="#057551" d="M1490.9,853.4c4.2,5.5,5.9,15.6,5.2,28.5&#10;&#9;&#9;&#9;&#9;c16.2-16.8,22.9-6.8,13.6,15.5c8.4-5.6,13.3-2.2,13.4,11.8c10-20.2,14.6-14.5,14.3,2.8c23.4-21.8,44.1-11.6,37.3,25.4&#10;&#9;&#9;&#9;&#9;c11.6,6.2,8,14-11.3,22.2c3.3-0.4,4.9,0.3,3.4,2.8c21.1-8.7,47.1-9.1,37.1,17.7h-284.4c-0.8-16.8,12.4-27.4,38.1-23&#10;&#9;&#9;&#9;&#9;c-14.2-18.2-9.8-26.4,13.4-20.1c-16.6-37.8-5.8-47.6,25.5-23c-2-22.7,16.2-17.5,21.7-3.2c1.1-15.9,6.8-19.2,17.6-6.5&#10;&#9;&#9;&#9;&#9;c-8.5-37,1.5-63.9,35-34.7C1475.7,861.5,1482.6,856.3,1490.9,853.4L1490.9,853.4z"/>
		</g>
		<g>
			<path fill-rule="evenodd" clip-rule="evenodd" fill="#34C290" d="M1722,833.8c11.4-10.1,20.8-14.3,28-14V980h-242.7&#10;&#9;&#9;&#9;&#9;c4.6-17.1,22.8-26.6,53.2-21.4c-20.3-26-14-37.7,19.1-28.7c-23.7-54-8.3-67.9,36.4-32.8c-2.8-32.4,23.2-24.9,31-4.5&#10;&#9;&#9;&#9;&#9;c1.5-22.7,9.7-27.5,25.1-9.3C1660.1,830.6,1674.4,792.1,1722,833.8L1722,833.8z"/>
			<path fill-rule="evenodd" clip-rule="evenodd" fill="#057551" d="M1750,832.8V980h-228.8c8.6-9.3,24.4-13.4,46.7-9.6&#10;&#9;&#9;&#9;&#9;c-3.4-4.4-6.1-8.4-8-12c0.2,0,0.4,0.1,0.6,0.1c-0.6-0.8-1.2-1.5-1.7-2.2c-7.5-15.8,1.9-21.7,28.2-14.6&#10;&#9;&#9;&#9;&#9;c-23.7-53.9-8.3-67.9,36.4-32.7c-2.8-32.4,23.2-24.9,31-4.5c1.5-22.6,9.7-27.4,25.1-9.3c-12.1-52.7,2.2-91.2,49.9-49.5&#10;&#9;&#9;&#9;&#9;C1737.3,838.7,1744.2,834.6,1750,832.8L1750,832.8z"/>
		</g>
	</g>
	<g>
		<g>
			<path fill-rule="evenodd" clip-rule="evenodd" fill="#34C290" d="M304.8,938.5c23.9-21.1,34.4-5.8,32.9,23.1&#10;&#9;&#9;&#9;&#9;c16.2-16.8,22.9-6.8,13.7,15.6c6.2-4.1,10.5-3.4,12.4,2.9H230.3c-0.2-19.4,16.7-14,21.9-0.3c1.1-15.9,6.8-19.2,17.6-6.5&#10;&#9;&#9;&#9;&#9;C261.3,936.2,271.4,909.2,304.8,938.5L304.8,938.5z M369.9,980c4.1-5.6,6.8-4.9,8.2,0H369.9z M197.2,980&#10;&#9;&#9;&#9;&#9;c-0.8-13.9,9.7-14.5,29.5,0H197.2z"/>
			<path fill-rule="evenodd" clip-rule="evenodd" fill="#057551" d="M332.5,933.1c4.2,5.5,5.9,15.6,5.2,28.5&#10;&#9;&#9;&#9;&#9;c16.2-16.8,22.9-6.8,13.7,15.6c6.2-4.1,10.5-3.4,12.4,2.9h-86.9c-6.9-34.9,3.6-59,35.8-30.8C317.3,941.1,324.2,936,332.5,933.1&#10;&#9;&#9;&#9;&#9;L332.5,933.1z M369.9,980c4.1-5.6,6.8-4.9,8.2,0H369.9z M241.2,980c2.7-2.7,6.7-2.3,10.5,0H241.2z M262,980c2.2-5,6.1-5.3,11.8,0&#10;&#9;&#9;&#9;&#9;H262z"/>
		</g>
		<g>
			<path fill-rule="evenodd" clip-rule="evenodd" fill="#34C290" d="M43.6,914.4c23.9-21.1,34.4-5.8,32.9,23.1&#10;&#9;&#9;&#9;&#9;c16.2-16.8,22.9-6.8,13.7,15.6c8.4-5.6,13.3-2.2,13.4,11.7c10-20.1,14.5-14.5,14.3,2.8c20.4-19,38.7-13.7,38.6,12.4H0v-38.2&#10;&#9;&#9;&#9;&#9;c2.4,0.9,5.3,3.4,8.6,7.3C0.2,912.1,10.2,885.1,43.6,914.4L43.6,914.4z"/>
			<path fill-rule="evenodd" clip-rule="evenodd" fill="#057551" d="M71.3,909c4.2,5.5,5.9,15.6,5.3,28.5&#10;&#9;&#9;&#9;&#9;c16.2-16.8,22.9-6.8,13.7,15.6c8.4-5.6,13.3-2.2,13.4,11.7c10-20.1,14.5-14.5,14.3,2.8c20.4-19,38.7-13.7,38.6,12.4H0v-21.6&#10;&#9;&#9;&#9;&#9;c2.3-8.6,7.7-8.7,16.4,1.5c-8.5-37,1.6-64,35-34.7C56.1,917,63.1,911.9,71.3,909L71.3,909z"/>
		</g>
	</g>
</g>
<g>
	<path fill-rule="evenodd" clip-rule="evenodd" fill="#0E543E" d="M1750,21.2c-1,1.4-2,2.8-2.9,4.3c0,0.8-0.1,1.6-0.1,2.3&#10;&#9;&#9;c1,1.6,2,3.2,3,4.8v29.8c-3.6-8.7-6.8-17.6-9.8-26.6c-2.5,3.7-4.9,7.5-7.2,11.2c5.3,14.1,11.3,29.5,17,44.9v53.1&#10;&#9;&#9;c-13.8-27.3-20.2-56.7-23.9-86.8c-2.3,3.7-4.5,7.5-6.7,11.2c0.2,0.8,0.5,1.7,0.7,2.8c9.8,45.7,26.8,105.9,20.1,138.1&#10;&#9;&#9;c-24.7-41.2-28.6-85-27.4-129.5c-3.8,6.7-7.5,13.2-10.9,19.6c0.3,1,0.6,2.3,0.7,4.1c3.6,46.6,12.5,108.5,1.5,139.6&#10;&#9;&#9;c-18.5-42.8-17.1-85.5-10.5-128.2c-3.7,6.9-7.2,13.5-10.4,19.8c1.6-0.4,2.7,1.2,2.3,6.6c-3.5,46.6-4.1,109.2-19.7,138.2&#10;&#9;&#9;c-11.9-45.7-3.7-88.2,9.5-129.9c-7.3,13.8-13.6,24.9-18.9,32.4c0,0.5,0,1.1-0.1,1.6c-3.3,44-3.9,103-18.6,130.4&#10;&#9;&#9;c-10.2-38.9-4.9-75.3,5.5-111c-12.4,25-28.6,47.8-52.4,66.9c4.9-32.6,41.8-83.1,66.8-122.6c0.7-1,1.3-1.9,1.8-2.6&#10;&#9;&#9;c2.2-7.4,4.6-14.7,7.1-21.9c-19.6,35.8-43.5,68.4-81.8,90.4c9.8-31.5,53.9-75.8,84.6-111.1c3.4-3.9,5.3-4.3,6.2-3.1&#10;&#9;&#9;c2.8-6.9,5.8-13.8,9-20.5c-24.3,33-52.4,62.3-93.3,79.1c13.9-30,63.5-68,98.6-98.8c3-2.7,4.9-3.4,5.9-2.9&#10;&#9;&#9;c2.7-5.2,5.5-10.3,8.4-15.4c-0.3-0.7-0.6-1.5-0.9-2.2c-27.2,26.8-57.7,49.4-97.8,59.6c10.1-15.6,31.8-32.2,55.9-48.3&#10;&#9;&#9;c-0.7-2.6-1.2-5.1-1.8-7.7c-13.1,4.4-26.9,7.4-41.5,8.7c-1.6,2.6-3.3,5-5,7.1c-0.1-2.2-0.2-4.5-0.3-6.7c-0.6,0-1.1,0-1.7,0.1&#10;&#9;&#9;c0.5-0.5,1.1-1.1,1.6-1.6c-0.2-12.9,1-25.4,3.4-37.4c-1.9-0.1-3.8-0.3-5.8-0.5c2.1-1.6,4.3-3.1,6.8-4.5c0.6-2.8,1.3-5.5,2-8.2h91.3&#10;&#9;&#9;c0,0.8,0,1.6,0,2.5c2.2-0.8,4.3-1.6,6.4-2.5h33.3V21.2z M1609,0c-12.4,28.4-25.8,55-40.3,68.4c2-25.2,9-47.6,19.2-68.4H1609z&#10;&#9;&#9; M1576.2,0c-18.3,31-37.8,61.8-56.6,75c6.2-28.9,18.9-53.2,35-75H1576.2z M1548.1,0c-26.5,32.9-56.2,70.1-80.9,82.4&#10;&#9;&#9;c13.1-34.4,35.1-60.2,60.7-82.4H1548.1z M1514.1,0c-28,33.8-62.2,80.6-89.8,94.3c14.3-37.6,39.7-64.2,68.8-87.3&#10;&#9;&#9;c-24.6,13.2-51.1,22.4-81.4,24.1c10.8-11.2,29.6-21.5,51.1-31.1H1514.1z M1692.6,2.3c-6.1,2.1-12.3,3.9-18.5,5.5&#10;&#9;&#9;c-0.4,3.2-0.9,6.3-1.4,9.4c6.9-2.9,14-5.6,21-8.4C1693.4,6.6,1693,4.4,1692.6,2.3L1692.6,2.3z M1656,11.4c-7,1-14,1.8-21.2,2.1&#10;&#9;&#9;c-3.5,10.5-7.3,20.3-11.5,28.6c9.2-6.3,20.8-12.3,33.4-18.1C1656.3,19.8,1656.1,15.6,1656,11.4L1656,11.4z M1722.9,10.6&#10;&#9;&#9;c-4.3,2.9-8.8,5.8-13.2,8.5l0,0.6c2.4-1.5,4.8-3,7.1-4.6c2.1-1.4,3.7-2.1,4.8-2.2L1722.9,10.6z M1698.2,25.8&#10;&#9;&#9;c-9.8,5.5-20,10.3-30.5,14.3c-0.9,2.9-1.8,5.6-2.9,8.2c11.1-7.4,22.7-14.6,33.7-21.6L1698.2,25.8z M1708.3,34.3l-0.7,0.7l-0.1,0.7&#10;&#9;&#9;L1708.3,34.3z"/>
	<path fill-rule="evenodd" clip-rule="evenodd" fill="#0E543E" d="M0,21.2c1,1.4,2,2.8,2.9,4.3C2.9,26.2,3,27,3,27.8&#10;&#9;&#9;c-1,1.6-2,3.2-3,4.8v29.8c3.6-8.7,6.8-17.6,9.8-26.6c2.4,3.7,4.9,7.5,7.2,11.2C11.8,61.2,5.7,76.5,0,91.9v53.1&#10;&#9;&#9;c13.8-27.3,20.2-56.7,23.9-86.8c2.3,3.7,4.5,7.5,6.7,11.2c-0.3,0.8-0.5,1.7-0.8,2.8C20.1,118,3,178.1,9.8,210.4&#10;&#9;&#9;c24.7-41.2,28.6-85,27.4-129.5c3.8,6.7,7.5,13.2,10.9,19.6c-0.3,1-0.5,2.3-0.7,4.1C43.9,151.2,35,213.1,46,244.2&#10;&#9;&#9;c18.4-42.8,17.1-85.5,10.5-128.2c3.7,6.9,7.2,13.5,10.5,19.8c-1.6-0.4-2.7,1.2-2.3,6.6c3.5,46.6,4.1,109.2,19.7,138.2&#10;&#9;&#9;c11.9-45.7,3.8-88.2-9.5-129.9c7.3,13.8,13.6,24.9,18.9,32.4c0,0.5,0,1.1,0.1,1.6c3.3,44,3.9,103,18.6,130.4&#10;&#9;&#9;c10.2-38.9,4.9-75.3-5.5-111c12.4,25,28.7,47.8,52.4,66.9c-4.9-32.6-41.8-83.1-66.8-122.6c-0.7-1-1.3-1.9-1.8-2.6&#10;&#9;&#9;c-2.2-7.4-4.6-14.7-7.1-21.9c19.6,35.8,43.5,68.4,81.7,90.4c-9.8-31.5-53.9-75.8-84.6-111.1c-3.4-3.9-5.3-4.3-6.2-3.1&#10;&#9;&#9;c-2.8-6.9-5.8-13.8-8.9-20.5c24.2,33,52.4,62.3,93.3,79.1c-13.9-30-63.5-68-98.6-98.8c-3-2.7-4.9-3.4-5.9-2.9&#10;&#9;&#9;C51.7,52,48.9,46.8,46,41.8c0.3-0.7,0.6-1.5,0.9-2.2c27.2,26.8,57.7,49.4,97.9,59.6c-10.1-15.6-31.8-32.2-55.9-48.3&#10;&#9;&#9;c0.7-2.6,1.2-5.1,1.8-7.7c13.1,4.4,26.9,7.4,41.5,8.7c1.6,2.6,3.3,5,5.1,7.1c0.1-2.2,0.2-4.5,0.3-6.7c0.6,0,1.1,0,1.7,0.1&#10;&#9;&#9;c-0.5-0.5-1.1-1.1-1.6-1.6c0.2-12.9-1-25.4-3.4-37.4c1.9-0.1,3.8-0.3,5.8-0.5c-2.1-1.6-4.4-3.1-6.9-4.5c-0.6-2.8-1.3-5.5-2-8.2&#10;&#9;&#9;H39.8c0,0.8,0,1.6,0,2.5c-2.2-0.8-4.3-1.6-6.4-2.5H0V21.2z M141,0c12.4,28.4,25.8,55,40.3,68.4c-2-25.2-9.1-47.6-19.3-68.4H141z&#10;&#9;&#9; M173.8,0c18.3,31,37.8,61.8,56.6,75c-6.2-28.9-18.9-53.2-35-75H173.8z M201.9,0c26.5,32.9,56.2,70.1,80.9,82.4&#10;&#9;&#9;C269.7,48,247.7,22.2,222.1,0H201.9z M235.9,0c28,33.8,62.2,80.6,89.8,94.3C311.4,56.7,286,30.1,256.9,7&#10;&#9;&#9;c24.5,13.2,51.1,22.4,81.4,24.1C327.5,19.9,308.7,9.6,287.2,0H235.9z M57.4,2.3c6.1,2.1,12.2,3.9,18.5,5.5c0.4,3.2,0.9,6.3,1.4,9.4&#10;&#9;&#9;c-6.9-2.9-14-5.6-21-8.4C56.6,6.6,57,4.4,57.4,2.3L57.4,2.3z M94,11.4c7,1,14,1.8,21.2,2.1c3.5,10.5,7.3,20.3,11.5,28.6&#10;&#9;&#9;c-9.2-6.3-20.8-12.3-33.4-18.1C93.7,19.8,94,15.6,94,11.4L94,11.4z M27.1,10.6c4.4,2.9,8.8,5.8,13.2,8.5l0,0.6&#10;&#9;&#9;c-2.4-1.5-4.8-3-7.1-4.6c-2.1-1.4-3.7-2.1-4.8-2.2L27.1,10.6z M51.8,25.8c9.8,5.5,20,10.3,30.5,14.3c0.9,2.9,1.9,5.6,2.9,8.2&#10;&#9;&#9;C74.1,41,62.5,33.7,51.5,26.7L51.8,25.8z M41.7,34.3l0.7,0.7l0.1,0.7L41.7,34.3z"/>
	<path fill-rule="evenodd" clip-rule="evenodd" fill="#0E543E" d="M1383.4,0c6.9,9.3,12.3,18.2,15.3,26.3&#10;&#9;&#9;c-14.5-7.4-27.1-16.3-38.3-26.3H1383.4z M1348.6,0c20.3,28.2,39.5,57.2,43.9,78.9c-29.6-21.3-48.8-48.8-63.5-78.9H1348.6z&#10;&#9;&#9; M1321.9,0c0.5,3.6,0.9,6.9,1.1,9.8c0.3,0.4,0.7,0.8,1,1.3c25.5,36,62.7,81.8,68.9,112.3c-32.6-23.5-51.8-54.9-66.6-88.9&#10;&#9;&#9;c6.4,27.1,8.5,55.1,2.3,84.9c-14.9-24.7-19.7-75.8-24.7-119.3H1321.9z M1298.7,0c1.6,26.2-0.9,52.7-10.9,79.6&#10;&#9;&#9;c-7.6-18.4-8.5-48.4-7.8-79.6H1298.7z M1270.8,0c-3.3,11-7.7,21.9-13.4,32.7c-2.3-8.9-3-20.1-2.5-32.7H1270.8z M1151.1,0h-8.7&#10;&#9;&#9;c1.9,4.6,4.1,9.1,6.4,13.6C1149.9,9.6,1150.7,5,1151.1,0L1151.1,0z M1122.5,0h-18.9c0.6,17.4,3.4,34.9,9.5,52.8&#10;&#9;&#9;C1118.9,39.9,1121.5,21,1122.5,0L1122.5,0z M1097.1,0h-16c-4.2,29.2-3.8,58.8,6.5,89.3C1096.6,69.3,1097.4,34.3,1097.1,0L1097.1,0z&#10;&#9;&#9; M1074.9,0h-21.4c-8.5,18.2-14.7,35.2-15.8,48.7C1053.5,34,1065.5,17.6,1074.9,0L1074.9,0z"/>
</g>
<g>
	<path fill-rule="evenodd" clip-rule="evenodd" fill="#BF946D" d="M800.2,839.6c134.2,0,242.9,12.4,242.9,27.6&#10;&#9;&#9;s-108.7,27.7-242.9,27.7c-134.2,0-242.9-12.4-242.9-27.7S666.1,839.6,800.2,839.6L800.2,839.6z"/>
	<g>
		<path d="M 736.5999755859375 501.70001220703125 L 753.2000122070312 506.20001220703125 L 653.4000244140625 878.7000122070312 L 635.5999755859375 878.7000122070312 Z" fill-rule="evenodd" clip-rule="evenodd" fill="#78A2C4"/>
		<path d="M 709.9000244140625 601.4000244140625 L 726.5999755859375 605.5 L 653.4000244140625 878.7000122070312 L 635.5999755859375 878.7000122070312 Z" fill-rule="evenodd" clip-rule="evenodd" fill="#A6C5DE"/>
		<path fill-rule="evenodd" clip-rule="evenodd" fill="#CE618F" d="M467.4,479.1c71.5-59.4,194.5-87.5,300.1-59.2&#10;&#9;&#9;&#9;c105.6,28.3,198,114.2,230.2,201.3L467.4,479.1z"/>
		<path fill-rule="evenodd" clip-rule="evenodd" fill="#FFFFFF" d="M520.3,493.3c61.1-62.1,162.6-96,247.2-73.4&#10;&#9;&#9;&#9;c84.5,22.6,155.4,102.8,177.3,187.1L520.3,493.3z"/>
		<path fill-rule="evenodd" clip-rule="evenodd" fill="#CE618F" d="M592.3,512.6c47.1-65.9,119.3-107.7,175.1-92.7&#10;&#9;&#9;&#9;c55.8,15,97.5,87.2,105.3,167.8L592.3,512.6z"/>
		<path fill-rule="evenodd" clip-rule="evenodd" fill="#FFFFFF" d="M681,536.3c29.7-70.6,65.9-121.9,86.5-116.4&#10;&#9;&#9;&#9;c20.5,5.5,26.2,68.1,16.7,144.1L681,536.3z"/>
		<path fill-rule="evenodd" clip-rule="evenodd" fill="#A6C5DE" d="M681,536.3c5.7,19,23.3,37.2,43.8,42.7&#10;&#9;&#9;&#9;c20.5,5.5,44.9-1.5,59.3-15L681,536.3z"/>
		<path fill-rule="evenodd" clip-rule="evenodd" fill="#A14270" d="M592.3,512.6c4.3,18.6,18.9,36,36.6,40.7c17.6,4.7,39-3.1,52-17&#10;&#9;&#9;&#9;L592.3,512.6z"/>
		<path fill-rule="evenodd" clip-rule="evenodd" fill="#A6C5DE" d="M520.3,493.3c2.7,18.1,14,34.7,28.3,38.5&#10;&#9;&#9;&#9;c14.4,3.8,32.4-4.9,43.8-19.2L520.3,493.3z"/>
		<path fill-rule="evenodd" clip-rule="evenodd" fill="#A14270" d="M467.4,479.1c0.8,17.6,8.2,33.1,18.7,36&#10;&#9;&#9;&#9;c10.5,2.8,24.7-6.9,34.2-21.8L467.4,479.1z"/>
		<path fill-rule="evenodd" clip-rule="evenodd" fill="#A14270" d="M944.8,607c0.8,17.6,8.2,33.1,18.7,36&#10;&#9;&#9;&#9;c10.5,2.8,24.6-6.9,34.2-21.8L944.8,607z"/>
		<path fill-rule="evenodd" clip-rule="evenodd" fill="#A14270" d="M784.1,564c4.3,18.5,18.9,36,36.6,40.7c17.6,4.7,39-3.1,52-17&#10;&#9;&#9;&#9;L784.1,564z"/>
		<path fill-rule="evenodd" clip-rule="evenodd" fill="#A6C5DE" d="M872.7,587.7c2.7,18.1,13.9,34.7,28.3,38.5&#10;&#9;&#9;&#9;c14.3,3.8,32.4-4.9,43.8-19.2L872.7,587.7z"/>
	</g>
	<g>
		<path d="M 736.5999755859375 818.4000244140625 L 753.2999877929688 914.7000122070312 L 1163.5 914.7000122070312 L 976.4000244140625 818.4000244140625 Z" fill-rule="evenodd" clip-rule="evenodd" fill="#FFFFFF"/>
		<path fill-rule="evenodd" clip-rule="evenodd" fill="#A6C5DE" d="M740.4,840.5l9.3,53.8c16.3,0.4,33.2,0.6,50.5,0.6&#10;&#9;&#9;&#9;c134.2,0,242.9-12.4,242.9-27.7s-108.7-27.6-242.9-27.6C779.6,839.6,759.6,839.9,740.4,840.5L740.4,840.5z"/>
		<path fill-rule="evenodd" clip-rule="evenodd" fill="#CE618F" d="M738.5,829.3h259.2l-13-6.7H737.3L738.5,829.3z M739.6,835.7&#10;&#9;&#9;&#9;l1.2,6.7h282.3l-13-6.7H739.6z M741.9,848.8l1.2,6.7h305.6l-13-6.7H741.9z M744.1,861.9l1.2,6.7H1074l-13-6.7H744.1z M746.4,875.1&#10;&#9;&#9;&#9;l1.2,6.7h352l-13-6.7H746.4z M748.7,888.2l1.2,6.7H1125l-13-6.7H748.7z M751,901.3l1.2,6.7h398.3l-13-6.7H751z"/>
		<path fill-rule="evenodd" clip-rule="evenodd" fill="#A14270" d="M800.2,839.6c38.4,0,74.8,1,107,2.8H740.8l-0.4-2&#10;&#9;&#9;&#9;C759.6,839.9,779.6,839.6,800.2,839.6L800.2,839.6z M981.4,848.8c15.7,2,28.8,4.3,39,6.7H743l-1.2-6.7H981.4z M1038.7,861.9&#10;&#9;&#9;&#9;c2.9,1.7,4.4,3.5,4.4,5.3c0,0.5-0.1,0.9-0.3,1.4H745.3l-1.2-6.7H1038.7z M1033.3,875.1c-6.2,2.4-15.1,4.6-26.4,6.7H747.6l-1.2-6.7&#10;&#9;&#9;&#9;H1033.3z M958.9,888.2c-42.6,4.2-98,6.7-158.7,6.7c-17.3,0-34.2-0.2-50.5-0.6l-1.1-6.1H958.9z"/>
	</g>
</g>
<g>
	<path fill-rule="evenodd" clip-rule="evenodd" fill="#BF946D" d="M583.3,896c19.8,0,35.8,1.8,35.8,4.1c0,2.2-16,4.1-35.8,4.1&#10;&#9;&#9;s-35.9-1.8-35.9-4.1C547.4,897.9,563.5,896,583.3,896L583.3,896z"/>
	<g>
		<path fill-rule="evenodd" clip-rule="evenodd" fill="#7FB04D" d="M569,844.3c12.3-3.9,25.5-0.3,32.5,4.2&#10;&#9;&#9;&#9;c5.7,5.8,9.2,13.6,9.1,22.2c-0.2,17.5-15.4,31.4-33.7,31.1c-18.3-0.3-33-14.7-32.7-32.2C547.7,861.8,554.9,848.9,569,844.3&#10;&#9;&#9;&#9;L569,844.3z"/>
		<path fill-rule="evenodd" clip-rule="evenodd" fill="#99CC66" d="M569,844.3c4.2-1.3,8.5-1.8,12.7-1.6c4.8,9.2,9.6,25.5,9.5,32.4&#10;&#9;&#9;&#9;c-0.1,10.2-2.8,20-8.5,26.4c-1.9,0.3-3.8,0.4-5.8,0.3c-18.3-0.3-33-14.7-32.7-32.2C547.7,861.8,554.9,848.9,569,844.3L569,844.3z"/>
		<path fill-rule="evenodd" clip-rule="evenodd" fill="#FFFFCC" d="M569,844.3c12.3-3.9,25.5-0.3,32.5,4.2&#10;&#9;&#9;&#9;c-11.4,14.6-38,25.9-57.4,21.2C547.7,861.8,554.9,848.9,569,844.3L569,844.3z"/>
		<path fill-rule="evenodd" clip-rule="evenodd" fill="#78A2C4" d="M569.1,846.6c2.5-0.8,4.8-0.9,5-0.1c0.2,0.7-1.6,2-4.1,2.8&#10;&#9;&#9;&#9;c-2.6,0.8-4.8,0.9-5,0.1S566.5,847.4,569.1,846.6L569.1,846.6z"/>
		<path d="M 567.2999877929688 849.9000244140625 L 555.9000244140625 832.9000244140625 L 547.5999755859375 832 L 547.7000122070312 830.0999755859375 L 557.2000122070312 830.9000244140625 L 569.7999877929688 849.2999877929688 Z" fill-rule="evenodd" clip-rule="evenodd" fill="#FFFFFF"/>
	</g>
</g>
</svg>