<?xml version="1.0" encoding="utf-8"?>
<svg id="master-artboard" viewBox="0 0 1400 980" version="1.1" xmlns="http://www.w3.org/2000/svg" x="0px" y="0px" width="1400px" height="980px" enable-background="new 0 0 1400 980"><rect id="ee-background" x="0" y="0" width="1400" height="980" style="fill: white; fill-opacity: 0; pointer-events: none;"/>

<path id="XMLID_397_" fill="#000208" d="M35.4,236.1c-1.1,7.5-1.2,15-1.4,22.6c-0.7,34.8-6.2,70.6-2.1,105.2&#10;&#9;&#9;c2.7,22.7,4.8,45.5,6.1,68.3c1.3,22.3,2.1,44.6,0.3,66.9c-1.4,17.2-4.3,34.2-6.1,51.3c-2.8,26.4-3,53-1.8,79.5&#10;&#9;&#9;c1.1,23.9,3.4,47.7,6.9,71.4c2.1-2.3,2.3-5.7,2.4-8.8c0.9-40.5,1.7-81,2.6-121.5l0-0.1c0-1.5,2.2-1.6,2.4-0.1&#10;&#9;&#9;c3.9,34.1,8.5,67.7,8.9,102.1c0.4,33,0.8,65.9,1.1,98.9c18.2-25.4,5.1-62.5,16.5-91.1c0.6-1.5,2.8-1,2.8,0.6l-0.3,96.7&#10;&#9;&#9;c0,6.6,0.5,14.2,6,17.8c6.9-3.7,7.1-13.3,6.9-21.1c-0.2-14.9,1.9-29.8,6.2-44c0.2-0.7,1.2-0.7,1.4,0c3.1,12.3,3.9,25.2,2.6,37.8&#10;&#9;&#9;c-0.5,4.6-1.3,9.3-0.2,13.9c1,4.5,4.5,8.9,9.1,9.3c-0.2-37.8,3.2-75.6,10.2-112.7c0.5-2.7,4.2-3.1,5.3-0.6c3,6.8,1.9,15.7,1.2,23.5&#10;&#9;&#9;c-1.9,20,0.4,40.1,2.8,60c6.4,51.8,13.9,103.4,22.3,154.9c1.4,8.4,2.9,17.1,9.1,23.6c3.1,3.2,7.2,5.2,11.6,5.2&#10;&#9;&#9;c11.4-0.1,16.6-13,16.9-23.8c0.3-9.5-1.4-19.7,2.4-28.3c0.3-0.7,1.3-0.9,1.8-0.2c7.3,9.5,6.5,23.9,8.9,35.9&#10;&#9;&#9;c1.7,8.9,14.5,9,16.4,0.1c1.5-6.9,2.2-14.1,2.8-21.1c3.8-44.4,6.1-88.8,7.1-133.4c0.5-22.3,0.6-45.1,6.4-66.5&#10;&#9;&#9;c0.6-2.1,3.6-1.9,3.9,0.2c3.9,29.8,0.2,60.3,0.4,90.5c0.2,36,5.9,71.7,11.6,107.3c1.8,11.5,3.7,23.2,9.2,33.6&#10;&#9;&#9;c0.9,1.8,2.5,3.1,4.5,3.5c5.1,0.9,7.3-5.4,7.9-10.2l7.4-60.9c0.1-0.8,1.3-0.8,1.4,0l9.9,66.8c0.6,4.2,1.6,8.9,6.6,10&#10;&#9;&#9;c1.2,0.2,2.4,0.2,3.5,0c13.1-2.2,17.1-18.3,18.3-31.3c5.3-55.9,8.3-112.1,8.8-168.3c0.1-5,0.8-11,3.5-14.8c1.7-2.4,5.4-1.4,5.9,1.4&#10;&#9;&#9;c7.4,49.2,0.5,99.8,7.2,149.2c0.4,2.7,2.9,4.7,5.6,4.2c3.1-0.6,3.5-4.4,3.4-7.3c-0.5-18.8-1.1-37.7-1.6-56.5&#10;&#9;&#9;c-0.1-2.6-0.1-5.4,1.9-7.3c1.1-1.1,2.9-1.5,4.3-0.6c1.4,0.8,1.4,2.3,1.5,3.6c0.8,33.9,1.7,67.8,2.5,101.7&#10;&#9;&#9;c0.2,8.8,0.8,18.5,4.8,26.1c1.7,3.3,6.7,2.3,7-1.4c5.5-60.1,7.5-120.5,6-180.9c-0.1-5.7-0.1-11.9,2.1-16.9c1-2.3,4.3-2,4.9,0.4&#10;&#9;&#9;c4,16.5,4.7,33.7,5.2,50.8c0.9,33.6,1,67.2,0.3,100.8c-0.2,9.8-0.5,19.8,1.9,29.4c0.9,3.5,2.2,6.9,3.9,10.1&#10;&#9;&#9;c4,7.5,15.2,6.1,17.1-2.2c5.8-24.1,7-49.3,3.5-73.9c-0.6-4.1-0.6-9.4,1.4-12.7c1.3-2.1,4.6-1.3,4.9,1.1l12,97.6&#10;&#9;&#9;c0.4,3.3,2.8,6,6.1,6.5c5.5,0.8,7.6-5.1,8.5-9.9l7-37.3c0.4-2.2,3.5-2.5,4.3-0.4c4.6,12.2,1,27.2-0.1,40.2c-0.3,3.5,0.3,7,2,10.1&#10;&#9;&#9;c5.2,9.7,15.5,6.7,20.3,0.5c3.4-4.4,4.8-10,6-15.4l5.1-21.7c0.5-2.3,3.8-2.2,4.2,0.2c0.9,5.8,0.8,11.8,0.3,17.5&#10;&#9;&#9;c-0.4,4.9-1,10.8,3,13.8c1.8,1.3,4.1,1.7,6.3,2c23.8,3.1,47.8,6.2,71.6,3.8c11-1.1,22.2-3.3,33-0.8c4.5,1.1,10,2.7,13.3-0.5&#10;&#9;&#9;c1.3-1.3,1.9-3,2.5-4.8c2.8-8.7,5.1-24.2,6.2-32.5c0.4-3.3,5.3-3.2,5.6,0.1c0.5,5.7-1.5,14.4-1.7,19.7c-0.3,5.2-1.1,10.5,0,15.5&#10;&#9;&#9;c1.5,6.7,7.3,13.2,15.1,10.1c1.8-0.7,3.4-1.9,4.7-3.3c4-4.6,5-10.6,5.8-16.4c1.4-9.4,2.8-18.7,4.2-28.1c9.7-9.2-0.2,38.2,9.2,48.9&#10;&#9;&#9;c0.9,1,2.2,1.7,3.6,1.5c1.9-0.2,2.5-1.7,3-3.1c8.3-21.5,9.5-44.9,10.7-67.9c0.5-10.5,1.1-20.9,1.6-31.4c8.2-21.3,1.4,41.3,8.5,60.6&#10;&#9;&#9;c1.1,2.9,2.4,5.7,3,8.7c0.4,2.1,0.4,4.3,0.9,6.4c1.3,4.7,5.9,8.2,10.7,8.2c4.8,0,11.4-2.3,11.2-7.1c-1-18.5-0.6-37-0.1-55.5&#10;&#9;&#9;c0.6-25.7,1.3-51.4,1.9-77.1c0.4-17.3,0.8-34.5,3-51.7c0.6-4.4,2.4-9.9,6.9-10.1c6.9,7,0.3,48.5,0.4,72.7c0,0.4,0,0.9,0,1.3&#10;&#9;&#9;c0.1,5.8,8.8,5.9,9.1,0c0.4-10.1,0.9-19.7,3.3-23.9c2.8-0.8,4.5,3.1,4.7,6l2.7,29.4c0.2,1.9,2.8,2.1,3.3,0.3l4.9-17.5&#10;&#9;&#9;c0.5-1.9,3.2-1.8,3.6,0.2c2,10.8-1.2,22.5-2.6,33.7c-1.5,11.7-0.8,23.6-0.2,35.4c1,18.8,2,37.7,2.9,56.5c0.2,4.5,0.5,9.1,3.2,12.9&#10;&#9;&#9;c1.5,2.1,3.8,3.7,6.4,4c7,0.7,10.7-7.7,11.8-14.5c1.9-11.9,2.2-24,2.4-36.1l1.3-75.4c0-1.2,1.8-1.4,2.1-0.2&#10;&#9;&#9;c4.2,18.6,6.5,37.7,6.3,56.8c-0.1,10-0.9,20.3,2.5,29.7c2.4,6.6,6.9,12.7,7.3,19.7c0.2,3.6-0.7,7.2-0.7,10.8c0,4.6,2.1,9.7,7.6,9.9&#10;&#9;&#9;c4,0.1,8.2-3.2,9.2-7.1c6.7-25.4,8.5-52.1,5.4-78.2c-0.1-0.7-0.1-1.4-0.2-2.1c-0.2-3.4,4.8-3.8,5.2-0.5c1.1,9.5,0.5,19.3,0.5,28.9&#10;&#9;&#9;c0,17,1.9,34.1,5.8,50.7c0.4,1.6,0.9,3.4,2.2,4.3c1.2,0.9,2.8,1,4.3,1c4.5,0.1,9,0.1,13.4,0.2c2.8,0,5.8,0,8.1-1.7&#10;&#9;&#9;c1.9-1.4,2.8-3.8,3.6-6.1c2.7-8.4,4-17.2,3.8-26.1c0-1.3,0.2-2.5,0.8-3.6l0,0c1.2-2.3,4.7-1.5,4.7,1.1l-0.2,23.3c0,2.3,0,4.7,1,6.7&#10;&#9;&#9;c1.6,3.3,5.4,5.1,9,5.4c3.7,0.3,7.3-0.5,10.9-1c20.6-2.7,41.4,6,62,3.7c3-0.3,6-1,8.5-2.6c5.5-3.6,6.8-11,7.6-17.6&#10;&#9;&#9;c4-34,6.6-68.3,12.7-102c2.7-14.8,6.1-29.9,5.3-44.7c-0.1-2.7,3.7-3.5,4.7-0.9c1.8,5,2.3,10.7,2.6,16c2,37.9,5.2,75.7,9.5,113.4&#10;&#9;&#9;l0,0.1c0.6,4.8,7.5,4.8,8,0c0.7-6.4,0-13.1-0.6-19.5c-4.6-47.9-3.1-96.4,4.5-143.9c0.6-3.5,5.8-3.2,5.9,0.4&#10;&#9;&#9;c0.3,8.9-0.4,17.9-0.6,26.8c-0.7,32.6,4.7,64.9,10.4,97c2.7,15.4,5.5,30.8,8.3,46.2c0.8,4.5,1.7,9.2,3.5,13.4&#10;&#9;&#9;c0.8,2,3.7,1.4,3.8-0.8c0.1-18.9,0.7-37.7,2.1-56.6c1.2-17.6,3-35.4,1.4-53c-1.2-12-3.9-23.8-4.5-35.9c-0.7-15.2,2.2-30.2,3.7-45.4&#10;&#9;&#9;c2.2-23.7,0.9-47.5,0.7-71.3c-0.3-33.7,1.6-67.4,3.5-101.1l0-0.1c0.2-3,4.5-3.2,5-0.2c5.2,33.6,8.9,67.4,11,101.3&#10;&#9;&#9;c2.4,39.4,2.6,79,2.4,118.5c0,4.2,0.2,8.9,3.3,11.7c3.1-18,4.6-36.3,4.6-54.6c0.7-1.8,3.1,0.7,3.2,2.6c4,65.8,5.7,131.6,4.5,197.5&#10;&#9;&#9;c0,0.7,1,0.8,1.1,0.1l3.4-39.9l0-0.1c0.2-2.3,3.7-2.2,3.7,0.2c0,8.8,0,17.6,0.1,26.4c0.1,6.6,0.2,13.5,2.6,19.5&#10;&#9;&#9;c0.7,1.8,3.4,1.6,3.8-0.2c0.3-1.1,0.4-2.3,0.4-3.4c0.9-17.8,2.8-35.5,5.7-53.1c0.5-3.3,5.4-2.9,5.4,0.4l0,0.1&#10;&#9;&#9;c0.3,16.1,0.5,32.1,0.8,48.2c0.1,4.9,0.2,9.9,0.6,14.8c0.2,2.7,4.1,3.1,4.9,0.5c0.4-1.5,0.7-3.1,0.7-4.7c0.1-4.1-0.6-8.3-0.2-12.4&#10;&#9;&#9;c0.5-5.5,3-10.6,4.2-16c1.6-7.1,0.8-14.5,1-21.8c0.2-8.4,1.7-16.8,4.5-24.8l0,0c0.5-1.5,2.8-1.1,2.7,0.5c-0.9,22.5-1.7,45-2.6,67.5&#10;&#9;&#9;c-0.3,7.1,0,15.6,6.7,19.1c1.8,0.9,4,0.9,5.4-0.5c1.5-1.4,1.2-3.4,0.9-5.3c-4.3-27.5,8.1-55,8.2-82.9l0-0.1c0-2.5,3.7-2.6,3.9-0.1&#10;&#9;&#9;c1.4,20.4,1.2,40.9-0.6,61.2c-0.2,2.7-0.5,5.5,0.9,8c0.8,1.4,2.1,2.5,3.6,2.7c4,0.6,6.3-4.3,6.6-8.2c0.3-3.8,0.3-9.1,3.5-11.3&#10;&#9;&#9;c0.1-5.8,0.3-11.7,0.4-17.5c0.2-6.6,0.3-13.2,1.8-19.6c0.4-1.6,2.7-1.4,2.8,0.2l0,0c0.5,7.2,0.9,14.3,1.4,21.5&#10;&#9;&#9;c0.2,3.1,0.4,6.3,1.9,9c2.2,4,7.9,6.5,11.5,0.8c0.9-1.5,1.4-3.2,1.5-4.9l2.7-31.2c0-0.4,0.1-0.9,0.3-1.2c0.6-0.9,2-0.7,2.7,0.1&#10;&#9;&#9;c0.7,0.8,0.8,1.9,1,2.9c1.2,10.8,2.5,21.7,3.7,32.5c0.1,1.1,0.2,2.2,0.8,3.1c0.5,0.9,1.4,1.6,2.2,2.2c2.5,1.9,5.2,3.8,8.3,4.5&#10;&#9;&#9;c4.4,0.9,8.7-2.2,9.2-6.7c0.9-7.9,1.1-15.8,0.6-23.8c-0.3-4.5-0.6-9.4,1.4-13.3c0.3-0.7,1.3-0.6,1.7,0c5.8,10.2,0.8,24.3,6,34.9&#10;&#9;&#9;c0.5,1,1.7,1.3,2.6,0.8c3.2-1.7,5.3-5.2,6.3-8.7c1.1-4.2,0.9-8.6,1.1-12.9c0.3-8.9,2.1-17.7,4.3-26.4c6.1-24.5,15-48.5,18.3-73.5&#10;&#9;&#9;l0-0.1c0.3-2,3.2-2.1,3.6-0.1c2.3,13.5-1.4,28-3.1,42c-1.5,12.7-1.3,25.6-1,38.5c0.2,10.2,0.4,20.4,0.6,30.6c0,2.1,0.1,4.3,1.1,6.2&#10;&#9;&#9;c1,1.9,3.2,3.3,5.2,2.6c3.5-7,2.3-15.4,2.4-23.3c0.3-10.3,3.2-20.4,4.4-30.7c3.4-27,1.1-53.7,1.3-80.8c0.1-16.3,0.2-32.6,0.3-48.9&#10;&#9;&#9;l0-0.1c0-2.2,3.2-2.3,3.4-0.1c0.5,5.9,0.7,11.8,0.6,17.8c-0.1,5.2-0.4,10.8,2.5,15.2c1.8,2.8,5.8,4.9,8.4,1.6&#10;&#9;&#9;c0.8-1,1.2-2.2,1.3-3.4c2.2-23.4,3.6-46.8,4.2-70.3c0.1-3.1,0.1-6.2,0.7-9.3c0.3-1.5,2.5-1.5,2.7,0c1.8,10.9,0.2,22.5,2.8,33.4&#10;&#9;&#9;c0.7-10.5,1.5-21.1,2.2-31.6c0.6-8.6,1.2-17.3,3.2-25.8c0.3-1.4,2.4-1.3,2.6,0.2l0,0c0.5,6,1.1,12.1,1.2,18.1&#10;&#9;&#9;c0.5,22.1-4.2,44.3-1.3,66.3c0.7,5.4,1.9,10.7,3.6,15.9c3.9-10.3,1.5-21.9,2.4-32.9c0.8-11,5-21.6,5.6-32.6c0.4-7-0.7-14-0.8-21.1&#10;&#9;&#9;s0.3-14.4,3.9-20.4c-0.4-9.9-0.8-20,1.3-29.7c1-4.6,2.5-9.1,3.5-13.7c1.2-5.5,1.8-11.1,1.8-16.8c0.2-9.3-3.2-18.3-2.6-27.6&#10;&#9;&#9;c0.5-7.7,0.9-15.7-1.3-23.1c-1.4-4.6-3.8-8.8-5.2-13.4c-1.7-5.5-1.8-11.3-2-17c-0.9-27.4,0.9-54.3,0.9-81.7c0-18.1,0-36.2-1.6-54.2&#10;&#9;&#9;c-0.5-5.5-1.1-11-0.7-16.5c0.4-4.9,1.6-9.7,2.1-14.6c0.5-5,0.2-10.1,1-15.1c1-5.5,3.4-10.6,5.4-15.8c1.8-4.8,3.8-9.3,4.9-14.4&#10;&#9;&#9;c-4.1-12,0-25.1-0.8-37.7c-0.7-10.5-4.9-21.2-2.3-31.4c1.3-5.1,3.8-10,4.1-15.2c0.2-3.9-0.9-7.8-1.7-11.6&#10;&#9;&#9;c-5.2-23.6-0.3-48.3-3-72.4c-0.4-3.6-1.2-7.5-4.1-9.6c-2.6,4.3-4.2,9.3-4.5,14.4c-0.3,5.1,0.5,10.3-0.5,15.3&#10;&#9;&#9;c-0.9,4.4-3.4,8.5-3.8,13c-0.3,3.1,0,6.9-1.9,9.1c-0.4,0.5-1.2,0.2-1.3-0.4c-1.7-13.9-3.3-27.8-3.3-41.7c0-16.5,2.2-33.8-4.5-49&#10;&#9;&#9;c-0.7-1.6-1.8-3.4-3.5-3.1c-0.1,4.3-0.6,8.6-1.7,12.7c-1.2,4.9-3.2,9.7-3.9,14.7c-0.7,5-0.2,10-0.6,15c-0.5,5.7-2.2,11.2-2.3,16.9&#10;&#9;&#9;c-0.1,3.2,0.3,6.4-0.4,9.5c-0.8,3.3-2.9,6.5-2.4,9.9c0.1,1,0.4,2.3-0.3,2.9c-0.6,0.5-1.5,0.2-2-0.4c-0.6-0.7-0.6-1.7-0.6-2.6&#10;&#9;&#9;c0.4-22.7,1.1-45.4,1.9-68.1c0.3-8.4,0.7-16.9-0.6-25.2c-0.6-3.6-1.4-7.1-2.3-10.7c-0.4-1.5-0.9-3.1-2.6-3.5&#10;&#9;&#9;c-0.9-0.2-1.8,0.1-2.5,0.7c-0.9,0.8-1.4,1.8-1.8,2.9c-2,6.1-3.5,12.4-4.1,18.8c-1.5,16-2.3,32.1-2.3,48.2c0,2.6-0.1,5.5-1.5,7.6&#10;&#9;&#9;c-0.3,0.5-1.1,0.2-1.1-0.4c-0.1-11.6-0.8-23.1-2.1-34.6c-0.2-1.6-0.5-3.4-1.8-4.4c-1.9,6-1.3,12.4-1.2,18.7&#10;&#9;&#9;c0.3,13.2-1.6,26.4-5.4,39c-0.3,0.8-1.4,0.8-1.6,0c-0.5-2.1-0.7-4.4-0.9-6.6c-2.3-30.5-3.2-61.2-2.6-91.8&#10;&#9;&#9;c-1.2,6.3-2.4,12.5-3.5,18.8c-1.3,6.9-2.6,13.9-2,20.9c0,0,0,0,0,0.1c0.2,1.9-2.7,2.2-3,0.3c-1.9-11.5-3.1-23.1-3.3-34.7&#10;&#9;&#9;c-0.1-4.8-0.1-9.8-2.4-13.9c-1.9,2-1.8,5.2-1.7,8c0.1,2.8-0.2,6-2.5,7.6c-3.8-4-0.6-12.1-5.2-15.4c-3.2,2.9-1.9,8-2.1,12.4&#10;&#9;&#9;c-0.1,1.2-0.6,2.7-1.9,2.4c-0.8-0.2-1.3-0.9-1.2-1.7c0.2-5.3,1.3-10.6,1.4-16c0.1-4.7-0.5-9.5-1.2-14.2c-0.6-4.6-1.2-9.2-1.9-13.8&#10;&#9;&#9;c-3,2.4-3.2,6.9-3.4,10.8c-0.4,5.8-2.4,11.5-2.8,17.3c-0.6,8.6-2.4-21.9-4.3-33.8c-0.3-1.7-1-3.8-2.7-3.9&#10;&#9;&#9;c-0.5,12-2.6,24.4-3.8,36.4c-2.8,26.4-5.7,52.8-4.4,79.3l0,0.1c0.1,1.9-2.8,2.1-2.9,0.2c-2.6-25.6-2.8-51.3-0.8-76.9&#10;&#9;&#9;c0.4-5.5,1-11,0.4-16.5c-0.8-6.8-3.3-13.3-3.1-20.1c0-0.7,0.1-1.4-0.2-2s-1-1.1-1.6-0.8c-0.3,0.2-0.5,0.5-0.7,0.8&#10;&#9;&#9;c-2.6,4.7-2,10.5-2.4,15.9c-0.4,5.5-2.1,10.9-2.6,16.5c-0.7,7.3,0.5,14.7-0.3,22c-0.1,0.7-0.2,1.4-0.7,1.8&#10;&#9;&#9;c-0.7,0.5-1.9,0.1-2.3-0.7c-0.5-0.8-0.5-1.7-0.5-2.6l-1-46.1c0-0.8-0.7-1.5-1.5-1.4c-0.9,0.2-1,1.3-1,2.2c1,11,0.9,22.3-3.5,32.4&#10;&#9;&#9;c-0.3,0.7-1,1.2-1.7,1.1c-1.3-0.1-1.5-1.4-1.6-2.4c-0.8-9.3-1.5-18.6-2.2-27.8c-0.1-0.8-0.1-1.6-0.6-2.3s-1.5-1-2.1-0.5&#10;&#9;&#9;c-0.4,0.3-0.5,0.9-0.6,1.4c-1.2,9.1-1.7,18.2-1.7,27.3c0,2.4,0,5-1.3,7.1c-1.1-0.7-1.9-2.3-1.3-3.4c-1-4.5-1.7-9.1-2.3-13.6&#10;&#9;&#9;c-0.2-1.7-2.7-1.5-2.7,0.2c0,3.7,0.1,7.4-0.1,11.1c-0.6,9.5-3.3,18.8-2.9,28.3c0.1,2.8,0.4,6-0.8,8.4c-0.4,0.9-1.7,0.7-1.8-0.2&#10;&#9;&#9;c-3.4-19.7-1.1-39.9-2.6-59.8c-0.2-2.4-0.5-4.9-1.7-7.1c-0.6-1.1-1.7-2.2-3-1.5c-0.7,0.4-1.1,1.1-1.2,1.9c-0.7,6.9-1,13.9-0.7,20.8&#10;&#9;&#9;c0.2,5.9,0.6,12.4-2.4,17.3c-0.4,0.6-1.3,0.4-1.3-0.3l-1.2-11.8c-2.2,3.2-2.4,7.4-2.4,11.3c0,11,0.7,22.1-1.2,32.9&#10;&#9;&#9;c-0.8,4.5-2,9.1-1.8,13.7c0.1,1.1,0.1,2.4-0.1,3.6c-0.2,1.2-2,1.2-2.1-0.1c-0.6-9.9-1.2-19.8-1.5-29.7c-2.7,9.4-3.6,19.4-2.8,29.2&#10;&#9;&#9;c0.4,4.1,0.3,10.7-0.3,14.8c-0.2,1.7-0.4,3.6-0.7,5.2c-0.2,1-1.6,0.9-1.7-0.1c-1.2-9.6-2-15.5-3.6-25.8c-1.2-7.7-3.5-15.1-4.3-22.8&#10;&#9;&#9;c-0.8-6.8-0.4-13.6-1.1-20.4c-1.1-10.7-4.7-21-4.9-31.7c-3.9,18.1-7.8,36.5-5.7,54.9c0.1,0.8,0,1.6-0.3,2.4l0,0&#10;&#9;&#9;c-0.5,1.5-2.8,1.2-2.9-0.4c-1-11.5-1.5-23-1.5-34.6c0-3.5,0.1-7-0.4-10.5c-0.5-4.1-1.7-8.1-3-12.1c-3.2-10.5-6.3-20.6-9.5-31.1&#10;&#9;&#9;H1400v181.1c0,0,0,25.5-9.9,55.5c-9.9,30-1.5,43.4-4.5,96s14.4,73.5,14.4,96c0,22.5-11.4,64.5-14.4,73.5s-7.5,67.5,0,100.5&#10;&#9;&#9;s4.5,28.5,4.5,52.5c0,24,9.9,44.9,9.9,44.9v280H0V0h861l-3.5,2c-6.1,3.6-2.4,14.8-8.2,18.9c-3.7-2.3,0.5-9.4-3.4-12&#10;&#9;&#9;c-1.4-1-3.4-0.7-4.7,0.4c-2.7,2.3-2.8,5.7-2.7,8.9c0.1,10.5,0.1,20.9,0.2,31.4c0,5,0,10.2-1.7,14.8c-0.4,1.1-2,1-2.3-0.2&#10;&#9;&#9;c-3.3-15.7-5.3-31.6-6-47.6c-0.1-2.8-0.4-6-3.2-7.2c-1.7-0.7-3.7-0.2-5.2,1c-2.6,2.2-3.1,5.5-3.6,8.7l-2.4,15.1&#10;&#9;&#9;c-0.1,0.7-1.1,0.9-1.4,0.2c-3.8-6.9,0.5-16.9-2.8-24.3c-0.3-0.7-1.3-0.8-1.8-0.1c-7.8,11.8-8.1,27-8.6,41.3&#10;&#9;&#9;c-0.1,1.8-0.8,4.2-2.7,3.9c-1-0.2-1.7-1.2-1.8-2.3c-0.3-10.9-0.5-21.8-0.8-32.7c-0.1-2.8-0.6-6.3-3.8-6.7c-1.3-0.1-2.5,0.4-3.5,1.2&#10;&#9;&#9;c-10.4,9.4-4.9,25.7-9,38.6c-0.1,0.4-0.7,0.3-0.7-0.1l-3.3-36c-0.1-1.5-0.5-3.3-2.2-3.3c-0.9,0-1.7,0.5-2.1,1.2&#10;&#9;&#9;c-3.2,5.6-3,12.2-2.9,18.6c0.3,21.4-0.8,42.8-3.5,64.1l0,0c-0.2,1.7-2.7,1.7-2.9-0.1c-2.1-25-8.5-50.4-5.3-75.2&#10;&#9;&#9;c0.5-3.5,0.6-8.1-3.2-9.3c-2.7-0.8-5.5,0.7-6.7,3.3c-7.4,16.6-11.3,34.7-11.5,52.9c0,0.5-0.7,0.7-0.9,0.2&#10;&#9;&#9;c-4.6-9.3-0.3-22.2-6.2-30.5c-0.4-0.6-1.4-0.5-1.7,0.2c-5,12.7-4.3,27-3.9,40.7c0.5,21.7-0.2,43.5-2.1,65.1&#10;&#9;&#9;c-0.1,0.8-1.2,0.9-1.5,0.2c-3.3-9.3-3.9-19.4-4.3-29.3c-0.4-8.8-0.9-17.7-1.3-26.5c-0.9-17.2-1.7-34.5,0.3-51.6&#10;&#9;&#9;c0.4-3.5,0.9-7.1,0.6-10.6c-0.1-1.5-2.2-1.7-2.7-0.3c-3.5,9.3-5.1,19.4-4.6,29.4c0.1,2.4,0.2,5-0.2,7.4c-0.5,2.8-4.6,3-5.1,0.1&#10;&#9;&#9;c-0.7-4-1-8.1-1.3-12.1c-0.9-10.6-2.5-21.1-4.2-31.6c-0.8-4.8-1.9-10.2-6-12.9c-1.8-1.2-3.9-1.7-6-2.1c-10.1-2.2-21.8-4-32.1-1.8&#10;&#9;&#9;c-5.6,1.2-10.1,5.2-12,10.6c-4.6,13.1-7,27.1-7.1,41c0,9.8,1.1,20-1.2,29.5c-0.3,1.3-2.1,1.2-2.3-0.1c-2.6-16.3-3.6-32.9-3.2-49.4&#10;&#9;&#9;c0-1.4-1.9-1.6-2.2-0.3c-1.2,5.2-1.5,10.7-1.8,16c-1.2,21.4-2.4,42.8-3.6,64.3c-0.1,1.9-2.8,2.4-3.5,0.6c-1.7-4-2.2-8.6-2.4-13&#10;&#9;&#9;c-0.9-17.7,0.7-35.5-2.3-52.9c-1.4-8.1-3.7-16.3-2.2-24.3c0.3-1.7,0.8-3.4,0.6-5.1c-0.4-2.3-2.6-4.5-5.1-2.7c-1,0.7-1.5,1.8-1.7,3&#10;&#9;&#9;l-3.4,24.7c-0.1,0.9-1.4,0.9-1.5,0l-4.5-29.8c-0.1-0.9-1.4-1.1-1.7-0.2c-1.2,3.5-1.6,7.2-2,10.8c-2.3,19.2-5.1,38.4-8.5,57.5&#10;&#9;&#9;c-0.2,1-1.5,1-1.8,0c-0.8-3.7-1.4-7.4-1.8-11.1c-0.1-1.1-1.7-1.3-2.1-0.3c-1.3,3.2-1.2,7.1-1.1,10.7c1.7,36.8,0.9,73.8-2.5,110.5&#10;&#9;&#9;c-0.2,2.4-3.7,2.3-3.8-0.1l0-0.1c-0.7-11.8,0.7-23.8-0.5-35.6c-0.8-7.7-2.6-15.3-3.6-23c-3.9-28.5,3.1-58-4.3-85.8&#10;&#9;&#9;c-0.5-2-1.4-4.1-2.6-5.8c-2-2.8-6.3-2.2-7.6,0.9c-4.1,9.9-6.4,20.6-6.6,31.3c-0.1,2.5-0.1,5.3-0.5,7.8c-0.5,2.7-4.3,2.5-4.6-0.1&#10;&#9;&#9;c-2-17-5.3-33.8-9.9-50.2c-0.5-1.6-1-3.3-3.3-3.8c-1.5-0.3-3.1,0.1-4.3,1.1c-2.3,1.8-3,4.8-3.7,7.6c-5,22.5-6.4,45.8-13.6,67.6&#10;&#9;&#9;c-2.4,7.3-5.6,14.5-6.7,22.1c-1.1,6.8-0.6,13.8-0.4,20.7c0,1.8-0.2,4-2.2,4.4c-1.8,0.4-3.5-1.1-3.6-2.9c-1-17.2,0-34.4-0.3-51.6&#10;&#9;&#9;c-0.4-25.4-3.6-50.6-6.8-75.8c-0.2-1.9-0.5-3.8-1.2-5.6c-0.4-0.9-1.7-1-2.1-0.1l-0.1,0.1c-1.1,2.2-4.4,1.6-4.7-0.8&#10;&#9;&#9;c-0.1-0.5-0.1-1-0.2-1.6c-0.5-3.4-4.5-5.1-7.2-2.9c-2.1,1.7-3.7,4.1-4.6,6.7c-1.7,4.8-1.6,10-3,14.8c-2,7.1-7,13.1-8.4,20.4&#10;&#9;&#9;c-1.2,5.9,0.1,12-0.7,18c-1.5,11.4-10.2,21.1-10.6,32.5c-0.1,3.7,0.7,7.4,0.5,11.1c0,0.5-0.1,1-0.2,1.5c-0.6,3.9-6.3,3.7-6.5-0.2&#10;&#9;&#9;c-0.4-5.7,0.7-11.6,1.2-17.4c0.2-2.6-0.1-5.9-2.8-6.5c-1.3-0.3-2.6,0.3-3.4,1.2c-1.5,1.8-1.6,4.1-1.7,6.3&#10;&#9;&#9;c-0.1,3.9-0.3,7.9-0.4,11.8c-0.1,2.2-0.6,4.9-2.9,5.2c-2.1,0.3-3.9-1.5-3.9-3.7l0-18.2c0-0.8-0.2-1.6-0.7-2.2&#10;&#9;&#9;c-1.8-2.3-4.6-0.3-5.6,1.9c-0.8,1.9-1.1,5.3-2.5,6.9c-0.9,15.3-2.6,30.6-5.2,45.7c-0.3,1.7-2.8,1.5-2.8-0.2c0-3.5,0.4-7,0.2-10.4&#10;&#9;&#9;c-0.1-2.6-3.9-2.7-4.2-0.1c-1.1,7.8,0.2,16.1,0.5,24.1c0.8,17.2-2.5,34.3-5.9,51.2c-0.2,1.2-0.8,2.8-2.2,2.6&#10;&#9;&#9;c-0.8-0.1-1.4-0.8-1.6-1.6c-2-8.4-4.1-16.9-4.3-25.5c-0.2-12.4,3.7-25.2,0.1-37.1c-0.7,8.8-1.7,17.5-2.9,26.3&#10;&#9;&#9;c-0.4,2.6-4.2,2.7-4.6,0.1c-1.8-10.8,0.6-22.6,1.6-33.8c0.1-0.9,0.1-1.8,0-2.8c-0.2-2.7-4.2-2.8-4.5-0.1c-0.9,8.6-2.6,24-3.5,32.5&#10;&#9;&#9;c-0.2,1.7-2.6,1.9-3,0.2c-1.2-4.6-1.2-9.7-1.2-14.6c0.1-14.8,0.2-29.6,0.4-44.5c0-3.4-0.1-7.2-1.5-10.1c-0.6-1.2-2.4-1.2-2.9,0.1&#10;&#9;&#9;c-4.7,11.7-7.2,24.2-7.4,36.8c0,1.4-0.4,3.3-1.9,3.2c-0.8,0-1.5-0.6-1.7-1.3c-2-5.3-1.6-11.1-1.3-16.7c1.2-25.9-0.4-51.9-4.8-77.5&#10;&#9;&#9;c-0.4-2.4-0.9-4.9-4-6c-2-0.7-4.3-0.4-6.1,0.8c-3.6,2.3-5,6.4-6.2,10.4c-4.2,14.3-6.7,29.2-5.6,44c0.1,0.8,0.1,1.6,0.1,2.4&#10;&#9;&#9;c0,2.6-3.9,2.6-4,0c0-0.3,0-0.7,0-1c-0.4-17.7-0.7-35.4-1.1-53.1c-0.1-4.3-0.2-8.7-2.1-12.6c-1.9-3.9-6.3-5.6-10.6-4.9&#10;&#9;&#9;c-10,10.9-12.3,26.6-14.1,41.3c-1.3,10.6-2.6,21.2-3.9,31.8c-0.1,1-0.2,1.9-0.4,2.9c-0.3,2.3-3.7,2.1-3.8-0.2l-1.1-32.1&#10;&#9;&#9;c0-1.1-0.3-2.3-0.9-3.3l0,0c-1.1-2.1-4.3-1.7-4.8,0.7c-3.5,17.5-2.6,35.6-2.9,53.4c-0.5,26-2.3,49.1-5.6,74.9c0,0.1-2,1.4-2.1-1.9&#10;&#9;&#9;c-0.4-9.3-2.4-15.5-3.3-24.8c-0.6-6.2-1.2-12.6-0.3-18.8c0.8-5.2,2.6-10.7,0.2-15.4c-3,9.5-4.8,19.4-5.3,29.4c0,0.6-0.1,1.3-0.1,2&#10;&#9;&#9;c-0.2,2-3.2,2.1-3.5,0.1c-2.3-15-3.1-30.2-2.3-45.4c0-0.6,0-1.3,0-1.9c-0.1-1.3-2-1.4-2.3-0.1c0,0.1,0,0.1,0,0.2&#10;&#9;&#9;c-0.6,2.8-4.7,2.4-4.6-0.5c0.5-21.3,1.1-42.6,1.6-63.9c0.1-3.6-0.8-7.8-4.5-8.1c-2.6-0.2-4.9,1.6-5.5,4.1c-3.6,14.2-3,29-2.6,43.6&#10;&#9;&#9;c1.3,49.7,0.4,99.4-2.9,148.9c-0.2,2.9-0.4,5.9-1.2,8.7c-0.4,1.6-2.8,1.5-3.2-0.1c-0.6-2.3-0.7-4.8-0.8-7.2&#10;&#9;&#9;c-2.1-43.7,3.8-87.9-4.2-130.9c-0.4-2.1-1-4.4-2.2-6.1c-1.1-1.6-3.5-1.3-4.3,0.4c-4.7,9.8-4.3,21.5-4,32.5&#10;&#9;&#9;c0.4,16.9,0.2,33.7-0.8,50.6c-0.1,1-0.9,1.8-1.9,1.8c-1-0.1-1.2-0.8-1.4-1.5c-10.4-37.7-4.6-77.7-6.9-116.8&#10;&#9;&#9;c-0.1-1.8-2.7-2.1-3.2-0.3c-0.4,1.5-0.5,3.2-0.5,4.8c0.2,16.7,1.4,33.8-1.9,50.1c-0.4,1.9-3.1,1.8-3.4-0.1&#10;&#9;&#9;c-3.6-26.4-5.7-52.9-6.4-79.5c-0.1-2.4-0.1-5-1.7-6.9c-0.8-1-2-1.7-3.3-1.6c-4.1,0.2-4.3,6.5-4.7,8.5c-0.6,3.5-0.8,7.2-0.8,10.8&#10;&#9;&#9;c0.9,72.1,1.9,144.4-3.9,216.3c0,0.1,0,0.1,0,0.2c-0.3,2.4-3.7,2.7-4.3,0.3c-1.5-5.6-1.4-11.5-1.4-17.3c0.1-25-1-50-3.2-74.9&#10;&#9;&#9;c-1.2-14-2.9-28.1-3.2-42.2c-0.2-10.2,0.2-20.4,1.3-30.5c0.1-0.8-1.1-1-1.3-0.2l-2.9,10.4c-0.2,0.7-0.4,1.4-1.4,1.5&#10;&#9;&#9;c-1,0.1-1.8-0.7-1.8-1.7c-1.4-17.5-0.9-35.1,1.5-52.5c0.4-2.9,0.7-6.3-0.4-8.9c-0.6-1.4-2.6-1.3-3.1,0.2&#10;&#9;&#9;c-4.5,13.2-0.3,28.4-2.6,42.3c-0.3,2.1-3.4,2.3-3.9,0.2c-0.4-1.4-0.5-2.9-0.5-4.2c0-13.6,0-27.3,0-40.9c0-2.5-0.7-5.7-2.2-7.4&#10;&#9;&#9;c-1.2-1.3-3.4-0.7-3.8,1c-7.4,29-3.8,59.6-4.6,89.5c-0.6,23-3.8,45.9-6.9,68.7c-0.2,1.3-1.2,2.4-2.6,2.5c-1.4,0-2-1.2-2.4-2.3&#10;&#9;&#9;c-3.2-8.6-3-18-3-27.1c0.1-37.3-2.9-74.6-9.2-111.3c-0.3-1.9-0.7-3.8-1.5-5.5c-0.6-1.3-2.6-1.1-2.9,0.3c-0.7,3.3-1.3,6.7-1.6,10.2&#10;&#9;&#9;c-0.2,2.2-3.2,2.7-4,0.6c-0.6-1.5-0.8-3.4-0.7-5c0.3-3,1-6.3-0.1-8.9c-0.2-0.5-1-0.5-1.2,0L94,68.8c-0.4,1.1-2,0.8-2.1-0.3l-0.8-17&#10;&#9;&#9;c-0.1-1.5-0.5-3.2-1.3-4.4c-0.7-1-2.3-0.5-2.3,0.7c-0.3,28-2.5,55.9-6.5,83.6c-0.2,1.1-1.7,1.1-1.9,0c-3.4-24.2,1.5-49.7-6.6-72.8&#10;&#9;&#9;c-0.5-1.5-1.2-3-3.1-3.3c-1-0.2-2.1,0.1-2.9,0.7c-1.9,1.4-2.6,3.6-3.2,5.8c-11.5,43.7,1.2,90.8-9.1,134.9c-0.3,1.3-2.1,1.2-2.4,0&#10;&#9;&#9;c-4.5-19.2-2.7-39.3-4.9-58.9c-2.2-19.6-8.4-38.7-9.7-58.4c-0.2-2.6-1.1-6.2-4-5.8c-1.6,0.2-2.9,1.7-3,3.3&#10;&#9;&#9;c-0.9,11.4-1.1,22.9-1.4,34.3c-0.5,24.9-1,50,2.7,74.6c1.9,12.5,4.9,25,4.2,37.6L35.4,236.1z" transform="matrix(1, 0, 0, 1, 0.00013732908701058477, 0.000014781951904296875)"/></svg>