<?xml version="1.0" encoding="utf-8"?>
<svg id="master-artboard" viewBox="0 0 1400 980" version="1.1" xmlns="http://www.w3.org/2000/svg" x="0px" y="0px" width="1400px" height="980px" enable-background="new 0 0 1400 980">
<path d="M 0 0 H 1400 V 980 H 0 V 0 Z" id="XMLID_391_" fill="#BBC5D2" transform="matrix(1, 0, 0, 1, 2.842170943040401e-14, 0)"/><path id="XMLID_410_" fill="#327097" d="M0,0v980h1400V0H0z M1224.6,636.3c-1,18.8-3.7,40.4-21.2,50.8c-7.3,4.3-16.1,6-24.5,8.1&#10;&#9;&#9;c-23.5,6-45.2,16.5-66.7,27l0.5-6.2c0.2-2.1-3-2.8-3.9-0.9c-6.3,12.5-6.2,28.7-18.7,36.4c-6.1,3.8-14,4.4-20.6,7.5&#10;&#9;&#9;c-10.7,5.1-17.1,16.3-28.6,19.7c-5.7,1.7-12,1.2-17.9,2c-18.7,2.5-33,17.5-51.8,20.2l-0.5-5.4c-0.2-2.5-3.9-3.4-5.4-1.2&#10;&#9;&#9;c-1.5,2.1-3.2,4-5.2,5.8c-1-3.6-1.7-7.3-2.3-11c-0.5-3.5-5.8-4.1-7.4-0.9v0c-0.3-13.6-0.8-27.2-1.4-40.7c-0.1-2.6-4.2-2.9-4.9-0.4&#10;&#9;&#9;c-4.9,18.3-7.4,37.1-7.4,56c0,6.6-0.9,14.9-8,17.2c-4,1.3-8.4,0-11.2-2.8c-2.4-2.4-3.6-5.3-4-8.3c-0.3-2.7-3.7-4.2-6.3-2.6&#10;&#9;&#9;c-10.1,6-25.7,5.4-38.4,2.9c-16.5-3.3-35.6-7.4-48.6,2.2c-13.4,9.9-34.8,2.8-51.2,8c-6.9,2.2-12.8,6.5-19.9,8.1&#10;&#9;&#9;c-5.6,1.2-11.5,0.6-17.3,0.8c-11.5,0.4-22.7,4-34.3,3.9c-19.9-0.2-39.3-11.5-58.7-7.2c-3.7,0.8-8.4,1.9-10.2-1.8&#10;&#9;&#9;c-0.2-0.5-0.4-1-0.5-1.6l-2-11.2c-0.3-1.5-2.7-1.5-3,0l-2,13.2c-7.7-3.7-15.4-7.4-23-11.2c-12.7-6.1-27.3-15.5-25.3-28.3&#10;&#9;&#9;c-4.3-1.9-8.7,2.7-9.6,6.9c-1,4.8-0.3,10.5-5.6,13.3c-2.4,1.3-5.4,1.5-8.1,0.7c-3.5-1-5.7-6.8-7.7-12.3c-1-2.8-5.3-2.9-6.5-0.2&#10;&#9;&#9;c-2.4,5.3-6,10.6-9.1,10.1c-1.9-0.3-3.7-1.2-5.3-2.2c-14.2-8.7-17.4-26-19.3-41.4c-3-24.4-6-44.9-9.1-67.8&#10;&#9;&#9;c-0.1-0.8-1.5-0.8-1.5,0.1c0.3,25.9-2.7,49.1-9,75.9c-0.7,3.1-3.6,5.4-7.1,5.5c-4,0.1-5.3-2.5-6.4-5c-2.4-5.7-4.3-11.6-5.5-17.6&#10;&#9;&#9;c-0.4,2.1-1.5,4.1-2.9,5.9c-2.9,3.7-7.1,6.5-9.7,10.3c-0.5,0.7-1,1.4-1.7,1.9c-5.2,3.7-10.1-3.4-10.6-8.7&#10;&#9;&#9;c-1.5-13.8,0.2-28.5-3.8-41.6c-1.4-4.6-8.9-3.5-8.7,1.2c0,0.6,0.1,1.1,0.1,1.6c1.1,14.9,0.4,30.7-8.5,43.2c-4.1,5.8-12.9,11-19,6.7&#10;&#9;&#9;c-4.8-3.4-3.9-10.2-6.5-15.1c-2.2-4.2-6.9-7-10.4-10.5c-4.4-4.4-7-10.1-9.4-15.6c-8.4-18.9-16.8-37.8-25.2-56.7&#10;&#9;&#9;c-7.6-17,12.1-36.3,18.3-53.8c5.3-15.1,4.6-31.6,11-46.2c2.5-5.6,5.9-10.8,7.7-16.6c2.8-8.9,1.4-18.4,2.2-27.6&#10;&#9;&#9;c0.7-8.5,4.1-17.7,11.9-22.3c0.3-3.3,4.9-5.6,8.5-4.5c3.9,1.1,6.3,4.8,6.7,8.4s-0.5,7.2-1.4,10.8c-2.5,10.3-3.9,20.8-4.1,31.3&#10;&#9;&#9;c-0.1,2.8,4.5,3.4,5.3,0.6c2.7-9.4,5.1-18.9,7.2-28.5c3.8-17.4,7.5-36.2,19.2-49.8c2.6-3,7.9-1.5,8.2,2.2l1.6,21.9&#10;&#9;&#9;c0.1,0.8,1.4,0.9,1.5,0c1.1-11.3,3.2-22.5,6.3-33.5c0.6-2.3,1.6-4.8,2.9-6.9c2.2-3.6,8.4-2.3,8.6,1.8l1.6,30.2&#10;&#9;&#9;c0.1,2.2,3.6,2.4,4.1,0.3c2.2-9.8,4.7-19.5,7.9-29c0.8-2.4,4.7-1.7,4.6,0.7c-1.2,21.8-1.6,43.7-1,65.6c0.1,2.6,4.2,2.9,4.8,0.4&#10;&#9;&#9;c3.9-17.7,4.5-36.1,4.8-54.2c0.1-7.9,0.5-16.5,4.8-23.1c1.3-2,4.7-1.4,5.1,0.9c2.2,15.3,0.6,30.9-1.9,46.4c-0.2,1.5,2.2,2,2.6,0.5&#10;&#9;&#9;c4.8-15.3,4.6-31.9,5.1-48c0.6-20.1,3-41.5,16.9-57.3l3.4,5.7c0.2-4.8,2.8-9.5,7-12.5c-0.9,15-0.8,30.1,0.5,45&#10;&#9;&#9;c0.2,1.9,3.3,1.9,3.5,0c2-17.5-0.4-36,9-51.3c1.3,14.4,1.8,28.8,1.7,43.2c0,2.3,3.5,2.8,4.3,0.6c5.8-16.4,1-36.9,14-49.8l5.2,106.5&#10;&#9;&#9;c0.1,2.3,3.9,2.6,4.4,0.3c6-29.3,9.5-58.9,10.4-88.7c0.3-9.2,0.3-18.5,3.2-27.3l2.7,15c0.4,2.2,3.9,2.4,4.6,0.2l9-31.3l2,30&#10;&#9;&#9;c0.1,1.2,1.9,1.3,2.2,0.2l6.7-27.1c2.5,5.5,3.4,11.6,2.7,17.6l10.1-33.5l1.5,40.6c0.1,1.5,2.5,1.7,2.8,0.2l8-39.1l-0.1,33&#10;&#9;&#9;c0.2-4.1,1.3-8.1,3.4-11.8l-0.8,25.2c0,1.4,2.2,1.7,2.6,0.3c3.2-13,6.5-26.2,9.6-39l-1.6,51.2c-0.1,2.7,4.3,3.2,4.9,0.5&#10;&#9;&#9;c4.1-18,3.9-36.9,5.3-55.4c0.2-2,0.7-4.3,1.6-6.3c1.6-3.8,7.9-2.7,7.8,1.3c-0.1,6.6,0.8,13.2,2.6,19.7c0.6,2.3,4.3,2.3,5,0&#10;&#9;&#9;l4.5-15.3c0.9-3.2,6-3.3,7-0.1c2.8,8.9,1.7,19.2,3.1,28.8c0.3,2,3.5,1.9,3.7,0c1.3-10.2,3.3-20.4,6.2-30.4c1-3.5,6.5-3.8,7.9-0.4&#10;&#9;&#9;c1.5,3.9,1.6,8.6,1.5,12.8c-0.2,12.3,0.9,24.6,3.4,36.7c0.6,2.9,5.2,2.9,5.8,0c3-15.9,5-31.9,5.8-48c0.4-8.2,0.8-16.9,3-24.8&#10;&#9;&#9;c1.1-4,7.7-3,7.3,1.1c-0.1,0.8-0.2,1.6-0.3,2.4c-0.2,1.7,2.5,2.3,3.1,0.7c3.2-7.9,3.1-17.6,7-24.5c1.8-3.3,7.2-2.2,7.4,1.4&#10;&#9;&#9;l0.6,13.8l8.2-19c0.9-2.1,4.1-2.2,5.3-0.3c2.3,3.9,2.1,9.4,1.7,14.1c-0.9,10.8,0,21.6,2.7,32.2c0.5,2,3.7,1.9,4.1-0.1&#10;&#9;&#9;c4.3-20.9-1.1-44.2,11.4-62.2l0.7,13.3c0.1,1.3,2.2,1.5,2.5,0.2c2-8.5,4.9-16.9,8.7-25c3.7,6.1,5.4,13.2,4.8,20.1&#10;&#9;&#9;c2-8.2,4.4-16.3,7.2-24.4c0.4-1.2,1.6-2.1,2.9-2.1c2.5-0.1,3.1,2.7,3.1,4.7c0,8.8,0,17.6,0,26.4c0,2.1,3.3,2.4,3.8,0.4&#10;&#9;&#9;c4.1-15,7.6-30,10.2-45.6c0.3-1.7,1.7-3.1,3.6-3.4c3.3-0.4,4.6,3.1,4.9,5.8c0.6,4.8,1.2,9.5,1.8,14.3c8.5-10.4,2.5-25.8,9.1-37.2&#10;&#9;&#9;c0.6-1,1.2-2,2.3-2.6c2.2-1.3,5.2-0.7,7.2,0.9c2,1.5,3.1,3.7,4.1,5.9c0.5-1.7,3.4-2,4.9-0.9c1.5,1.2,1.9,3.1,2.2,4.9&#10;&#9;&#9;c3,23.5,2.5,47.4,5.9,70.8c0.1,0.8,1.4,0.7,1.3-0.1c-0.2-16.5,1.9-33.1,6.2-49.1c0.8,5.1,1.3,10.1,1.5,15.2&#10;&#9;&#9;c0.1,2.3,3.7,2.6,4.3,0.3c5.3-20.9-3.2-44.8,4.2-65.8c0.7,13.3,1,26.6,0.9,39.9c0,1.5,2.4,1.8,2.8,0.3l9.7-40.2&#10;&#9;&#9;c-0.9,10.4-1.7,20.9-2.6,31.3c1.4-14.4,6.6-28.6,14.8-41c0.5,12.7,1.3,25.6,2,38.4c0.2,3.3,5.6,3.4,6,0.2c1.9-15.5,0.3-31.9,6-46.7&#10;&#9;&#9;c5.3,1.7,5.4,8.2,5,13.3c-1,12.3,0.9,24.7,5.5,36.3c-0.2-9.4,1.8-18.8,5.7-27.5l5.2,25.9l7.1-22.7c4.7,5.5,3.5,13.1,3,20&#10;&#9;&#9;c-0.3,3.9,0,8.2,1.5,11.7c1.4,3.3,6.8,2.8,7.4-0.7l6-34.5c2.1,6.4,3.6,12.9,4.6,19.5c2.6-7.5,6.5-14.6,11.7-20.9l2.5,33.6&#10;&#9;&#9;c7-9,11.4-19.6,12.5-30.5c4.8,9.1,9,18.5,12.7,28c1.3,3.3,6.6,3.4,7.9,0.1c2-5.2,4.5-10.2,7.4-15c4.6,1.5,5.7,6.8,6,11.1l1.7,21.9&#10;&#9;&#9;c0.1,1.7,3,1.9,3.3,0.1c1.1-6.2,2.6-12.3,4.4-18.3c4.8,6.1,7.5,13.4,7.9,20.9c4.2-5.8,6-12.8,5.1-19.6c1.4,11.2,2.9,22.3,4.3,33.5&#10;&#9;&#9;c11.3-9.1,3.8-26.2,8.8-39.1c5.6,14.4,8.5,29.6,8.8,44.9c3.8-3.5,5.7-8.6,5.1-13.5c6.8,2.8,7.8,10.8,8,17.5&#10;&#9;&#9;c0.2,8.4,0.3,16.8,0.5,25.2c0.1,2.9,4.6,3.5,5.6,0.7c4-12.3,0.6-27.4,7.5-39.1c3.8,8.2,5.9,17.1,6.3,26c0.1,1.9,3.1,2.2,3.7,0.4&#10;&#9;&#9;c1.1-3.6,2-7.3,2.9-10.9c0.3,24.9,0.6,50,5.7,74.5c0.9,4.4,7.9,4.8,9.4,0.5c5.7-16.1-2.3-38.1,9.1-52.6c16.2,18.7,9.3,45.2,14,68.7&#10;&#9;&#9;c0.5,2.6,4.7,2.7,5.4,0.1c5-19.9,7.2-40.3,6.4-60.6c5.7,1.8,7.3,8.1,8,13.4c4.8,34.8,9.5,69.6,14.3,104.3c3,22,4.4,42.5,8.7,64.4&#10;&#9;&#9;C1229.6,542.4,1227.1,589.6,1224.6,636.3z" transform="matrix(1, 0, 0, 1, 2.842170943040401e-14, 0)"/><path id="XMLID_398_" fill="#24577B" d="M0,0v980h1400V0H0z M1241.2,655.3c-0.8,9.7-3.9,21.7-14.5,23.6c-5.9,1.1-36.1-0.4-44.9,7.3&#10;&#9;&#9;c-2.4,2.1-3.7,5-6,7.1c-10.7,9.9-36.2,0-40.9,13.1c-1.6,4.4,0.6,9.1,0.4,13.6c-0.3,7.3-6.7,13.2-13.3,17.4&#10;&#9;&#9;c-18.5,11.9-42.5,16.7-64.8,12.9c-3.5-0.6-7-1.4-10.4-0.8c-11.4,1.8-14.2,15.1-20.7,23.7c-4.8,6.4-12.7,10.8-21.2,11.7&#10;&#9;&#9;c-9.6,1.1-19.2-2.1-28.9-2.3c-9.7-0.3-21.1,4.1-22.4,12.7c-0.3,2.3,0.1,4.7-0.7,6.9c-2.1,6.5-11.8,7.4-19.3,7.4&#10;&#9;&#9;c-29.3-0.2-58.6,4.3-86.2,13.3c-14.4,4.7-28.5,10.7-43.6,13.4c-21.7,3.9-44.1,1-65.9-1.9c-4.5-0.6-9.3-1.3-12.6-4.2&#10;&#9;&#9;c-3.4-2.9-4.3-7.4-5.1-11.6c-1.4-7.7-2.9-15.5-4.3-23.2c-0.6-3.1-5.4-3.3-6.3-0.2l-5.4,19.1l-5.2-20.3c-0.6-2.2-4.2-2.1-4.6,0.1&#10;&#9;&#9;c-2,11.1,3.6,24.8-5.4,32.5c-4.5,3.9-11.1,4.6-17.3,5.1c-22.6,1.5-45.3,0.5-67.6-3c-17.5-2.7-35.1-6.9-52.7-4.7&#10;&#9;&#9;c-24.5-6.3-50.1-15.1-68.5-31c-5.2-4.5-9.9-9.6-15.7-13.6c-11.6-8.2-26.5-11.5-39.1-18.5c-10.2-5.7-18.6-13.8-24.2-23.4&#10;&#9;&#9;c-2.6-4.5-4.7-9.3-8.2-13.3c-2.5-2.9-5.7-5.3-8.1-8.4c-6.1-7.8-5.6-17.9-7-27.6c-0.3-2.2-3.9-2.2-4.2,0c-0.9,6.7-2.1,13.3-3.7,19.9&#10;&#9;&#9;c-2.7-0.1-4-3-4.6-5.4c-3.4-12.9-6.8-25.8-10.2-38.6c-0.5-1.9-3.6-1.7-3.7,0.3c-0.7,10.5-1.7,21-3.2,31.4c-5.2-3.2-7.3-9-9-14.4&#10;&#9;&#9;c-13.6-43.5-21.4-88.4-26.9-133.4c-4.2-34.1-27.9-66.2-29.6-100.4c-3.4-71.3-30.4-139.4-18.9-209.9c0.3-2.1,2.2-3.8,4-4.9&#10;&#9;&#9;c1.7-1,4,0,4,1.9c0.1,30.3,5,88.8,12.7,121.4c0.4,1.8,3.3,1.6,3.4-0.2c1.9-23.1,2.2-67.9,2.4-83.1c0.2-11.3-0.1-22.9,2.8-33.8&#10;&#9;&#9;c0.9-3.2,6.1-2.7,6.1,0.7l0,0.1c0.1,23.2,0.2,46.5,0.3,69.7c0,1.6,2.6,1.8,3,0.3c4.7-19.7,6.9-39.9,6.6-60&#10;&#9;&#9;c-0.1-8.4-0.6-17.2,1.7-25.2c0.8-2.9,5.4-2.5,5.7,0.4c3.4,35.7-2.5,72.1,2.7,107.5c0.2,1.2,2.1,1.1,2.2-0.1l1-20.5&#10;&#9;&#9;c1-20.9,2.2-42.4,11.5-61.4c1.1-2.2,4.5-2.4,5.9-0.3c14.8,21.7,18.8,48.4,20.5,74.1c0.9,12.5,1.3,24.9,1.4,37.4&#10;&#9;&#9;c0,2.2,3.6,2.5,4,0.4c2.7-11.9,4.2-23.9,4.5-36c0.3-14.2-0.8-29.2,5-42.1c1-2.3,4.6-2.2,5.5,0c5.3,12.1,8.2,25.1,8.5,38.2&#10;&#9;&#9;c0.2,8.2-0.5,16.5,0.2,24.6c0.2,2.2,3.7,2.3,4.1,0.2c1.4-6.8,2.2-13.7,2.5-20.6c0.1-2.3,3.7-2.8,4.5-0.5&#10;&#9;&#9;c3.9,11.3,4.8,23.4,5.1,35.4c0,1.8,2.8,2.2,3.4,0.5c2.3-5.8,4.1-11.8,5.2-17.9c0.5-2.6,4.8-2.4,4.8,0.3c0,0,0,0.1,0,0.1&#10;&#9;&#9;c0.4,15.8,0.8,31.6,1.2,47.3c0.1,2.4,3.7,3,4.7,0.7c6.9-16.2,3.9-35.4,7.4-53.1c0.3-1.6,3-1.6,3.3,0c4.4,23.4,0.2,47.7,2.4,71.5&#10;&#9;&#9;c0.2,1.7,2.8,1.9,3.3,0.3c3.7-12.6,0.9-26.6,2-39.9c0.2-2,3.4-2.1,3.7-0.1c1.8,12.5-0.2,25.5,0.3,38.2c0.1,3,4.8,3.2,5.3,0.2&#10;&#9;&#9;c2.6-16.5-2.5-34.6,3.1-50.7L459,383c0,2,3,2.4,3.7,0.5c3-8.1,0.8-18.3,4-26.4c0.5-1.3,2.7-1,2.7,0.4l0.8,53.8&#10;&#9;&#9;c0,2.6,4.2,3.1,4.9,0.5c4.3-14.6,0.7-31.4,3.6-46.8c0.2-1.3,2.4-1.3,2.5,0l3.6,27.8c0.2,1.8,3.1,2,3.5,0.2c3-11.3,1.6-19.6,4-33.1&#10;&#9;&#9;c0.2-0.9,1.6-0.8,1.6,0.1c0.4,12.1,1.6,24.2,3.7,36.2c0.3,1.7,3,1.8,3.4,0.1c8.2-34.6,0.4-71.2,4.6-106.6c0.2-1.7,2.9-1.9,3.4-0.2&#10;&#9;&#9;c4.1,14.9,6.2,30.2,8.1,45.5c0.2,1.5,2.5,1.7,3,0.2c2.8-8.9,4.7-18.1,5.6-27.4c-0.7,6.6-0.4,13.2,0.9,19.7c0.4,2.2,3.8,2.5,4.8,0.5&#10;&#9;&#9;c2.2-4.7,4-9.6,5.1-14.6c5.9-25,14.2-49.5,20.5-74.4c0.6-2.5,1.3-5.1,3.6-6.9c1.3-1,3-1.5,4.6-1.1c3.2,0.7,4,4.2,4.4,7&#10;&#9;&#9;c0.7,6,1.4,12,2.2,18.1c2.7-3.2,4.3-7.2,4.3-11.2c2.2-1.2,4.5,1.5,5.2,3.7c7.4,23.5,11.2,47.8,11.3,72.2c0,0.9,1.4,1.1,1.7,0.3&#10;&#9;&#9;c2.2-6,4-12.2,3.9-18.5c-0.1-5.8-1.7-12.3,2.3-16.8c2.6,0.5,3.1,3.6,3.1,5.9c-0.1,8.8-0.1,17.6-0.2,26.4c0,3.9,0,7.9,0.5,11.7&#10;&#9;&#9;c0.3,1.7,3,1.8,3.5,0.1c3.5-13.9,5-28.2,4.5-42.4c-0.1-1.5,2.3-1.6,2.5-0.2c1.2,9.1-1.6,19.3,1.2,27.9c0.5,1.4,2.8,1.3,3-0.2&#10;&#9;&#9;c1.1-9.5,2.6-18.9,4.4-28.3c0.3-1.8,0.7-3.6,2.3-4.8c1-0.7,2.4-1,3.5-0.3c1.3,0.7,1.4,2.2,1.4,3.5c0,10.5,1.3,20.9,3.8,31.1&#10;&#9;&#9;c0.4,1.4,2.6,1.5,3.1,0.2c0.2-0.5,0.3-1,0.4-1.4c1.3-10-1.5-20.8,1.4-30.2c0.5-1.5,3-1.3,3.1,0.3c1.4,13.9,1.9,27.8,1.4,41.7&#10;&#9;&#9;c-0.1,4.1-0.3,8.3,0.4,12.2c0.4,2.1,3.8,2.2,4.3,0c0.8-3.6,0.8-7.5,0.8-11.2c-0.1-12.6-0.1-25.2-0.2-37.8l0-0.1&#10;&#9;&#9;c0-2.1,3.5-2.3,3.8-0.2c2.8,22.1,3.9,44.4,3.1,66.6c0,1.4,2.2,1.8,2.7,0.4c1.4-3.5,1.5-7.6,1.6-11.5c0.2-21.1,0.5-42.2,0.7-63.3&#10;&#9;&#9;c0.6,1,1.2,2,1.6,3c0.4,0.9,1.7,0.7,1.8-0.2c0.5-5.1,1.4-10.2,2.9-15.1c1.7,7.9,0.7,18,1.4,25.5c0.1,1,1.8,1,1.9,0&#10;&#9;&#9;c0.7-10.5,2-21,6.2-30.8c5.9,5.3,7,13.4,7.3,20.9c0.2,5.9,0.2,12.1,2.2,17.7c0.4,1,2,0.7,2-0.3c0.1-12.9,2.2-25.9,6.4-38.2&#10;&#9;&#9;c2.8,0.1,3.8,3.4,4,5.9l3.7,39.1c0.1,1,1.7,1,1.9,0c2.1-15.3,3.4-30.8,3.3-46.2c0-4.3,1-8.5,3-12.4c0.6-1.2,1.4-2.5,2.8-3.7&#10;&#9;&#9;c1.2-1,2.8-1.4,4.4-1c2.1,0.5,2.6,2.2,3,3.8c5.2,20.2,8.8,40.8,10.8,61.4c0.2,1.8,3,2.2,3.7,0.4c4.2-10.9,4.9-22.9,5.4-34.5&#10;&#9;&#9;c3,12.5-3,26.3,0.4,38.2c0.5,1.6,3.1,1.5,3.4-0.1c2.8-14.2,4.4-28.6,4.9-43.1c0.2-5.4,0.4-11.1,2.6-16c1-2.1,4.5-1.9,5,0.4&#10;&#9;&#9;c0.6,2.6,1.1,5.2,1.5,7.8c0.2,1.2,2.1,1.4,2.5,0.2c3.6-9.8,1.7-21.4,5-31.1c0.9-2.5,4.8-2.1,5.1,0.5c2,16.9,3.8,33.8,5.4,50.8&#10;&#9;&#9;c0.2,1.9,3.1,2.2,3.8,0.4c3-8.3-0.7-19,2.2-27.9c4.5,18.2,6.7,36.9,6.6,55.6c0,1.6,2.5,1.8,2.9,0.3c4.2-16.2,6-32.8,5.5-49.4&#10;&#9;&#9;c0-0.7,1.1-0.9,1.3-0.2l6.2,24.6c0.5,2,3.6,2,4.1,0c3.5-13.5,0.7-28.3,2.9-42.1c0.5-3.1,5.4-3.3,6.2-0.2l0.9,3.4&#10;&#9;&#9;c0.4,1.5,2.8,1.5,3.2,0l4.2-15.5l2,6.4c0.3,1.1,2.1,1,2.2-0.1c0.3-2.1,0.4-4.3,0.2-6.4c2.6,7.4,5.2,14.7,8,22.1&#10;&#9;&#9;c0.8,2.1,4.2,1.9,4.6-0.3c1.7-9.5-1-20.4,6-27.6l3.3,11.4c0.3,1.1,2.2,1,2.3-0.2c0.2-2.8,0.6-5.6,1.3-8.3c0.7-2.4,4.4-2.5,5.2-0.1&#10;&#9;&#9;l1,3.1c0.5,1.5,2.9,1.4,3.2-0.1c1-5,3.1-9.8,6.2-14c1.4,4.4,3,18.2,4.4,28.7c0.3,2.1,3.7,2.2,4,0.1c1.8-9.5,4.3-22.9,6-32&#10;&#9;&#9;c0.5-2.5,4.3-2.7,5.1-0.3c0.3,1,0.7,2.1,1,3.1c0.6,1.8,3.4,1.7,3.9-0.1c2.1-7.8,4.5-15.6,7-23.4c2,2.2,3.3,4.9,3.9,7.7&#10;&#9;&#9;c0.4,2.1,3.6,2.5,4.5,0.5c0,0,0,0,0-0.1l12.5-26.9c1-2.2,4.6-1.9,5.2,0.5c0.4,1.8,0.9,3.6,1.4,5.3c0.7,2.3,4.3,2.4,5.2,0.2l2.4-6&#10;&#9;&#9;c0.4-1.1,2.1-1.1,2.6-0.1l3.8,7.9c0.7,1.4,3,1.4,3.5-0.1l2.5-6.8c0.5-1.2,2.2-2.3,4.2-3.3c3.5-1.7,7.9,0.2,8.8,3.7l0.6,3.4&#10;&#9;&#9;c0.2,1.2,2,1.2,2.2,0l0.9-5c0.6-1.2,2.4-1.1,2.9,0.1c0.7,1.8,1.5,6.3,2.1,10.1c0.1,0.8,1.4,0.8,1.6,0l1.6-7.9&#10;&#9;&#9;c4.5,7.4,4.4,16.2,6.8,24.3c0.3,0.9,1.7,0.7,1.7-0.2c0.2-4.8,1.1-9.6,2.5-14.2c2.9,1.8,2.2,5.6,1.8,8.7c-0.4,2.7-0.4,5.5,0.1,8.2&#10;&#9;&#9;c0.2,1.5,2.6,1.7,3.1,0.2c0.9-2.6,1.4-5.2,1.6-7.9c0.2-2.8,0.1-6,1.3-8.4c0.5-1,2.1-0.7,2.2,0.4c0.5,9.3,2,18.6,4.6,27.7&#10;&#9;&#9;c0.5,1.8,3.4,1.7,3.7-0.1c1.4-7.2,0.2-15,3.1-21.9c0.4-0.9,0.9-1.8,2.2-1.9c0.7,0,1.5,0.2,2,0.7c1.2,1,1.4,2.4,1.6,3.8l3.1,19.9&#10;&#9;&#9;c0.2,1.1,2,1.2,2.2,0c1.4-6.7,2.8-13.4,4.8-20c1.5,2.4,2.7,5,3.7,7.6c0.3,0.7,1.4,0.6,1.6-0.1c1.2-5.6,2.9-11,5.2-16.3l2.8,15.9&#10;&#9;&#9;c0.2,0.9,1.6,0.9,1.8,0l2.9-13.6c3.5,2.1,4.1,6.5,4.3,10.2c1.1,17.5,1.6,35.1,1.6,52.6c0,1.3,2,1.6,2.4,0.3&#10;&#9;&#9;c6.4-18.1,0.8-39,6.4-57.7c1.4-0.4,2.2,1.3,2.3,2.6l1.1,8.6c0.1,0.7,1.2,0.7,1.4,0c0.8-4,2.3-7.9,4.2-11.6l1.2,21.1&#10;&#9;&#9;c0.1,1,1.6,1.1,1.9,0.2c1.1-4.1,1.4-8.5,1.7-12.7l5,44c0.1,1.2,2.1,1.4,2.4,0.2c3.3-10.6-0.9-23.4,3.4-33.5c0.5-1.2,2.6-1,2.8,0.3&#10;&#9;&#9;c1.7,11.6-1.5,24.1,2,35.1c0.4,1.1,2.1,1,2.3-0.2l3.6-27.3c0.1-0.3,0.3-0.7,0.4-1c0.8-1.9,3.9-1.6,4.2,0.4l5.5,33.2&#10;&#9;&#9;c0.3,1.6,2.8,1.5,2.9-0.1c0.6-12.1-3.1-25,3.9-35.2l3.6,34.6c0.1,1.4,2.4,1.5,2.7,0.1c1-5.1,2.4-10.6,3.6-11.9&#10;&#9;&#9;c1.2,11.9,2.1,23.7,2.6,35.6c0.1,2.3,3.8,2.7,4.4,0.4c2.1-7.5,1.4-16.2,3.9-23.6c0.6-1.7,3.4-1.4,3.4,0.4c0.1,3.3,0.4,6.6,0.8,9.9&#10;&#9;&#9;c0.1,0.8,1.3,1,1.7,0.3l3.7-6.3l0.8,11.1c0.1,1.8,3,1.9,3.3,0.2c1.4-6.5-0.2-14.2,3.6-20.1l0.5,24.8c0,2,3.1,2.4,3.8,0.5&#10;&#9;&#9;c1.7-4.7,1.3-10.4,3.3-15.2c0.5-1.1,2.2-1,2.5,0.1c1,3.4,1.8,6.9,2.2,10.5c0.2,1.6,2.7,2,3.5,0.5c2-3.6,3.2-7.6,3.5-11.6l4.1,16.3&#10;&#9;&#9;c0.4,1.5,2.7,1.8,3.4,0.4l1.3-2.2c1-1.7,3.6-1.8,4.7-0.1c2.6,4.1,2.4,10.4,6.6,13.5c2,1.5,4.8,1.9,6.9,3.3c2.6,1.7,4,4.5,5.3,7.2&#10;&#9;&#9;c2.3,4.9,4.7,9.9,6,15.1c2.3,9.1,1.4,18.7,4.3,27.6c0.5,1.5,2.8,1.8,3.7,0.4c2.6-4.3,4.2-9.2,4.5-14.1c1.5,10.4,3.1,20.8,4.6,31.2&#10;&#9;&#9;C1235.6,458,1249.2,556.9,1241.2,655.3z" transform="matrix(1, 0, 0, 1, 2.842170943040401e-14, 0)"/><path id="XMLID_409_" fill="#092543" d="M0,0v980h1400V0H0z M1250.4,624.6c-1.2,24.4-4.3,52.5-24.6,66c-8.5,5.6-18.7,7.7-28.5,10.5&#10;&#9;&#9;c-27.3,7.8-52.5,21.5-77.5,35.1l0.6-8.1c0.2-2.7-3.5-3.6-4.6-1.2c-7.4,16.2-7.2,37.3-21.8,47.2c-7.1,4.9-16.3,5.7-23.9,9.8&#10;&#9;&#9;c-12.4,6.6-19.9,21.1-33.3,25.5c-6.7,2.2-13.9,1.5-20.9,2.6c-21.8,3.3-38.4,22.8-60.2,26.2l-0.5-7c-0.3-3.2-4.5-4.4-6.3-1.6&#10;&#9;&#9;c-1.7,2.7-3.8,5.2-6.1,7.5c-1.1-4.7-2-9.5-2.7-14.3c-0.6-4.5-6.8-5.3-8.5-1.1v0c-0.4-17.7-0.9-35.3-1.7-52.9&#10;&#9;&#9;c-0.1-3.3-4.9-3.8-5.7-0.5c-5.6,23.8-8.6,48.3-8.6,72.7c0,8.6-1,19.3-9.3,22.3c-4.6,1.6-9.8,0-13.1-3.7c-2.8-3.2-4.2-6.9-4.6-10.8&#10;&#9;&#9;c-0.4-3.6-4.3-5.4-7.3-3.4c-11.8,7.8-29.9,7-44.7,3.7c-19.1-4.2-41.4-9.6-56.6,2.9c-15.6,12.9-40.5,3.7-59.5,10.5&#10;&#9;&#9;c-8,2.8-14.9,8.5-23.1,10.5c-6.6,1.6-13.4,0.8-20.2,1c-13.4,0.5-26.4,5.2-39.8,5c-23.2-0.3-45.7-15-68.2-9.4&#10;&#9;&#9;c-4.3,1.1-9.7,2.5-11.9-2.3c-0.3-0.7-0.4-1.4-0.6-2.1l-2.3-14.6c-0.3-2-3.2-1.9-3.4,0l-2.3,17.1c-8.9-4.8-17.9-9.7-26.8-14.5&#10;&#9;&#9;c-14.7-8-31.8-20.1-29.4-36.8c-5-2.5-10.1,3.5-11.1,8.9c-1.2,6.3-0.4,13.6-6.5,17.3c-2.8,1.7-6.3,1.9-9.5,0.9&#10;&#9;&#9;c-4-1.3-6.7-8.9-8.9-16c-1.2-3.6-6.2-3.8-7.6-0.3c-2.8,6.9-7,13.8-10.6,13.1c-2.2-0.4-4.3-1.5-6.2-2.8&#10;&#9;&#9;c-16.6-11.3-20.2-33.8-22.4-53.7c-3.5-31.8-7-58.3-10.5-88c-0.1-1.1-1.7-1-1.7,0.1c0.4,33.7-3.1,63.9-10.4,98.7&#10;&#9;&#9;c-0.8,4-4.2,7.1-8.3,7.2c-4.6,0.1-6.2-3.3-7.4-6.5c-2.8-7.4-4.9-15.1-6.4-22.9c-0.5,2.7-1.7,5.4-3.3,7.6&#10;&#9;&#9;c-3.4,4.8-8.3,8.4-11.3,13.4c-0.5,0.9-1.2,1.8-2,2.4c-6.1,4.8-11.7-4.4-12.4-11.3c-1.7-18,0.3-37-4.4-54&#10;&#9;&#9;c-1.6-5.9-10.3-4.6-10.1,1.6c0,0.7,0.1,1.4,0.1,2.1c1.3,19.3,0.4,39.8-9.9,56.2c-4.8,7.6-15,14.3-22.1,8.7&#10;&#9;&#9;c-5.6-4.4-4.6-13.2-7.6-19.7c-2.6-5.5-8-9.1-12.1-13.6c-5.1-5.7-8.1-13.1-10.9-20.2c-9.8-24.6-19.6-49.2-29.3-73.7&#10;&#9;&#9;c-8.8-22.1,14.1-47.2,21.3-69.9c6.2-19.6,5.3-41,12.8-60.1c2.9-7.2,6.9-14,9-21.5c3.2-11.6,1.6-23.8,2.5-35.8&#10;&#9;&#9;c0.8-11,4.8-23,13.8-28.9c0.4-4.2,5.7-7.2,9.9-5.9c4.5,1.4,7.3,6.2,7.8,10.9s-0.6,9.4-1.6,14c-3,13.4-4.6,27-4.8,40.7&#10;&#9;&#9;c-0.1,3.7,5.2,4.4,6.1,0.8c3.2-12.2,6-24.6,8.4-37c4.5-22.6,8.7-47.1,22.4-64.8c3-3.9,9.2-2,9.5,2.9l1.8,28.5&#10;&#9;&#9;c0.1,1.1,1.7,1.1,1.8,0c1.3-14.7,3.7-29.2,7.3-43.5c0.7-3,1.8-6.2,3.4-9c2.6-4.7,9.7-2.9,10,2.4l1.8,39.2c0.1,2.9,4.2,3.2,4.8,0.4&#10;&#9;&#9;c2.6-12.7,5.4-25.3,9.2-37.6c0.9-3.1,5.5-2.2,5.3,0.9c-1.4,28.4-1.8,56.8-1.2,85.2c0.1,3.4,4.9,3.8,5.6,0.5&#10;&#9;&#9;c4.6-23,5.3-46.9,5.6-70.5c0.1-10.2,0.6-21.5,5.5-30.1c1.5-2.6,5.5-1.8,5.9,1.2c2.6,19.9,0.7,40.2-2.2,60.3&#10;&#9;&#9;c-0.3,1.9,2.6,2.5,3.1,0.6c5.6-19.9,5.3-41.5,5.9-62.3c0.7-26.1,3.5-53.9,19.6-74.4l4,7.4c0.2-6.2,3.3-12.3,8.1-16.2&#10;&#9;&#9;c-1.1,19.5-0.9,39,0.6,58.5c0.2,2.5,3.8,2.5,4.1,0.1c2.3-22.8-0.4-46.8,10.5-66.7c1.5,18.7,2.1,37.4,2,56.1c0,3,4.1,3.6,5,0.8&#10;&#9;&#9;c6.7-21.3,1.1-48,16.2-64.7l6.1,138.4c0.1,3,4.5,3.4,5.1,0.4c7-38,11.1-76.6,12.1-115.2c0.3-11.9,0.4-24,3.7-35.4l3.1,19.5&#10;&#9;&#9;c0.5,2.9,4.6,3.1,5.3,0.3l10.4-40.6l2.4,39c0.1,1.5,2.3,1.7,2.6,0.2l7.8-35.3c2.9,7.2,4,15.1,3.2,22.8l11.7-43.5l1.8,52.8&#10;&#9;&#9;c0.1,2,2.9,2.2,3.3,0.2l9.2-50.8l-0.1,42.9c0.2-5.3,1.5-10.6,3.9-15.3l-0.9,32.7c0,1.8,2.6,2.2,3,0.4c3.7-16.9,7.6-34.1,11.1-50.7&#10;&#9;&#9;l-1.9,66.5c-0.1,3.5,5,4.1,5.7,0.7c4.8-23.4,4.5-48,6.2-72c0.2-2.6,0.8-5.6,1.8-8.2c1.9-4.9,9.2-3.5,9.1,1.7&#10;&#9;&#9;c-0.1,8.6,0.9,17.2,3,25.5c0.8,3,5,3,5.8,0.1l5.2-19.8c1.1-4.1,7-4.2,8.1-0.1c3.3,11.6,1.9,25,3.5,37.5c0.3,2.6,4.1,2.5,4.3-0.1&#10;&#9;&#9;c1.5-13.3,3.9-26.5,7.2-39.5c1.2-4.6,7.6-4.9,9.2-0.5c1.8,5,1.9,11.2,1.8,16.7c-0.3,16,1,31.9,3.9,47.6c0.7,3.7,6.1,3.7,6.7,0&#10;&#9;&#9;c3.5-20.6,5.8-41.4,6.8-62.3c0.5-10.7,0.9-21.9,3.5-32.2c1.3-5.2,8.9-3.9,8.5,1.4c-0.1,1-0.2,2.1-0.3,3.1c-0.2,2.2,2.9,3,3.6,0.9&#10;&#9;&#9;c3.7-10.2,3.7-22.8,8.1-31.8c2.1-4.2,8.4-2.9,8.6,1.8l0.7,18l9.5-24.7c1-2.7,4.8-2.9,6.2-0.4c2.7,5,2.4,12.2,1.9,18.3&#10;&#9;&#9;c-1,14,0.1,28.1,3.1,41.8c0.6,2.6,4.3,2.5,4.7-0.1c5-27.2-1.3-57.4,13.3-80.8l0.8,17.2c0.1,1.7,2.5,1.9,2.9,0.2&#10;&#9;&#9;c2.4-11.1,5.7-22,10.1-32.5c4.3,8,6.2,17.1,5.6,26.1c2.3-10.7,5.1-21.2,8.3-31.7c0.5-1.5,1.8-2.7,3.4-2.7c2.9-0.1,3.6,3.5,3.6,6.1&#10;&#9;&#9;c0,11.4,0,22.9,0,34.3c0,2.7,3.8,3.1,4.5,0.5c4.8-19.6,8.9-38.9,11.8-59.2c0.3-2.2,2-4.1,4.2-4.4c3.8-0.5,5.3,4,5.7,7.5&#10;&#9;&#9;c0.7,6.2,1.4,12.4,2.1,18.6c9.9-13.5,2.9-33.5,10.6-48.3c0.7-1.3,1.4-2.5,2.6-3.3c2.5-1.7,6.1-0.9,8.4,1.1c2.3,2,3.6,4.9,4.8,7.6&#10;&#9;&#9;c0.5-2.3,3.9-2.7,5.7-1.1c1.8,1.5,2.2,4,2.5,6.3c3.5,30.6,2.9,61.6,6.9,92c0.1,1,1.6,0.9,1.6-0.1c-0.2-21.5,2.2-42.9,7.2-63.8&#10;&#9;&#9;c0.9,6.6,1.5,13.2,1.7,19.8c0.1,3,4.4,3.4,5,0.5c6.1-27.2-3.8-58.3,4.8-85.5c0.8,17.3,1.1,34.6,1.1,51.8c0,2,2.8,2.3,3.2,0.4&#10;&#9;&#9;l11.3-52.2c-1,13.6-2,27.1-3,40.7c1.7-18.8,7.6-37.1,17.2-53.3c0.5,16.5,1.5,33.2,2.3,49.9c0.2,4.3,6.5,4.5,6.9,0.2&#10;&#9;&#9;c2.2-20.2,0.3-41.4,7-60.7c6.2,2.2,6.3,10.7,5.9,17.2c-1.1,15.9,1.1,32.1,6.4,47.2c-0.2-12.2,2.1-24.4,6.6-35.7l6,33.7l8.2-29.5&#10;&#9;&#9;c5.4,7.1,4.1,17,3.5,25.9c-0.3,5,0,10.6,1.8,15.3c1.6,4.3,7.9,3.6,8.6-0.9l6.9-44.9c2.4,8.3,4.2,16.8,5.3,25.3&#10;&#9;&#9;c3-9.7,7.6-19,13.6-27.2l2.9,43.7c8.2-11.6,13.2-25.5,14.5-39.7c5.6,11.9,10.5,24,14.8,36.4c1.5,4.3,7.7,4.4,9.2,0.1&#10;&#9;&#9;c2.4-6.7,5.3-13.2,8.6-19.5c5.4,1.9,6.6,8.8,7,14.5l2,28.4c0.2,2.3,3.4,2.4,3.8,0.2c1.3-8,3-15.9,5.1-23.7&#10;&#9;&#9;c5.5,7.9,8.8,17.5,9.1,27.1c4.8-7.5,7-16.7,6-25.5c1.7,14.5,3.4,29,5.1,43.5c13.2-11.8,4.4-34.1,10.3-50.8&#10;&#9;&#9;c6.5,18.7,9.9,38.5,10.3,58.3c4.4-4.6,6.7-11.2,5.9-17.5c7.9,3.6,9.1,14,9.2,22.7c0.2,10.9,0.4,21.8,0.6,32.8&#10;&#9;&#9;c0.1,3.8,5.4,4.5,6.5,0.9c4.7-15.9,0.7-35.7,8.7-50.8c4.4,10.7,6.9,22.2,7.4,33.8c0.1,2.5,3.6,2.9,4.3,0.5&#10;&#9;&#9;c1.2-4.7,2.4-9.4,3.4-14.2c0.3,32.4,0.7,65,6.7,96.8c1.1,5.8,9.2,6.3,11,0.7c6.6-21-2.7-49.5,10.6-68.4&#10;&#9;&#9;c18.9,24.2,10.8,58.8,16.3,89.2c0.6,3.4,5.5,3.5,6.2,0.1c5.8-25.8,8.3-52.4,7.4-78.8c6.6,2.3,8.4,10.5,9.3,17.4&#10;&#9;&#9;c5.5,45.2,11.1,90.4,16.6,135.6c3.5,28.6,5.2,55.3,10.1,83.7C1256.1,502.5,1253.3,563.8,1250.4,624.6z" transform="matrix(1, 0, 0, 1, 2.842170943040401e-14, 0)"/><path id="XMLID_428_" fill="#092543" d="M923.7,655.5c0,0,1.2-4.3,0.3-7.3c-0.9-3-4-3.4-4-3.4s-6.1-29.5-11-36.5&#10;&#9;&#9;c-4.9-7-18.3-1.5-20.7-4.6c-2.4-3-3.7-4.6-6.1-5.5c-2.4-0.9-1.8-5.5-1.8-5.5s4.3-6.4,4.6-10.4c0,0,5.5-7.6,2.4-9.7&#10;&#9;&#9;c0,0,1.1-4.9,1.1-10.3c0.8-0.7-0.2-4.3-0.3-5.1l0,0c-0.5-3.6-1.8-6.8-4.5-8.1c-7.9-3.7-18.3-7.6-29.2-1.5c-5.4,3-7.5,7-8.1,10.5&#10;&#9;&#9;l0,0c-0.7,0.1-0.6,4.7,0,4.8c0,0,0,0,0,0c0.2,1.3,0.6,2.2,0.8,2.7c0.9,1.8,0.3,7,0,8.8c-0.3,1.8,2.1,6.7,4.6,8.8l6.4,9.4&#10;&#9;&#9;c-0.9,0.6-0.9,4.3-2.1,5.8c-1.2,1.5-3-0.6-4.9,3.4s-25,5.8-26.8,9.7c-1.8,4-8.8,48.4-10.4,52.1c-1.5,3.7-13.4,54.2-13.7,55.7&#10;&#9;&#9;c-0.3,1.5,1.5,2.1,2.7,2.1c1.2,0,1.5,18.3,4.3,21.3c2.7,3,14.3,4,14.3,4s-19.6,37.5-21.4,47.5c-1.8,10.1,4,46.5,4.3,51.5&#10;&#9;&#9;c0.3,5.8-0.6,14.6-13.2,17.5c-11,2.6-19.1,1.9-18.5,8c0.6,6.1,21.3,4.9,26.2,4.3c4.9-0.6,15.7-2.2,21.2,0.1&#10;&#9;&#9;c5.5,2.3,12.5,1.1,12.8-2.6s-1.2-18.6,0-22.8c1.2-4.3-4.2-46.9-2.3-50.9c1.8-4,29.5-54.5,32.6-54.5c3,0,8.2,0.3,8.2,0.3&#10;&#9;&#9;s3.4,45.1,4.3,51.8c0.9,6.7,0.2,54.8-0.7,58.5c-0.9,3.7-21.3,13-18.3,21.4c3,8.4,34.7-11,39-13.5c4.3-2.4,8.2-1.8,7-8.5&#10;&#9;&#9;c-1.2-6.7-0.8-45.4,0.1-52.1s-1.3-52.4,3-57.9c4.3-5.5,19.5-16.8,21-21.9C928.6,717.9,925,657.9,923.7,655.5z M836,711.8&#10;&#9;&#9;c-2.1,4.8-4.9,2.8-4.9,10.1c0,7.3-7.3,18.3-7.3,18.3s-1.2-6.1-1.2-7.9c0-1.8-1.8-4.6-1.8-4.6s-0.9-6.1,0-6.4&#10;&#9;&#9;c0.9-0.3,10.1-33.8,15.2-42.6c0,0,0.6,4.3,0,9.7C835.4,693.9,838.2,707,836,711.8z" transform="matrix(1, 0, 0, 1, 2.842170943040401e-14, 0)"/><path id="XMLID_406_" fill="#061526" d="M0,0v980h1400V0H0z M1265.2,691.9c-1,13.6-5,30.6-18.4,33.3c-7.4,1.5-45.9-0.5-57,10.3&#10;&#9;&#9;c-3,2.9-4.7,7-7.7,10.1c-13.6,13.9-46,0-52,18.4c-2,6.1,0.8,12.8,0.6,19.2c-0.4,10.3-8.5,18.5-16.8,24.5&#10;&#9;&#9;c-23.5,16.8-53.9,23.5-82.3,18.2c-4.4-0.8-8.9-1.9-13.3-1.2c-14.5,2.5-18.1,21.2-26.3,33.4c-6.1,9-16.2,15.2-27,16.5&#10;&#9;&#9;c-12.2,1.5-24.4-2.9-36.7-3.3s-26.8,5.7-28.5,17.9c-0.4,3.2,0.1,6.5-0.8,9.6c-2.7,9.2-14.9,10.5-24.5,10.4&#10;&#9;&#9;c-37.2-0.3-74.4,6.1-109.4,18.8c-18.3,6.6-36.2,15-55.3,18.9c-27.5,5.5-55.9,1.4-83.7-2.7c-5.7-0.9-11.9-1.9-16-5.9&#10;&#9;&#9;c-4.3-4.1-5.5-10.4-6.5-16.3c-1.8-10.9-3.7-21.8-5.5-32.6c-0.7-4.3-6.9-4.6-7.9-0.3l-6.9,26.9l-6.6-28.5c-0.7-3.2-5.3-3-5.8,0.2&#10;&#9;&#9;c-2.5,15.7,4.6,34.9-6.9,45.8c-5.7,5.4-14.2,6.5-22,7.1c-28.6,2.1-57.5,0.7-85.8-4.2c-22.2-3.8-44.6-9.8-66.9-6.7&#10;&#9;&#9;c-31.1-8.9-63.6-21.3-86.9-43.6c-6.6-6.4-12.6-13.5-19.9-19.2c-14.7-11.5-33.7-16.2-49.6-26c-12.9-8-23.6-19.5-30.7-32.9&#10;&#9;&#9;c-3.4-6.3-6-13.1-10.4-18.7c-3.2-4.1-7.3-7.5-10.3-11.8c-7.8-11-7.2-25.2-8.9-38.8c-0.4-3.1-4.9-3.1-5.3,0&#10;&#9;&#9;c-1.2,9.4-2.7,18.7-4.7,27.9c-3.4-0.2-5.1-4.3-5.9-7.6c-4.3-18.1-8.6-36.2-12.9-54.4c-0.6-2.7-4.5-2.3-4.7,0.4&#10;&#9;&#9;c-0.9,14.8-2.2,29.5-4,44.2c-6.6-4.5-9.3-12.7-11.4-20.3c-17.3-61.3-27.2-124.4-34.2-187.7c-5.3-47.9-35.5-93.1-37.5-141.3&#10;&#9;&#9;C48,299.8,13.7,203.9,28.4,104.6c0.4-3,2.8-5.3,5.1-6.9c2.1-1.5,5,0,5,2.6c0.2,42.7,6.3,125,16.1,170.8c0.5,2.5,4.2,2.2,4.4-0.3&#10;&#9;&#9;c2.4-32.5,2.8-95.6,3.1-116.9c0.2-15.9-0.1-32.2,3.5-47.5c1.1-4.5,7.8-3.7,7.8,0.9l0,0.1c0.1,32.7,0.3,65.4,0.4,98.1&#10;&#9;&#9;c0,2.3,3.3,2.6,3.7,0.4c6-27.7,8.8-56.1,8.4-84.5C85.7,109.7,85.2,97.2,88,86c1-4.1,6.9-3.6,7.3,0.6c4.3,50.2-3.1,101.4,3.5,151.3&#10;&#9;&#9;c0.2,1.7,2.7,1.6,2.8-0.1l1.2-28.8c1.2-29.3,2.7-59.7,14.6-86.3c1.4-3.1,5.7-3.3,7.5-0.5c18.8,30.6,23.8,68.1,26.1,104.2&#10;&#9;&#9;c1.1,17.5,1.7,35.1,1.7,52.7c0,3.1,4.5,3.6,5.1,0.5c3.4-16.7,5.3-33.7,5.7-50.7c0.4-20-1-41.1,6.3-59.3c1.3-3.2,5.8-3.2,7,0&#10;&#9;&#9;c6.7,17.1,10.4,35.3,10.9,53.7c0.3,11.5-0.7,23.2,0.3,34.6c0.3,3.1,4.7,3.3,5.3,0.3c1.8-9.6,2.8-19.3,3.1-29&#10;&#9;&#9;c0.1-3.3,4.7-3.9,5.7-0.8c5,15.9,6.1,32.9,6.5,49.9c0.1,2.5,3.5,3,4.3,0.7c2.9-8.2,5.1-16.6,6.6-25.1c0.6-3.7,6-3.4,6.1,0.4&#10;&#9;&#9;c0,0,0,0.1,0,0.1c0.5,22.2,1,44.4,1.5,66.6c0.1,3.4,4.7,4.2,5.9,1c8.8-22.7,5-49.8,9.4-74.7c0.4-2.3,3.7-2.3,4.1,0&#10;&#9;&#9;c5.6,32.9,0.2,67.1,3.1,100.5c0.2,2.3,3.5,2.6,4.1,0.4c4.7-17.7,1.1-37.4,2.6-56.1c0.2-2.8,4.3-2.9,4.7-0.1&#10;&#9;&#9;c2.3,17.5-0.2,35.8,0.3,53.7c0.1,4.2,6.2,4.5,6.7,0.3c3.3-23.2-3.1-48.6,3.9-71.4l0.3,34c0,2.8,3.9,3.3,4.7,0.7&#10;&#9;&#9;c3.8-11.3,1-25.8,5.1-37.2c0.7-1.8,3.4-1.4,3.4,0.6l1,75.7c0,3.7,5.3,4.3,6.2,0.8c5.4-20.6,1-44.2,4.5-65.8c0.3-1.9,3-1.8,3.2,0.1&#10;&#9;&#9;l4.5,39.1c0.3,2.6,3.9,2.7,4.5,0.2c3.8-15.9,2-27.6,5.1-46.6c0.2-1.2,2-1.1,2,0.1c0.5,17.1,2.1,34.1,4.7,51&#10;&#9;&#9;c0.4,2.4,3.8,2.5,4.3,0.2c10.4-48.7,0.5-100.2,5.9-149.9c0.3-2.4,3.7-2.7,4.3-0.3c5.2,21,7.9,42.5,10.3,64c0.2,2.1,3.2,2.4,3.8,0.3&#10;&#9;&#9;c3.5-12.6,5.9-25.5,7.1-38.5c-0.9,9.2-0.5,18.6,1.1,27.7c0.6,3.1,4.8,3.6,6,0.7c2.8-6.6,5-13.5,6.5-20.6c7.5-35.2,18-69.6,26-104.7&#10;&#9;&#9;c0.8-3.5,1.7-7.2,4.5-9.8c1.6-1.4,3.8-2.1,5.9-1.6c4.1,1,5.1,5.9,5.6,9.9c0.9,8.5,1.8,16.9,2.7,25.4c3.5-4.5,5.4-10.1,5.5-15.7&#10;&#9;&#9;c2.8-1.7,5.7,2,6.6,5.2c9.4,33,14.2,67.3,14.3,101.6c0,1.3,1.8,1.6,2.2,0.4c2.8-8.5,5.1-17.1,4.9-26c-0.2-8.1-2.2-17.2,2.9-23.6&#10;&#9;&#9;c3.2,0.8,3.9,5,3.9,8.3c-0.1,12.4-0.2,24.8-0.3,37.2c0,5.5-0.1,11.1,0.7,16.5c0.3,2.5,3.9,2.6,4.4,0.2c4.4-19.5,6.4-39.6,5.8-59.6&#10;&#9;&#9;c-0.1-2.1,3-2.3,3.2-0.2c1.5,12.8-2,27.1,1.6,39.2c0.6,2,3.5,1.8,3.8-0.3c1.5-13.3,3.3-26.6,5.6-39.8c0.4-2.5,0.9-5.1,3-6.7&#10;&#9;&#9;c1.3-1,3.1-1.4,4.5-0.5c1.7,1,1.7,3.1,1.7,4.9c0,14.7,1.6,29.4,4.8,43.8c0.4,2,3.3,2.2,4,0.2c0.2-0.7,0.4-1.4,0.5-2&#10;&#9;&#9;c1.7-14.1-1.9-29.3,1.7-42.5c0.6-2.2,3.8-1.8,4,0.4c1.8,19.5,2.4,39.1,1.8,58.7c-0.2,5.7-0.4,11.6,0.5,17.2c0.5,3,4.8,3,5.4,0.1&#10;&#9;&#9;c1-5.1,1-10.5,1-15.8c-0.1-17.7-0.2-35.5-0.2-53.2l0-0.1c0-3,4.4-3.3,4.8-0.3c3.6,31.1,4.9,62.4,4,93.7c-0.1,2,2.8,2.5,3.4,0.6&#10;&#9;&#9;c1.8-5,2-10.7,2-16.1c0.3-29.7,0.6-59.4,0.9-89.1c0.8,1.3,1.5,2.8,2.1,4.2c0.5,1.2,2.2,0.9,2.3-0.3c0.6-7.2,1.8-14.3,3.6-21.3&#10;&#9;&#9;c2.1,11.1,0.9,25.3,1.8,35.9c0.1,1.5,2.3,1.5,2.4,0c0.9-14.8,2.6-29.6,7.9-43.3c7.4,7.4,8.9,18.8,9.3,29.3&#10;&#9;&#9;c0.3,8.4,0.2,17.1,2.8,24.9c0.5,1.4,2.5,1,2.5-0.4c0.1-18.2,2.8-36.4,8.1-53.8c3.5,0.2,4.8,4.7,5.1,8.2l4.7,55.1&#10;&#9;&#9;c0.1,1.4,2.2,1.5,2.4,0c2.7-21.6,4.3-43.3,4.2-65c0-6,1.3-12,3.8-17.5c0.8-1.7,1.8-3.5,3.6-5.2c1.5-1.4,3.6-2,5.6-1.4&#10;&#9;&#9;c2.7,0.8,3.3,3.1,3.8,5.3c6.6,28.4,11.2,57.3,13.7,86.4c0.2,2.6,3.8,3,4.7,0.6c5.4-15.3,6.2-32.2,6.9-48.6&#10;&#9;&#9;c3.9,17.5-3.8,37,0.6,53.8c0.6,2.3,3.9,2.2,4.3-0.2c3.5-20,5.6-40.3,6.2-60.6c0.2-7.6,0.5-15.7,3.3-22.5c1.2-3,5.7-2.6,6.4,0.6&#10;&#9;&#9;c0.8,3.6,1.4,7.3,1.9,11c0.2,1.7,2.6,1.9,3.2,0.3c4.5-13.8,2.2-30.1,6.4-43.7c1.1-3.4,6.1-2.9,6.5,0.7c2.5,23.8,4.8,47.6,6.8,71.5&#10;&#9;&#9;c0.2,2.7,4,3.1,4.8,0.6c3.9-11.6-0.8-26.7,2.8-39.2c5.7,25.6,8.5,51.9,8.4,78.2c0,2.2,3.2,2.6,3.7,0.4c5.3-22.7,7.7-46.2,7-69.5&#10;&#9;&#9;c0-1,1.5-1.2,1.7-0.2l7.8,34.7c0.6,2.8,4.6,2.8,5.3,0c4.5-18.9,0.9-39.9,3.7-59.2c0.6-4.4,6.9-4.6,7.9-0.3l1.1,4.7&#10;&#9;&#9;c0.5,2.1,3.6,2.2,4.1,0l5.3-21.8l2.6,9c0.4,1.5,2.6,1.4,2.8-0.2c0.4-3,0.5-6,0.3-9c3.3,10.4,6.6,20.7,10.1,31.1&#10;&#9;&#9;c1,3,5.3,2.6,5.8-0.4c2.2-13.4-1.2-28.7,7.6-38.9l4.1,16c0.4,1.6,2.8,1.4,2.9-0.3c0.3-3.9,0.7-7.9,1.7-11.6&#10;&#9;&#9;c0.8-3.4,5.6-3.5,6.6-0.2l1.3,4.3c0.6,2.1,3.6,1.9,4-0.2c1.3-7,4-13.8,7.8-19.8c1.8,6.2,3.8,25.5,5.5,40.4c0.4,3,4.6,3.1,5.1,0.1&#10;&#9;&#9;c2.3-13.4,5.5-32.2,7.6-45c0.6-3.5,5.5-3.8,6.5-0.4c0.4,1.5,0.9,2.9,1.3,4.3c0.7,2.5,4.3,2.4,5-0.1c2.7-11,5.7-22,8.9-32.9&#10;&#9;&#9;c2.5,3.1,4.2,6.9,4.9,10.8c0.5,3,4.6,3.5,5.8,0.7c0,0,0,0,0-0.1L862.2,19c1.3-3.1,5.9-2.7,6.6,0.7c0.5,2.5,1.1,5,1.8,7.5&#10;&#9;&#9;c0.9,3.3,5.4,3.4,6.6,0.3l3.1-8.5c0.5-1.5,2.7-1.6,3.3-0.1l4.8,11.1c0.9,2,3.8,1.9,4.5-0.2l3.2-9.6c0.6-1.7,2.8-3.3,5.3-4.6&#10;&#9;&#9;c4.5-2.4,10,0.3,11.1,5.2l0.7,4.8c0.2,1.6,2.6,1.6,2.8,0l1.1-7c0.7-1.6,3.1-1.5,3.6,0.2c0.9,2.6,1.9,8.9,2.6,14.3&#10;&#9;&#9;c0.1,1.2,1.8,1.2,2,0.1l2-11.1c5.7,10.3,5.5,22.8,8.6,34.2c0.3,1.2,2.2,1,2.2-0.3c0.3-6.8,1.3-13.5,3.2-20&#10;&#9;&#9;c3.6,2.5,2.8,7.9,2.2,12.3c-0.5,3.8-0.5,7.7,0.1,11.5c0.3,2.1,3.3,2.4,4,0.3c1.1-3.6,1.8-7.4,2-11.1c0.2-4,0.1-8.4,1.6-11.9&#10;&#9;&#9;c0.6-1.4,2.7-1,2.8,0.5c0.6,13.1,2.6,26.2,5.8,38.9c0.6,2.5,4.3,2.4,4.7-0.2c1.7-10.1,0.2-21.1,3.9-30.8c0.5-1.2,1.1-2.6,2.8-2.7&#10;&#9;&#9;c0.9-0.1,1.9,0.3,2.5,1c1.5,1.4,1.8,3.4,2.1,5.4l4,28c0.2,1.6,2.5,1.6,2.8,0.1c1.7-9.4,3.6-18.8,6.1-28.1c1.9,3.4,3.4,7,4.7,10.7&#10;&#9;&#9;c0.3,1,1.8,0.9,2-0.2c1.5-7.8,3.7-15.5,6.6-22.9l3.6,22.4c0.2,1.3,2.1,1.3,2.3,0l3.7-19.1c4.4,3,5.2,9.1,5.5,14.4&#10;&#9;&#9;c1.4,24.7,2.1,49.4,2,74.1c0,1.8,2.5,2.2,3.1,0.5c8.1-25.5,1.1-54.8,8.1-81.2c1.7-0.5,2.8,1.8,3,3.6l1.4,12.1c0.1,1,1.5,1,1.7,0.1&#10;&#9;&#9;c1.1-5.6,2.9-11.1,5.3-16.3l1.5,29.6c0.1,1.4,2.1,1.6,2.4,0.2c1.4-5.8,1.8-11.9,2.1-17.9l6.3,61.9c0.2,1.7,2.6,1.9,3.1,0.3&#10;&#9;&#9;c4.2-15-1.2-32.9,4.3-47.2c0.7-1.7,3.3-1.5,3.5,0.4c2.2,16.4-1.9,33.9,2.6,49.4c0.4,1.5,2.7,1.3,2.9-0.2l4.6-38.3&#10;&#9;&#9;c0.2-0.5,0.4-1,0.6-1.4c1-2.7,4.9-2.2,5.3,0.6l7,46.7c0.3,2.2,3.6,2,3.7-0.2c0.8-17.1-3.9-35.2,5-49.6l4.5,48.6&#10;&#9;&#9;c0.2,2,3,2.1,3.4,0.1c1.3-7.2,3-14.9,4.6-16.8c1.6,16.7,2.7,33.4,3.3,50.1c0.1,3.3,4.8,3.8,5.6,0.6c2.7-10.6,1.7-22.7,4.9-33.1&#10;&#9;&#9;c0.7-2.4,4.3-2,4.4,0.5c0.2,4.6,0.5,9.3,1,13.9c0.1,1.1,1.6,1.4,2.2,0.4l4.7-8.9l1,15.6c0.2,2.5,3.8,2.7,4.2,0.3&#10;&#9;&#9;c1.8-9.2-0.2-20,4.6-28.2l0.7,34.9c0.1,2.8,4,3.4,4.9,0.7c2.1-6.6,1.6-14.7,4.1-21.3c0.6-1.5,2.8-1.5,3.2,0.1&#10;&#9;&#9;c1.3,4.8,2.2,9.8,2.9,14.7c0.3,2.3,3.4,2.8,4.4,0.7c2.5-5.1,4.1-10.7,4.5-16.4l5.2,22.9c0.5,2.1,3.4,2.5,4.4,0.6l1.6-3.1&#10;&#9;&#9;c1.2-2.4,4.6-2.5,5.9-0.2c3.3,5.8,3,14.7,8.4,19.1c2.6,2.1,6.1,2.7,8.8,4.7c3.3,2.4,5.1,6.3,6.7,10.1c3,6.9,5.9,13.9,7.6,21.2&#10;&#9;&#9;c2.9,12.7,1.8,26.4,5.4,38.8c0.6,2.2,3.6,2.5,4.7,0.5c3.4-6.1,5.4-12.9,5.7-19.8c1.9,14.6,3.9,29.2,5.8,43.9&#10;&#9;&#9;C1258.2,414.2,1275.4,553.4,1265.2,691.9z" transform="matrix(1, 0, 0, 1, 2.842170943040401e-14, 0)"/><path id="XMLID_404_" fill="#030A1E" d="M0,0v980h1400V0H0z M1310.7,456.6c-1.5,19.5-6.4,38.6-8.9,58c-9,67.8,10.1,137.5-1.8,204.9&#10;&#9;&#9;c-2.2-9.3-4.5-14.2-4.9-23.7c-0.3-7.7-0.2-15.8-2-23.2c-0.5-2.2-3.7-1.9-3.8,0.4c-0.3,8.4-1.2,16.8-2.8,25.1&#10;&#9;&#9;c-8.6,45.1-3.8,91.7-7.5,137.5c-0.2,3-4.8,2.8-4.7-0.3c0-0.9,0.1-1.8,0.2-2.7c2.6-21.8,3.5-43.7,2.5-65.6c-0.3-8.5-1-17.2-3.6-25.2&#10;&#9;&#9;c-0.7-2.1-3.8-1.6-3.8,0.6c0.3,19.6-2.2,39.2-7.5,58c-0.7-17.5-1.3-35-1.9-52.5c-0.1-2.1-3.1-2.3-3.5-0.3&#10;&#9;&#9;c-7.5,38.8-7.8,78.7-8.1,118.3c-3.1,2.8-6.6-3.2-6.6-7.4l-0.3-49.9c0-1.3-1.8-1.5-2.1-0.2c-7.5,36.1-11.5,73-11.9,109.9&#10;&#9;&#9;c0,4.4-0.1,9-1.6,13.2c-2.7,7.5-9.8,12.6-15.8,17.6c-1.8,1.5-4.2,2.2-6.5,1.6c-3.4-0.9-3.8-3.7-4.1-6.3c-1.7-14.3-3.5-28.7-5.2-43&#10;&#9;&#9;c-0.4-3.1-4.8-3.6-5.8-0.6c-0.7,2.3-1.1,4.9-1.3,7.3c-1.5,16.1-3,32.2-4.5,48.3c-0.3,3.6-3,6.6-6.6,6.9c-5.9,0.6-7.9-6.8-8.1-12.3&#10;&#9;&#9;l-2.4-58.2c-0.2-4-5.9-4.3-6.6-0.4c-1.5,8.4-2.3,16.8-2.4,25.3c-0.2,17.1,2.2,35.4-7,50c-0.6,1-1.6,1.9-2.8,2.2&#10;&#9;&#9;c-5,1.7-7.2-6.2-6.6-11.4c2.9-26.2,2.5-52.7-1.2-78.8c-0.4-2.5-4-2.5-4.3,0l-7.6,63.3c-1,8.4-5,19.3-13.4,18.3&#10;&#9;&#9;c-7.6-0.9-9.7-10.8-9.8-18.5l-5-239.8c-0.1-4.5-6.6-5.1-7.5-0.7c-0.6,2.9-0.9,5.9-1.1,8.7c-1.9,37.2-2.5,74.4-1.8,111.7&#10;&#9;&#9;c0.7,35.5,2.4,71.9-9.3,105.4c-3.7-0.9-5.2-5.4-5.9-9.1c-7.1-38-3.8-77.5-11.3-115.3c-0.4-1.9-3.2-1.7-3.3,0.2&#10;&#9;&#9;c-2,45.5-5.9,91-11.8,136.2c-3.9,1.5-7.8-1.3-10.1-4.8c-2.3-3.6-2.9-7.9-3.4-12.1c-3.4-29.2-6.9-58.5-6-87.8&#10;&#9;&#9;c0.3-11.1,0.9-23.1-2-33.5c-1.3-4.5-7.9-3.5-7.9,1.2c0.3,32.3,0.6,64.7,0.8,97c0.1,18.1-0.3,37.9-12.1,51.7c-10-5-13-17.5-15-28.5&#10;&#9;&#9;c-3.2-18-6.5-35.9-9.7-53.9c-0.9-4.9-8-4.7-8.6,0.2c-0.3,2.2-0.3,4.4-0.3,6.4c0,17.6,0,35.2,0,52.8l-4.5-24.8&#10;&#9;&#9;c-0.2-1.2-2-1.1-2.1,0.1c-0.7,7.9-2.5,15.8-5.4,23.2c-2.2-4.5-3.6-9.4-4.1-14.4c-0.4-3.1-4.7-3.6-5.7-0.6&#10;&#9;&#9;c-1.9,5.5-3.1,11.4-3.4,17.2c-0.2,3.1-2,5.8-4.9,6.8c-5.8,2-8.8-4.7-9.7-9.9c-1.3-7.5-1.9-15.1-1.8-22.7c0-2.5-2.8-3.9-4.8-2.4&#10;&#9;&#9;c-6.7,4.9-8.4,16-7.9,25.1c0.6,11.3,1.3,25-8.6,30.9c-0.6,0.4-1.3,0.6-2,0.5c-1.9-0.2-2.4-2-2.7-3.6c-1.7-8.6-3.3-17.2-4.7-25.8&#10;&#9;&#9;c-0.5-3.3-5.3-3.5-6.1-0.2c-2.9,11.6-0.1,26.3-9.5,33.5l-14.8-72.4c-0.8-4-6.7-3.7-7.1,0.3c-1,9.7-0.2,19.7-0.5,29.5&#10;&#9;&#9;c-0.5,15.4-4.9,32.8-18.4,40.2c-1.3,0.7-2.7,1.3-4.1,1.3c-1.8,0-3.4-0.9-4.9-1.8c-12-8.2-14.8-24.7-14.5-39.3&#10;&#9;&#9;c0.2-10.7,1.4-21.9-0.5-32.3c-0.6-3.3-5.3-3.5-6.1-0.2c-3.9,16-7,32.3-9.2,48.7c-0.3,2.4-3.2,3.4-5,1.8c-4.2-3.8-5.8-10.9-6.5-16.9&#10;&#9;&#9;c-1.6-13-3.1-26.1-4.7-39.1c-0.2-1.9-3-2-3.3-0.1c-2.7,15.7-5.9,31.2-9.4,46.7c-1,4.4-2.2,9.1-5.3,12.4c-6.9,7.3-20,3.8-26.1-4.2&#10;&#9;&#9;c-6.1-8-7.1-18.6-8.2-28.5c-2-18.6-5-37.1-8.8-55.4c-0.5-2.6-4.2-2.6-4.8,0l-4.6,22.2c-3.3-3.2-5.6-7.4-6.8-11.9&#10;&#9;&#9;c-0.3-1.4-2.3-1.3-2.6,0.1c-6.1,32.8,2.5,67.6-4.3,100.5c-11.3-12.6-8.2-33.1-12-50.1c-0.9-3.9-6.6-3.5-7,0.5&#10;&#9;&#9;c-0.8,9.2-1.2,18.4-1.2,27.6c0,3.1-4.6,3.3-4.8,0.2c0-0.9,0-1.7,0-2.5c0.7-13.6-0.3-27.2-3-40.5c-0.5-2.3-3.8-2.1-4,0.2l-3.2,38.5&#10;&#9;&#9;c-0.2,2.8-4.4,2.9-4.7,0c-2.2-22.1,1.1-45.4-7-65.1c-1-2.4-4.5-1.7-4.6,0.9l-2.1,79.6c-1.7-7.2-2.5-14.6-2.5-21.9&#10;&#9;&#9;c0-1.7-2.6-1.8-2.7-0.1c-0.5,8.8,2,18.9-5.2,23.5c-4,2.5-9,1.9-12.7-1c-6.7-5.3-7.9-13.6-8.8-21.5c1,5.9-3.4,11.7-8.8,14.3&#10;&#9;&#9;c-5.4,2.6-11.6,2.8-17.6,3c-5.3,0.1-10.6,0.3-15.9,0.4c-3.1,0.1-6.3,0.1-9-1.3c-4.9-2.6-6.2-8.8-7-14.3l-5.5-38&#10;&#9;&#9;c-0.3-2-3-2.4-3.8-0.5c-3.9,9.3-6.2,19.4-6.7,29.5c-0.2,5.2-1.3,12.1-6.5,12.8c-12-15.3-15.1-35.3-17.1-54.8&#10;&#9;&#9;c-0.2-1.8-2.6-2.1-3.3-0.5c-3.7,9.2-4.9,19.3-3.6,29.1l-5.3-32.8c-0.4-2.4-3.9-2.4-4.2,0.1l-4.5,37.3c-0.9,7.8-2.6,16.8-9.4,20.7&#10;&#9;&#9;c-4.7,2.7-10.6,2.2-15.8,0.9c-19.9-5-36.6-21.1-42.3-40.8c-4.1-14.2-2.8-29.7-6-44c-0.9-3.9-6.4-4.2-7.8-0.4&#10;&#9;&#9;c-6.3,17.1,3.3,40.5-5.9,57.6c-6.5-7-7.3-17.4-7.8-26.9l-2.5-48.7c-0.3-6.1-9.4-5.9-9.4,0.2c0,0.7,0,1.5,0.1,2.3&#10;&#9;&#9;c1.2,17.5,1.7,36.3-7.5,51.3l-6.6-32.7c-0.7-3.2-5-4-6.6-1.1c-10.4,17.9-11,41.2-22,59.2c-0.5,0.8-1,1.4-1.8,1.9&#10;&#9;&#9;c-3.6,2.4-7.2-1.3-9.1-4.7c-17.5-31.3-7.1-70.4-13.4-105.6c-0.8-4.2-6.6-4.6-7.9-0.5c-3.6,11-6.3,22.3-8.1,33.7&#10;&#9;&#9;c-1.5-19.7-2.2-39.4-2.1-59.1c0-5.1-6.8-6.5-9-2c-1.1,2.5-2,5.1-2.8,7.6c-14,44.6-18.1,92.3-12,138.7c0.3,2.3,0.6,4.8-1.1,6.6&#10;&#9;&#9;c-0.8,0.9-2.2,1.3-3.3,0.8c-1.4-0.6-1.5-1.8-1.6-3l-5.4-50.1c-0.2-1.8-2.8-1.9-3.1-0.1l-6.6,39.4c-2.3-22.3-3.4-44.7-3.3-67.2&#10;&#9;&#9;c0-2.8-3.9-3.7-5.1-1.2c-5.2,11.2-6,24.4-5.7,37c0.4,15.9,2,32.3-3.4,47.2c-15.9-7.4-24.4-25.1-27.9-42.3&#10;&#9;&#9;c-2.6-12.5-3.2-25.3-5.3-37.8c-0.3-2-3.3-1.8-3.3,0.2c-0.3,17-0.8,33.9-1.6,50.9c-0.3,5.6-8.6,5.8-9,0.2c0-0.1,0-0.1,0-0.2&#10;&#9;&#9;l-4.5-60.2c-0.3-3.5-5.3-3.8-5.9-0.4c-2.2,11.2-3.2,22.7-3.1,34.1c-11.3-16.5-5-38.4-6.3-58.7c-0.2-3.7-5.5-4.5-6.7-0.9&#10;&#9;&#9;c-5.1,14.9-6.7,31.1-4.5,46.7c-7.6-5.5-8.7-16.2-9.1-25.6c-0.6-13.7-1.2-27.5-1.8-41.2c-0.1-2.9-4.3-3.1-4.7-0.2&#10;&#9;&#9;c-2.6,18.1,1.5,37.7-1,55.9c-0.7,4.9-7.4,5.8-9.3,1.2c-3.4-8.3-5.5-17.2-7.6-26c-10.2-42.8-20.4-85.6-28.7-128.7&#10;&#9;&#9;c-1.1-5.8-9.6-5.5-10.3,0.3c-0.7,6,0.1,12.6,0.9,18.6c3.4,24.8,1,50.4-7.1,74.1c-7.7-0.8-11-10-12.1-17.6&#10;&#9;&#9;c-5.6-40,4.5-81.7-6.1-120.8c-0.3-1.1-0.9-2.2-1.7-3c-2.2-2.2-4.4-1.1-5.9,0.3c-4.9,4.5-4.9,12.1-4.8,18.8&#10;&#9;&#9;c0.5,27.3-3.4,54.6-11.5,80.6c-2.7,0.1-5.4-1.8-6.2-4.4c-5.2-16.5-1.7-34.8-0.9-52.1c0.7-13.7,1.4-27.5,0.2-41.2&#10;&#9;&#9;c-1.3-15.4-4.9-30.6-5.8-46.1c-1.1-20.4,2.6-40.7,5.2-61c10.5-82,2.5-165.2,5.2-247.9c-4.3,21.7-6.8,43.7-7.7,65.9&#10;&#9;&#9;c-3.2-33.1-4.3-66.5-3.2-99.7c1-31.7-9.6-62.7-10.1-94.5c0-1.5,0-3.1,0.9-4.3c2.2-3,9.4-2.8,10.9,3.2c1.7,6.8,1.3,14,2.3,21&#10;&#9;&#9;l4.9,34.8c0.3,2,3.2,1.9,3.4-0.1c0-0.2,0-0.3,0-0.5c1-19.8,1.4-39.6,1-59.4c-0.2-11.7-0.6-23.4,0.8-35c1.2-9.8,3.7-19.4,4.8-29.2&#10;&#9;&#9;C54.4,90,53.8,78.3,58.4,68c0.6-1.4,2.5-2.8,3.3-1.5c-2.1,12.1,0.2,24.5,1.6,36.7c1.6,14,1.9,28,1,42.1c-0.3,4.4-0.5,9.3,1.4,13&#10;&#9;&#9;c0.5,0.9,1.9,0.7,2-0.4c3.7-27,4.4-54.3,4.6-81.5c0.1-7,0.2-14.3,2.9-20.6c0.7-1.5,2.9-1.4,3.4,0.2c2.5,7.8,4,16,4.4,24.2&#10;&#9;&#9;c0.4,7.5,0,15.4,2.5,22.3c0.2,0.7,1.2,0.6,1.3-0.1l7-44.4c0.2-1.1,1.2-1.8,2.2-1.4c2.3,0.8,3.4,4.4,3.5,7.5&#10;&#9;&#9;c0.2,13.1-1.5,26.3,0.7,39.2c0.1,0.6,0.9,0.6,1,0l5.3-31.6c0.3-1.8,1.5-3.4,3.2-4c4.3-1.6,6.8,4.3,7.1,8.6&#10;&#9;&#9;c3.4,40.2,4.5,80.7,3.3,121c-0.3,9.3-0.7,18.8,1.5,27.9c0.3,1.3,0.7,2.7,2.2,3.1c1.2,0.3,2.5-0.2,3.2-1.2c1.5-1.9,1.3-4.3,1.2-6.5&#10;&#9;&#9;c-0.3-8.9,2.1-17.7,3.9-26.5c8.8-43,2.9-88.4,15.2-130.5c0.3-1.1,0.8-2.4,2.3-2.5c1.3-0.1,2.4,0.7,2.9,1.9&#10;&#9;&#9;c14.8,35.2,13,74.8,11.8,112.9c-0.1,3.9-0.2,8,0.5,11.8c0.4,1.8,3,1.8,3.3,0l0,0c1.1-5.5,2.2-11,3.3-16.5&#10;&#9;&#9;c1.9-9.5,3.8-18.9,4.7-28.5c2.2-22.3-0.7-45.6,5.8-66.9c0.2-0.6,1.1-0.5,1.1,0.2c-0.5,23.8,0.5,47.7,3.1,71.4&#10;&#9;&#9;c0.2,1.7,2.6,1.7,2.8,0l0-0.1c2.3-20.5,4.6-40.9,7-61.4c0-0.4,0.5-0.5,0.7-0.2c4.1,5.3,4.3,12.7,4.3,19.5&#10;&#9;&#9;c-0.1,40.9,1,81.8,3.4,122.6c0.3,4.9,0.6,9.8,1.1,14.7c0.3,2.9,4.5,2.8,4.8-0.1c0.5-6,0.1-12.4,3-17c0.7-1.1,2.3-0.7,2.5,0.6&#10;&#9;&#9;l9.8,72c0.1,0.6,0.2,1.2,0.3,1.7c0.5,2.2,3.7,2.1,4-0.2c6.6-52.3,9-105.1,7.3-157.7c0-1.3,1.8-1.5,2.1-0.3&#10;&#9;&#9;c3.3,13.6,4.4,27.7,3.2,41.7c-0.8,9.1,2.1,17.7,2.9,26.6c0.1,1.3,2,1.3,2.2,0c0.1-0.8,0.2-1.5,0.3-2.3c4.8-47.8-0.3-96.5,8.9-143.6&#10;&#9;&#9;c0.2-1.2,1.2-2.3,2.4-2.4c2.3-0.3,3.1,2.6,3.2,4.8l3.7,81.4c0.1,1.4,2.2,1.6,2.4,0.1c1.2-7.3,1.7-19.6,1.9-27&#10;&#9;&#9;c0.4-16.1,2.6-32.6,9.7-47.1c5.9-3.4,6.5-11.8,8.4-18.3c2.5-8.7,8.7-15.9,14.4-22.9c0.8-1,2.3-1.5,3.5-1.1c1.5,0.5,1.6,1.7,1.6,2.9&#10;&#9;&#9;c0.5,11.9,0.9,23.9,1.4,35.8c0,0.7,1,0.7,1.1,0l3.5-31c0.3-2.9,0.7-6,3.1-7.9c1.2-1,2.8-1.4,4.2-0.9c2,0.7,2.4,2.5,2.7,4.2&#10;&#9;&#9;c2.6,14.5,5.2,29.1,5.9,43.9c0.3,6.8,0.3,13.7,1.8,20.3c0.6,2.8,4.7,2.6,5-0.3l0-0.1c1-10.8-0.1-21.6,0.1-32.4&#10;&#9;&#9;c0.1-9,1.2-18.2,4.6-26.4c1.4-3.3,5.6-4.5,8.4-2.2c3.6,2.9,5.8,7.7,6.5,12.7c8.4,62.8,9,126.3,9.5,189.6c0,2.8,3.9,3.6,4.9,1l0-0.1&#10;&#9;&#9;c0.6-1.3,0.8-2.8,0.7-4.2c-1.7-27.9,5.4-55.4,7.3-83.2c1.2-18.7,0.7-39.2,10.8-54.4c2-3,6.4-3.2,8.5-0.3c3.7,4.8,4.7,12.3,5.9,18.6&#10;&#9;&#9;c2.5,12.7,8.6,24.5,11,37.2c1.8,9.5,1.4,19.2,1.2,28.8c-0.8,35.8-0.3,71.7,1.7,107.4c0.1,1.4,0.2,3,1.3,4c0.7,0.7,1.8,0.9,2.6,0.4&#10;&#9;&#9;c0.8-0.5,0.8-1.2,0.8-1.9c1.3-35.8,0.6-71.5-0.6-107.3c-0.1-1.7,2.6-1.9,2.7-0.2c2.2,25.5-1,51.6,2.1,77.2c0.1,1,0.3,2.1,1.5,2.6&#10;&#9;&#9;c1.1,0.5,2.3,0.1,3.1-0.7c1.4-1.5,1.5-3.6,1.3-5.6c-0.5-8.8-2.4-17.6-2.3-26.4c0.2-10.8,3.3-21.3,4.9-32c2-13.6,1.6-27.5,1.8-41.3&#10;&#9;&#9;c0.5-24.3,3.4-48.5,6.2-72.6c0.6-4.9,1.2-9.7,2.3-14.5c0.6-2.4,2.5-5.4,4.7-4.4c-0.6,7.1-0.4,42.8,0.4,63.8c0.1,1.5,2.3,1.5,2.3,0&#10;&#9;&#9;c0.6-17.1,0.6-43.6,0.6-46c0.2-19.1,3.3-38.1,9.3-56.2c0.6-1.7,1.4-3.7,3.3-3.9c1.3-0.2,2.5,0.5,3.3,1.6c1.3,1.9,1,4.2,0.8,6.4&#10;&#9;&#9;c-1.2,11.7-1.9,40.6-1,60.2c0.1,2.9,4.3,3,4.6,0.2c1.2-10.4,1.9-23.1,2.1-25.4c1-14.4,4.2-28.7,9.5-42.2c1.1-2.7,3.6-4.6,6.6-4.7&#10;&#9;&#9;c4.3-0.2,8.8,0.3,11.1,3.4c1.1,1.5,1.7,3.3,2.2,5.1c5.3,18.7,2.5,80.5,1.3,112.5c0,1.2,1.7,1.3,1.9,0.2l13.4-76.3&#10;&#9;&#9;c0.4-1.5,1.7-2.7,3.2-2.7c2.7-0.1,3.3,3.1,3.3,5.5l0,19.8c0,0.7,1.1,0.8,1.2,0.1c0.8-3.5,1.6-7,2.6-10.4c1-3.5,6.1-2.9,6.2,0.8&#10;&#9;&#9;l0,0.1l0.5,25c0,2,2.8,2.4,3.5,0.5c0.6-1.8,0.9-3.7,1.2-5.6c0.5-2.7,1.9-5.7,4.1-7.1c1.3-0.8,3,0.2,3,1.7&#10;&#9;&#9;c0.4,21.7,2.5,43.3,6.2,64.7c0.4,2.5,4.1,2.4,4.3-0.2c0.1-0.7,0.1-1.3,0.1-2c-0.1-11.3-0.2-22.6-0.4-33.9&#10;&#9;&#9;c-0.1-7.4,0.2-15.8,4.8-21.3c0.9-1.1,2.6-1.1,3.6-0.1c4.8,5.3,6,13.2,6.1,20.5c0,6.9-0.6,14.1,1,20.7c0.2,0.8,1.4,0.7,1.5-0.1&#10;&#9;&#9;l4.4-38c1.4-11.9,2.8-24,7.5-34.9c0.7-1.7,13.7-21.7,13.7-21.7c0.5-1.6,2.7-1.7,3.3-0.1c1.7,4.2,1.8,9.1,1.8,13.7&#10;&#9;&#9;c0.1,15.7,0,31.3-0.3,47c-0.1,7.4-0.3,15,1.8,22c0.1,0.4,0.8,0.3,0.8-0.1c0-8,1.1-16,3.3-23.7c0.3-1.1,1.9-1.1,2.2,0l2.8,9.1&#10;&#9;&#9;c0.3,1,1.8,0.9,1.9-0.2c0.7-7.3,2.1-14.5,4.3-21.4c0.4-1.1,0.9-2.4,2.3-2.4c1.2,0.1,2.1,1,2.2,2.2c0.6,4.5,2.4,18.6,3.8,29.3&#10;&#9;&#9;c0.2,1.5,2.3,1.4,2.4-0.1c1.9-27.3,5.4-54.5,10.6-81.4c1.6-8.3,3.5-16.8,8-23.8c0.3-0.5,1-0.3,1,0.3l0.7,18.5&#10;&#9;&#9;c0,0.6,0.6,0.9,1.1,0.6c5.1-3.1,2.3-13.6,5.5-18.5c0.8-1.2,2.7-0.7,2.7,0.8l-0.4,60.9c0,5,0,10.3,1.5,15c0.5,1.4,2.6,1.1,2.6-0.4&#10;&#9;&#9;c0.8-15.8,3.7-31.4,8.4-46.5c0.4-1.4,2.5-1.3,2.8,0.2l0.8,17.2c0.1,1.7,2.5,1.8,2.8,0.2c0.9-5.7,1.7-11.9,2.1-13.2&#10;&#9;&#9;c0.5-1.5,2.7-1,2.5,0.6c0,0.3-0.1,0.7-0.2,1c-3.4,18.9-2.9,38.5,1.6,57.1c0.6,2.4,4,2.5,4.6,0.1c2.1-7.9,1.2-16.8,1.4-25.2&#10;&#9;&#9;c0.3-13.3,3.6-26.6,9.7-38.5c0.5-1.1,1.4-1.9,2.5-2.4c4.1-1.6,6.4,4.1,6.7,8.3l2.3,35.3c0.1,2,2.9,2.3,3.5,0.4&#10;&#9;&#9;c1.8-5.6,2-11.9,2.6-17.9c0.6-6.3,1.8-13.1,5.2-18.3c1.4-2.1,4.7-1.5,5.3,1.1l1.2,6c0.6,2.9,4.8,2.6,5-0.4c0.1-1.3,0-2.7-0.1-3.9&#10;&#9;&#9;c-0.3-4.9,0.4-9.8,2-14.4c0.6-1.8,3.2-1.6,3.6,0.3c2.7,12.4,3.9,25.1,4.7,37.7c0.6,8.6,0.7,17.4,3.3,25.5c0.6,2,3.4,2.2,4.3,0.2&#10;&#9;&#9;c1.2-2.8,1.2-6.2,1.2-9.3c-0.4-19.6,1.6-39.3,6-58.4c0.3-1.5,0.7-3.1,2.9-3.6c1.9-0.5,4,0.2,5.2,1.7c2.3,2.8,2,6.7,1.7,10.2&#10;&#9;&#9;c-1.3,15.1-0.9,30.3,1.2,45.2c0.3,2.2,3.5,2.3,3.9,0.1l8.5-47.2c0.3-1.9,2.9-2.5,4-0.9c3,4.3,3.5,10.4,3.8,15.9&#10;&#9;&#9;c0.8,15.1,2.6,30.2,5.6,45c0.2,1.3,2.1,1.1,2.1-0.2l1-35c0-0.6,0.8-0.6,0.9-0.1c1.2,6.3,2.5,12.6,4,18.9c0.4,1.6,2.6,1.4,2.8-0.2&#10;&#9;&#9;l5.3-66.7c0.1-1.4,2.1-1.6,2.4-0.2c5.9,23.3,2.3,48.4,5.1,72.4c0.2,1.7,2.7,1.8,3,0.1c3.2-16.7,6-33.5,6.9-50.4&#10;&#9;&#9;c0.4-8.8,0.4-17.9,2.3-26.4c0.6-2.4,4-2.5,4.7-0.1c0.4,1.7,0.7,3.4,1,5.1l2.4,15.8c0.3,2.2,3.5,2.3,4,0.2l7.4-29.8&#10;&#9;&#9;c0.3-1.4,1.4-2.5,2.8-2.8c2.6-0.5,3.7,2.3,4,4.6c0.9,7.3-0.7,15.3,0,22.5c0.3,3.2,4.9,3.5,5.7,0.3l6.7-28.1c1.6,1.3,2.9,3,3.8,4.9&#10;&#9;&#9;c1.4,3,5.6,2.6,6.3-0.6c0-0.1,0.1-0.3,0.1-0.4c0.8,1.7,1.4,3.6,1.8,5.5c0.2,1.4,1.8,1.9,2.9,1c2.2-2,3.9-4.5,4.9-7.3&#10;&#9;&#9;c0.2,3.4,3.2,6.3,6.5,6.5c5.5,0.4,9.3-5.4,14.5-7.3c2.7-1,5.6-0.9,8.5-0.8c8.3,0.4,17.9,1.4,22.6,8.3c2.6,3.9,3.1,8.8,3.4,13.5&#10;&#9;&#9;l0.1,0.9c0.2,3.3,5,3.6,5.6,0.3c0.3-1.3,0.5-2.7,0.7-3.9c1.2-6.8,3.8-13.3,7.6-19c1.6,1.5,2.8,3.5,3.5,5.6c1,3,5.5,2.4,5.4-0.8&#10;&#9;&#9;c0-0.1,0-0.2,0-0.3c2,2.8,3.3,6,3.7,9.4c0.2,2,2.9,2.5,3.8,0.7c1.1-2,1.9-4.1,2.6-6.3c1-3.2,0.3-5.7,1.9-8.6&#10;&#9;&#9;c0.9-1.4,2.7,0.7,2.9,2.3l3,18.4c0.2,1.3,2.1,1.4,2.5,0.1l3.5-12.1c0.2-0.9,1.4-1,1.8-0.2l4.2,7.2c0.5,0.9,1.8,0.9,2.3,0.1&#10;&#9;&#9;c1.4-2.2,1.4-5.3,1.9-8c0.6-3.4,3.7-7.2,6.8-5.8c4.8,2.3-0.5,12,4.3,14.5c3.7-4.4-1.3-13.2,3.7-16.3c1.2,11.6,3,23.2,5.4,34.7&#10;&#9;&#9;c1.8-0.3,2.9-2.3,3-4.1s-0.6-3.6-1-5.4c-1.2-5.2-0.5-11,2.2-15.7c0.2-0.3,0.7-0.3,0.8,0.1c2.3,7.8,3.8,15.8,5.1,23.8&#10;&#9;&#9;c0.2,1.4,2.2,1.5,2.5,0.1l3.7-16.7c0.2-1,1.4-1.6,2.3-1.1c2.2,1.2,3.5,4.1,4.2,6.7c2.3,8.2,4,16.7,4.9,25.2&#10;&#9;&#9;c0.4,3.3,5.3,3.2,5.5-0.1c0.4-6.3,0-13,3.6-17.3c0.7-0.9,2.1-0.7,2.6,0.3c1.5,2.9,2.6,6.1,3.3,9.3c0.6,2.6,4.2,2.5,4.6-0.1&#10;&#9;&#9;c0-0.2,0.1-0.4,0.1-0.6c1-7.2,2-14.3,3.1-21.5c0.2-1.1,1.6-1.4,2.2-0.5c4.8,7.4,6,16.7,6.3,25.6c0.2,5.2,0.1,10.6,0.3,15.8&#10;&#9;&#9;c0.2,3,4.5,3.3,5.1,0.3c1.4-8.1,2.4-16.2,2.8-24.4c0.3-4.7,0.5-9.7,2.3-13.9c0.7-1.6,3-1.1,3,0.6c0.7,31.4,4.3,62.8,10.7,93.6&#10;&#9;&#9;c0.2,1,0.5,2.1,1.6,2.5c1,0.4,2.1,0,2.8-0.8c1.2-1.4,1.2-3.3,1.2-5c-0.6-23.3-0.1-46.6,1.3-69.9c0.1-1.6,0.7-3.1,1.7-4.3&#10;&#9;&#9;c3.3-3.5,8.1-0.5,10.4,3c3.6,5.3,4.9,11.7,6.2,18c1.7,8.5,3.3,16.9,5,25.4c0.3,1.5,1.2,2.8,2.6,3.3c3.8,1.5,5.9-3.6,5.4-7.2&#10;&#9;&#9;c-0.5-3.6-1.7-7.9,1.3-10.2c1.6-1.2,3.7-1.2,5.5-0.4c3.1,1.5,4.6,4.7,5.8,7.7c2.2,5.8,4.1,12.2,8.9,16.3c3.6,3.1,8.4,4.3,12.2,7.2&#10;&#9;&#9;c3.3,2.4,5.6,5.9,7.9,9.3c12.9,19.1,22.6,78.2,31.7,104.7c0.5,1.5,2.7,1.3,2.9-0.3l9.5-68.8c0.3,17,0.7,34.5,5.8,50.6&#10;&#9;&#9;c0.6,1.8,3.1,1.9,3.8,0.1c4.5-12.9,3.7-27.3,3.5-41.2c-0.4-23.6,1.5-47.3,5.4-70.6c0.2-1.3,2.1-1.3,2.3,0c1.7,10.5,0.8,21.3,0.6,32&#10;&#9;&#9;c-0.2,8.6,0.1,17.1,0.9,25.7c0.1,1,1.6,1.2,1.8,0.2c5.2-19.3,8.4-39.2,9.4-59.1c0.3-6.1,0.1-12.8,0.4-18.9c0.2-3.5,0.9-7.8,4.9-8.3&#10;&#9;&#9;c0.8-0.1,1.6,0,2.4,0.2c8.7,2.3,10.8,12.9,13.3,21.4c2.3,7.7,6,15,8.5,22.7c7.6,23.7,2.8,49.2-0.2,73.9&#10;&#9;&#9;c-3.9,32.2-4.6,64.9-1.9,97.2c1.6,19.4,4.3,39.4-1.7,57.9C1284,373.5,1313.8,415.8,1310.7,456.6z" transform="matrix(1, 0, 0, 1, 2.842170943040401e-14, 0)"/><path id="XMLID_427_" fill="#BBC5D2" d="M867.7,562.5c0.3-2-0.9-3.8-2.7-4.4L0,779.6V980h307.1L867.7,562.5z" transform="matrix(1, 0, 0, 1, 2.842170943040401e-14, 0)"/>
</svg>