<?xml version="1.0" encoding="utf-8"?>
<svg id="master-artboard" viewBox="0 0 213.85140991210938 193.648681640625" version="1.1" xmlns="http://www.w3.org/2000/svg" x="0px" y="0px" style="enable-background:new 0 0 1000 1000;" width="213.85140991210938px" height="193.648681640625px"><rect id="ee-background" x="0" y="0" width="213.85140991210938" height="193.648681640625" style="fill: white; fill-opacity: 0; pointer-events: none;"/>

<path style="fill:#F5C227;" d="M822.7,489.6c-39.9,0-73.1,28.7-80,66.7c-1.4,0.8-2.8,1.5-4.2,2.1c-4.7,2-9.5,0-9.5,0v25.2&#10;&#9;&#9;&#9;c0,0,4.8-2,9.5,0c1.4,0.6,2.7,1.3,4.2,2.1c6.9,37.9,40.1,66.7,80,66.7c44.9,0,81.3-36.4,81.3-81.3&#10;&#9;&#9;&#9;C904.1,526,867.6,489.6,822.7,489.6z" transform="matrix(1, 0, 0, 1, -700.9459228515625, -475.2026309967041)"/><path style="fill:#D6A528;" d="M729,583.5l-19.5,6.5c-2.9,1-6-1.2-6-4.3v-29.6c0-3.1,3-5.3,6-4.3l19.5,6.5V583.5z" transform="matrix(1, 0, 0, 1, -700.9459228515625, -475.2026309967041)"/><path d="M 871.399988 553.099976 A 12.1 12.1 0 0 1 859.299988 565.199976 A 12.1 12.1 0 0 1 847.199987 553.099976 A 12.1 12.1 0 0 1 859.299988 540.999975 A 12.1 12.1 0 0 1 871.399988 553.099976 Z" style="fill:#FFFFFF;" transform="matrix(1, 0, 0, 1, -700.9459228515625, -475.2026309967041)"/><path d="M 864.499988 553.099976 A 5.2 5.2 0 0 1 859.299988 558.299975 A 5.2 5.2 0 0 1 854.099988 553.099976 A 5.2 5.2 0 0 1 859.299988 547.899976 A 5.2 5.2 0 0 1 864.499988 553.099976 Z" transform="matrix(1, 0, 0, 1, -700.9459228515625, -475.2026309967041)"/><path style="fill:#D6A528;" d="M903.9,576.3h-15.3c-2.5,0-4.5-2-4.5-4.5v-1.6c0-2.5,2-4.5,4.5-4.5h15.3c2.5,0,4.5,2,4.5,4.5v1.6&#10;&#9;&#9;&#9;C908.4,574.2,906.4,576.3,903.9,576.3z" transform="matrix(1, 0, 0, 1, -700.9459228515625, -475.2026309967041)"/><path style="fill:#D6A528;" d="M813.3,589.7c-3.6,1.4-8.7,2.7-13.4,3.8c-4.3,1-8.5-2.3-8.5-6.8V576c0-4.5,4.1-7.8,8.5-6.8&#10;&#9;&#9;&#9;c4.7,1.1,9.8,2.4,13.4,3.8c1.9,0.7,3.6,1.5,5,2.2c4.9,2.6,4.9,9.7,0,12.3C816.9,588.2,815.2,589,813.3,589.7z" transform="matrix(1, 0, 0, 1, -700.9459228515625, -475.2026309967041)"/><path style="fill:#F6D36A;" d="M814.9,498.9h7.3c1.1,0,1.9-1.1,1.6-2.1l-3.6-11.9c-0.5-1.6-2.7-1.6-3.2,0l-3.6,11.9&#10;&#9;&#9;&#9;C813,497.9,813.8,498.9,814.9,498.9z" transform="matrix(1, 0, 0, 1, -700.9459228515625, -475.2026309967041)"/><path style="fill:#F6D36A;" d="M804.8,525.4l7.1-1.4c1.1-0.2,1.7-1.4,1.1-2.4l-5.8-11c-0.8-1.4-2.9-1-3.1,0.6l-1.3,12.4&#10;&#9;&#9;&#9;C802.7,524.7,803.7,525.6,804.8,525.4z" transform="matrix(1, 0, 0, 1, -700.9459228515625, -475.2026309967041)"/><path style="fill:#F6D36A;" d="M780.1,512.5l6.7-2.9c1-0.4,1.3-1.7,0.6-2.6l-8.1-9.5c-1.1-1.2-3.1-0.4-2.9,1.3l1.4,12.4&#10;&#9;&#9;&#9;C777.9,512.2,779,512.9,780.1,512.5z" transform="matrix(1, 0, 0, 1, -700.9459228515625, -475.2026309967041)"/><path style="fill:#F6D36A;" d="M786.3,540.8l6-4.1c0.9-0.6,1-2,0.1-2.6l-9.7-7.8c-1.3-1-3.1,0.2-2.6,1.8l3.7,11.9&#10;&#9;&#9;&#9;C784.2,540.9,785.4,541.4,786.3,540.8z" transform="matrix(1, 0, 0, 1, -700.9459228515625, -475.2026309967041)"/><path style="fill:#F6D36A;" d="M761.3,536l4.8-5.4c0.7-0.8,0.5-2.1-0.5-2.6l-11.3-5.2c-1.5-0.7-2.9,1-2.1,2.4l6.5,10.7&#10;&#9;&#9;&#9;C759.3,536.7,760.6,536.8,761.3,536z" transform="matrix(1, 0, 0, 1, -700.9459228515625, -475.2026309967041)"/><path style="fill:#F6D36A;" d="M842.4,511.2l-7.1-1.4c-1.1-0.2-1.7-1.4-1.1-2.4l5.8-11c0.8-1.4,2.9-1,3.1,0.6l1.3,12.4&#10;&#9;&#9;&#9;C844.4,510.5,843.5,511.4,842.4,511.2z" transform="matrix(1, 0, 0, 1, -700.9459228515625, -475.2026309967041)"/><path style="fill:#F6D36A;" d="M865,506.6l-6.1-4c-0.9-0.6-1-1.9-0.1-2.6l9.6-7.9c1.3-1,3.1,0.2,2.6,1.7l-3.6,11.9&#10;&#9;&#9;&#9;C867.2,506.7,866,507.2,865,506.6z" transform="matrix(1, 0, 0, 1, -700.9459228515625, -475.2026309967041)"/><path style="fill:#F6D36A;" d="M854.3,533.2l-6-4.1c-0.9-0.6-1-2-0.1-2.6l9.7-7.8c1.3-1,3.1,0.2,2.6,1.8l-3.7,11.9&#10;&#9;&#9;&#9;C856.5,533.3,855.2,533.8,854.3,533.2z" transform="matrix(1, 0, 0, 1, -700.9459228515625, -475.2026309967041)"/><path style="fill:#F6D36A;" d="M882,524.7l-4.8-5.4c-0.7-0.8-0.5-2.1,0.5-2.6l11.3-5.2c1.5-0.7,2.9,1,2.1,2.4l-6.5,10.7&#10;&#9;&#9;&#9;C884,525.4,882.7,525.5,882,524.7z" transform="matrix(1, 0, 0, 1, -700.9459228515625, -475.2026309967041)"/><path style="fill:#F6D36A;" d="M814.9,644h7.3c1.1,0,1.9,1.1,1.6,2.1l-3.6,11.9c-0.5,1.6-2.7,1.6-3.2,0l-3.6-11.9&#10;&#9;&#9;&#9;C813,645,813.8,644,814.9,644z" transform="matrix(1, 0, 0, 1, -700.9459228515625, -475.2026309967041)"/><path style="fill:#F6D36A;" d="M804.8,617.5l7.1,1.4c1.1,0.2,1.7,1.4,1.1,2.4l-5.8,11c-0.8,1.4-2.9,1-3.1-0.6l-1.3-12.4&#10;&#9;&#9;&#9;C802.7,618.2,803.7,617.3,804.8,617.5z" transform="matrix(1, 0, 0, 1, -700.9459228515625, -475.2026309967041)"/><path style="fill:#F6D36A;" d="M780.1,630.4l6.7,2.9c1,0.4,1.3,1.7,0.6,2.6l-8.1,9.5c-1.1,1.2-3.1,0.4-2.9-1.3l1.4-12.4&#10;&#9;&#9;&#9;C777.9,630.7,779,630,780.1,630.4z" transform="matrix(1, 0, 0, 1, -700.9459228515625, -475.2026309967041)"/><path style="fill:#F6D36A;" d="M786.3,602.1l6,4.1c0.9,0.6,1,2,0.1,2.6l-9.7,7.8c-1.3,1-3.1-0.2-2.6-1.8l3.7-11.9&#10;&#9;&#9;&#9;C784.2,602,785.4,601.5,786.3,602.1z" transform="matrix(1, 0, 0, 1, -700.9459228515625, -475.2026309967041)"/><path style="fill:#F6D36A;" d="M761.3,606.9l4.8,5.4c0.7,0.8,0.5,2.1-0.5,2.6l-11.3,5.2c-1.5,0.7-2.9-1-2.1-2.4l6.5-10.7&#10;&#9;&#9;&#9;C759.3,606.2,760.6,606.1,761.3,606.9z" transform="matrix(1, 0, 0, 1, -700.9459228515625, -475.2026309967041)"/><path style="fill:#F6D36A;" d="M842.4,631.7l-7.1,1.4c-1.1,0.2-1.7,1.4-1.1,2.4l5.8,11c0.8,1.4,2.9,1,3.1-0.6l1.3-12.4&#10;&#9;&#9;&#9;C844.4,632.4,843.5,631.5,842.4,631.7z" transform="matrix(1, 0, 0, 1, -700.9459228515625, -475.2026309967041)"/><path style="fill:#F6D36A;" d="M865,636.3l-6.1,4c-0.9,0.6-1,1.9-0.1,2.6l9.6,7.9c1.3,1,3.1-0.2,2.6-1.7l-3.6-11.9&#10;&#9;&#9;&#9;C867.2,636.2,866,635.7,865,636.3z" transform="matrix(1, 0, 0, 1, -700.9459228515625, -475.2026309967041)"/><path style="fill:#F6D36A;" d="M854.3,609.7l-6,4.1c-0.9,0.6-1,2-0.1,2.6l9.7,7.8c1.3,1,3.1-0.2,2.6-1.8l-3.7-11.9&#10;&#9;&#9;&#9;C856.5,609.6,855.2,609.1,854.3,609.7z" transform="matrix(1, 0, 0, 1, -700.9459228515625, -475.2026309967041)"/><path style="fill:#F6D36A;" d="M882,618.2l-4.8,5.4c-0.7,0.8-0.5,2.1,0.5,2.6l11.3,5.2c1.5,0.7,2.9-1,2.1-2.4l-6.5-10.7&#10;&#9;&#9;&#9;C884,617.5,882.7,617.4,882,618.2z" transform="matrix(1, 0, 0, 1, -700.9459228515625, -475.2026309967041)"/><path style="fill:#F6D36A;" d="M762.9,582.7l1.4,7.1c0.2,1.1-0.7,2.1-1.8,2l-12.4-1.2c-1.6-0.2-2.1-2.3-0.6-3.1l11-5.9&#10;&#9;&#9;&#9;C761.5,581.1,762.7,581.6,762.9,582.7z" transform="matrix(1, 0, 0, 1, -700.9459228515625, -475.2026309967041)"/><path style="fill:#F6D36A;" d="M764.4,564.1l3.1-6.6c0.5-1-0.2-2.2-1.3-2.3l-12.4-1.7c-1.6-0.2-2.5,1.8-1.3,2.9l9.3,8.3&#10;&#9;&#9;&#9;C762.6,565.4,763.9,565.1,764.4,564.1z" transform="matrix(1, 0, 0, 1, -700.9459228515625, -475.2026309967041)"/><path style="fill:#F6D36A;" d="M822.9,543.7l7.1,1.6c1.1,0.2,2.1-0.6,2-1.7l-0.9-12.4c-0.1-1.6-2.3-2.1-3.1-0.7l-6.2,10.8&#10;&#9;&#9;&#9;C821.2,542.2,821.8,543.4,822.9,543.7z" transform="matrix(1, 0, 0, 1, -700.9459228515625, -475.2026309967041)"/><path style="fill:#F6D36A;" d="M804,555.7l6.9-2.4c1-0.4,1.5-1.6,0.8-2.5l-7.3-10.1c-1-1.3-3-0.6-3,1l0.4,12.5&#10;&#9;&#9;&#9;C801.9,555.3,803,556,804,555.7z" transform="matrix(1, 0, 0, 1, -700.9459228515625, -475.2026309967041)"/><path style="fill:#F6D36A;" d="M833.9,594.7l-7.1,1.4c-1.1,0.2-1.7,1.4-1.1,2.4l5.9,11c0.8,1.4,2.9,1,3.1-0.6l1.2-12.4&#10;&#9;&#9;&#9;C836,595.4,835,594.5,833.9,594.7z" transform="matrix(1, 0, 0, 1, -700.9459228515625, -475.2026309967041)"/>
</svg>