<?xml version="1.0" encoding="utf-8"?>
<svg id="master-artboard" viewBox="0 0 204.18930053710938 128.64866638183594" version="1.1" xmlns="http://www.w3.org/2000/svg" x="0px" y="0px" style="enable-background:new 0 0 1000 1000;" width="204.18930053710938px" height="128.64866638183594px"><rect id="ee-background" x="0" y="0" width="204.18930053710938" height="128.64866638183594" style="fill: white; fill-opacity: 0; pointer-events: none;"/>

<path style="fill:#E23F2C;" d="M565,205.9h-0.5c-2.3,0-4.3-1.9-4.3-4.3v-26.8c0-2.3,1.9-4.3,4.3-4.3h0.5c2.3,0,4.3,1.9,4.3,4.3&#10;&#9;&#9;&#9;v26.8C569.3,204,567.4,205.9,565,205.9z" transform="matrix(1, 0, 0, 1, -408.4459228515625, -92.22972106933594)"/><path style="fill:#E23F2C;" d="M576.6,199.9h-0.5c-2.3,0-4.3-1.9-4.3-4.3v-26.8c0-2.3,1.9-4.3,4.3-4.3h0.5c2.3,0,4.3,1.9,4.3,4.3&#10;&#9;&#9;&#9;v26.8C580.8,198,578.9,199.9,576.6,199.9z" transform="matrix(1, 0, 0, 1, -408.4459228515625, -92.22972106933594)"/><path style="fill:#E23F2C;" d="M454.9,196.3c0,7.4,5.7,13.3,12.5,13c66.7-2.6,118.9-25.6,118.9-53.6s-52.2-51-118.9-53.6&#10;&#9;&#9;&#9;c-6.8-0.3-12.5,5.6-12.5,13V196.3z" transform="matrix(1, 0, 0, 1, -408.4459228515625, -92.22972106933594)"/><path style="fill:#E23F2C;" d="M440.9,167.6l-18.4,6.1c-2.8,0.9-5.6-1.1-5.6-4v-27.9c0-2.9,2.9-5,5.6-4l18.4,6.1V167.6z" transform="matrix(1, 0, 0, 1, -408.4459228515625, -92.22972106933594)"/><path style="fill:#ED7D33;" d="M523.3,105.5c-3.2,0-6.3,0.3-9.3,0.9v98.7c3,0.6,6.1,0.9,9.3,0.9c1.2,0,2.3,0,3.5-0.1V105.6&#10;&#9;&#9;&#9;C525.7,105.5,524.5,105.5,523.3,105.5z" transform="matrix(1, 0, 0, 1, -408.4459228515625, -92.22972106933594)"/><path style="fill:#ED7D33;" d="M487.8,117.6v76.2c4.1,2.6,8.4,5,12.8,7v-90.2C496.2,112.6,491.9,115,487.8,117.6z" transform="matrix(1, 0, 0, 1, -408.4459228515625, -92.22972106933594)"/><path style="fill:#ED7D33;" d="M440.9,143.8v23.8c0,0,3.5-1.4,7.3-0.5v-22.7C444.4,145.3,440.9,143.8,440.9,143.8z" transform="matrix(1, 0, 0, 1, -408.4459228515625, -92.22972106933594)"/><path style="fill:#ED7D33;" d="M461.6,136.9v37.7c4.1,2.9,8.3,6.3,12.8,9.7v-57.1C469.9,130.6,465.7,134,461.6,136.9z" transform="matrix(1, 0, 0, 1, -408.4459228515625, -92.22972106933594)"/><path style="fill:#ED7D33;" d="M540.2,107.7v96.1c4.4-1.1,8.7-2.6,12.8-4.4V112C548.9,110.3,544.6,108.8,540.2,107.7z" transform="matrix(1, 0, 0, 1, -408.4459228515625, -92.22972106933594)"/><path style="fill:#ED7D33;" d="M604.8,152.8c-5.3-6.4-19.4-22.3-38.4-33.8v73.5c19-11.6,33.1-27.4,38.4-33.8&#10;&#9;&#9;&#9;C606.2,156.9,606.2,154.5,604.8,152.8z" transform="matrix(1, 0, 0, 1, -408.4459228515625, -92.22972106933594)"/><path style="fill:#F49967;" d="M449.9,143.8c-0.6,0.2-1.1,0.4-1.7,0.5v22.7c0.6,0.1,1.1,0.3,1.7,0.5c3.7,1.6,7.6,4,11.7,7v-37.7&#10;&#9;&#9;&#9;C457.5,139.8,453.7,142.3,449.9,143.8z" transform="matrix(1, 0, 0, 1, -408.4459228515625, -92.22972106933594)"/><path style="fill:#F49967;" d="M474.4,127.2v57.1c4.2,3.2,8.7,6.5,13.4,9.5v-76.2C483.1,120.6,478.7,123.9,474.4,127.2z" transform="matrix(1, 0, 0, 1, -408.4459228515625, -92.22972106933594)"/><path style="fill:#F49967;" d="M500.6,110.6v90.2c4.3,1.9,8.7,3.3,13.4,4.2v-98.7C509.3,107.3,504.9,108.7,500.6,110.6z" transform="matrix(1, 0, 0, 1, -408.4459228515625, -92.22972106933594)"/><path style="fill:#F49967;" d="M526.8,105.6v100.3c4.6-0.2,9-1,13.4-2.1v-96.1C535.8,106.6,531.4,105.8,526.8,105.6z" transform="matrix(1, 0, 0, 1, -408.4459228515625, -92.22972106933594)"/><path style="fill:#F49967;" d="M553,112v87.4c4.7-2,9.1-4.4,13.4-7V119C562.1,116.4,557.7,114,553,112z" transform="matrix(1, 0, 0, 1, -408.4459228515625, -92.22972106933594)"/><path d="M 587.799988 149.800003 A 8 7.9 0 0 1 579.799988 157.700003 A 8 7.9 0 0 1 571.799988 149.800003 A 8 7.9 0 0 1 579.799988 141.900003 A 8 7.9 0 0 1 587.799988 149.800003 Z" style="fill:#FFFFFF;" transform="matrix(1, 0, 0, 1, -408.4459228515625, -92.22972106933594)"/><path d="M 583.499988 149.800003 A 3.7 3.6 0 0 1 579.799988 153.400003 A 3.7 3.6 0 0 1 576.099988 149.800003 A 3.7 3.6 0 0 1 579.799988 146.200003 A 3.7 3.6 0 0 1 583.499988 149.800003 Z" transform="matrix(1, 0, 0, 1, -408.4459228515625, -92.22972106933594)"/>
</svg>