<?xml version="1.0" encoding="utf-8"?>
<svg id="master-artboard" viewBox="0 0 258.6487274169922 189.25677490234375" version="1.1" xmlns="http://www.w3.org/2000/svg" x="0px" y="0px" style="enable-background:new 0 0 1000 1000;" width="258.64874267578125px" height="189.25677490234375px"><rect id="ee-background" x="0" y="0" width="258.64874267578125" height="189.25677490234375" style="fill: white; fill-opacity: 0; pointer-events: none;"/>

<g transform="matrix(1, 0, 0, 1, -166.89187622070312, -223.98648071289062)">
		<path style="fill:#D6A528;" d="M230.4,303.1c14.4-16.6,44.7-46,79.9-46s65.5,29.4,79.9,46c1.5-1.7,2.8-3.3,3.9-4.6&#10;&#9;&#9;&#9;c3-3.7,3-9.2,0-12.9c-12.1-15-45-50.7-83.7-50.7s-71.6,35.7-83.7,50.7c-3,3.7-3,9.2,0,12.9C227.7,299.9,229,301.4,230.4,303.1z"/>
		<path style="fill:#D6A528;" d="M390.2,332.9c-14.4,16.6-44.7,46-79.9,46s-65.5-29.4-79.9-46c-1.5,1.7-2.8,3.3-3.9,4.6&#10;&#9;&#9;&#9;c-3,3.7-3,9.2,0,12.9c12.1,15,45,50.7,83.7,50.7s71.6-35.7,83.7-50.7c3-3.7,3-9.2,0-12.9C392.9,336.1,391.6,334.6,390.2,332.9z"/>
		<path style="fill:#F5C227;" d="M409.3,310.9c-14.3-16.5-53.2-55.7-99-55.7c-39.6,0-68.2,37.9-91.9,48c-5.6,2.4-11.3,0-11.3,0v29.7&#10;&#9;&#9;&#9;c0,0,5.7-2.4,11.3,0c23.7,10.1,52.3,48,91.9,48c45.8,0,84.7-39.3,99-55.7C412.8,321,412.8,315,409.3,310.9z"/>
		<path style="fill:#D6A528;" d="M410.8,322.4h-10.2c-2.4,0-4.3-2-4.3-4.3l0,0c0-2.4,2-4.3,4.3-4.3h10.2c2.4,0,4.3,2,4.3,4.3l0,0&#10;&#9;&#9;&#9;C415.2,320.4,413.2,322.4,410.8,322.4z"/>
		<path style="fill:#D6A528;" d="M207.2,332.9l-23,7.7c-3.5,1.2-7-1.4-7-5.1v-34.9c0-3.6,3.6-6.2,7-5.1l23,7.7V332.9z"/>
		<path d="M 283.600012 343.600006 A 4.4 4.4 0 0 1 279.200012 348.000006 A 4.4 4.4 0 0 1 274.800012 343.600006 A 4.4 4.4 0 0 1 279.200012 339.200006 A 4.4 4.4 0 0 1 283.600012 343.600006 Z" style="fill:#F6D36A;"/>
		<path d="M 279.199988 318.899994 A 6.9 6.9 0 0 1 272.299988 325.799994 A 6.9 6.9 0 0 1 265.399988 318.899994 A 6.9 6.9 0 0 1 272.299988 311.999994 A 6.9 6.9 0 0 1 279.199988 318.899994 Z" style="fill:#F6D36A;"/>
		<path d="M 247.599997 317.100006 A 5.4 5.4 0 0 1 242.199997 322.500006 A 5.4 5.4 0 0 1 236.799997 317.100006 A 5.4 5.4 0 0 1 242.199997 311.700006 A 5.4 5.4 0 0 1 247.599997 317.100006 Z" style="fill:#F6D36A;"/>
		<path d="M 277.699988 290.899994 A 5.4 5.4 0 0 1 272.299988 296.299994 A 5.4 5.4 0 0 1 266.899988 290.899994 A 5.4 5.4 0 0 1 272.299988 285.499994 A 5.4 5.4 0 0 1 277.699988 290.899994 Z" style="fill:#F6D36A;"/>
		<path d="M 262.100006 337.700012 A 4 4 0 0 1 258.100006 341.700012 A 4 4 0 0 1 254.100006 337.700012 A 4 4 0 0 1 258.100006 333.700012 A 4 4 0 0 1 262.100006 337.700012 Z" style="fill:#F6D36A;"/>
		<path d="M 305.800006 307.399994 A 6.2 6.2 0 0 1 299.600006 313.599994 A 6.2 6.2 0 0 1 293.400006 307.399994 A 6.2 6.2 0 0 1 299.600006 301.199994 A 6.2 6.2 0 0 1 305.800006 307.399994 Z" style="fill:#F6D36A;"/>
		<path d="M 323.699994 358.600006 A 4.8 4.8 0 0 1 318.899994 363.400006 A 4.8 4.8 0 0 1 314.099994 358.600006 A 4.8 4.8 0 0 1 318.899994 353.800006 A 4.8 4.8 0 0 1 323.699994 358.600006 Z" style="fill:#F6D36A;"/>
		<path d="M 307.499994 337 A 4.1 4.1 0 0 1 303.399994 341.1 A 4.1 4.1 0 0 1 299.299994 337 A 4.1 4.1 0 0 1 303.399994 332.9 A 4.1 4.1 0 0 1 307.499994 337 Z" style="fill:#F6D36A;"/>
		<path d="M 312.100012 275.799988 A 4.4 4.4 0 0 1 307.700012 280.199988 A 4.4 4.4 0 0 1 303.300012 275.799988 A 4.4 4.4 0 0 1 307.700012 271.399988 A 4.4 4.4 0 0 1 312.100012 275.799988 Z" style="fill:#F6D36A;"/>
		<path style="fill:#D6A528;" d="M316.2,319.8c0,3.5,6.1,6.1,12.5,5.4c13.2-1.4,22.6-4.9,22.6-9c0-4.1-9.4-7.6-22.6-9&#10;&#9;&#9;&#9;c-6.5-0.7-12.5,1.9-12.5,5.4V319.8z"/>
		<path d="M 346.299988 341.700012 A 2.5 2.5 0 0 1 343.799988 344.200012 A 2.5 2.5 0 0 1 341.299988 341.700012 A 2.5 2.5 0 0 1 343.799988 339.200012 A 2.5 2.5 0 0 1 346.299988 341.700012 Z" style="fill:#F6D36A;"/>
		<path d="M 295.3 363.399994 A 4.8 4.8 0 0 1 290.5 368.199994 A 4.8 4.8 0 0 1 285.7 363.399994 A 4.8 4.8 0 0 1 290.5 358.599994 A 4.8 4.8 0 0 1 295.3 363.399994 Z" style="fill:#F6D36A;"/>
		<path d="M 253.999997 299.600006 A 3.3 3.3 0 0 1 250.699997 302.900006 A 3.3 3.3 0 0 1 247.399997 299.600006 A 3.3 3.3 0 0 1 250.699997 296.300006 A 3.3 3.3 0 0 1 253.999997 299.600006 Z" style="fill:#F6D36A;"/>
		<path d="M 227.200003 317.100006 A 2.9 2.9 0 0 1 224.300003 320.000006 A 2.9 2.9 0 0 1 221.400003 317.100006 A 2.9 2.9 0 0 1 224.300003 314.200006 A 2.9 2.9 0 0 1 227.200003 317.100006 Z" style="fill:#F6D36A;"/>
		<path d="M 332.200012 289.799988 A 4 4 0 0 1 328.200012 293.799988 A 4 4 0 0 1 324.200012 289.799988 A 4 4 0 0 1 328.200012 285.799988 A 4 4 0 0 1 332.200012 289.799988 Z" style="fill:#F6D36A;"/>
		<path d="M 381.2 313.600006 A 8.7 8.7 0 0 1 372.5 322.300006 A 8.7 8.7 0 0 1 363.8 313.600006 A 8.7 8.7 0 0 1 372.5 304.900006 A 8.7 8.7 0 0 1 381.2 313.600006 Z" style="fill:#FFFFFF;"/>
		<path d="M 376.3 313.600006 A 3.8 3.8 0 0 1 372.5 317.400006 A 3.8 3.8 0 0 1 368.7 313.600006 A 3.8 3.8 0 0 1 372.5 309.800006 A 3.8 3.8 0 0 1 376.3 313.600006 Z"/>
	</g>
</svg>