<?xml version="1.0" encoding="utf-8"?>
<svg id="master-artboard" viewBox="0 0 344.7297821044922 178.71624755859375" version="1.1" xmlns="http://www.w3.org/2000/svg" x="0px" y="0px" style="enable-background:new 0 0 1000 1000;" width="344.72979736328125px" height="178.71624755859375px"><rect id="ee-background" x="0" y="0" width="344.72979736328125" height="178.71624755859375" style="fill: white; fill-opacity: 0; pointer-events: none;"/>

<path style="fill:#67A3D6;" d="M492.4,465.4l0.3-12.2c0.1-2.5,3.2-3.6,4.8-1.8l8,9.1c1.3,1.4,0.7,3.7-1.1,4.4l-8.3,3.2&#10;&#9;&#9;&#9;C494.3,468.7,492.3,467.3,492.4,465.4z" transform="matrix(1, 0, 0, 1, -357.50000762939453, -404.93237495422363)"/><path style="fill:#67A3D6;" d="M472.5,473.5l0.3-12.2c0.1-2.5,3.2-3.6,4.8-1.8l8,9.1c1.3,1.4,0.7,3.7-1.1,4.4l-8.3,3.2&#10;&#9;&#9;&#9;C474.4,476.9,472.4,475.5,472.5,473.5z" transform="matrix(1, 0, 0, 1, -357.50000762939453, -404.93237495422363)"/><path style="fill:#67A3D6;" d="M452.6,481.7l0.3-12.2c0.1-2.5,3.2-3.6,4.8-1.8l8,9.1c1.3,1.4,0.7,3.7-1.1,4.4l-8.3,3.2&#10;&#9;&#9;&#9;C454.5,485.1,452.6,483.7,452.6,481.7z" transform="matrix(1, 0, 0, 1, -357.50000762939453, -404.93237495422363)"/><path style="fill:#67A3D6;" d="M492.4,530.8l0.3,12.2c0.1,2.5,3.2,3.6,4.8,1.8l8-9.1c1.3-1.4,0.7-3.7-1.1-4.4l-8.3-3.2&#10;&#9;&#9;&#9;C494.3,527.4,492.3,528.8,492.4,530.8z" transform="matrix(1, 0, 0, 1, -357.50000762939453, -404.93237495422363)"/><path style="fill:#67A3D6;" d="M472.5,522.6l0.3,12.2c0.1,2.5,3.2,3.6,4.8,1.8l8-9.1c1.3-1.4,0.7-3.7-1.1-4.4l-8.3-3.2&#10;&#9;&#9;&#9;C474.4,519.2,472.4,520.6,472.5,522.6z" transform="matrix(1, 0, 0, 1, -357.50000762939453, -404.93237495422363)"/><path style="fill:#67A3D6;" d="M452.6,514.4l0.3,12.2c0.1,2.5,3.2,3.6,4.8,1.8l8-9.1c1.3-1.4,0.7-3.7-1.1-4.4l-8.3-3.2&#10;&#9;&#9;&#9;C454.5,511,452.6,512.4,452.6,514.4z" transform="matrix(1, 0, 0, 1, -357.50000762939453, -404.93237495422363)"/><path style="fill:#67A3D6;" d="M562.2,551.8v21.1c0,3.1,3.9,4.5,5.8,2l16.9-21.1c1.7-2.1,0.2-5.3-2.6-5.3h-16.9&#10;&#9;&#9;&#9;C563.7,548.5,562.2,549.9,562.2,551.8z" transform="matrix(1, 0, 0, 1, -357.50000762939453, -404.93237495422363)"/><path style="fill:#67A3D6;" d="M534.9,451.9l-4.1-20.7c-0.6-3,3-5.1,5.3-3.2l20.7,17.4c2.1,1.8,1.2,5.2-1.5,5.7l-16.5,3.3&#10;&#9;&#9;&#9;C537,454.9,535.3,453.7,534.9,451.9z" transform="matrix(1, 0, 0, 1, -357.50000762939453, -404.93237495422363)"/><path style="fill:#67A3D6;" d="M565.3,444.4v-21.1c0-3.1,3.9-4.5,5.8-2l16.9,21.1c1.7,2.1,0.2,5.3-2.6,5.3h-16.9&#10;&#9;&#9;&#9;C566.7,447.7,565.3,446.2,565.3,444.4z" transform="matrix(1, 0, 0, 1, -357.50000762939453, -404.93237495422363)"/><path style="fill:#85BCE7;" d="M621.2,447.7c-11.6-3.8-24.1-6.2-37.1-6.2c-63.2,0-167.7,56.6-167.7,56.6s104.5,56.6,167.7,56.6&#10;&#9;&#9;&#9;&#9;c11.8,0,23.1-2,33.8-5.2c-10.5-13.5-16.8-30.5-16.8-48.9C601.1,480.3,608.7,461.7,621.2,447.7z" transform="matrix(1, 0, 0, 1, -357.50000762939453, -404.93237495422363)"/><path style="fill:#ACDAF3;" d="M698.5,498.1c0,0-32.3-35.7-77.3-50.4c-12.5,14.1-20.1,32.6-20.1,52.9c0,18.4,6.3,35.4,16.8,48.9&#10;&#9;&#9;&#9;&#9;C664.6,535.6,698.5,498.1,698.5,498.1z" transform="matrix(1, 0, 0, 1, -357.50000762939453, -404.93237495422363)"/><path style="fill:#67A3D6;" d="M384.4,451.4c-3.5,0-7,0.4-10.3,1.1c21.1,4.7,36.9,23.5,36.9,46c0,22.5-15.8,41.3-36.9,46&#10;&#9;&#9;&#9;c3.3,0.7,6.8,1.1,10.3,1.1c26.1,0,47.2-21.1,47.2-47.2C431.6,472.5,410.5,451.4,384.4,451.4z" transform="matrix(1, 0, 0, 1, -357.50000762939453, -404.93237495422363)"/><path style="fill:#67A3D6;" d="M566,485.7c-10.8,1.9-22.2,5.1-30.8,7.7c-6,1.8-6,7.6,0,9.4c8.6,2.6,20,5.8,30.8,7.7&#10;&#9;&#9;&#9;c4.8,0.9,9.6-1.6,9.6-5v-14.8C575.6,487.3,570.9,484.8,566,485.7z" transform="matrix(1, 0, 0, 1, -357.50000762939453, -404.93237495422363)"/><path d="M 645 488.600006 A 12 12 0 0 1 633 500.600006 A 12 12 0 0 1 621 488.600006 A 12 12 0 0 1 633 476.600006 A 12 12 0 0 1 645 488.600006 Z" style="fill:#FFFFFF;" transform="matrix(1, 0, 0, 1, -357.50000762939453, -404.93237495422363)"/><path d="M 639 488.600006 A 6 6 0 0 1 633 494.600006 A 6 6 0 0 1 627 488.600006 A 6 6 0 0 1 633 482.600006 A 6 6 0 0 1 639 488.600006 Z" transform="matrix(1, 0, 0, 1, -357.50000762939453, -404.93237495422363)"/>
</svg>