<?xml version="1.0" encoding="utf-8"?>
<svg id="master-artboard" viewBox="0 0 507.22979736328125 172.5675811767578" version="1.1" xmlns="http://www.w3.org/2000/svg" x="0px" y="0px" style="enable-background:new 0 0 1000 1000;" width="507.22979736328125px" height="172.5675811767578px"><rect id="ee-background" x="0" y="0" width="507.22979736328125" height="172.5675811767578" style="fill: white; fill-opacity: 0; pointer-events: none;"/>

<path style="fill:#7E888C;" d="M630.8,707.9l2.4,15.7c0.9,5.5-3,10.8-8.5,11.6l0,0c-5.5,0.9-10.8-3-11.6-8.5l-2.4-15.7&#10;&#9;&#9;&#9;c-0.9-5.5,3-10.8,8.5-11.6h0C624.7,698.6,629.9,702.4,630.8,707.9z" transform="matrix(1, 0, 0, 1, -154.59458923339844, -735.2026710510254)"/><path style="fill:#7E888C;" d="M368.5,809.8V754c0-8.4,7.2-15,15.6-14.3c31.5,2.8,103.4,12.7,146.2,44.9c3.6,2.7,5.7,7,5.7,11.5&#10;&#9;&#9;&#9;v13.6c0,7.9-6.4,14.3-14.3,14.3H382.8C374.9,824.2,368.5,817.7,368.5,809.8z" transform="matrix(1, 0, 0, 1, -154.59458923339844, -735.2026710510254)"/><path style="fill:#7E888C;" d="M547.3,836.3l19.7,11c3.1,1.7,2.6,6.3-0.8,7.3c-5,1.5-12.1,2-20.3-2.5c-11.6-6.3-6.6-12.6-3.1-15.5&#10;&#9;&#9;&#9;C544.1,835.7,545.9,835.5,547.3,836.3z" transform="matrix(1, 0, 0, 1, -154.59458923339844, -735.2026710510254)"/><path style="fill:#7E888C;" d="M531,850.4v17.2c0,2.9-3,4.8-5.6,3.6c-5.9-2.7-14.6-8.4-17-19.8c-0.7-3.2,1.8-6.2,5.1-6.2h12.3&#10;&#9;&#9;&#9;C528.7,845.2,531,847.5,531,850.4z" transform="matrix(1, 0, 0, 1, -154.59458923339844, -735.2026710510254)"/><path style="fill:#A6AFB2;" d="M171.8,821.6h93.3c1-2.4,2.8-4.5,5.3-5.9c13.7-8.1,34.9-19.1,60.5-27c19.5-6,41.7-10.4,65.2-10.4&#10;&#9;&#9;&#9;c61.8,0,139.4,22.4,175.4,32.1c6.5,1.8,24,4.6,31.2,5.7c1.8,0.3,3.1,1.8,3.1,3.7v13.7c0,1.9-1.5,3.5-3.4,3.7&#10;&#9;&#9;&#9;c-7.3,0.6-24.5,2.1-30.9,3.8c-36,9.7-113.6,34.5-175.4,34.5c-23.5,0-45.6-4.3-65.2-10.4c-25.7-7.9-46.8-18.9-60.5-27&#10;&#9;&#9;&#9;c-2.3-1.4-4-3.3-5-5.4h-93.5c-3,0-5.5-2.5-5.5-5.5C166.3,824.1,168.8,821.6,171.8,821.6z" transform="matrix(1, 0, 0, 1, -154.59458923339844, -735.2026710510254)"/><path d="M 331.7 820.700012 A 11.2 11.2 0 0 1 320.5 831.900012 A 11.2 11.2 0 0 1 309.3 820.700012 A 11.2 11.2 0 0 1 320.5 809.500012 A 11.2 11.2 0 0 1 331.7 820.700012 Z" style="fill:#FFFFFF;" transform="matrix(1, 0, 0, 1, -154.59458923339844, -735.2026710510254)"/><path d="M 325.6 820.700012 A 5.1 5.1 0 0 1 320.5 825.800012 A 5.1 5.1 0 0 1 315.4 820.700012 A 5.1 5.1 0 0 1 320.5 815.600012 A 5.1 5.1 0 0 1 325.6 820.700012 Z" transform="matrix(1, 0, 0, 1, -154.59458923339844, -735.2026710510254)"/><path style="fill:#7E888C;" d="M406.8,855.6V890c0,5.7-5.9,9.6-11.1,7.2c-11.7-5.3-29.2-16.8-34-39.5c-1.4-6.4,3.6-12.4,10.2-12.4&#10;&#9;&#9;&#9;h24.5C402.1,845.2,406.8,849.9,406.8,855.6z" transform="matrix(1, 0, 0, 1, -154.59458923339844, -735.2026710510254)"/><path style="fill:#7E888C;" d="M626.3,861.4c0,6.3-6,10.9-12,9.2c-19.2-5.3-33.3-22.8-33.3-43.7s14.1-38.5,33.3-43.7&#10;&#9;&#9;&#9;c6-1.7,12,2.9,12,9.2V861.4z" transform="matrix(1, 0, 0, 1, -154.59458923339844, -735.2026710510254)"/>
</svg>