<?xml version="1.0" encoding="utf-8"?>
<svg id="master-artboard" viewBox="0 0 299.93251037597656 138.3108367919922" version="1.1" xmlns="http://www.w3.org/2000/svg" x="0px" y="0px" style="enable-background:new 0 0 1000 1000;" width="299.9325256347656px" height="138.3108367919922px"><rect id="ee-background" x="0" y="0" width="299.9324951171875" height="138.3108367919922" style="fill: white; fill-opacity: 0; pointer-events: none;"/>

<path style="fill:#C5D0D0;" d="M427.5,619.7c7.4-7.4,37.1-10.2,37.1-10.2s-16.2,21.6-21.4,32.6c5.2,11,21.4,32.6,21.4,32.6&#10;&#9;&#9;&#9;s-29.7-2.7-37.1-10.2c-6.1-6.1-7.2-15.2-3.4-22.4C420.3,634.9,421.4,625.8,427.5,619.7z" transform="matrix(1, 0, 0, 1, -182.70272827148438, -567.4323883056641)"/><path style="fill:#C5D0D0;" d="M329.5,606c0.5-1.1,0-34.5,0-34.5s-20.2,7.1-30.2,14.4c-13.3,9.7-15.9,20.1-15.9,20.1H329.5z" transform="matrix(1, 0, 0, 1, -182.70272827148438, -567.4323883056641)"/><path style="fill:#67A3D6;" d="M262.2,597.5c10.3-3.4,21.3-5.5,32.8-5.5c55.9,0,148.3,50.1,148.3,50.1s-92.4,50.1-148.3,50.1&#10;&#9;&#9;&#9;c-10.4,0-20.4-1.7-29.9-4.6c-41.3-12.3-71.3-45.5-71.3-45.5S222.4,610.5,262.2,597.5z" transform="matrix(1, 0, 0, 1, -182.70272827148438, -567.4323883056641)"/><path d="M 262.299997 633.799988 A 10.6 10.6 0 0 1 251.699997 644.399988 A 10.6 10.6 0 0 1 241.099997 633.799988 A 10.6 10.6 0 0 1 251.699997 623.199987 A 10.6 10.6 0 0 1 262.299997 633.799988 Z" style="fill:#FFFFFF;" transform="matrix(1, 0, 0, 1, -182.70272827148438, -567.4323883056641)"/><path d="M 256.999997 633.799988 A 5.3 5.3 0 0 1 251.699997 639.099988 A 5.3 5.3 0 0 1 246.399997 633.799988 A 5.3 5.3 0 0 1 251.699997 628.499988 A 5.3 5.3 0 0 1 256.999997 633.799988 Z" transform="matrix(1, 0, 0, 1, -182.70272827148438, -567.4323883056641)"/><path style="fill:#C5D0D0;" d="M314.3,634.5c5.6-2.1,15.6-4.2,19.9-5.1v25.3c-4.3-0.8-14.3-2.9-19.9-5.1&#10;&#9;&#9;&#9;c-9.7-3.7-11.5-7.6-11.5-7.6S304.7,638.2,314.3,634.5z" transform="matrix(1, 0, 0, 1, -182.70272827148438, -567.4323883056641)"/>
</svg>