<?xml version="1.0" encoding="utf-8"?>
<svg id="master-artboard" viewBox="0 0 419.3919982910156 165.54055786132812" version="1.1" xmlns="http://www.w3.org/2000/svg" x="0px" y="0px" style="enable-background:new 0 0 1000 1000;" width="419.3919982910156px" height="165.54055786132812px"><rect id="ee-background" x="0" y="0" width="419.3919982910156" height="165.54055786132812" style="fill: white; fill-opacity: 0; pointer-events: none;"/>

<path style="fill:#7E888C;" d="M655.8,358.4l5.6-24c1.5-6.5-2.5-12.9-9-14.4l-32.1-7.5c-6.5-1.5-12.9,2.5-14.4,9l-4.5,19&#10;&#9;&#9;&#9;c-1.4,5.8,1.7,11.7,7.2,13.9l30.9,12.6C646.4,369.5,654.1,365.6,655.8,358.4z" transform="matrix(1, 0, 0, 1, -489.2567443847656, -232.77026176452637)"/><path style="fill:#7E888C;" d="M717.6,383.3L717.6,383.3c-6-3.8-7.8-11.7-4-17.6l19.5-31.1c3.8-6,11.7-7.8,17.6-4l0,0&#10;&#9;&#9;&#9;c6,3.8,7.8,11.7,4,17.6l-19.5,31.1C731.5,385.2,723.6,387,717.6,383.3z" transform="matrix(1, 0, 0, 1, -489.2567443847656, -232.77026176452637)"/><path style="fill:#7E888C;" d="M646.8,317.6L646.8,317.6c-4.2,5.7-12.3,6.8-17.9,2.6l-29.4-22c-5.7-4.2-6.8-12.3-2.6-17.9l0,0&#10;&#9;&#9;&#9;c4.2-5.7,12.3-6.8,17.9-2.6l29.4,22C649.8,303.9,651,311.9,646.8,317.6z" transform="matrix(1, 0, 0, 1, -489.2567443847656, -232.77026176452637)"/><path style="fill:#7E888C;" d="M753.5,254.1v24.7c0,6.6-5.4,12-12,12h-33c-6.6,0-12-5.4-12-12v-19.5c0-5.9,4.3-11,10.2-11.9&#10;&#9;&#9;&#9;l33-5.2C746.9,241.1,753.5,246.8,753.5,254.1z" transform="matrix(1, 0, 0, 1, -489.2567443847656, -232.77026176452637)"/><path style="fill:#7E888C;" d="M549.4,287.9c-9.8-9.8-48.9-13.4-48.9-13.4s21.3,28.4,28.1,42.9c-6.9,14.4-28.1,42.9-28.1,42.9&#10;&#9;&#9;&#9;s39.1-3.6,48.9-13.4c8-8,9.5-20,4.4-29.5C558.9,307.9,557.4,295.9,549.4,287.9z" transform="matrix(1, 0, 0, 1, -489.2567443847656, -232.77026176452637)"/><path style="fill:#C5D0D0;" d="M889.8,305.4c-14.3-8.5-36.3-19.9-63-28.1c-6.7,11.7-10.6,25.3-10.6,39.8&#10;&#9;&#9;&#9;c0,14.5,3.8,28.1,10.6,39.8c26.7-8.3,48.7-19.7,63-28.1C898.6,323.5,898.6,310.7,889.8,305.4z" transform="matrix(1, 0, 0, 1, -489.2567443847656, -232.77026176452637)"/><path d="M 849.400012 310.600006 A 11.7 11.7 0 0 1 837.700012 322.300006 A 11.7 11.7 0 0 1 826.000012 310.600006 A 11.7 11.7 0 0 1 837.700012 298.900006 A 11.7 11.7 0 0 1 849.400012 310.600006 Z" style="fill:#FFFFFF;" transform="matrix(1, 0, 0, 1, -489.2567443847656, -232.77026176452637)"/><path d="M 843.000012 310.600006 A 5.3 5.3 0 0 1 837.700012 315.900006 A 5.3 5.3 0 0 1 832.400012 310.600006 A 5.3 5.3 0 0 1 837.700012 305.300006 A 5.3 5.3 0 0 1 843.000012 310.600006 Z" transform="matrix(1, 0, 0, 1, -489.2567443847656, -232.77026176452637)"/><path style="fill:#A6AFB2;" d="M826.8,277.3c-20.3-6.3-43.4-10.8-67.8-10.8c-64.3,0-145.1,23.3-182.6,33.4&#10;&#9;&#9;&#9;c-6.8,1.8-25,4.7-32.4,5.9c-1.9,0.3-3.3,1.9-3.3,3.8v14.3c0,2,1.5,3.7,3.5,3.8c7.6,0.6,25.5,2.2,32.2,4&#10;&#9;&#9;&#9;c37.5,10.1,118.3,35.9,182.6,35.9c24.4,0,47.5-4.5,67.8-10.8c-6.7-11.7-10.6-25.3-10.6-39.8C816.3,302.6,820.1,289,826.8,277.3z" transform="matrix(1, 0, 0, 1, -489.2567443847656, -232.77026176452637)"/><path style="fill:#7E888C;" d="M763.8,302.5c-13,2.3-26.6,6-36.9,9.2c-7.2,2.2-7.2,9.1,0,11.3c10.3,3.2,23.9,6.9,36.9,9.2&#10;&#9;&#9;&#9;c5.8,1,11.4-2,11.4-6v-17.7C775.2,304.5,769.5,301.5,763.8,302.5z" transform="matrix(1, 0, 0, 1, -489.2567443847656, -232.77026176452637)"/>
</svg>