<?xml version="1.0" encoding="utf-8"?>
<svg id="master-artboard" viewBox="0 0 235.81089782714844 98.78380584716797" version="1.1" xmlns="http://www.w3.org/2000/svg" x="0px" y="0px" style="enable-background:new 0 0 1000 1000;" width="235.81089782714844px" height="98.78380584716797px"><rect id="ee-background" x="0" y="0" width="235.81089782714844" height="98.78380584716797" style="fill: white; fill-opacity: 0; pointer-events: none;"/>

<path style="fill:#7E888C;" d="M633.8,678.5v14.2c0,3.8-3.1,6.9-6.9,6.9h-19c-3.8,0-6.9-3.1-6.9-6.9v-11.3c0-3.4,2.5-6.3,5.9-6.9&#10;&#9;&#9;&#9;l19-3C630,671,633.8,674.2,633.8,678.5z" transform="matrix(1, 0, 0, 1, -521.7567749023438, -654.3918685913086)"/><path style="fill:#7E888C;" d="M630.8,707.9l2.4,15.7c0.9,5.5-3,10.8-8.5,11.6l0,0c-5.5,0.9-10.8-3-11.6-8.5l-2.4-15.7&#10;&#9;&#9;&#9;c-0.9-5.5,3-10.8,8.5-11.6h0C624.7,698.6,629.9,702.4,630.8,707.9z" transform="matrix(1, 0, 0, 1, -521.7567749023438, -654.3918685913086)"/><path style="fill:#7E888C;" d="M688.2,711.2L688.2,711.2c0.5,5.4-3.5,10.2-8.8,10.7l-15.9,1.5c-5.4,0.5-10.2-3.5-10.7-8.8l0,0&#10;&#9;&#9;&#9;c-0.5-5.4,3.5-10.2,8.8-10.7l15.9-1.5C682.9,701.8,687.7,705.8,688.2,711.2z" transform="matrix(1, 0, 0, 1, -521.7567749023438, -654.3918685913086)"/><path style="fill:#7E888C;" d="M717.9,715.1c4.9,4.9,24.2,6.6,24.2,6.6s-10.5-14.1-13.9-21.3c3.4-7.2,13.9-21.3,13.9-21.3&#10;&#9;&#9;&#9;s-19.4,1.8-24.2,6.6c-4,4-4.7,9.9-2.2,14.6C713.2,705.2,713.9,711.2,717.9,715.1z" transform="matrix(1, 0, 0, 1, -521.7567749023438, -654.3918685913086)"/><path style="fill:#A6AFB2;" d="M572.6,719.7c24.5,0,155.6-7.5,155.6-19.1c0-11.6-134.8-19.1-155.6-19.1c4.6,5.1,7.4,11.8,7.4,19.1&#10;&#9;&#9;&#9;S577.2,714.6,572.6,719.7z" transform="matrix(1, 0, 0, 1, -521.7567749023438, -654.3918685913086)"/><path style="fill:#C5D0D0;" d="M536.3,700.5c0,11.6,24.6,19.1,36.2,19.1c0,0,0,0,0,0c4.6-5.1,7.4-11.8,7.4-19.1&#10;&#9;&#9;&#9;s-2.8-14.1-7.4-19.1c0,0,0,0,0,0C560.9,681.4,536.3,688.9,536.3,700.5z" transform="matrix(1, 0, 0, 1, -521.7567749023438, -654.3918685913086)"/><path d="M 567.599976 700.5 A 9.5 9.5 0 0 1 558.099976 710 A 9.5 9.5 0 0 1 548.599976 700.5 A 9.5 9.5 0 0 1 558.099976 691 A 9.5 9.5 0 0 1 567.599976 700.5 Z" style="fill:#FFFFFF;" transform="matrix(1, 0, 0, 1, -521.7567749023438, -654.3918685913086)"/><path d="M 563.399976 700.5 A 5.3 5.3 0 0 1 558.099976 705.8 A 5.3 5.3 0 0 1 552.799975 700.5 A 5.3 5.3 0 0 1 558.099976 695.2 A 5.3 5.3 0 0 1 563.399976 700.5 Z" transform="matrix(1, 0, 0, 1, -521.7567749023438, -654.3918685913086)"/><path style="fill:#7E888C;" d="M368.5,809.8V754c0-8.4,7.2-15,15.6-14.3c31.5,2.8,103.4,12.7,146.2,44.9c3.6,2.7,5.7,7,5.7,11.5&#10;&#9;&#9;&#9;v13.6c0,7.9-6.4,14.3-14.3,14.3H382.8C374.9,824.2,368.5,817.7,368.5,809.8z" transform="matrix(1, 0, 0, 1, -521.7567749023438, -654.3918685913086)"/>
</svg>