<?xml version="1.0" encoding="utf-8"?>
<svg id="master-artboard" viewBox="0 0 231.4189910888672 155.00001525878906" version="1.1" xmlns="http://www.w3.org/2000/svg" x="0px" y="0px" style="enable-background:new 0 0 1000 1000;" width="231.4189910888672px" height="155.00001525878906px"><rect id="ee-background" x="0" y="0" width="231.4189910888672" height="155.00001525878906" style="fill: white; fill-opacity: 0; pointer-events: none;"/>

<path style="fill:#C5D0D0;" d="M329.5,606c0.5-1.1,0-34.5,0-34.5s-20.2,7.1-30.2,14.4c-13.3,9.7-15.9,20.1-15.9,20.1H329.5z" transform="matrix(1, 0, 0, 1, -82.56755065917969, -418.1080780029297)"/><path style="fill:#E23F2C;" d="M296,518.6c0,8.5-8.8,14.3-16.5,10.6c-12.9-6.1-21.7-19.3-21.7-34.5c0-15.2,8.9-28.3,21.7-34.5&#10;&#9;&#9;&#9;c7.6-3.7,16.5,2.2,16.5,10.6V518.6z" transform="matrix(1, 0, 0, 1, -82.56755065917969, -418.1080780029297)"/><path style="fill:#E23F2C;" d="M250.8,514.8v21.3c0,2.1-1.7,3.8-3.8,3.8h-30.1c-3.7,0-5.2-4.7-2.2-6.9l30.1-21.3&#10;&#9;&#9;&#9;C247.4,509.9,250.8,511.7,250.8,514.8z" transform="matrix(1, 0, 0, 1, -82.56755065917969, -418.1080780029297)"/><path style="fill:#E23F2C;" d="M193.7,553.5v-22.7c0-6.1-5-11.1-11.1-11.1h-30.4c-6.1,0-11.1,5-11.1,11.1v18&#10;&#9;&#9;&#9;c0,5.5,4,10.1,9.4,10.9l30.4,4.8C187.7,565.5,193.7,560.3,193.7,553.5z" transform="matrix(1, 0, 0, 1, -82.56755065917969, -418.1080780029297)"/><path style="fill:#E23F2C;" d="M127.7,447.5c0-3.9,2-7.5,5.4-9.4c12.8-7.6,27.7-13.3,43.5-13.3c22.4,0,42.9,11.4,58.4,23.6&#10;&#9;&#9;&#9;c2.6,2.1,4.1,5.2,4.1,8.6v3.4c0,8.7-9.5,13.9-16.8,9.3c-13.3-8.3-28.9-14.6-45.7-14.6c-11.8,0-23,3.1-33.3,7.9&#10;&#9;&#9;&#9;c-7.3,3.4-15.6-2-15.6-10V447.5z" transform="matrix(1, 0, 0, 1, -82.56755065917969, -418.1080780029297)"/><path style="fill:#F49967;" d="M91.6,494.8c0,0,22.2-30.2,53.9-45.2c10.3,12.2,16.5,28,16.5,45.2c0,17.2-6.2,33-16.5,45.2&#10;&#9;&#9;&#9;C113.9,525,91.6,494.8,91.6,494.8z" transform="matrix(1, 0, 0, 1, -82.56755065917969, -418.1080780029297)"/><path d="M 147.600003 490.899994 A 10.8 10.8 0 0 1 136.800003 501.699994 A 10.8 10.8 0 0 1 126.000003 490.899994 A 10.8 10.8 0 0 1 136.800003 480.099994 A 10.8 10.8 0 0 1 147.600003 490.899994 Z" style="fill:#FFFFFF;" transform="matrix(1, 0, 0, 1, -82.56755065917969, -418.1080780029297)"/><path d="M 141.700003 490.899994 A 4.9 4.9 0 0 1 136.800003 495.799994 A 4.9 4.9 0 0 1 131.900003 490.899994 A 4.9 4.9 0 0 1 136.800003 485.999994 A 4.9 4.9 0 0 1 141.700003 490.899994 Z" transform="matrix(1, 0, 0, 1, -82.56755065917969, -418.1080780029297)"/><path style="fill:#ED7D33;" d="M145.5,449.5c10.5-5,22-8.3,34.1-8.3c48.6,0,88.1,53.5,88.1,53.5s-39.4,53.5-88.1,53.5&#10;&#9;&#9;&#9;c-12.1,0-23.6-3.3-34.1-8.3c10.3-12.2,16.5-28,16.5-45.2C162,477.5,155.8,461.8,145.5,449.5z" transform="matrix(1, 0, 0, 1, -82.56755065917969, -418.1080780029297)"/><path style="fill:#E23F2C;" d="M185.6,502.8c4.2,1.6,11.1,3.2,15.6,4.1c1.4,0.3,2.7-0.8,2.7-2.2v-17.8c0-1.4-1.3-2.5-2.7-2.2&#10;&#9;&#9;&#9;c-4.5,0.9-11.4,2.5-15.6,4.1c-8.9,3.4-8.2,7-8.2,7S176.7,499.4,185.6,502.8z" transform="matrix(1, 0, 0, 1, -82.56755065917969, -418.1080780029297)"/>
</svg>