<?xml version="1.0" encoding="utf-8"?>
<svg id="master-artboard" viewBox="0 0 1400 1400" version="1.1" xmlns="http://www.w3.org/2000/svg" x="0px" y="0px" width="1400px" height="1400px" enable-background="new 0 0 1400 1400">
<linearGradient id="SVGID_1_" gradientUnits="userSpaceOnUse" x1="700" y1="1400" x2="700" y2="-3.142668e-008">
	<stop offset="0" style="stop-color:#157D71"/>
	<stop offset="1" style="stop-color:#031430"/>
</linearGradient>
<path d="M 0 0 H 1400 V 1400 H 0 V 0 Z" fill-rule="evenodd" clip-rule="evenodd" fill="url(#SVGID_1_)"/>
<g>
	<path fill-rule="evenodd" clip-rule="evenodd" fill="#1B7D78" d="M995.4,1114c-18.7-19.3-83-28.3-91.9-25.9&#10;&#9;&#9;c-4.4-2.8-10.6-5.6-17.9-4.9c-9.2-5.4-19.9-5.4-27.1-3.6c-14.6-11.3-43.3-14.4-49.9-12.7c-8.4-4.5-17.6-6.6-27.6-5.3&#10;&#9;&#9;c-11.3-1.9-22.9-2.6-34.9-1c-31.7-8-92.7-18.5-153.8-24c128.1,20.4,363.3,72,530.9,104.7C1061.2,1125.3,1007.5,1115.2,995.4,1114&#10;&#9;&#9;L995.4,1114z"/>
	<path fill-rule="evenodd" clip-rule="evenodd" fill="#1B7D78" d="M1400,491.5c-21.8-6.2-44-7.4-66.7-1.2&#10;&#9;&#9;c-11.3-7.1-25.7-10.6-44.5-8.6c-16.6-3.7-33.6-4.6-51.8,0c-16.9-7.9-33.8-8.1-50.6-3.7c-21.5-11.7-44.8-16.8-70.4-13.6&#10;&#9;&#9;c-28.9-4.9-58.3-6.7-88.9-2.5c-29.6-5.6-60-8-91.4-6.2l286.4,45.7c-50.6-7-100-12.4-148.2-16.1l326,64.2V491.5z"/>
	<path fill-rule="evenodd" clip-rule="evenodd" fill="#1B7D78" d="M332.4,263.8c-13.8-19.4-49.5-30.1-72-23.3&#10;&#9;&#9;c-11.6-6.8-27.3-13.5-46-11.1c0.2-7.1-7.6-18.5-25.7-13.5c-17.1-7.5-34-7.2-50.7-2.3c-21.8-11-45.2-15.5-70.7-11.6&#10;&#9;&#9;c-22.1-3.1-44.5-4.4-67.3-2.6v13.8l174.5,22.9c-50.7-5.5-100.3-9.6-148.5-11.9l400.2,66.7C399,274.6,363.5,266,332.4,263.8&#10;&#9;&#9;L332.4,263.8z"/>
	<path fill-rule="evenodd" clip-rule="evenodd" fill="#1B7D78" d="M964.6,507.5c-8-12-29.6-19.2-43.4-15.4&#10;&#9;&#9;c-6.9-4.3-16.4-8.7-27.8-7.5c0.2-4.3-4.3-11.4-15.4-8.6c-10.3-4.8-20.6-4.9-30.9-2.3c-13.1-7.1-27.3-10.2-42.9-8.3&#10;&#9;&#9;c-17.6-2.9-35.6-4.1-54.2-1.5c-18.1-3.4-36.6-4.9-55.7-3.8L868.9,488c-30.8-4.2-61-7.6-90.3-9.8l242.7,47.4&#10;&#9;&#9;C1005,515.2,983.5,509.4,964.6,507.5L964.6,507.5z"/>
	<path fill-rule="evenodd" clip-rule="evenodd" fill="#1B7D78" d="M313.5,629c-29-30-128.9-44-142.7-40.3&#10;&#9;&#9;c-6.9-4.3-16.4-8.7-27.8-7.5c-14.2-8.3-30.9-8.3-42-5.6c-22.6-17.5-67.2-22.3-77.5-19.6C16,552,8.2,549.2,0,548v17.4&#10;&#9;&#9;c153.2,29.4,308.8,66.5,511.9,106.2C415.8,646.4,332.4,630.8,313.5,629L313.5,629z"/>
	<path fill-rule="evenodd" clip-rule="evenodd" fill="#1B7D78" d="M670.1,729.6c-18.7-19.3-83-28.3-91.9-25.9&#10;&#9;&#9;c-4.5-2.8-10.6-5.6-18-4.9c-9.2-5.4-19.9-5.4-27-3.6c-14.6-11.3-43.3-14.4-49.9-12.7c-8.4-4.6-17.6-6.6-27.6-5.3&#10;&#9;&#9;c-11.3-1.9-22.9-2.6-34.9-1c-31.7-8.1-92.7-18.6-153.8-24c128.1,20.4,363.3,72,530.8,104.7C736,740.8,682.3,730.8,670.1,729.6&#10;&#9;&#9;L670.1,729.6z"/>
</g>
<g>
	<path fill-rule="evenodd" clip-rule="evenodd" fill="#1B7D78" d="M1400,1148.9V1400H0v-290.3c179.6-21.3,371-32.9,569.8-32.9&#10;&#9;&#9;C868.3,1076.9,1150.2,1102.8,1400,1148.9L1400,1148.9z"/>
	<linearGradient id="SVGID_2_" gradientUnits="userSpaceOnUse" x1="700" y1="1000.3422" x2="700" y2="1500.0076">
		<stop offset="0" style="stop-color:#157D71"/>
		<stop offset="1" style="stop-color:#031430"/>
	</linearGradient>
	<path fill-rule="evenodd" clip-rule="evenodd" fill="url(#SVGID_2_)" d="M1400,1192.2V1400H0v-69.7&#10;&#9;&#9;c79.9-14.2,160.2-26.5,240.6-37.4c-77.8-5-157.8,0.2-240.6,18.6v-160.1c170.3-15.3,348.3-23.3,531.4-23.3&#10;&#9;&#9;c-115.7,11.1-378.5,41.7-478.7,70.5C681.8,1109.7,1136.4,1151.8,1400,1192.2L1400,1192.2z M347.7,1224.1&#10;&#9;&#9;c191.8-20.6,383.6-25.9,575.4-23.5c-113.4-24.4-234.8-27.1-368,1.2C480.7,1198.5,410.7,1204.3,347.7,1224.1L347.7,1224.1z"/>
	<path fill-rule="evenodd" clip-rule="evenodd" fill="#072E40" d="M1400,1274.5V1400H61.8c126.7-49.2,312.8-92.2,524.1-104.6&#10;&#9;&#9;C797.1,1283.1,912.9,1205.7,1400,1274.5L1400,1274.5z"/>
	<path fill-rule="evenodd" clip-rule="evenodd" fill="#07283D" d="M1400,1153.2v73c-27.8,6.9-53.4,17.6-77.3,31.5&#10;&#9;&#9;c-56.6-12.3-134.8-23.9-243.2-34.5c16-0.8,32.1-1.7,48.2-2.5c-63.9-13.3-120.5-21.3-170.4-24.7c48.2-4.6,96.7-6.1,145.7-2.4&#10;&#9;&#9;c22.4-17,48.3-26.6,80.3-23.4c-9.7-3-20.7-4-34.6,0c-21-6.8-44.8-12.6-77.8-14.8c49-14.1,100.8-17.9,155.6-9.9&#10;&#9;&#9;C1281.2,1135.5,1338.8,1136.9,1400,1153.2L1400,1153.2z M1400,1230.1V1400H632.9c69.1-20.4,141.9-36,224.3-38.6&#10;&#9;&#9;c13.2-18,32.8-28.5,59.3-30.9c15.9-16.2,35.6-20.9,60.5-9.9c64.5-14.4,116.6-1.2,163,24.7c37.1-33.1,84.4-41.8,139.5-32.1&#10;&#9;&#9;C1308.1,1271.1,1348.9,1244.2,1400,1230.1L1400,1230.1z M315.2,1400H0v-48.9c27.8,7.2,55.5,17.5,83.1,31.3&#10;&#9;&#9;C161.2,1381.8,238.6,1388,315.2,1400L315.2,1400z M0,1289.2v-110.7c34.6,2.2,75.2,12.5,109,43.4c47.2-6.6,77.1,0,96.3,14.8&#10;&#9;&#9;c17.4-4.3,37.3-4,58-2.5C164.5,1246.7,77.3,1265.3,0,1289.2L0,1289.2z M0,1175.6v-45c70.5-15.6,134-10.4,190.5,15.9&#10;&#9;&#9;c52-15.2,91.2-4.6,128.4,9.9c53-5.3,98.1-5.8,134.6-1.3c-140,7.9-245,14.9-386.6,32.7C45.7,1179.3,22.2,1175.9,0,1175.6L0,1175.6z"/>
</g>
<g>
	<path fill-rule="evenodd" clip-rule="evenodd" fill="#153347" d="M624.4,234.4c23.2,0,42,18.8,42,42c0,23.2-18.8,42-42,42&#10;&#9;&#9;c-23.2,0-42-18.8-42-42C582.5,253.2,601.3,234.4,624.4,234.4L624.4,234.4z"/>
	<path fill-rule="evenodd" clip-rule="evenodd" fill="#244153" d="M624.4,249.8c14.7,0,26.6,11.9,26.6,26.6&#10;&#9;&#9;c0,14.7-11.9,26.6-26.6,26.6c-14.7,0-26.6-11.9-26.6-26.6C597.9,261.7,609.8,249.8,624.4,249.8L624.4,249.8z"/>
	<path fill-rule="evenodd" clip-rule="evenodd" fill="#355061" d="M624.4,259.6c9.3,0,16.8,7.6,16.8,16.9c0,9.3-7.5,16.8-16.8,16.8&#10;&#9;&#9;c-9.3,0-16.8-7.6-16.8-16.8C607.6,267.1,615.1,259.6,624.4,259.6L624.4,259.6z"/>
	<path fill-rule="evenodd" clip-rule="evenodd" fill="#FFFFFF" d="M624.4,265.8c5.9,0,10.7,4.8,10.7,10.7c0,5.9-4.8,10.6-10.7,10.6&#10;&#9;&#9;c-5.9,0-10.7-4.8-10.7-10.6C613.8,270.5,618.6,265.8,624.4,265.8L624.4,265.8z"/>
</g>







</svg>