<?xml version="1.0" encoding="utf-8"?>
<svg id="master-artboard" viewBox="0 0 1441.973876953125 994.1846923828125" version="1.1" 
	xmlns="http://www.w3.org/2000/svg" x="0px" y="0px" enable-background="new 0 0 2850 1800" width="1441.973876953125px" height="994.1846923828125px">
	<rect id="ee-background" x="0" y="0" width="1441.973876953125" height="994.1846923828125" style="fill: white; fill-opacity: 0; pointer-events: none;"/>
	<linearGradient id="SVGID_1_" gradientUnits="userSpaceOnUse" x1="986.3646" y1="-1.4477" x2="1901.3501" y2="1878.9558">
		<stop offset="0.0054" style="stop-color:#44168A"/>
		<stop offset="1" style="stop-color:#FE6262"/>
	</linearGradient>
	<g transform="matrix(1, 0, 0, 1, -2145.017333984375, 800.0800170898438)">
		<path fill="#FFFFFF" d="M2652.719,145.516c1.932,0,1.935-3.002,0-3.002C2650.787,142.514,2650.784,145.516,2652.719,145.516&#10;&#9;&#9;&#9;&#9;&#9;&#9;L2652.719,145.516z"/>
	</g>
	<path opacity="0.4" fill="#FFFFFF" d="M1766.982,419.824l952.352-232.325c0.268-0.065,0.539,0.099,0.604,0.367&#10;&#9;&#9;c0.065,0.267-0.097,0.536-0.363,0.603l-950.174,241.08c-2.682,0.681-5.409-0.942-6.089-3.625c-0.681-2.682,0.942-5.409,3.625-6.089&#10;&#9;&#9;L1766.982,419.824z" transform="matrix(1, 0, 0, 1, -2145.017333984375, 800.0800170898438)"/>
	<linearGradient id="SVGID_2_" gradientUnits="userSpaceOnUse" x1="1588.13" y1="911.7396" x2="1588.13" y2="2114.6746" gradientTransform="matrix(-0.9848 0.1739 0.1739 0.9848 3514.407 -250.3391)">
		<stop offset="0" style="stop-color:#FEEAC2"/>
		<stop offset="0.5068" style="stop-color:#FE62A6"/>
		<stop offset="1" style="stop-color:#FEEAC2"/>
	</linearGradient>
	<linearGradient id="SVGID_3_" gradientUnits="userSpaceOnUse" x1="2127.0103" y1="1720.6543" x2="-756.2358" y2="1082.8612" gradientTransform="matrix(0.9661 0.2583 -0.2583 0.9661 482.5484 -331.2546)">
		<stop offset="0" style="stop-color:#FEEAC2"/>
		<stop offset="1" style="stop-color:#FE62BB"/>
	</linearGradient>
	<linearGradient id="SVGID_4_" gradientUnits="userSpaceOnUse" x1="1571.4094" y1="1599.4059" x2="-1310.9403" y2="961.8111" gradientTransform="matrix(0.9661 0.2583 -0.2583 0.9661 482.5484 -331.2546)">
		<stop offset="0" style="stop-color:#FEEAC2"/>
		<stop offset="1" style="stop-color:#FE62BB"/>
	</linearGradient>
	<linearGradient id="SVGID_5_" gradientUnits="userSpaceOnUse" x1="1535.2686" y1="1762.9697" x2="-1346.843" y2="1125.4277" gradientTransform="matrix(0.9661 0.2583 -0.2583 0.9661 482.5484 -331.2546)">
		<stop offset="0" style="stop-color:#FEEAC2"/>
		<stop offset="1" style="stop-color:#FE62BB"/>
	</linearGradient>
	<linearGradient id="SVGID_6_" gradientUnits="userSpaceOnUse" x1="1424.2073" y1="2265.9648" x2="-1458.8374" y2="1628.2164" gradientTransform="matrix(0.9661 0.2583 -0.2583 0.9661 482.5484 -331.2546)">
		<stop offset="0" style="stop-color:#FEEAC2"/>
		<stop offset="1" style="stop-color:#FE62BB"/>
	</linearGradient>
	<radialGradient id="SVGID_7_" cx="834.5567" cy="1139.512" r="524.2878" gradientUnits="userSpaceOnUse">
		<stop offset="0.0013" style="stop-color:#C73CA0"/>
		<stop offset="0.2644" style="stop-color:#C43B9E"/>
		<stop offset="0.4299" style="stop-color:#BC3998"/>
		<stop offset="0.5684" style="stop-color:#AD358D"/>
		<stop offset="0.6921" style="stop-color:#982F7E"/>
		<stop offset="0.8059" style="stop-color:#7E286A"/>
		<stop offset="0.9108" style="stop-color:#5D1F53"/>
		<stop offset="0.9954" style="stop-color:#3D163B"/>
	</radialGradient>
	<radialGradient id="SVGID_8_" cx="758.29" cy="1070.6107" r="362.5473" gradientUnits="userSpaceOnUse">
		<stop offset="0.0061" style="stop-color:#B43C8F"/>
		<stop offset="0.2813" style="stop-color:#B13B8D"/>
		<stop offset="0.4543" style="stop-color:#A93887"/>
		<stop offset="0.5991" style="stop-color:#9A347D"/>
		<stop offset="0.7284" style="stop-color:#852D6E"/>
		<stop offset="0.8474" style="stop-color:#6B255B"/>
		<stop offset="0.9572" style="stop-color:#4A1A44"/>
		<stop offset="0.9954" style="stop-color:#3D163B"/>
	</radialGradient>
	<radialGradient id="SVGID_9_" cx="978.3394" cy="1306.2327" r="355.4305" gradientUnits="userSpaceOnUse">
		<stop offset="0.0061" style="stop-color:#B43C8F"/>
		<stop offset="0.2813" style="stop-color:#B13B8D"/>
		<stop offset="0.4543" style="stop-color:#A93887"/>
		<stop offset="0.5991" style="stop-color:#9A347D"/>
		<stop offset="0.7284" style="stop-color:#852D6E"/>
		<stop offset="0.8474" style="stop-color:#6B255B"/>
		<stop offset="0.9572" style="stop-color:#4A1A44"/>
		<stop offset="0.9954" style="stop-color:#3D163B"/>
	</radialGradient>
	<radialGradient id="SVGID_10_" cx="856.3405" cy="1171.2933" r="422.9132" gradientUnits="userSpaceOnUse">
		<stop offset="0.0061" style="stop-color:#B43C8F"/>
		<stop offset="0.2813" style="stop-color:#B13B8D"/>
		<stop offset="0.4543" style="stop-color:#A93887"/>
		<stop offset="0.5991" style="stop-color:#9A347D"/>
		<stop offset="0.7284" style="stop-color:#852D6E"/>
		<stop offset="0.8474" style="stop-color:#6B255B"/>
		<stop offset="0.9572" style="stop-color:#4A1A44"/>
		<stop offset="0.9954" style="stop-color:#3D163B"/>
	</radialGradient>
	<linearGradient id="SVGID_11_" gradientUnits="userSpaceOnUse" x1="2363.4697" y1="1451.0498" x2="2363.4697" y2="2653.3157" gradientTransform="matrix(0.9848 0.1739 -0.1739 0.9848 312.8891 -250.3391)">
		<stop offset="0" style="stop-color:#FEEAC2"/>
		<stop offset="0.5068" style="stop-color:#FE62A6"/>
		<stop offset="1" style="stop-color:#FEEAC2"/>
	</linearGradient>
	<linearGradient id="SVGID_12_" gradientUnits="userSpaceOnUse" x1="881.8156" y1="1450.2448" x2="881.8156" y2="2653.1919" gradientTransform="matrix(0.9848 0.1739 -0.1739 0.9848 312.8891 -250.3391)">
		<stop offset="0" style="stop-color:#FEEAC2"/>
		<stop offset="0.5068" style="stop-color:#FE62A6"/>
		<stop offset="1" style="stop-color:#FEEAC2"/>
	</linearGradient>
	<radialGradient id="SVGID_13_" cx="2229.1316" cy="515.4207" r="264.5689" gradientUnits="userSpaceOnUse">
		<stop offset="0.0036" style="stop-color:#E66119"/>
		<stop offset="0.2773" style="stop-color:#E35F1A"/>
		<stop offset="0.4494" style="stop-color:#DB5A1C"/>
		<stop offset="0.5934" style="stop-color:#CC5120"/>
		<stop offset="0.722" style="stop-color:#B74526"/>
		<stop offset="0.8403" style="stop-color:#9D342D"/>
		<stop offset="0.9495" style="stop-color:#7C2036"/>
		<stop offset="0.9985" style="stop-color:#6B163B"/>
	</radialGradient>
	<linearGradient id="SVGID_14_" gradientUnits="userSpaceOnUse" x1="2169.1626" y1="692.9352" x2="2290.3652" y2="606.3619">
		<stop offset="7.630814e-04" style="stop-color:#C73C19"/>
		<stop offset="0.9985" style="stop-color:#6B163B"/>
	</linearGradient>
	<linearGradient id="SVGID_15_" gradientUnits="userSpaceOnUse" x1="2254.8604" y1="494.9883" x2="2472.8599" y2="494.9883">
		<stop offset="7.630814e-04" style="stop-color:#C73C19"/>
		<stop offset="0.9985" style="stop-color:#6B163B"/>
	</linearGradient>
	<radialGradient id="SVGID_16_" cx="1370.838" cy="452.276" r="126.6167" gradientUnits="userSpaceOnUse">
		<stop offset="0.0054" style="stop-color:#61C9A6"/>
		<stop offset="0.2949" style="stop-color:#60C6A6"/>
		<stop offset="0.4768" style="stop-color:#5CBEA7"/>
		<stop offset="0.6291" style="stop-color:#56AFA8"/>
		<stop offset="0.7651" style="stop-color:#4D9AAA"/>
		<stop offset="0.8889" style="stop-color:#4180AD"/>
		<stop offset="1" style="stop-color:#3461B0"/>
	</radialGradient>
	<radialGradient id="SVGID_17_" cx="1376.6798" cy="447.706" r="95.2638" gradientUnits="userSpaceOnUse">
		<stop offset="0.0061" style="stop-color:#4FB7A6"/>
		<stop offset="0.3144" style="stop-color:#4EB4A6"/>
		<stop offset="0.5082" style="stop-color:#4BACA7"/>
		<stop offset="0.6704" style="stop-color:#479DA9"/>
		<stop offset="0.8151" style="stop-color:#4088AB"/>
		<stop offset="0.947" style="stop-color:#386EAE"/>
		<stop offset="1" style="stop-color:#3461B0"/>
	</radialGradient>
	<radialGradient id="SVGID_18_" cx="1412.4097" cy="467.3885" r="90.7979" gradientUnits="userSpaceOnUse">
		<stop offset="0.0071" style="stop-color:#4FA2A6"/>
		<stop offset="0.3454" style="stop-color:#4E9FA6"/>
		<stop offset="0.558" style="stop-color:#4A97A8"/>
		<stop offset="0.7359" style="stop-color:#4488AA"/>
		<stop offset="0.8937" style="stop-color:#3C74AD"/>
		<stop offset="1" style="stop-color:#3461B0"/>
	</radialGradient>

	<path fill="#FFFFFF" d="M1220.054,869.281c-0.657,4.819,7.614,4.444,6.653-0.135c-0.397-1.891-3.289-1.091-2.893,0.799&#10;&#9;&#9;&#9;&#9;c-0.072-0.342-0.042,0.067,0.009-0.134c0.039-0.155-0.077,0.087,0.07-0.16c-0.125,0.212,0.163-0.069,0.03-0.017&#10;&#9;&#9;&#9;&#9;c-0.095,0.037-0.18,0.28,0.022-0.003c-0.02,0.028-0.156,0.105-0.19,0.107c0.285-0.015,0.105-0.033-0.012-0.009&#10;&#9;&#9;&#9;&#9;c-0.095,0.02-0.19,0.048-0.285,0.068c0.201-0.041,0.161-0.001-0.017-0.01c-0.146-0.008-0.588-0.073-0.252,0.005&#10;&#9;&#9;&#9;&#9;c-0.094-0.022-0.186-0.043-0.278-0.071c-0.106-0.036-0.073-0.019,0.099,0.051c-0.032-0.016-0.064-0.033-0.096-0.049&#10;&#9;&#9;&#9;&#9;c-0.077-0.217,0.051,0.181,0.006,0.023c-0.026-0.022-0.05-0.046-0.072-0.072c-0.075-0.082-0.048-0.048,0.082,0.104&#10;&#9;&#9;&#9;&#9;c0.017,0.083,0.088,0.267,0.033,0.076c0.108,0.372,0.028-0.095-0.016,0.226c0.109-0.803-0.193-1.613-1.048-1.848&#10;&#9;&#9;&#9;&#9;C1221.199,868.039,1220.164,868.472,1220.054,869.281L1220.054,869.281z" transform="matrix(1, 0, 0, 1, -249.4873046875, -768.53564453125)"/>
	<path fill="#FFFFFF" d="M1440.816,1252.781c1.788,0,3.576,0,5.365,0c1.93,0,1.933-3.004,0-3.004c-1.788,0-3.576,0-5.365,0&#10;&#9;&#9;&#9;&#9;C1438.885,1249.777,1438.882,1252.781,1440.816,1252.781L1440.816,1252.781z" transform="matrix(1, 0, 0, 1, -249.4873046875, -768.53564453125)"/>
	<path fill="#FFFFFF" d="M1372.137,1427.497c-1.788-1.791-3.576-3.581-5.365-5.372c-1.367-1.369-3.489,0.755-2.121,2.124&#10;&#9;&#9;&#9;&#9;c1.788,1.791,3.576,3.581,5.365,5.372C1371.383,1430.99,1373.504,1428.866,1372.137,1427.497L1372.137,1427.497z" transform="matrix(1, 0, 0, 1, -249.4873046875, -768.53564453125)"/>
	<path fill="#FFFFFF" d="M1330.552,1078.806c0.05,0.367,0.04-0.205,0.024,0.056c-0.015,0.114-0.005,0.101,0.03-0.04&#10;&#9;&#9;&#9;&#9;c-0.016,0.048-0.033,0.097-0.05,0.145c0.1,0.179-0.265-0.045,0.027-0.012c0.109,0.012-0.204,0.103,0.043-0.012&#10;&#9;&#9;&#9;&#9;c0.134-0.062,0.12-0.048-0.007-0.003c0.103-0.037,0.213-0.068,0.321-0.089c0.171-0.033-0.215,0.003,0.076-0.013&#10;&#9;&#9;&#9;&#9;c0.116-0.006,0.232-0.004,0.349-0.004c0.18,0,0.553,0.069,0.712,0.215c-0.154-0.142-0.089-0.034,0.025,0.036&#10;&#9;&#9;&#9;&#9;c0.06,0.037-0.038-0.179,0.003,0.03c-0.024-0.12-0.067-0.186-0.037-0.021c-0.067-0.364-0.09,0.159-0.029-0.131&#10;&#9;&#9;&#9;&#9;c-0.396,1.886,2.495,2.692,2.893,0.799c1.039-4.948-7.98-5.35-7.272-0.157c0.11,0.804,1.139,1.243,1.845,1.049&#10;&#9;&#9;&#9;&#9;C1330.37,1080.415,1330.662,1079.613,1330.552,1078.806L1330.552,1078.806z" transform="matrix(1, 0, 0, 1, -249.4873046875, -768.53564453125)"/>
	<path fill="#FFFFFF" d="M1206.275,1455.419c0-1.791,0-3.581,0-5.372c0-1.933-3-1.936-3,0c0,1.791,0,3.581,0,5.372&#10;&#9;&#9;&#9;&#9;C1203.275,1457.352,1206.275,1457.355,1206.275,1455.419L1206.275,1455.419z" transform="matrix(1, 0, 0, 1, -249.4873046875, -768.53564453125)"/>
	<path d="M 1406.951965 1253.416016 A 442.218994 442.218994 0 0 1 964.732971 1695.63501 A 442.218994 442.218994 0 0 1 522.513977 1253.416016 A 442.218994 442.218994 0 0 1 964.732971 811.197021 A 442.218994 442.218994 0 0 1 1406.951965 1253.416016 Z" opacity="0.2" fill="#F25CCC" transform="matrix(1, 0, 0, 1, -249.4873046875, -768.53564453125)"/>
	<path d="M 1346.658966 1253.416016 A 381.925995 381.925995 0 0 1 964.732971 1635.34201 A 381.925995 381.925995 0 0 1 582.806976 1253.416016 A 381.925995 381.925995 0 0 1 964.732971 871.490021 A 381.925995 381.925995 0 0 1 1346.658966 1253.416016 Z" opacity="0.2" fill="#F25CCC" transform="matrix(1, 0, 0, 1, -249.4873046875, -768.53564453125)"/>
	<path d="M 1323.046967 1253.416016 A 358.313995 358.313995 0 0 1 964.732971 1611.730011 A 358.313995 358.313995 0 0 1 606.418976 1253.416016 A 358.313995 358.313995 0 0 1 964.732971 895.10202 A 358.313995 358.313995 0 0 1 1323.046967 1253.416016 Z" fill="url(#SVGID_7_)" transform="matrix(1, 0, 0, 1, -249.4873046875, -768.53564453125)"/>
	<path fill="url(#SVGID_8_)" d="M883.186,904.426c-2.437,1.968-4.865,3.959-7.272,5.993&#10;&#9;&#9;&#9;c-77.62,64.081-120.942,146.214-180.511,226.541c-24.069,31.876-51.891,61.405-86.842,77.102&#10;&#9;&#9;&#9;c-1.412,12.925-2.143,26.054-2.143,39.355c0,56.032,12.866,109.058,35.797,156.291c45.07-36.356,75.327-89.951,106.439-140.974&#10;&#9;&#9;&#9;c32.492-53.251,59.569-104.696,88.45-158.85c50.886-95.873,141.548-173.052,246.374-194.635&#10;&#9;&#9;&#9;c-37.162-13.049-77.124-20.147-118.745-20.147C936.681,895.102,909.382,898.329,883.186,904.426z" transform="matrix(1, 0, 0, 1, -249.4873046875, -768.53564453125)"/>
	<path fill="url(#SVGID_9_)" d="M1307.308,1148.114c-25.348,6.656-49.921,17.013-73.079,33.974&#10;&#9;&#9;&#9;c-37.907,27.979-68.594,56.861-90.256,97.476c-18.051,34.297-27.077,70.399-47.835,104.697c-2.708,5.415-3.61,12.636-6.318,18.051&#10;&#9;&#9;&#9;c-41.517,73.107-110.112,117.332-184.121,149.824c-27.778,13.021-57.23,20.199-88.347,27.956&#10;&#9;&#9;&#9;c44.953,20.317,94.842,31.64,147.381,31.64c9.448,0,18.81-0.368,28.074-1.086c34.128-17.323,66.38-38.308,95.209-65.73&#10;&#9;&#9;&#9;c64.081-62.276,93.866-142.604,149.824-213.906c21.029-27.338,49.681-63.922,85.107-69.18c0.064-2.797,0.101-5.601,0.101-8.413&#10;&#9;&#9;&#9;C1323.047,1216.767,1317.534,1181.409,1307.308,1148.114z" transform="matrix(1, 0, 0, 1, -249.4873046875, -768.53564453125)"/>
	<path fill="url(#SVGID_10_)" d="M1191.598,976.071c-57.085,18.826-114.366,36.921-169.47,63.413&#10;&#9;&#9;&#9;c-59.569,28.882-107.404,76.717-132.676,138.091c-18.051,45.128-36.102,88.45-62.276,130.87&#10;&#9;&#9;&#9;c-38.519,63.907-83.833,127.812-156.529,149.714c24.595,35.262,55.374,65.887,90.758,90.319&#10;&#9;&#9;&#9;c86.472-40.589,166.378-90.703,225.524-172.341c18.954-27.077,33.395-52.348,38.81-83.938&#10;&#9;&#9;&#9;c5.415-28.882,10.831-55.056,18.954-82.133c6.318-19.856,15.343-38.81,27.979-56.861c34.297-49.641,75.815-88.45,131.773-106.502&#10;&#9;&#9;&#9;c15.258-4.904,32.817-6.841,49.503-4.83C1236.011,1017.396,1215.047,995.274,1191.598,976.071z" transform="matrix(1, 0, 0, 1, -249.4873046875, -768.53564453125)"/>
	<path fill="#9283F1" d="M1640.752,1070.517c-13.851-42.066-155.815-35.737-362.076,10.05c4.704,8.788,9.12,17.789,13.278,26.63&#10;&#9;&#9;&#9;&#9;c97.084-11.523,162.342-5.973,171.458,21.714c18.641,56.613-220.43,186.203-467.361,267.511&#10;&#9;&#9;&#9;&#9;c-246.931,81.309-495.864,112.407-514.505,55.794c-9.574-29.075,45.02-76.327,132.327-125.753&#10;&#9;&#9;&#9;&#9;c-2.003-9.379-3.285-18.759-4.699-28.581c-206.458,89.437-339.726,175.71-325.329,219.432&#10;&#9;&#9;&#9;&#9;c20.86,63.353,341.525,14.691,716.225-108.689S1661.612,1133.869,1640.752,1070.517z" transform="matrix(1, 0, 0, 1, -249.4873046875, -768.53564453125)"/>
	<path fill="#C2A1F1" d="M1640.752,1063.081c-13.851-42.066-159.553-34.91-365.815,10.877c4.704,8.788,9.609,17.342,13.766,26.184&#10;&#9;&#9;&#9;&#9;c97.084-11.523,165.592-6.354,174.709,21.333c18.641,56.613-220.43,186.203-467.361,267.511&#10;&#9;&#9;&#9;&#9;c-246.931,81.309-495.864,112.407-514.505,55.794c-9.574-29.075,43.649-75.859,130.955-125.286&#10;&#9;&#9;&#9;&#9;c-1.559-9.481-3.096-18.514-4.137-28.522c-206.458,89.437-338.917,175.184-324.52,218.907&#10;&#9;&#9;&#9;&#9;c20.86,63.353,341.525,14.691,716.225-108.689S1661.612,1126.433,1640.752,1063.081z" transform="matrix(1, 0, 0, 1, -249.4873046875, -768.53564453125)"/>
</svg>