<?xml version="1.0" encoding="utf-8"?>
<svg id="master-artboard" viewBox="0 0 2850 1800" version="1.1" xmlns="http://www.w3.org/2000/svg" x="0px" y="0px" enable-background="new 0 0 2850 1800" width="2850px" height="1800px">
<linearGradient id="SVGID_1_" gradientUnits="userSpaceOnUse" x1="986.3646" y1="-1.4477" x2="1901.3501" y2="1878.9558">
		<stop offset="0.0054" style="stop-color:#44168A"/>
		<stop offset="1" style="stop-color:#FE6262"/>
	</linearGradient><path d="M 0 0 H 2850 V 1800 H 0 V 0 Z" fill="url(#SVGID_1_)" transform="matrix(1, 0, 0, 1, 4.4587704906007275e-7, 0.000044125008571427315)"/><g transform="matrix(1, 0, 0, 1, 0, 0)">
					<path fill="#FFFFFF" d="M2312.301,511.268c1.932,0,1.935-3.002,0-3.002C2310.37,508.266,2310.366,511.268,2312.301,511.268&#10;&#9;&#9;&#9;&#9;&#9;&#9;L2312.301,511.268z"/>
				</g><path fill="#FFFFFF" d="M1330.552,1078.806c0.05,0.367,0.04-0.205,0.024,0.056c-0.015,0.114-0.005,0.101,0.03-0.04&#10;&#9;&#9;&#9;&#9;c-0.016,0.048-0.033,0.097-0.05,0.145c0.1,0.179-0.265-0.045,0.027-0.012c0.109,0.012-0.204,0.103,0.043-0.012&#10;&#9;&#9;&#9;&#9;c0.134-0.062,0.12-0.048-0.007-0.003c0.103-0.037,0.213-0.068,0.321-0.089c0.171-0.033-0.215,0.003,0.076-0.013&#10;&#9;&#9;&#9;&#9;c0.116-0.006,0.232-0.004,0.349-0.004c0.18,0,0.553,0.069,0.712,0.215c-0.154-0.142-0.089-0.034,0.025,0.036&#10;&#9;&#9;&#9;&#9;c0.06,0.037-0.038-0.179,0.003,0.03c-0.024-0.12-0.067-0.186-0.037-0.021c-0.067-0.364-0.09,0.159-0.029-0.131&#10;&#9;&#9;&#9;&#9;c-0.396,1.886,2.495,2.692,2.893,0.799c1.039-4.948-7.98-5.35-7.272-0.157c0.11,0.804,1.139,1.243,1.845,1.049&#10;&#9;&#9;&#9;&#9;C1330.37,1080.415,1330.662,1079.613,1330.552,1078.806L1330.552,1078.806z" transform="matrix(1, 0, 0, 1, 0, 0)"/><path fill="#FFFFFF" d="M1206.275,1455.419c0-1.791,0-3.581,0-5.372c0-1.933-3-1.936-3,0c0,1.791,0,3.581,0,5.372&#10;&#9;&#9;&#9;&#9;C1203.275,1457.352,1206.275,1457.355,1206.275,1455.419L1206.275,1455.419z" transform="matrix(1, 0, 0, 1, 0, 0)"/><path opacity="0.05" fill="#F2EF47" d="M0,0v1176.393c27.185,2.302,54.686,3.493,82.466,3.493&#10;&#9;&#9;&#9;c532.748,0,964.626-431.878,964.626-964.626c0-73.996-8.344-146.042-24.121-215.26H0z" transform="matrix(1, 0, 0, 1, 0, 0)"/><path opacity="0.05" fill="#F2EF4D" d="M0,0v993.201c27.102,2.84,54.612,4.307,82.466,4.307&#10;&#9;&#9;&#9;c432.024,0,782.249-350.225,782.249-782.249c0-74.659-10.465-146.872-29.998-215.26H0z" transform="matrix(1, 0, 0, 1, 0, 0)"/><path opacity="0.05" fill="#F2EF58" d="M0,0v786.244c26.934,3.856,54.466,5.859,82.466,5.859&#10;&#9;&#9;&#9;c318.582,0,576.843-258.261,576.843-576.843c0-76.095-14.744-148.745-41.515-215.26H0z" transform="matrix(1, 0, 0, 1, 0, 0)"/><path fill="#F2EFAC" d="M0,0v603.675c26.604,5.621,54.188,8.584,82.466,8.584c219.257,0,397-177.743,397-397&#10;&#9;&#9;&#9;c0-79.343-23.281-153.245-63.376-215.26H0z" transform="matrix(1, 0, 0, 1, 0, 0)"/><linearGradient id="SVGID_2_" gradientUnits="userSpaceOnUse" x1="1588.13" y1="911.7396" x2="1588.13" y2="2114.6746" gradientTransform="matrix(-0.9848 0.1739 0.1739 0.9848 3514.407 -250.3391)">
			<stop offset="0" style="stop-color:#FEEAC2"/>
			<stop offset="0.5068" style="stop-color:#FE62A6"/>
			<stop offset="1" style="stop-color:#FEEAC2"/>
		</linearGradient><linearGradient id="SVGID_3_" gradientUnits="userSpaceOnUse" x1="2127.0103" y1="1720.6543" x2="-756.2358" y2="1082.8612" gradientTransform="matrix(0.9661 0.2583 -0.2583 0.9661 482.5484 -331.2546)">
			<stop offset="0" style="stop-color:#FEEAC2"/>
			<stop offset="1" style="stop-color:#FE62BB"/>
		</linearGradient><linearGradient id="SVGID_4_" gradientUnits="userSpaceOnUse" x1="1571.4094" y1="1599.4059" x2="-1310.9403" y2="961.8111" gradientTransform="matrix(0.9661 0.2583 -0.2583 0.9661 482.5484 -331.2546)">
			<stop offset="0" style="stop-color:#FEEAC2"/>
			<stop offset="1" style="stop-color:#FE62BB"/>
		</linearGradient><linearGradient id="SVGID_5_" gradientUnits="userSpaceOnUse" x1="1535.2686" y1="1762.9697" x2="-1346.843" y2="1125.4277" gradientTransform="matrix(0.9661 0.2583 -0.2583 0.9661 482.5484 -331.2546)">
			<stop offset="0" style="stop-color:#FEEAC2"/>
			<stop offset="1" style="stop-color:#FE62BB"/>
		</linearGradient><linearGradient id="SVGID_6_" gradientUnits="userSpaceOnUse" x1="1424.2073" y1="2265.9648" x2="-1458.8374" y2="1628.2164" gradientTransform="matrix(0.9661 0.2583 -0.2583 0.9661 482.5484 -331.2546)">
			<stop offset="0" style="stop-color:#FEEAC2"/>
			<stop offset="1" style="stop-color:#FE62BB"/>
		</linearGradient><path d="M 1406.951965 1253.416016 A 442.218994 442.218994 0 0 1 964.732971 1695.63501 A 442.218994 442.218994 0 0 1 522.513977 1253.416016 A 442.218994 442.218994 0 0 1 964.732971 811.197021 A 442.218994 442.218994 0 0 1 1406.951965 1253.416016 Z" opacity="0.2" fill="#F25CCC" transform="matrix(1, 0, 0, 1, 0, 0)"/><path d="M 1346.658966 1253.416016 A 381.925995 381.925995 0 0 1 964.732971 1635.34201 A 381.925995 381.925995 0 0 1 582.806976 1253.416016 A 381.925995 381.925995 0 0 1 964.732971 871.490021 A 381.925995 381.925995 0 0 1 1346.658966 1253.416016 Z" opacity="0.2" fill="#F25CCC" transform="matrix(1, 0, 0, 1, 0, 0)"/><radialGradient id="SVGID_7_" cx="834.5567" cy="1139.512" r="524.2878" gradientUnits="userSpaceOnUse">
			<stop offset="0.0013" style="stop-color:#C73CA0"/>
			<stop offset="0.2644" style="stop-color:#C43B9E"/>
			<stop offset="0.4299" style="stop-color:#BC3998"/>
			<stop offset="0.5684" style="stop-color:#AD358D"/>
			<stop offset="0.6921" style="stop-color:#982F7E"/>
			<stop offset="0.8059" style="stop-color:#7E286A"/>
			<stop offset="0.9108" style="stop-color:#5D1F53"/>
			<stop offset="0.9954" style="stop-color:#3D163B"/>
		</radialGradient><path d="M 1323.046967 1253.416016 A 358.313995 358.313995 0 0 1 964.732971 1611.730011 A 358.313995 358.313995 0 0 1 606.418976 1253.416016 A 358.313995 358.313995 0 0 1 964.732971 895.10202 A 358.313995 358.313995 0 0 1 1323.046967 1253.416016 Z" fill="url(#SVGID_7_)" transform="matrix(1, 0, 0, 1, 0, 0)"/><radialGradient id="SVGID_8_" cx="758.29" cy="1070.6107" r="362.5473" gradientUnits="userSpaceOnUse">
			<stop offset="0.0061" style="stop-color:#B43C8F"/>
			<stop offset="0.2813" style="stop-color:#B13B8D"/>
			<stop offset="0.4543" style="stop-color:#A93887"/>
			<stop offset="0.5991" style="stop-color:#9A347D"/>
			<stop offset="0.7284" style="stop-color:#852D6E"/>
			<stop offset="0.8474" style="stop-color:#6B255B"/>
			<stop offset="0.9572" style="stop-color:#4A1A44"/>
			<stop offset="0.9954" style="stop-color:#3D163B"/>
		</radialGradient><path fill="url(#SVGID_8_)" d="M883.186,904.426c-2.437,1.968-4.865,3.959-7.272,5.993&#10;&#9;&#9;&#9;c-77.62,64.081-120.942,146.214-180.511,226.541c-24.069,31.876-51.891,61.405-86.842,77.102&#10;&#9;&#9;&#9;c-1.412,12.925-2.143,26.054-2.143,39.355c0,56.032,12.866,109.058,35.797,156.291c45.07-36.356,75.327-89.951,106.439-140.974&#10;&#9;&#9;&#9;c32.492-53.251,59.569-104.696,88.45-158.85c50.886-95.873,141.548-173.052,246.374-194.635&#10;&#9;&#9;&#9;c-37.162-13.049-77.124-20.147-118.745-20.147C936.681,895.102,909.382,898.329,883.186,904.426z" transform="matrix(1, 0, 0, 1, 0, 0)"/><radialGradient id="SVGID_9_" cx="978.3394" cy="1306.2327" r="355.4305" gradientUnits="userSpaceOnUse">
			<stop offset="0.0061" style="stop-color:#B43C8F"/>
			<stop offset="0.2813" style="stop-color:#B13B8D"/>
			<stop offset="0.4543" style="stop-color:#A93887"/>
			<stop offset="0.5991" style="stop-color:#9A347D"/>
			<stop offset="0.7284" style="stop-color:#852D6E"/>
			<stop offset="0.8474" style="stop-color:#6B255B"/>
			<stop offset="0.9572" style="stop-color:#4A1A44"/>
			<stop offset="0.9954" style="stop-color:#3D163B"/>
		</radialGradient><path fill="url(#SVGID_9_)" d="M1307.308,1148.114c-25.348,6.656-49.921,17.013-73.079,33.974&#10;&#9;&#9;&#9;c-37.907,27.979-68.594,56.861-90.256,97.476c-18.051,34.297-27.077,70.399-47.835,104.697c-2.708,5.415-3.61,12.636-6.318,18.051&#10;&#9;&#9;&#9;c-41.517,73.107-110.112,117.332-184.121,149.824c-27.778,13.021-57.23,20.199-88.347,27.956&#10;&#9;&#9;&#9;c44.953,20.317,94.842,31.64,147.381,31.64c9.448,0,18.81-0.368,28.074-1.086c34.128-17.323,66.38-38.308,95.209-65.73&#10;&#9;&#9;&#9;c64.081-62.276,93.866-142.604,149.824-213.906c21.029-27.338,49.681-63.922,85.107-69.18c0.064-2.797,0.101-5.601,0.101-8.413&#10;&#9;&#9;&#9;C1323.047,1216.767,1317.534,1181.409,1307.308,1148.114z" transform="matrix(1, 0, 0, 1, 0, 0)"/><radialGradient id="SVGID_10_" cx="856.3405" cy="1171.2933" r="422.9132" gradientUnits="userSpaceOnUse">
			<stop offset="0.0061" style="stop-color:#B43C8F"/>
			<stop offset="0.2813" style="stop-color:#B13B8D"/>
			<stop offset="0.4543" style="stop-color:#A93887"/>
			<stop offset="0.5991" style="stop-color:#9A347D"/>
			<stop offset="0.7284" style="stop-color:#852D6E"/>
			<stop offset="0.8474" style="stop-color:#6B255B"/>
			<stop offset="0.9572" style="stop-color:#4A1A44"/>
			<stop offset="0.9954" style="stop-color:#3D163B"/>
		</radialGradient><path fill="url(#SVGID_10_)" d="M1191.598,976.071c-57.085,18.826-114.366,36.921-169.47,63.413&#10;&#9;&#9;&#9;c-59.569,28.882-107.404,76.717-132.676,138.091c-18.051,45.128-36.102,88.45-62.276,130.87&#10;&#9;&#9;&#9;c-38.519,63.907-83.833,127.812-156.529,149.714c24.595,35.262,55.374,65.887,90.758,90.319&#10;&#9;&#9;&#9;c86.472-40.589,166.378-90.703,225.524-172.341c18.954-27.077,33.395-52.348,38.81-83.938&#10;&#9;&#9;&#9;c5.415-28.882,10.831-55.056,18.954-82.133c6.318-19.856,15.343-38.81,27.979-56.861c34.297-49.641,75.815-88.45,131.773-106.502&#10;&#9;&#9;&#9;c15.258-4.904,32.817-6.841,49.503-4.83C1236.011,1017.396,1215.047,995.274,1191.598,976.071z" transform="matrix(1, 0, 0, 1, 0, 0)"/><path fill="#9283F1" d="M1640.752,1070.517c-13.851-42.066-155.815-35.737-362.076,10.05c4.704,8.788,9.12,17.789,13.278,26.63&#10;&#9;&#9;&#9;&#9;c97.084-11.523,162.342-5.973,171.458,21.714c18.641,56.613-220.43,186.203-467.361,267.511&#10;&#9;&#9;&#9;&#9;c-246.931,81.309-495.864,112.407-514.505,55.794c-9.574-29.075,45.02-76.327,132.327-125.753&#10;&#9;&#9;&#9;&#9;c-2.003-9.379-3.285-18.759-4.699-28.581c-206.458,89.437-339.726,175.71-325.329,219.432&#10;&#9;&#9;&#9;&#9;c20.86,63.353,341.525,14.691,716.225-108.689S1661.612,1133.869,1640.752,1070.517z" transform="matrix(1, 0, 0, 1, 0, 0)"/><path fill="#C2A1F1" d="M1640.752,1063.081c-13.851-42.066-159.553-34.91-365.815,10.877c4.704,8.788,9.609,17.342,13.766,26.184&#10;&#9;&#9;&#9;&#9;c97.084-11.523,165.592-6.354,174.709,21.333c18.641,56.613-220.43,186.203-467.361,267.511&#10;&#9;&#9;&#9;&#9;c-246.931,81.309-495.864,112.407-514.505,55.794c-9.574-29.075,43.649-75.859,130.955-125.286&#10;&#9;&#9;&#9;&#9;c-1.559-9.481-3.096-18.514-4.137-28.522c-206.458,89.437-338.917,175.184-324.52,218.907&#10;&#9;&#9;&#9;&#9;c20.86,63.353,341.525,14.691,716.225-108.689S1661.612,1126.433,1640.752,1063.081z" transform="matrix(1, 0, 0, 1, 0, 0)"/><linearGradient id="SVGID_11_" gradientUnits="userSpaceOnUse" x1="2363.4697" y1="1451.0498" x2="2363.4697" y2="2653.3157" gradientTransform="matrix(0.9848 0.1739 -0.1739 0.9848 312.8891 -250.3391)">
			<stop offset="0" style="stop-color:#FEEAC2"/>
			<stop offset="0.5068" style="stop-color:#FE62A6"/>
			<stop offset="1" style="stop-color:#FEEAC2"/>
		</linearGradient><linearGradient id="SVGID_12_" gradientUnits="userSpaceOnUse" x1="881.8156" y1="1450.2448" x2="881.8156" y2="2653.1919" gradientTransform="matrix(0.9848 0.1739 -0.1739 0.9848 312.8891 -250.3391)">
			<stop offset="0" style="stop-color:#FEEAC2"/>
			<stop offset="0.5068" style="stop-color:#FE62A6"/>
			<stop offset="1" style="stop-color:#FEEAC2"/>
		</linearGradient><radialGradient id="SVGID_13_" cx="2229.1316" cy="515.4207" r="264.5689" gradientUnits="userSpaceOnUse">
			<stop offset="0.0036" style="stop-color:#E66119"/>
			<stop offset="0.2773" style="stop-color:#E35F1A"/>
			<stop offset="0.4494" style="stop-color:#DB5A1C"/>
			<stop offset="0.5934" style="stop-color:#CC5120"/>
			<stop offset="0.722" style="stop-color:#B74526"/>
			<stop offset="0.8403" style="stop-color:#9D342D"/>
			<stop offset="0.9495" style="stop-color:#7C2036"/>
			<stop offset="0.9985" style="stop-color:#6B163B"/>
		</radialGradient><path fill="url(#SVGID_13_)" d="M2178.317,660.712c-50.152-76.17-29.683-178.164,45.718-227.81s177.183-28.145,227.335,48.025&#10;&#9;&#9;&#9;c50.152,76.17,29.683,178.164-45.718,227.81S2228.469,736.881,2178.317,660.712z" transform="matrix(1, 0, 0, 1, 0, 0)"/><linearGradient id="SVGID_14_" gradientUnits="userSpaceOnUse" x1="2169.1626" y1="692.9352" x2="2290.3652" y2="606.3619">
				<stop offset="7.630814e-04" style="stop-color:#C73C19"/>
				<stop offset="0.9985" style="stop-color:#6B163B"/>
			</linearGradient><path fill="url(#SVGID_14_)" d="M2324.156,651.534L2324.156,651.534c-4.886-7.421-14.803-9.516-22.149-4.679l-12.514,8.24&#10;&#9;&#9;&#9;&#9;c-6.444,4.243-15.143,2.405-19.429-4.104l0,0c-4.286-6.51-2.537-15.227,3.907-19.47l35.472-23.355&#10;&#9;&#9;&#9;&#9;c5.607-3.692,7.13-11.277,3.4-16.941v0c-3.73-5.664-11.299-7.263-16.906-3.571l-78.644,51.781&#10;&#9;&#9;&#9;&#9;c-6.277,4.133-14.75,2.343-18.925-3.998l0,0c-4.175-6.341-2.471-14.831,3.806-18.964l25.917-17.065&#10;&#9;&#9;&#9;&#9;c6.277-4.133,7.981-12.623,3.806-18.964l0,0c-4.175-6.341-12.648-8.131-18.925-3.998l-56.145,36.968&#10;&#9;&#9;&#9;&#9;c4.52,16.368,11.636,32.334,21.491,47.301c17.935,27.24,42.476,47.484,70.049,59.987l71.335-46.969&#10;&#9;&#9;&#9;&#9;C2327.048,668.892,2329.042,658.955,2324.156,651.534z" transform="matrix(1, 0, 0, 1, 0, 0)"/><linearGradient id="SVGID_15_" gradientUnits="userSpaceOnUse" x1="2254.8604" y1="494.9883" x2="2472.8599" y2="494.9883">
				<stop offset="7.630814e-04" style="stop-color:#C73C19"/>
				<stop offset="0.9985" style="stop-color:#6B163B"/>
			</linearGradient><path fill="url(#SVGID_15_)" d="M2257.536,521.706L2257.536,521.706c4.886,7.421,14.803,9.516,22.149,4.679l77.432-50.983&#10;&#9;&#9;&#9;&#9;c5.607-3.692,13.177-2.093,16.906,3.571l2.016,3.062c3.73,5.664,2.208,13.249-3.4,16.941l-41.018,27.007&#10;&#9;&#9;&#9;&#9;c-5.607,3.692-7.129,11.277-3.4,16.941v0c3.73,5.664,11.299,7.263,16.906,3.571l81.814-53.868&#10;&#9;&#9;&#9;&#9;c5.607-3.692,13.177-2.093,16.906,3.571l1.613,2.449c3.73,5.664,2.208,13.249-3.4,16.941l-42.919,28.259&#10;&#9;&#9;&#9;&#9;c-6.277,4.133-7.981,12.623-3.806,18.964l0,0c4.175,6.341,12.648,8.131,18.925,3.998l58.599-38.583&#10;&#9;&#9;&#9;&#9;c-4.52-16.368-11.636-32.334-21.49-47.301c-17.936-27.24-42.476-47.484-70.05-59.987l-119.33,78.57&#10;&#9;&#9;&#9;&#9;C2254.644,504.347,2252.649,514.285,2257.536,521.706z" transform="matrix(1, 0, 0, 1, 0, 0)"/><path d="M 1503.432053 478.789001 A 91.574997 92.508003 0 0 1 1411.857056 571.297005 A 91.574997 92.508003 0 0 1 1320.282059 478.789001 A 91.574997 92.508003 0 0 1 1411.857056 386.280998 A 91.574997 92.508003 0 0 1 1503.432053 478.789001 Z" transform="matrix(0.8352000117301941, -0.5498999953269958, 0.5498999953269958, 0.8352000117301941, -30.643199920654297, 855.314697265625)" opacity="0.3" fill="#4FABA6"/><radialGradient id="SVGID_16_" cx="1370.838" cy="452.276" r="126.6167" gradientUnits="userSpaceOnUse">
				<stop offset="0.0054" style="stop-color:#61C9A6"/>
				<stop offset="0.2949" style="stop-color:#60C6A6"/>
				<stop offset="0.4768" style="stop-color:#5CBEA7"/>
				<stop offset="0.6291" style="stop-color:#56AFA8"/>
				<stop offset="0.7651" style="stop-color:#4D9AAA"/>
				<stop offset="0.8889" style="stop-color:#4180AD"/>
				<stop offset="1" style="stop-color:#3461B0"/>
			</radialGradient><path fill="url(#SVGID_16_)" d="M1346.519,521.809c-24.002-36.453-14.206-85.265,21.88-109.025s84.796-13.469,108.797,22.984&#10;&#9;&#9;&#9;&#9;c24.002,36.453,14.206,85.265-21.88,109.025C1419.231,568.552,1370.521,558.262,1346.519,521.809z" transform="matrix(1, 0, 0, 1, 0, 0)"/><radialGradient id="SVGID_17_" cx="1376.6798" cy="447.706" r="95.2638" gradientUnits="userSpaceOnUse">
				<stop offset="0.0061" style="stop-color:#4FB7A6"/>
				<stop offset="0.3144" style="stop-color:#4EB4A6"/>
				<stop offset="0.5082" style="stop-color:#4BACA7"/>
				<stop offset="0.6704" style="stop-color:#479DA9"/>
				<stop offset="0.8151" style="stop-color:#4088AB"/>
				<stop offset="0.947" style="stop-color:#386EAE"/>
				<stop offset="1" style="stop-color:#3461B0"/>
			</radialGradient><path fill="url(#SVGID_17_)" d="M1393.675,461.084c0-24.767,27.359-42.33,54.952-51.567c-10.289-5.562-21.656-8.749-33.215-9.393&#10;&#9;&#9;&#9;&#9;c-24.584,12.223-47.783,31.518-59.134,56.285c-7.012,15.193,15.193,19.867,26.88,26.88c4.675,3.506,2.337,8.181,0,11.687&#10;&#9;&#9;&#9;&#9;c-7.064,14.129-17.688,25.588-29.031,36.62c4.138,4.556,8.715,8.552,13.63,11.947c20.37-16.722,39.264-35.003,51.63-59.085&#10;&#9;&#9;&#9;&#9;C1427.567,469.265,1393.675,466.928,1393.675,461.084z" transform="matrix(1, 0, 0, 1, 0, 0)"/><radialGradient id="SVGID_18_" cx="1412.4097" cy="467.3885" r="90.7979" gradientUnits="userSpaceOnUse">
				<stop offset="0.0071" style="stop-color:#4FA2A6"/>
				<stop offset="0.3454" style="stop-color:#4E9FA6"/>
				<stop offset="0.558" style="stop-color:#4A97A8"/>
				<stop offset="0.7359" style="stop-color:#4488AA"/>
				<stop offset="0.8937" style="stop-color:#3C74AD"/>
				<stop offset="1" style="stop-color:#3461B0"/>
			</radialGradient><path fill="url(#SVGID_18_)" d="M1482.519,445.214c-1.545-3.219-3.304-6.379-5.323-9.445c-3.203-4.865-6.869-9.234-10.864-13.148&#10;&#9;&#9;&#9;&#9;c-13.802,6.474-25.741,16.591-34.091,29.115c-7.012,10.518,17.53,12.855,16.361,21.036&#10;&#9;&#9;&#9;&#9;c-5.326,33.732-32.227,58.024-58.171,81.583c17.721,5.213,37.101,4.168,54.565-3.861c11.486-16.962,21.787-34.855,31.655-53.18&#10;&#9;&#9;&#9;&#9;c5.843-10.518-1.169-21.036-4.675-30.386C1470.222,459.03,1475.715,451.132,1482.519,445.214z" transform="matrix(1, 0, 0, 1, 0, 0)"/>

<path d="M 2506.191025 570.81897 A 191.348007 193.298004 0 0 1 2314.843018 764.116974 A 191.348007 193.298004 0 0 1 2123.49501 570.81897 A 191.348007 193.298004 0 0 1 2314.843018 377.520966 A 191.348007 193.298004 0 0 1 2506.191025 570.81897 Z" transform="matrix(0.8352000117301941, -0.5498999953269958, 0.5498999953269958, 0.8352000117301941, 67.54650115966797, 1367.0551757812498)" opacity="0.3" fill="#CA554E"/><path style="fill: rgb(242, 92, 204); fill-opacity: 1; stroke: rgb(0, 0, 0); stroke-opacity: 1; stroke-width: 0; paint-order: fill;" d="M 1445.2528076171875 1249.90185546875"/></svg>