<?xml version="1.0" encoding="utf-8"?>
<svg id="master-artboard" viewBox="0 0 2000 2000" version="1.1" xmlns="http://www.w3.org/2000/svg" x="0px" y="0px" width="2000px" height="2000px" style="enable-background:new 0 0 2000 2000;">

<linearGradient id="SVGID_13_" gradientUnits="userSpaceOnUse" x1="392.1099" y1="896.8929" x2="392.1099" y2="462.6732">
		<stop offset="0" style="stop-color:#FFFFFF"/>
		<stop offset="1" style="stop-color:#E891A9"/>
	</linearGradient><linearGradient id="SVGID_14_" gradientUnits="userSpaceOnUse" x1="432.5" y1="1611.9102" x2="432.5" y2="1763.5536">
			<stop offset="0" style="stop-color:#313163"/>
			<stop offset="1" style="stop-color:#23224C"/>
		</linearGradient><path class="st13" d="M629,1751.5c-56-15.5-122.4-10.8-151.9-55.5c-29.5-44.7-90.1-29-152.1-24.9s-101.3-71-138.7-83.5&#10;&#9;&#9;&#9;C148.8,1575,0,1720.5,0,1720.5V2000h865c0,0-36-149-70-207S685,1767,629,1751.5z" style="fill: url('#SVGID_14_');" transform="matrix(1, 0, 0, 1, 5.684341886080802e-14, 0)"/><linearGradient id="SVGID_15_" gradientUnits="userSpaceOnUse" x1="1492.0043" y1="1399.8711" x2="1492.0043" y2="1671.9495">
			<stop offset="0" style="stop-color:#313163"/>
			<stop offset="1" style="stop-color:#23224C"/>
		</linearGradient><path class="st14" d="M1898.1,1477.8c-9.2,25.4-67.9,73.5-104.6,78.1c-36.7,4.5-123.8-35.7-150.9,0s-64.4,84.1-69.3,111&#10;&#9;&#9;&#9;c-4.9,26.9-69.8,56-110.1,44.5c-40.4-11.5-93.6-35.1-132.2-13.2c-38.5,21.9-126.7-35.9-181.7-20.8&#10;&#9;&#9;&#9;c-55.1,15.2-165.2,138.1-165.2,138.1V2000h1016v-538.7C2000,1461.3,1907.3,1452.4,1898.1,1477.8z" style="fill: url('#SVGID_15_');" transform="matrix(1, 0, 0, 1, 5.684341886080802e-14, 0)"/><path class="st15" d="M0,1615.4c0,0,51.7,102,51.7,30s112.1-192,112.1-192C38.8,1504.4,0,1615.4,0,1615.4z" style="fill: rgb(41, 41, 86);" transform="matrix(1, 0, 0, 1, 8.526512829121202e-14, 0)"/><path class="st15" d="M95,1389.5c-138,182-10,296-10,296h28C39,1617.5,95,1389.5,95,1389.5z" style="fill: rgb(41, 41, 86);" transform="matrix(1, 0, 0, 1, 8.526512829121202e-14, 0)"/><path class="st15" d="M86.1,1658.6c0,0-19.6,26.9,25.5,12.6s51-183.5,51-183.5C75.6,1544.6,86.1,1658.6,86.1,1658.6z" style="fill: rgb(41, 41, 86);" transform="matrix(1, 0, 0, 1, 8.526512829121202e-14, 0)"/><path class="st15" d="M122.2,1654.1l18.6,5c-16.5-40,64.5-143,64.5-143C127.3,1549.1,122.2,1654.1,122.2,1654.1z" style="fill: rgb(41, 41, 86);" transform="matrix(1, 0, 0, 1, 8.526512829121202e-14, 0)"/><path class="st15" d="M137,1644c0,0-25.4,27.1,18,15.1s29-101.1,29-101.1C179.2,1591.2,137,1644,137,1644z" style="fill: rgb(41, 41, 86);" transform="matrix(1, 0, 0, 1, 8.526512829121202e-14, 0)"/><path class="st15" d="M158,1669.3l31.3,22.7c44.3-83,27.7-221,27.7-221C226,1626,158,1669.3,158,1669.3z" style="fill: rgb(41, 41, 86);" transform="matrix(1, 0, 0, 1, 8.526512829121202e-14, 0)"/><path class="st15" d="M205.3,1692c24.3-9,52.7-134,52.7-134c-58,61-83,134-83,134S181,1701,205.3,1692z" style="fill: rgb(41, 41, 86);" transform="matrix(1, 0, 0, 1, 8.526512829121202e-14, 0)"/><path class="st15" d="M226,1716l22,33c-20-57,39-150,39-150C228,1630,226,1716,226,1716z" style="fill: rgb(41, 41, 86);" transform="matrix(1, 0, 0, 1, 8.526512829121202e-14, 0)"/><path class="st15" d="M1636.4,530c-59.8-16.7-105.7-12.1-140.5,2.1l35-43.7c-8,0-17.5-5.3-17.5-5.3c21.7,0,63.1-30.7,63.1-30.7&#10;&#9;&#9;&#9;&#9;c-17-10.4-20.1-20.1-20.1-20.1c17,14.8,126.2,26.5,126.2,26.5c-9.5-1.1-22.3-26.5-22.3-26.5s27.6,17,49.8,26.5&#10;&#9;&#9;&#9;&#9;c22.3,9.5,123,7.4,123,7.4l-236.7-112.7c-30.4-14.5-65.3-17.5-97.4-7.3c-78.5,24.9-99.1,111.1-101.5,184.5&#10;&#9;&#9;&#9;&#9;c-14.5-60.7-43.8-138.8-101.8-179.5c-103.4-72.6-264.8-10.9-264.8-10.9s53.6,38,120.6,19.7c0,0-17.5,13.6-34,16.3&#10;&#9;&#9;&#9;&#9;c-1.3,0.2-2.6,0.4-3.9,0.4c-17.5,0.8,60.4,58,90.6,61.2c30.2,3.2,54.1-3.2,54.1-3.2s-20.1,11.9-37.1,13.5&#10;&#9;&#9;&#9;&#9;c0,0,55.4,69.2,99.1,65.2c0,0-11.1,15-17.5,14.6c0,0,3.7,17,15.1,36c-3.1-1.3-6.2-2.5-9.3-3.7c-95.1-36.4-202.7-0.9-259,83.9&#10;&#9;&#9;&#9;&#9;L984,743c0,0,67.8-24.5,73.9-54.4c0,0,3.3,17.4-1.8,21.4c0,0,78.5-0.4,87.7-30.6c9.2-30.2,16.7-62.3,16.7-62.3s11,18.1,2,43.2&#10;&#9;&#9;&#9;&#9;c0,0,67.5,1,94.4-38.4c0,0,7,12.9-9.2,23.7c0,0,12.8,2.9,32.1,4.6c-11.4,10.3-22.5,23.6-33,40.5&#10;&#9;&#9;&#9;&#9;c-73.3,117.9-95.3,210.4-95.3,210.4s72.3-71.7,76.2-102.7c0,0,6.4,9.9,2.3,16.7c0,0,38.2-28.1,51.5-66.9c0,0,5.1,11.8,0.1,17.6&#10;&#9;&#9;&#9;&#9;c0,0,73.5-52.9,76.6-79.8c0,0,0.6,7.1,0,9.4l40-38.5l-0.9,2.5c0,0,411.3,554.3,324.7,1226.6l139.5-36.8&#10;&#9;&#9;&#9;&#9;c0,0,35.3-568.4-415.9-1210.1l79.6,2c-2.8-1.6-9-9.7-9-9.7c28.9,25,156,10,156,10c-10.7-1.2-16.7-18.4-16.7-18.4&#10;&#9;&#9;&#9;&#9;c50.7,27.7,117.4,20.5,117.4,20.5c-10.7-3.1-13.5-19.6-13.5-19.6c33.6,28.6,177.3,34.2,177.3,34.2S1825.3,582.9,1636.4,530z" style="fill: rgb(41, 41, 86);" transform="matrix(1, 0, 0, 1, 8.526512829121202e-14, 0)"/><path d="M 1442.400024 678.099976 A 36.5 36.5 0 0 1 1405.900024 714.599976 A 36.5 36.5 0 0 1 1369.400024 678.099976 A 36.5 36.5 0 0 1 1405.900024 641.599976 A 36.5 36.5 0 0 1 1442.400024 678.099976 Z" transform="matrix(0.8507000207901002, -0.5256999731063843, 0.5256999731063843, 0.8507000207901002, -146.55029733628902, 840.4092047336453)" class="st15" style="fill: rgb(41, 41, 86);"/><path d="M 1478.900024 630.799988 A 36.5 36.5 0 0 1 1442.400024 667.299988 A 36.5 36.5 0 0 1 1405.900024 630.799988 A 36.5 36.5 0 0 1 1442.400024 594.299988 A 36.5 36.5 0 0 1 1478.900024 630.799988 Z" transform="matrix(0.7881999611854553, -0.6154000163078308, 0.6154000163078308, 0.7881999611854553, -82.71100100013602, 1021.2870177414117)" class="st15" style="fill: rgb(41, 41, 86);"/><g transform="matrix(1, 0, 0, 1, 8.526512829121202e-14, 0)">
				<path class="st15" d="M1321.1,1113.3l-1.4-0.9l35.1,5.1c-1.2-0.9-3.5-4.8-3.5-4.8c11.6,12.8,69.5,12.8,69.5,12.8&#10;&#9;&#9;&#9;&#9;&#9;c-4.8-1.1-6.5-9.1-6.5-9.1c21.3,15.2,51.6,15.5,51.6,15.5c-4.6-2-5-9.5-5-9.5c13.6,14.6,77.8,24.8,77.8,24.8&#10;&#9;&#9;&#9;&#9;&#9;s-45.9-39.7-127.9-73.6c-11.8-4.9-22.5-7.6-32.2-8.7c9.4-8.1,14.9-14.4,14.9-14.4c-12.4,0.4-13.6-8.9-13.6-8.9&#10;&#9;&#9;&#9;&#9;&#9;c28.6,10.4,63.3-15.3,63.3-15.3c-14-9.6-15.1-23.1-15.1-23.1s15.9,13.8,31.9,26.1c16,12.3,56.9-16.8,56.9-16.8&#10;&#9;&#9;&#9;&#9;&#9;c-4.2-0.2-8.9-10.4-8.9-10.4c14.3,13.2,58.6,0.7,58.6,0.7l-70.9-26.8c-60.8-23-129.9-1.3-165.6,53.1c-1.2,1.8-2.3,3.6-3.4,5.4&#10;&#9;&#9;&#9;&#9;&#9;c-1.1-14.1-5.6-24.3-5.6-24.3c-3.1,2.6-14.5-1.1-14.5-1.1c24.2-14.2,27.1-70.8,27.1-70.8c-9.4,5.5-24.3,6.8-24.3,6.8&#10;&#9;&#9;&#9;&#9;&#9;s14.7-5.6,29.2-18.5c14.5-12.9,33.6-71.7,24.2-65.6c-0.7,0.5-1.4,0.9-2.2,1.2c-9.5,4.8-23.7,4.2-23.7,4.2&#10;&#9;&#9;&#9;&#9;&#9;c41.6-15.5,55.2-55.2,55.2-55.2s-106.7,28.2-133.3,104.4c-14.9,42.8-0.9,94.2,14.2,131.1c-28.6-37.1-71.4-74.2-121.4-57.8&#10;&#9;&#9;&#9;&#9;&#9;c-20.5,6.7-37.4,21.3-47.8,40.1l-80.7,146.7c0,0,53-36.5,61-49.7c8-13.3,16-32.3,16-32.3s2.9,17.9-1.7,22.1&#10;&#9;&#9;&#9;&#9;&#9;c0,0,52.3-46.8,55.6-60.8c0,0,2,6.3-2.9,18c0,0,32.9,0.5,44.2-7.6c0,0-3,6.3-7.1,9.3l34.4,9.6c-23.4,5.6-48.9,20.3-73.7,51.3&#10;&#9;&#9;&#9;&#9;&#9;c-78.3,97.9-107.9,178.4-107.9,178.4s72.4-56.5,79.2-83.9c0,0,4.7,9.6,0.3,15.2c0,0,37.3-21.1,53.2-54.4c0,0,3.3,11.1-1.8,15.8&#10;&#9;&#9;&#9;&#9;&#9;c0,0,71.5-39.6,77.2-63.3c0,0-0.2,6.5-1,8.4l40.6-30.7c5.2,501.1,235.5,782.7,235.5,782.7l86.1-32.9&#10;&#9;&#9;&#9;&#9;&#9;C1314.5,1554.1,1321.1,1113.3,1321.1,1113.3z" style="fill: rgb(41, 41, 86);"/>
				
					<path d="M 1309.9 1127.199951 A 26.4 26.4 0 0 1 1283.5 1153.599951 A 26.4 26.4 0 0 1 1257.1 1127.199951 A 26.4 26.4 0 0 1 1283.5 1100.799952 A 26.4 26.4 0 0 1 1309.9 1127.199951 Z" transform="matrix(0.9732 -0.2298 0.2298 0.9732 -224.6537 325.041)" class="st15" style="fill: rgb(41, 41, 86);"/>
				<path d="M 1356.9 1127.199951 A 26.4 26.4 0 0 1 1330.5 1153.599951 A 26.4 26.4 0 0 1 1304.1 1127.199951 A 26.4 26.4 0 0 1 1330.5 1100.799952 A 26.4 26.4 0 0 1 1356.9 1127.199951 Z" class="st15" style="fill: rgb(41, 41, 86);"/>
				<path class="st15" d="M1194.8,1250.8c-6.6,18.1,4.2,129.8,4.2,129.8s25.4-82.1,24.8-108.1c0,0,6,4.2,6,12.7&#10;&#9;&#9;&#9;&#9;&#9;c0,0,16.3-22.3,24.2-68.8c0,0-1.2,10.9-1.8,21.1c0,0,59.2-71.5,35.6-143.1C1287.8,1094.4,1201.4,1232.7,1194.8,1250.8z" style="fill: rgb(41, 41, 86);"/>
			</g><path class="st15" d="M1304.2,1085.1c3.1,75.4,83.6,121.5,83.6,121.5c-4.2-9.4-9.1-19.2-9.1-19.2c23.7,40.8,46.8,56,46.8,56&#10;&#9;&#9;&#9;&#9;c-3-7.9,1.2-14,1.2-14c8.5,24.5,61.1,92.6,61.1,92.6s-29-108.4-41.6-123.1C1433.5,1184.3,1304.2,1085.1,1304.2,1085.1z" style="fill: rgb(41, 41, 86);" transform="matrix(1, 0, 0, 1, 8.526512829121202e-14, 0)"/><path class="st15" d="M852.1,1798.7c0,0,24.4,88.3,56.7-9.7c32.2-98-50.7-226.1-50.7-226.1C914,1682.4,852.1,1798.7,852.1,1798.7&#10;&#9;&#9;&#9;&#9;z" style="fill: rgb(41, 41, 86);" transform="matrix(1, 0, 0, 1, 8.526512829121202e-14, 0)"/><path class="st15" d="M938.2,1795.4c-33.9-21.9-20.4-167-20.4-167c-23.5,69.7-1.4,169.6-1.4,169.6S972.1,1817.3,938.2,1795.4z" style="fill: rgb(41, 41, 86);" transform="matrix(1, 0, 0, 1, 8.526512829121202e-14, 0)"/><path class="st15" d="M954.4,1527.2c-41.8,170.7,0.5,272.1,0.5,272.1s75.4,50.2,47.8,17.3&#10;&#9;&#9;&#9;&#9;C975.1,1783.7,954.4,1527.2,954.4,1527.2z" style="fill: rgb(41, 41, 86);" transform="matrix(1, 0, 0, 1, 8.526512829121202e-14, 0)"/><path class="st15" d="M942.6,1830.6c0,0,51.5,45.1,88.1-7.9c36.6-53-31.4-220.3-31.4-220.3C1034,1687,942.6,1830.6,942.6,1830.6z&#10;&#9;&#9;&#9;&#9;" style="fill: rgb(41, 41, 86);" transform="matrix(1, 0, 0, 1, 8.526512829121202e-14, 0)"/><path class="st15" d="M1041.3,1522.2c-33.5,171.4,57.4,317,57.4,317l28.7-42.5C1061.9,1763.8,1041.3,1522.2,1041.3,1522.2z" style="fill: rgb(41, 41, 86);" transform="matrix(1, 0, 0, 1, 8.526512829121202e-14, 0)"/><path class="st15" d="M1512.4,1649.6c74.1,84.5,51,194.3,51,194.3s40.9,66.5,44.1-21.4S1512.4,1649.6,1512.4,1649.6z" style="fill: rgb(41, 41, 86);" transform="matrix(1, 0, 0, 1, 8.526512829121202e-14, 0)"/><path class="st15" d="M1633.1,1820.9c-32.9-9.9-56.3-131.9-56.3-131.9c-2.7,62.6,39.1,139.2,39.1,139.2&#10;&#9;&#9;&#9;&#9;S1666.1,1830.7,1633.1,1820.9z" style="fill: rgb(41, 41, 86);" transform="matrix(1, 0, 0, 1, 8.526512829121202e-14, 0)"/><path class="st15" d="M1690.9,1822.9c-30.4-20.4-108.2-225.3-108.2-225.3c6.3,149.6,64.9,222.5,64.9,222.5&#10;&#9;&#9;&#9;&#9;S1721.3,1843.3,1690.9,1822.9z" style="fill: rgb(41, 41, 86);" transform="matrix(1, 0, 0, 1, 8.526512829121202e-14, 0)"/><path class="st15" d="M1645.1,1848.7c0,0,52.8,24.7,70.2-27.4s-77.9-172.8-77.9-172.8C1685.8,1709.5,1645.1,1848.7,1645.1,1848.7&#10;&#9;&#9;&#9;&#9;z" style="fill: rgb(41, 41, 86);" transform="matrix(1, 0, 0, 1, 8.526512829121202e-14, 0)"/><path class="st15" d="M1652.7,1572.9c13.3,148.2,122.2,245.8,122.2,245.8l13.4-41.6C1726.9,1765.7,1652.7,1572.9,1652.7,1572.9z" style="fill: rgb(41, 41, 86);" transform="matrix(1, 0, 0, 1, 8.526512829121202e-14, 0)"/><linearGradient id="SVGID_16_" gradientUnits="userSpaceOnUse" x1="1000" y1="1590.3306" x2="1000" y2="1975.0117">
			<stop offset="0" style="stop-color:#313163"/>
			<stop offset="1" style="stop-color:#23224C"/>
		</linearGradient><path class="st16" d="M1813.3,1581.9c-33,39-24,72-57,111c-33,39-138,69-156,105c-18,36-105,42-135,42s-99-33-165-42&#10;&#9;&#9;&#9;c-66-9-99-60-156-66c-57-6-102.4-9-144.2-3c-41.8,6-116.8-33-206.8,24c-90,57-210,72-234,87c-24,15-87,12-96,0c-9-12-21-39-84-66&#10;&#9;&#9;&#9;s-102-39-174-99s-126-60-159-60s-46.1,0-46.1,0V2000h2000v-453.6C2000,1546.4,1846.3,1542.9,1813.3,1581.9z" style="fill: url('#SVGID_16_');" transform="matrix(1, 0, 0, 1, 5.684341886080802e-14, 0)"/><path d="M 869.3 799 A 4.3 4.3 0 0 1 865 803.3 A 4.3 4.3 0 0 1 860.7 799 A 4.3 4.3 0 0 1 865 794.7 A 4.3 4.3 0 0 1 869.3 799 Z" class="st21" style="fill: rgb(255, 210, 255);" transform="matrix(1, 0, 0, 1, 5.684341886080802e-14, 0)"/><path d="M 1638.100049 745.599976 A 4.3 4.3 0 0 1 1633.800049 749.899976 A 4.3 4.3 0 0 1 1629.500049 745.599976 A 4.3 4.3 0 0 1 1633.800049 741.299975 A 4.3 4.3 0 0 1 1638.100049 745.599976 Z" class="st23" style="fill: rgb(255, 182, 255);" transform="matrix(1, 0, 0, 1, 5.684341886080802e-14, 0)"/>
</svg>