<?xml version="1.0" encoding="utf-8"?>
<svg id="master-artboard" viewBox="0 0 2158.836669921875 863.9146728515625" version="1.1" xmlns="http://www.w3.org/2000/svg" x="0px" y="0px" width="2158.836669921875px" height="863.9146728515625px" style="enable-background:new 0 0 2000 2000;"><rect id="ee-background" x="0" y="0" width="2158.836669921875" height="863.9146728515625" style="fill: white; fill-opacity: 0; pointer-events: none;"/>

<g transform="matrix(1.0895946025848389, 0, 0, 1.0895946025848389, -1868.13330078125, -1165.9141540527344)">
		<linearGradient id="SVGID_1_" gradientUnits="userSpaceOnUse" x1="1000" y1="1002.2519" x2="1000" y2="1692.8942">
			<stop offset="0" style="stop-color:#E891A9"/>
			<stop offset="0.4951" style="stop-color:#A3539C"/>
			<stop offset="1" style="stop-color:#2A4594"/>
		</linearGradient>
		<path d="M 0 1092.800049 H 2000 V 2000.000061 H 0 V 1092.800049 Z" class="st0" style="fill: url('#SVGID_1_');" transform="matrix(1, 0, 0, 1, 1706.2196829874883, -42.695023149757546)"/>
		<g transform="matrix(1, 0, 0, 1, 1612.9231511905127, -608.7994384765625)">
			<linearGradient id="SVGID_2_" gradientUnits="userSpaceOnUse" x1="-5072.3623" y1="1153.6238" x2="19965.1543" y2="1153.6238">
				<stop offset="0" style="stop-color:#F7D9E1"/>
				<stop offset="9.762754e-02" style="stop-color:#F4D0E0"/>
				<stop offset="0.2538" style="stop-color:#EDB9DF"/>
				<stop offset="0.4481" style="stop-color:#E293DD"/>
				<stop offset="0.4951" style="stop-color:#DF89DC"/>
				<stop offset="0.5576" style="stop-color:#D888DC"/>
				<stop offset="0.6488" style="stop-color:#C485DC"/>
				<stop offset="0.7578" style="stop-color:#A480DB"/>
				<stop offset="0.8793" style="stop-color:#787ADB"/>
				<stop offset="1" style="stop-color:#4572DA"/>
			</linearGradient>
			<path class="st1" d="M236.9,1153.6c52.5,3.1,113.4,4.9,178.4,4.9c64.9,0,125.8-1.8,178.4-4.9c-52.5-3.1-113.4-4.9-178.4-4.9&#10;&#9;&#9;&#9;&#9;C350.3,1148.7,289.4,1150.5,236.9,1153.6z" style="fill: url('#SVGID_2_');"/>
			<linearGradient id="SVGID_3_" gradientUnits="userSpaceOnUse" x1="-7261.6191" y1="1219.3392" x2="17778.6934" y2="1219.3392">
				<stop offset="0" style="stop-color:#F7D9E1"/>
				<stop offset="9.762754e-02" style="stop-color:#F4D0E0"/>
				<stop offset="0.2538" style="stop-color:#EDB9DF"/>
				<stop offset="0.4481" style="stop-color:#E293DD"/>
				<stop offset="0.4951" style="stop-color:#DF89DC"/>
				<stop offset="0.5576" style="stop-color:#D888DC"/>
				<stop offset="0.6488" style="stop-color:#C485DC"/>
				<stop offset="0.7578" style="stop-color:#A480DB"/>
				<stop offset="0.8793" style="stop-color:#787ADB"/>
				<stop offset="1" style="stop-color:#4572DA"/>
			</linearGradient>
			<path d="M 787.600006 1219.300049 A 178.399994 4.9 0 0 1 609.200012 1224.200049 A 178.399994 4.9 0 0 1 430.800018 1219.300049 A 178.399994 4.9 0 0 1 609.200012 1214.400049 A 178.399994 4.9 0 0 1 787.600006 1219.300049 Z" class="st2" style="fill: url('#SVGID_3_');"/>
			<linearGradient id="SVGID_4_" gradientUnits="userSpaceOnUse" x1="-6057.4507" y1="1273.0911" x2="9912.7119" y2="1273.0911">
				<stop offset="0" style="stop-color:#F7D9E1"/>
				<stop offset="9.762754e-02" style="stop-color:#F4D0E0"/>
				<stop offset="0.2538" style="stop-color:#EDB9DF"/>
				<stop offset="0.4481" style="stop-color:#E293DD"/>
				<stop offset="0.4951" style="stop-color:#DF89DC"/>
				<stop offset="0.5576" style="stop-color:#D888DC"/>
				<stop offset="0.6488" style="stop-color:#C485DC"/>
				<stop offset="0.7578" style="stop-color:#A480DB"/>
				<stop offset="0.8793" style="stop-color:#787ADB"/>
				<stop offset="1" style="stop-color:#4572DA"/>
			</linearGradient>
			<path d="M 319.100006 1273.099976 A 113.800003 4.9 0 0 1 205.300003 1277.999976 A 113.800003 4.9 0 0 1 91.5 1273.099976 A 113.800003 4.9 0 0 1 205.300003 1268.199975 A 113.800003 4.9 0 0 1 319.100006 1273.099976 Z" class="st3" style="fill: url('#SVGID_4_');"/>
			<linearGradient id="SVGID_5_" gradientUnits="userSpaceOnUse" x1="-2856.4094" y1="1224.2589" x2="7010.4243" y2="1224.2589">
				<stop offset="0" style="stop-color:#F7D9E1"/>
				<stop offset="9.762754e-02" style="stop-color:#F4D0E0"/>
				<stop offset="0.2538" style="stop-color:#EDB9DF"/>
				<stop offset="0.4481" style="stop-color:#E293DD"/>
				<stop offset="0.4951" style="stop-color:#DF89DC"/>
				<stop offset="0.5576" style="stop-color:#D888DC"/>
				<stop offset="0.6488" style="stop-color:#C485DC"/>
				<stop offset="0.7578" style="stop-color:#A480DB"/>
				<stop offset="0.8793" style="stop-color:#787ADB"/>
				<stop offset="1" style="stop-color:#4572DA"/>
			</linearGradient>
			<path d="M 385.599991 1224.300049 A 70.300003 4.9 0 0 1 315.299988 1229.200049 A 70.300003 4.9 0 0 1 244.999985 1224.300049 A 70.300003 4.9 0 0 1 315.299988 1219.400049 A 70.300003 4.9 0 0 1 385.599991 1224.300049 Z" class="st4" style="fill: url('#SVGID_5_');"/>
			<linearGradient id="SVGID_6_" gradientUnits="userSpaceOnUse" x1="-8050.2949" y1="1487.5663" x2="4469.8613" y2="1487.5663">
				<stop offset="0" style="stop-color:#F7D9E1"/>
				<stop offset="9.762754e-02" style="stop-color:#F4D0E0"/>
				<stop offset="0.2538" style="stop-color:#EDB9DF"/>
				<stop offset="0.4481" style="stop-color:#E293DD"/>
				<stop offset="0.4951" style="stop-color:#DF89DC"/>
				<stop offset="0.5576" style="stop-color:#D888DC"/>
				<stop offset="0.6488" style="stop-color:#C485DC"/>
				<stop offset="0.7578" style="stop-color:#A480DB"/>
				<stop offset="0.8793" style="stop-color:#787ADB"/>
				<stop offset="1" style="stop-color:#4572DA"/>
			</linearGradient>
			<path d="M 836.799973 1487.599976 A 89.199997 4.9 0 0 1 747.599976 1492.499976 A 89.199997 4.9 0 0 1 658.399979 1487.599976 A 89.199997 4.9 0 0 1 747.599976 1482.699975 A 89.199997 4.9 0 0 1 836.799973 1487.599976 Z" class="st5" style="fill: url('#SVGID_6_');"/>
			<linearGradient id="SVGID_7_" gradientUnits="userSpaceOnUse" x1="-2660.6921" y1="1158.804" x2="9821.9189" y2="1158.804">
				<stop offset="0" style="stop-color:#F7D9E1"/>
				<stop offset="9.762754e-02" style="stop-color:#F4D0E0"/>
				<stop offset="0.2538" style="stop-color:#EDB9DF"/>
				<stop offset="0.4481" style="stop-color:#E293DD"/>
				<stop offset="0.4951" style="stop-color:#DF89DC"/>
				<stop offset="0.5576" style="stop-color:#D888DC"/>
				<stop offset="0.6488" style="stop-color:#C485DC"/>
				<stop offset="0.7578" style="stop-color:#A480DB"/>
				<stop offset="0.8793" style="stop-color:#787ADB"/>
				<stop offset="1" style="stop-color:#4572DA"/>
			</linearGradient>
			<path class="st6" d="M130.4,1158.8c11.3,1.4,24.4,2.1,38.4,2.1c14,0,27.1-0.8,38.4-2.1c-11.3-1.4-24.4-2.1-38.4-2.1&#10;&#9;&#9;&#9;&#9;C154.8,1156.7,141.7,1157.5,130.4,1158.8z" style="fill: url('#SVGID_7_');"/>
			<linearGradient id="SVGID_8_" gradientUnits="userSpaceOnUse" x1="-2421.998" y1="1173.9679" x2="10057.3457" y2="1173.9679">
				<stop offset="0" style="stop-color:#F7D9E1"/>
				<stop offset="9.762754e-02" style="stop-color:#F4D0E0"/>
				<stop offset="0.2538" style="stop-color:#EDB9DF"/>
				<stop offset="0.4481" style="stop-color:#E293DD"/>
				<stop offset="0.4951" style="stop-color:#DF89DC"/>
				<stop offset="0.5576" style="stop-color:#D888DC"/>
				<stop offset="0.6488" style="stop-color:#C485DC"/>
				<stop offset="0.7578" style="stop-color:#A480DB"/>
				<stop offset="0.8793" style="stop-color:#787ADB"/>
				<stop offset="1" style="stop-color:#4572DA"/>
			</linearGradient>
			<path class="st7" d="M642.4,1174c11.3,1.4,24.4,2.1,38.4,2.1s27.1-0.8,38.4-2.1c-11.3-1.4-24.4-2.1-38.4-2.1&#10;&#9;&#9;&#9;&#9;S653.7,1172.6,642.4,1174z" style="fill: url('#SVGID_8_');"/>
			<linearGradient id="SVGID_9_" gradientUnits="userSpaceOnUse" x1="-6268.1543" y1="1412.123" x2="6211.0288" y2="1412.123">
				<stop offset="0" style="stop-color:#F7D9E1"/>
				<stop offset="9.762754e-02" style="stop-color:#F4D0E0"/>
				<stop offset="0.2538" style="stop-color:#EDB9DF"/>
				<stop offset="0.4481" style="stop-color:#E293DD"/>
				<stop offset="0.4951" style="stop-color:#DF89DC"/>
				<stop offset="0.5576" style="stop-color:#D888DC"/>
				<stop offset="0.6488" style="stop-color:#C485DC"/>
				<stop offset="0.7578" style="stop-color:#A480DB"/>
				<stop offset="0.8793" style="stop-color:#787ADB"/>
				<stop offset="1" style="stop-color:#4572DA"/>
			</linearGradient>
			<path class="st8" d="M1099.4,1412.1c11.3,1.4,24.4,2.1,38.4,2.1c14,0,27.1-0.8,38.4-2.1c-11.3-1.4-24.4-2.1-38.4-2.1&#10;&#9;&#9;&#9;&#9;C1123.8,1410,1110.7,1410.8,1099.4,1412.1z" style="fill: url('#SVGID_9_');"/>
			<linearGradient id="SVGID_10_" gradientUnits="userSpaceOnUse" x1="-3520.1204" y1="1239.668" x2="8959.2236" y2="1239.668">
				<stop offset="0" style="stop-color:#F7D9E1"/>
				<stop offset="9.762754e-02" style="stop-color:#F4D0E0"/>
				<stop offset="0.2538" style="stop-color:#EDB9DF"/>
				<stop offset="0.4481" style="stop-color:#E293DD"/>
				<stop offset="0.4951" style="stop-color:#DF89DC"/>
				<stop offset="0.5576" style="stop-color:#D888DC"/>
				<stop offset="0.6488" style="stop-color:#C485DC"/>
				<stop offset="0.7578" style="stop-color:#A480DB"/>
				<stop offset="0.8793" style="stop-color:#787ADB"/>
				<stop offset="1" style="stop-color:#4572DA"/>
			</linearGradient>
			<path class="st9" d="M731.4,1239.7c11.3,1.4,24.4,2.1,38.4,2.1s27.1-0.8,38.4-2.1c-11.3-1.4-24.4-2.1-38.4-2.1&#10;&#9;&#9;&#9;&#9;S742.7,1238.3,731.4,1239.7z" style="fill: url('#SVGID_10_');"/>
			<linearGradient id="SVGID_11_" gradientUnits="userSpaceOnUse" x1="-13855.9355" y1="1268.1714" x2="23360.9766" y2="1268.1714">
				<stop offset="0" style="stop-color:#F7D9E1"/>
				<stop offset="9.762754e-02" style="stop-color:#F4D0E0"/>
				<stop offset="0.2538" style="stop-color:#EDB9DF"/>
				<stop offset="0.4481" style="stop-color:#E293DD"/>
				<stop offset="0.4951" style="stop-color:#DF89DC"/>
				<stop offset="0.5576" style="stop-color:#D888DC"/>
				<stop offset="0.6488" style="stop-color:#C485DC"/>
				<stop offset="0.7578" style="stop-color:#A480DB"/>
				<stop offset="0.8793" style="stop-color:#787ADB"/>
				<stop offset="1" style="stop-color:#4572DA"/>
			</linearGradient>
			<path class="st10" d="M359.3,1268.2c33.7,1.4,72.8,2.1,114.4,2.1c41.7,0,80.7-0.8,114.4-2.1c-33.7-1.4-72.8-2.1-114.4-2.1&#10;&#9;&#9;&#9;&#9;C432.1,1266,393,1266.8,359.3,1268.2z" style="fill: url('#SVGID_11_');"/>
			<linearGradient id="SVGID_12_" gradientUnits="userSpaceOnUse" x1="-22789.082" y1="1448.447" x2="13952.8662" y2="1448.447">
				<stop offset="0" style="stop-color:#F7D9E1"/>
				<stop offset="9.762754e-02" style="stop-color:#F4D0E0"/>
				<stop offset="0.2538" style="stop-color:#EDB9DF"/>
				<stop offset="0.4481" style="stop-color:#E293DD"/>
				<stop offset="0.4951" style="stop-color:#DF89DC"/>
				<stop offset="0.5576" style="stop-color:#D888DC"/>
				<stop offset="0.6488" style="stop-color:#C485DC"/>
				<stop offset="0.7578" style="stop-color:#A480DB"/>
				<stop offset="0.8793" style="stop-color:#787ADB"/>
				<stop offset="1" style="stop-color:#4572DA"/>
			</linearGradient>
			<path class="st11" d="M686.6,1448.4c77.1,3.1,166.5,4.9,261.7,4.9c95.3,0,184.6-1.8,261.7-4.9c-77.1-3.1-166.5-4.9-261.7-4.9&#10;&#9;&#9;&#9;&#9;C853.1,1443.5,763.7,1445.3,686.6,1448.4z" style="fill: url('#SVGID_12_');"/>
		</g>
	</g><linearGradient id="SVGID_13_" gradientUnits="userSpaceOnUse" x1="392.1099" y1="896.8929" x2="392.1099" y2="462.6732">
		<stop offset="0" style="stop-color:#FFFFFF"/>
		<stop offset="1" style="stop-color:#E891A9"/>
	</linearGradient><linearGradient id="SVGID_14_" gradientUnits="userSpaceOnUse" x1="432.5" y1="1611.9102" x2="432.5" y2="1763.5536">
			<stop offset="0" style="stop-color:#313163"/>
			<stop offset="1" style="stop-color:#23224C"/>
		</linearGradient><linearGradient id="SVGID_15_" gradientUnits="userSpaceOnUse" x1="1492.0043" y1="1399.8711" x2="1492.0043" y2="1671.9495">
			<stop offset="0" style="stop-color:#313163"/>
			<stop offset="1" style="stop-color:#23224C"/>
		</linearGradient><linearGradient id="SVGID_16_" gradientUnits="userSpaceOnUse" x1="1000" y1="1590.3306" x2="1000" y2="1975.0117">
			<stop offset="0" style="stop-color:#313163"/>
			<stop offset="1" style="stop-color:#23224C"/>
		</linearGradient>
</svg>