<svg xmlns="http://www.w3.org/2000/svg" version="1.1" viewBox="0 0 41 51.25" x="0px" y="0px"><title>up-arrow</title><path d="M20.5 2.293c-10.045 0-18.207 8.163-18.207 18.207s8.163 18.207 18.207 18.207c10.044 0 18.207-8.163 18.207-18.207s-8.163-18.207-18.207-18.207zM20.5 2.999c9.645 0 17.501 7.856 17.501 17.501s-7.856 17.501-17.501 17.501c-9.645 0-17.501-7.856-17.501-17.501s7.856-17.501 17.501-17.501zM20.518 11.989c-0.088 0-0.176 0.032-0.249 0.105l-5.281 5.281c-0.147 0.147-0.147 0.35 0 0.496l0.009 0.009c0.11 0.115 0.331 0.127 0.474-0.016l0.172-0.172h0.002l4.505-4.507v15.471c0 0.204 0.154 0.357 0.359 0.357s0.357-0.151 0.357-0.357v-15.462l4.677 4.677c0.074 0.074 0.157 0.105 0.254 0.105s0.176-0.030 0.252-0.105c0.147-0.147 0.147-0.35 0-0.496l-5.281-5.281c-0.073-0.073-0.161-0.105-0.249-0.105z"/><text x="0" y="56" fill="#000000" font-size="5px" font-weight="bold" font-family="'Helvetica Neue', Helvetica, Arial-Unicode, Arial, Sans-serif">Created by vectlab</text><text x="0" y="61" fill="#000000" font-size="5px" font-weight="bold" font-family="'Helvetica Neue', Helvetica, Arial-Unicode, Arial, Sans-serif">from the Noun Project</text></svg>