<?xml version="1.0" encoding="utf-8"?>
<svg id="master-artboard" viewBox="0 0 336 235.2" version="1.1" 
	xmlns="http://www.w3.org/2000/svg" x="0px" y="0px" style="enable-background:new 0 0 336 235.2;" width="336px" height="235.1999969482422px">


	<g transform="matrix(1, 0, 0, 1, 0, 0)" style="opacity: 0.1;">
		<path class="st2" d="M150.1,97.9c0-3.2,3-5.9,6.6-5.9h62.2c3.6,0,6.6,2.6,6.6,5.9l0,2.3c0,3.2-2.9,5.9-6.6,5.9h-62.2&#10;&#9;&#9;&#9;&#9;c-3.6,0-6.6-2.6-6.6-5.9L150.1,97.9z" style="fill: rgb(255, 255, 255);"/>
	</g>
	<g transform="matrix(1, 0, 0, 1, 0, 0)" style="opacity: 0.1;">
		<path class="st2" d="M212.8,94.4c0,0-8.5-6.5,0-14.8h-35.2l0,12.4" style="fill: rgb(255, 255, 255);"/>
	</g>
	<g transform="matrix(1, 0, 0, 1, 0, 0)" style="opacity: 0.1;">
		<path class="st2" d="M162.6,94.4c0,0,8.5-6.5,0-14.8h43l-1,13.4" style="fill: rgb(255, 255, 255);"/>
	</g>
	<g transform="matrix(1, 0, 0, 1, 0, 0)" style="opacity: 0.1;">
		<path class="st2" d="M198.6,151.5c0,3.2-3,5.9-6.6,5.9h-62.2c-3.6,0-6.6-2.6-6.6-5.9l0-2.3c0-3.2,2.9-5.9,6.6-5.9H192&#10;&#9;&#9;&#9;&#9;c3.6,0,6.6,2.6,6.6,5.9L198.6,151.5z" style="fill: rgb(255, 255, 255);"/>
	</g>
	<g transform="matrix(1, 0, 0, 1, 0, 0)" style="opacity: 0.1;">
		<path class="st2" d="M135.9,154.9c0,0,8.5,6.5,0,14.8h35.2l0-12.4" style="fill: rgb(255, 255, 255);"/>
	</g>
	<g transform="matrix(1, 0, 0, 1, 0, 0)" style="opacity: 0.1;">
		<path class="st2" d="M186.1,154.9c0,0-8.5,6.5,0,14.8h-43l1-13.4" style="fill: rgb(255, 255, 255);"/>
	</g>
	<path class="st12" d="M233.6,152.4c1.3,2.3,0.1,5.3-2.6,6.8l-10.5,5.8c-2.7,1.5-5.9,0.8-7.1-1.4l0,0c-1.3-2.3-0.1-5.3,2.6-6.8&#10;&#9;&#9;l10.5-5.8C229.2,149.5,232.3,150.1,233.6,152.4L233.6,152.4z" style="fill: rgb(230, 230, 230);" transform="matrix(1, 0, 0, 1, 0, 0)"/>
	<g transform="matrix(1, 0, 0, 1, 0, 0)">
		<path class="st2" d="M172,64.5c0,0-13.2,30.4,6.2,63.9c19.3,33.6,31.4,34.8,31.4,34.8l13.2-7.4l13.2-7.4c0,0,5.3-10.9-13-45.1&#10;&#9;&#9;&#9;C204.8,69.3,172,64.5,172,64.5z" style="fill: rgb(255, 255, 255);"/>
	</g>
	<g transform="matrix(1, 0, 0, 1, 0, 0)">
		<path class="st13" d="M199.1,76.3c-14.1-9.9-27-11.8-27-11.8s-5.2,12-4.3,29.2c0.1,1.3,0.2,2.7,0.3,4.1c8.6-0.4,23.2-3.5,34.4-19&#10;&#9;&#9;&#9;C201.4,77.9,200.2,77.1,199.1,76.3z" style="fill: rgb(226, 116, 87);"/>
	</g>
	<g transform="matrix(1, 0, 0, 1, 0, 0)" style="opacity: 0.1;">
		<path class="st14" d="M172,64.5c0,0-0.2,0.5-0.5,1.4l50.2,90.7l1.1-0.6l13.2-7.4c0,0,5.3-10.9-13-45.1&#10;&#9;&#9;&#9;C204.8,69.3,172,64.5,172,64.5z" style="fill: rgb(29, 29, 27);"/>
	</g>
	<g transform="matrix(1, 0, 0, 1, 0, 0)" style="opacity: 0.1;">
		<path class="st14" d="M199.1,76.3c-14.1-9.9-27-11.8-27-11.8s-0.2,0.5-0.5,1.4l15,27c5.5-2.8,11.1-7.3,16.1-14.1&#10;&#9;&#9;&#9;C201.4,77.9,200.2,77.1,199.1,76.3z" style="fill: rgb(29, 29, 27);"/>
	</g>
	<g transform="matrix(1, 0, 0, 1, 0, 0)">
		<path class="st13" d="M183.2,130l0.1,21.5c0,0-0.5,2.7,3.9,7c4.4,4.2,25.5,24.4,25.5,24.4s0.8,0.1,0.5-1.2c0,0-16.1-23.9-8.3-31.6&#10;&#9;&#9;&#9;" style="fill: rgb(226, 116, 87);"/>
	</g>
	<g transform="matrix(1, 0, 0, 1, 0, 0)">
		<path class="st15" d="M221.9,108.5l18.2,11.4c0,0,2.6,1,3.9,7c1.3,6,7.3,34.5,7.3,34.5s-0.3,0.8-1.3-0.2c0,0-11.9-26.3-22.5-23.7" style="fill: rgb(212, 109, 81);"/>
	</g>
	<g transform="matrix(1, 0, 0, 1, 0, 0)">

		<path d="M 206.499994 108 A 10.6 11 0 0 1 195.899994 119 A 10.6 11 0 0 1 185.299994 108 A 10.6 11 0 0 1 195.899994 97 A 10.6 11 0 0 1 206.499994 108 Z" transform="matrix(0.8739 -0.4861 0.4861 0.8739 -27.7701 108.8414)" class="st16" style="fill: rgb(25, 163, 186);"/>
	</g>
	<g transform="matrix(1, 0, 0, 1, 0, 0)">
		<path class="st17" d="M241.8,190.3c0,0,6.5-37.6-14.5-26C206.3,176,241.8,190.3,241.8,190.3z" style="fill: rgb(235, 188, 108);"/>
	</g>
	<g transform="matrix(1, 0, 0, 1, 0, 0)">
		<path class="st18" d="M202.7,102.9c2.6,4.7,1,10.5-3.5,13c-4.5,2.5-10.2,0.8-12.8-3.9c-2.6-4.7-1-10.5,3.5-13&#10;&#9;&#9;&#9;C194.4,96.5,200.1,98.3,202.7,102.9z" style="fill: rgb(27, 178, 204);"/>
	</g>
	<g transform="matrix(1, 0, 0, 1, 0, 0)">
		<path class="st2" d="M201.6,118.2c-5.5,3-12.5,0.9-15.6-4.8c-3.1-5.7-1.3-12.7,4.2-15.8l0,0c5.5-3,12.5-0.9,15.6,4.8&#10;&#9;&#9;&#9;C209,108.1,207.1,115.2,201.6,118.2L201.6,118.2z M190.9,99c-4.8,2.7-6.5,8.9-3.7,13.8c2.7,4.9,8.9,6.8,13.7,4.2l0,0&#10;&#9;&#9;&#9;c4.8-2.7,6.4-8.9,3.7-13.8C201.9,98.2,195.7,96.3,190.9,99z" style="fill: rgb(255, 255, 255);"/>
	</g>
	<g transform="matrix(1, 0, 0, 1, 0, 0)">
		<path class="st16" d="M212.6,122.9c1.9,3.4,0.6,7.8-2.9,9.8c-3.5,2-8,0.8-9.9-2.7c-1.9-3.4-0.6-7.8,2.9-9.8&#10;&#9;&#9;&#9;C206.2,118.3,210.7,119.5,212.6,122.9z" style="fill: rgb(25, 163, 186);"/>
	</g>
	<g transform="matrix(1, 0, 0, 1, 0, 0)">
		<path class="st18" d="M210.6,123.2c1.7,3,0.7,6.8-2.2,8.4c-2.9,1.6-6.6,0.5-8.3-2.5c-1.7-3-0.7-6.8,2.2-8.4&#10;&#9;&#9;&#9;C205.2,119.1,208.9,120.2,210.6,123.2z" style="fill: rgb(27, 178, 204);"/>
	</g>
	<g transform="matrix(1, 0, 0, 1, 0, 0)">
		<path class="st2" d="M210,133.4c-3.7,2-8.4,0.6-10.5-3.2c-2.1-3.8-0.8-8.5,2.8-10.6c3.7-2,8.4-0.6,10.5,3.2&#10;&#9;&#9;&#9;C215,126.6,213.7,131.3,210,133.4L210,133.4z M203.1,120.9c-3,1.7-4,5.5-2.3,8.6c1.7,3.1,5.5,4.2,8.5,2.6l0.4,0.6l-0.3-0.7&#10;&#9;&#9;&#9;c3-1.7,4-5.5,2.3-8.6C209.9,120.4,206.1,119.2,203.1,120.9z" style="fill: rgb(255, 255, 255);"/>
	</g>
	<g transform="matrix(1, 0, 0, 1, 0, 0)">
		<path class="st19" d="M237.3,182.3c0,0,3.2-25.3-10-18C214.1,171.6,237.3,182.3,237.3,182.3z" style="fill: rgb(255, 212, 138);"/>
	</g>
	<g transform="matrix(1, 0, 0, 1, 0, 0)">
		<path class="st15" d="M229.6,169.2c0,0-1.2-1.3-3-3.2c-0.4-0.5-0.9-1-1.4-1.6c-0.5-0.6-1-1.2-1.5-1.8c-0.5-0.6-1.1-1.3-1.6-1.9&#10;&#9;&#9;&#9;c-0.5-0.7-1-1.3-1.6-2c-0.5-0.7-1.1-1.3-1.7-2c-0.6-0.6-1.1-1.3-1.5-1.9c-0.4-0.7-0.7-1.4-0.9-2.1c-0.2-0.7-0.3-1.4-0.4-2.1&#10;&#9;&#9;&#9;c-0.1-0.7-0.1-1.3-0.1-1.9c0-0.6,0.1-1.1,0.1-1.6c0-0.2,0.1-0.4,0.1-0.6c0-0.2,0.1-0.3,0.1-0.5c0.1-0.3,0.1-0.4,0.1-0.4l0.7-0.4&#10;&#9;&#9;&#9;c0,0,0.2,0,0.4,0.1c0.1,0,0.3,0.1,0.5,0.2c0.2,0.1,0.4,0.1,0.6,0.2c0.4,0.2,0.9,0.4,1.4,0.7c0.5,0.3,1.1,0.7,1.6,1.1&#10;&#9;&#9;&#9;c0.5,0.4,1.1,0.9,1.6,1.5c0.5,0.5,1,1.2,1.4,1.9c0.4,0.7,0.6,1.5,0.8,2.3c0.2,0.8,0.4,1.7,0.8,2.5c0.3,0.8,0.6,1.6,0.9,2.4&#10;&#9;&#9;&#9;c0.3,0.8,0.5,1.6,0.8,2.4c0.2,0.8,0.5,1.5,0.7,2.2c0.2,0.7,0.4,1.4,0.6,2c0.7,2.5,1.1,4.2,1.1,4.2L229.6,169.2z" style="fill: rgb(212, 109, 81);"/>
	</g>
	<g transform="matrix(1, 0, 0, 1, 0, 0)">
		<path class="st13" d="M216.6,145.4l-0.2,0.1c0,0-0.1,0.1-0.1,0.4c0,0.1-0.1,0.3-0.1,0.5c0,0.2-0.1,0.4-0.1,0.6&#10;&#9;&#9;&#9;c-0.1,0.5-0.1,1-0.1,1.6c0,0.6,0,1.2,0.1,1.9c0.1,0.7,0.2,1.4,0.4,2.1c0.2,0.7,0.5,1.5,0.9,2.1c0.4,0.7,1,1.3,1.5,1.9&#10;&#9;&#9;&#9;c0.6,0.6,1.2,1.3,1.7,2c0.5,0.7,1,1.4,1.6,2c0.5,0.7,1.1,1.3,1.6,1.9c0.5,0.6,1,1.2,1.5,1.8c0.5,0.6,0.9,1.1,1.4,1.6&#10;&#9;&#9;&#9;c1.7,1.9,3,3.2,3,3.2l0.2-0.1L216.6,145.4z" style="fill: rgb(226, 116, 87);"/>
	</g>
	<g transform="matrix(1, 0, 0, 1, 0, 0)" style="opacity: 0.2;">
		<path class="st2" d="M194.5,103.5c0.7,1.3,0.3,2.9-1,3.6c-1.2,0.7-2.8,0.2-3.6-1.1c-0.7-1.3-0.3-2.9,1-3.6&#10;&#9;&#9;&#9;C192.2,101.7,193.8,102.2,194.5,103.5z" style="fill: rgb(255, 255, 255);"/>
	</g>
	<g transform="matrix(1, 0, 0, 1, 0, 0)" style="opacity: 0.2;">
		<path class="st2" d="M191.1,108.2c0.4,0.6,0.1,1.4-0.5,1.8c-0.6,0.3-1.4,0.1-1.8-0.5c-0.4-0.6-0.1-1.5,0.5-1.8&#10;&#9;&#9;&#9;C190,107.3,190.8,107.5,191.1,108.2z" style="fill: rgb(255, 255, 255);"/>
	</g>
	<g transform="matrix(1, 0, 0, 1, 0, 0)" style="opacity: 0.2;">

		<path d="M 205.999994 124.5 A 1.6 1.6 0 0 1 204.399994 126.1 A 1.6 1.6 0 0 1 202.799994 124.5 A 1.6 1.6 0 0 1 204.399994 122.9 A 1.6 1.6 0 0 1 205.999994 124.5 Z" transform="matrix(0.8749 -0.4843 0.4843 0.8749 -34.7429 114.5702)" class="st2" style="fill: rgb(255, 255, 255);"/>
	</g>
	<g transform="matrix(1, 0, 0, 1, 0, 0)" style="opacity: 0.2;">
		<path d="M 203.8 127 A 0.8 0.8 0 0 1 203 127.8 A 0.8 0.8 0 0 1 202.2 127 A 0.8 0.8 0 0 1 203 126.2 A 0.8 0.8 0 0 1 203.8 127 Z" transform="matrix(0.875 -0.4842 0.4842 0.875 -36.1304 114.1597)" class="st2" style="fill: rgb(255, 255, 255);"/>
	</g>
	<path class="st14" d="M64.4,110.1c-0.1,0.1-0.1,0.2-0.2,0.3c0,0,0.1,0,0.1,0C64.3,110.2,64.3,110.1,64.4,110.1z" style="fill: rgb(29, 29, 27); opacity: 0.1;" transform="matrix(1, 0, 0, 1, 0, 0)"/>
	<path class="st14" d="M78.7,107.8c-0.1,0.1-0.1,0.2-0.2,0.4c0,0.1,0.1,0.1,0.1,0.2C78.6,108.2,78.6,108,78.7,107.8z" style="fill: rgb(29, 29, 27); opacity: 0.1;" transform="matrix(1, 0, 0, 1, 0, 0)"/>
	<path class="st14" d="M207,74.2c-0.1,0.1-0.1,0.2-0.2,0.3c0,0,0.1,0,0.1,0C207,74.4,207,74.3,207,74.2z" style="fill: rgb(29, 29, 27); opacity: 0.1;" transform="matrix(1, 0, 0, 1, 0, 0)"/>
	<path class="st14" d="M224.3,71.4c-0.1,0.1-0.2,0.3-0.2,0.4c0,0.1,0.1,0.2,0.1,0.2C224.2,71.9,224.3,71.7,224.3,71.4z" style="fill: rgb(29, 29, 27); opacity: 0.1;" transform="matrix(1, 0, 0, 1, 0, 0)"/>
	<path class="st14" d="M173.6,204.2c0.1,0.1,0.1,0.2,0.2,0.3c0,0-0.1,0-0.1,0C173.7,204.4,173.7,204.3,173.6,204.2z" style="fill: rgb(29, 29, 27); opacity: 0.1;" transform="matrix(1, 0, 0, 1, 0, 0)"/>
	<path class="st14" d="M159.7,202c0.1,0.1,0.1,0.2,0.2,0.4c0,0.1-0.1,0.1-0.1,0.2C159.8,202.3,159.8,202.2,159.7,202z" style="fill: rgb(29, 29, 27); opacity: 0.1;" transform="matrix(1, 0, 0, 1, 0, 0)"/>
	<path class="st14" d="M187.3,121.7c0,0.1,0.1,0.1,0.1,0.2c0,0-0.1,0-0.1,0C187.3,121.8,187.3,121.8,187.3,121.7z" style="fill: rgb(29, 29, 27); opacity: 0.1;" transform="matrix(1, 0, 0, 1, 0, 0)"/>
	<path class="st14" d="M177.3,120.1c0,0.1,0.1,0.2,0.1,0.3c0,0,0,0.1-0.1,0.1C177.3,120.4,177.3,120.2,177.3,120.1z" style="fill: rgb(29, 29, 27); opacity: 0.1;" transform="matrix(1, 0, 0, 1, 0, 0)"/>
	<path class="st14" d="M302.9,117.4c0,0.1,0.1,0.1,0.1,0.2c0,0-0.1,0-0.1,0C303,117.6,303,117.5,302.9,117.4z" style="fill: rgb(29, 29, 27); opacity: 0.1;" transform="matrix(1, 0, 0, 1, 0, 0)"/>
	<path class="st14" d="M292.9,115.8c0,0.1,0.1,0.2,0.1,0.3c0,0,0,0.1-0.1,0.1C292.9,116.1,292.9,116,292.9,115.8z" style="fill: rgb(29, 29, 27); opacity: 0.1;" transform="matrix(1, 0, 0, 1, 0, 0)"/>

	<g transform="matrix(1, 0, 0, 1, 0, 0)">
		<path class="st21" d="M74,142.5c-0.5-0.4-4.7-3.8-4.3-7.8c0.3-4.1,7.4-5.9,8.8-6.2l0.6,2.7c-2.7,0.6-6.5,2.2-6.6,3.7&#10;&#9;&#9;&#9;c-0.2,2.1,2.3,4.6,3.3,5.4L74,142.5z" style="fill: rgb(222, 223, 224);"/>
	</g>
	<g transform="matrix(1, 0, 0, 1, 0, 0)">
		<path class="st21" d="M103.4,150.4l-0.4-2.7c1.2-0.2,4.6-1.1,5.5-3c0.6-1.4-1.8-4.7-3.9-6.6l1.8-2c1.1,1,6.3,6,4.5,9.7&#10;&#9;&#9;&#9;C109.3,149.4,104,150.3,103.4,150.4z" style="fill: rgb(222, 223, 224);"/>
	</g>
	<path class="st22" d="M110.2,118.1c-3.9-7.6-11.5-9.3-11.5-9.3s-7.4-2.3-14.6,2.3c-4.2,2.7-7.5,7-8.7,11.5&#10;&#9;&#9;c-1.2,4.5-0.5,10,1.6,13.7l13.4,3.6l13.4,3.6c3.7-2.1,7-6.6,8.2-11.1C113.3,128,112.5,122.6,110.2,118.1z" style="fill: rgb(246, 130, 86);" transform="matrix(1, 0, 0, 1, 0, 0)"/>
	<path class="st22" d="M108.2,120.4c-3.5-6.8-10.3-8.3-10.3-8.3s-6.6-2.1-13,2.1c-3.7,2.4-6.7,6.3-7.8,10.3c-1.1,4-0.5,9,1.4,12.3&#10;&#9;&#9;l12,3.2l12,3.2c3.3-1.9,6.3-5.9,7.4-9.9C110.9,129.2,110.2,124.4,108.2,120.4z" style="fill: rgb(246, 130, 86);" transform="matrix(1, 0, 0, 1, 0, 0)"/>
	<g transform="matrix(1, 0, 0, 1, 0, 0)">
		<path class="st21" d="M61.3,185.1c-0.2,0.7-0.6,1.1-1,1c-0.4-0.1-0.6-0.7-0.4-1.4c0.2-0.7,0.6-1.1,1-1&#10;&#9;&#9;&#9;C61.3,183.8,61.5,184.4,61.3,185.1z" style="fill: rgb(222, 223, 224);"/>
	</g>
	<g transform="matrix(1, 0, 0, 1, 0, 0)">
		<path class="st21" d="M62.7,185.5c-0.2,0.7-0.6,1.1-1,1c-0.4-0.1-0.6-0.7-0.4-1.4c0.2-0.7,0.6-1.1,1-1&#10;&#9;&#9;&#9;C62.7,184.2,62.9,184.8,62.7,185.5z" style="fill: rgb(222, 223, 224);"/>
	</g>
	<g transform="matrix(1, 0, 0, 1, 0, 0)">

		<path d="M 64.100002 185.699997 A 0.7 1.3 0 0 1 63.400002 186.999997 A 0.7 1.3 0 0 1 62.700002 185.699997 A 0.7 1.3 0 0 1 63.400002 184.399997 A 0.7 1.3 0 0 1 64.100002 185.699997 Z" transform="matrix(0.9661 0.2582 -0.2582 0.9661 50.0809 -10.0803)" class="st21" style="fill: rgb(222, 223, 224);"/>
	</g>
	<g transform="matrix(1, 0, 0, 1, 0, 0)">
		<path class="st21" d="M65.5,186.2c-0.2,0.7-0.6,1.1-1,1c-0.4-0.1-0.6-0.7-0.4-1.4c0.2-0.7,0.6-1.1,1-1&#10;&#9;&#9;&#9;C65.5,184.9,65.7,185.5,65.5,186.2z" style="fill: rgb(222, 223, 224);"/>
	</g>
	<g transform="matrix(1, 0, 0, 1, 0, 0)">
		<path class="st21" d="M66.9,186.6c-0.2,0.7-0.6,1.1-1,1c-0.4-0.1-0.6-0.7-0.4-1.4c0.2-0.7,0.6-1.1,1-1&#10;&#9;&#9;&#9;C66.9,185.3,67.1,185.9,66.9,186.6z" style="fill: rgb(222, 223, 224);"/>
	</g>
	<g transform="matrix(1, 0, 0, 1, 0, 0)">
		<path class="st21" d="M68.3,187c-0.2,0.7-0.6,1.1-1,1c-0.4-0.1-0.6-0.7-0.4-1.4c0.2-0.7,0.6-1.1,1-1&#10;&#9;&#9;&#9;C68.4,185.7,68.5,186.3,68.3,187z" style="fill: rgb(222, 223, 224);"/>
	</g>
	<g transform="matrix(1, 0, 0, 1, 0, 0)">
		<path d="M 69.7 187.199997 A 0.7 1.3 0 0 1 69 188.499997 A 0.7 1.3 0 0 1 68.3 187.199997 A 0.7 1.3 0 0 1 69 185.899997 A 0.7 1.3 0 0 1 69.7 187.199997 Z" transform="matrix(0.9661 0.258 -0.258 0.9661 50.6238 -11.4767)" class="st21" style="fill: rgb(222, 223, 224);"/>
	</g>
	<g transform="matrix(1, 0, 0, 1, 0, 0)">
		<path class="st21" d="M71.1,187.7c-0.2,0.7-0.6,1.1-1,1c-0.4-0.1-0.6-0.7-0.4-1.4c0.2-0.7,0.6-1.1,1-1&#10;&#9;&#9;&#9;C71.2,186.4,71.3,187,71.1,187.7z" style="fill: rgb(222, 223, 224);"/>
	</g>
	<g transform="matrix(1, 0, 0, 1, 0, 0)">
		<path class="st21" d="M72.6,188.1c-0.2,0.7-0.6,1.1-1,1c-0.4-0.1-0.6-0.7-0.4-1.4c0.2-0.7,0.6-1.1,1-1&#10;&#9;&#9;&#9;C72.6,186.8,72.7,187.4,72.6,188.1z" style="fill: rgb(222, 223, 224);"/>
	</g>
	<g transform="matrix(1, 0, 0, 1, 0, 0)">
		<path class="st21" d="M74,188.5c-0.2,0.7-0.6,1.1-1,1c-0.4-0.1-0.6-0.7-0.4-1.4c0.2-0.7,0.6-1.1,1-1C74,187.2,74.1,187.8,74,188.5&#10;&#9;&#9;&#9;z" style="fill: rgb(222, 223, 224);"/>
	</g>
	<g transform="matrix(1, 0, 0, 1, 0, 0)">
		<path d="M 75.399997 188.699997 A 0.7 1.3 0 0 1 74.699997 189.999997 A 0.7 1.3 0 0 1 73.999997 188.699997 A 0.7 1.3 0 0 1 74.699997 187.399997 A 0.7 1.3 0 0 1 75.399997 188.699997 Z" transform="matrix(0.9661 0.258 -0.258 0.9661 51.2016 -12.8756)" class="st21" style="fill: rgb(222, 223, 224);"/>
	</g>
	<g transform="matrix(1, 0, 0, 1, 0, 0)">
		<path class="st21" d="M80.5,190.2c-0.2,0.7-0.6,1.1-1,1c-0.4-0.1-0.6-0.7-0.4-1.4c0.2-0.7,0.6-1.1,1-1&#10;&#9;&#9;&#9;C80.5,188.9,80.7,189.6,80.5,190.2z" style="fill: rgb(222, 223, 224);"/>
	</g>
	<g transform="matrix(1, 0, 0, 1, 0, 0)">

		<path d="M 81.899997 190.399994 A 0.7 1.3 0 0 1 81.199997 191.699994 A 0.7 1.3 0 0 1 80.499997 190.399994 A 0.7 1.3 0 0 1 81.199997 189.099994 A 0.7 1.3 0 0 1 81.899997 190.399994 Z" transform="matrix(0.9662 0.2577 -0.2577 0.9662 51.8086 -14.5021)" class="st21" style="fill: rgb(222, 223, 224);"/>
	</g>
	<g transform="matrix(1, 0, 0, 1, 0, 0)">
		<path class="st21" d="M83.3,191c-0.2,0.7-0.6,1.1-1,1c-0.4-0.1-0.6-0.7-0.4-1.4c0.2-0.7,0.6-1.1,1-1&#10;&#9;&#9;&#9;C83.4,189.7,83.5,190.3,83.3,191z" style="fill: rgb(222, 223, 224);"/>
	</g>
	<g transform="matrix(1, 0, 0, 1, 0, 0)">
		<path class="st21" d="M84.7,191.4c-0.2,0.7-0.6,1.1-1,1c-0.4-0.1-0.6-0.7-0.4-1.4c0.2-0.7,0.6-1.1,1-1&#10;&#9;&#9;&#9;C84.8,190,84.9,190.7,84.7,191.4z" style="fill: rgb(222, 223, 224);"/>
	</g>
	<g transform="matrix(1, 0, 0, 1, 0, 0)">
		<path class="st21" d="M86.2,191.7c-0.2,0.7-0.6,1.1-1,1c-0.4-0.1-0.6-0.7-0.4-1.4c0.2-0.7,0.6-1.1,1-1&#10;&#9;&#9;&#9;C86.2,190.4,86.3,191.1,86.2,191.7z" style="fill: rgb(222, 223, 224);"/>
	</g>
	<g transform="matrix(1, 0, 0, 1, 0, 0)">

		<path d="M 87.600002 191.899994 A 0.7 1.3 0 0 1 86.900002 193.199994 A 0.7 1.3 0 0 1 86.200002 191.899994 A 0.7 1.3 0 0 1 86.900002 190.599994 A 0.7 1.3 0 0 1 87.600002 191.899994 Z" transform="matrix(0.9661 0.2582 -0.2582 0.9661 52.4922 -15.9163)" class="st21" style="fill: rgb(222, 223, 224);"/>
	</g>
	<g transform="matrix(1, 0, 0, 1, 0, 0)">
		<path class="st21" d="M89,192.5c-0.2,0.7-0.6,1.1-1,1c-0.4-0.1-0.6-0.7-0.4-1.4c0.2-0.7,0.6-1.1,1-1C89,191.2,89.1,191.8,89,192.5&#10;&#9;&#9;&#9;z" style="fill: rgb(222, 223, 224);"/>
	</g>
	<g transform="matrix(1, 0, 0, 1, 0, 0)">
		<path class="st21" d="M90.4,192.9c-0.2,0.7-0.6,1.1-1,1c-0.4-0.1-0.6-0.7-0.4-1.4c0.2-0.7,0.6-1.1,1-1&#10;&#9;&#9;&#9;C90.4,191.6,90.5,192.2,90.4,192.9z" style="fill: rgb(222, 223, 224);"/>
	</g>
	<g transform="matrix(1, 0, 0, 1, 0, 0)">
		<path class="st21" d="M91.8,193.2c-0.2,0.7-0.6,1.1-1,1c-0.4-0.1-0.6-0.7-0.4-1.4c0.2-0.7,0.6-1.1,1-1&#10;&#9;&#9;&#9;C91.8,191.9,92,192.6,91.8,193.2z" style="fill: rgb(222, 223, 224);"/>
	</g>
	<g transform="matrix(1, 0, 0, 1, 0, 0)">
		<path class="st21" d="M93.2,193.6c-0.2,0.7-0.6,1.1-1,1s-0.6-0.7-0.4-1.4c0.2-0.7,0.6-1.1,1-1C93.2,192.3,93.4,192.9,93.2,193.6z" style="fill: rgb(222, 223, 224);"/>
	</g>
	<g transform="matrix(1, 0, 0, 1, 0, 0)">
		<path class="st21" d="M94.6,194c-0.2,0.7-0.6,1.1-1,1c-0.4-0.1-0.6-0.7-0.4-1.4c0.2-0.7,0.6-1.1,1-1&#10;&#9;&#9;&#9;C94.6,192.7,94.8,193.3,94.6,194z" style="fill: rgb(222, 223, 224);"/>
	</g>
	<path class="st23" d="M110.2,118.3c-3.9-7.6-11.5-9.3-11.5-9.3s-7.4-2.3-14.6,2.3c-4.2,2.7-7.5,7-8.7,11.5&#10;&#9;&#9;c-1.2,4.5-0.5,10,1.6,13.7l13.4,3.6l13.4,3.6c3.7-2.1,7-6.6,8.2-11.1C113.2,128.1,112.5,122.7,110.2,118.3z" style="fill: rgb(249, 250, 251);" transform="matrix(1, 0, 0, 1, 0, 0)"/>
	<path class="st18" d="M108,120.5c-3.5-6.8-10.2-8.3-10.2-8.3s-6.5-2.1-12.9,2.1c-3.7,2.4-6.7,6.3-7.8,10.3c-1.1,4-0.5,9,1.4,12.3&#10;&#9;&#9;l11.9,3.2l11.9,3.2c3.3-1.9,6.3-5.9,7.3-9.9C110.7,129.3,110,124.5,108,120.5z" style="fill: rgb(27, 178, 204);" transform="matrix(1, 0, 0, 1, 0, 0)"/>
	<g transform="matrix(1, 0, 0, 1, 0, 0)">
		<path class="st24" d="M76.8,126.7c-0.4,3.5,0.2,7.4,1.8,10.2l23.7,6.3c2.5-1.5,4.9-4.2,6.3-7.2c-4.8,2.3-10.9,2.9-17,1.3&#10;&#9;&#9;&#9;C85,135.5,79.7,131.5,76.8,126.7z" style="fill: rgb(25, 165, 189);"/>
	</g>

	<path class="st2" d="M81.9,128.6c1,1,2.2,1.9,3.4,2.7c1-6.6,4-12.6,9-17.2c0-0.1,0.1-0.1,0.1-0.2c-3.5,0-7,1.2-9.5,3.2&#10;&#9;&#9;c-2.6,2.2-4.6,5.9-4.9,9.1L81.9,128.6z" style="fill: rgb(255, 255, 255); opacity: 0.1;" transform="matrix(1, 0, 0, 1, 0, 0)"/>
	<g transform="matrix(1, 0, 0, 1, 0, 0)">
		<path class="st25" d="M69.8,167.7l10.9,1.3l0.1-0.3l1.9,0.5l1.9,0.5l-0.1,0.3l10.1,4.3c0.8-2.8,1.2-4.4,3.1-11.5&#10;&#9;&#9;&#9;c3.3-12.3,3.8-18.3,3.8-18.3l-22.8-6.1c0,0-2.5,5.4-5.8,17.8C71,163.2,70.5,164.8,69.8,167.7z" style="fill: rgb(242, 247, 246);"/>
	</g>
	<g transform="matrix(1, 0, 0, 1, 0, 0)">
		<path class="st26" d="M67.4,178.7c0,0-5.7-0.5-6.5,2.4c-0.8,3-1,3.7-1,3.7l15.5,4.1l4-15.1L69,171.1&#10;&#9;&#9;&#9;C68.6,172.9,68.1,175.2,67.4,178.7z" style="fill: rgb(249, 255, 254);"/>
	</g>
	<g transform="matrix(1, 0, 0, 1, 0, 0)">
		<path class="st26" d="M69.8,167.7c-0.2,0.9-0.5,2-0.8,3.4l10.3,2.8l1.3-4.9L69.8,167.7z" style="fill: rgb(249, 255, 254);"/>
	</g>
	<g transform="matrix(1, 0, 0, 1, 0, 0)">
		<path class="st26" d="M69.5,143.1c-1.2,4.5-5,18.6-5,18.6s-1.7,4.2,4.5,5.9l0.6,0.1l0.3,0c0.7-2.9,1.1-4.4,3-11.5&#10;&#9;&#9;&#9;c3.3-12.3,5.8-17.8,5.8-17.8S70.7,138.6,69.5,143.1z" style="fill: rgb(249, 255, 254);"/>
	</g>
	<g transform="matrix(1, 0, 0, 1, 0, 0)">
		<path d="M 80.69999694824219 168.89999389648438 L 82.5999984741211 169.1999969482422 L 80.80000305175781 168.6999969482422 Z" class="st26" style="fill: rgb(249, 255, 254);"/>
	</g>
	<g transform="matrix(1, 0, 0, 1, 0, 0)">
		<path class="st26" d="M83.1,174.8l-4,15.1l15.5,4.1c0,0,0.2-0.7,1-3.7c0.8-3-4.4-5.3-4.4-5.3c1-3.3,1.8-5.7,2.3-7.4L83.1,174.8z" style="fill: rgb(249, 255, 254);"/>
	</g>
	<g transform="matrix(1, 0, 0, 1, 0, 0)">
		<path class="st26" d="M94.5,174.3l0.2,0.1l0.5,0.2c6.2,1.7,6.8-2.9,6.8-2.9s3.8-14.1,5-18.5c1.2-4.5-5.6-8.7-5.6-8.7&#10;&#9;&#9;&#9;s-0.6,6-3.8,18.3C95.7,169.9,95.4,171.4,94.5,174.3z" style="fill: rgb(249, 255, 254);"/>
	</g>
	<g transform="matrix(1, 0, 0, 1, 0, 0)">
		<path class="st26" d="M94.5,174.3l-10.1-4.3l-1.3,4.9l10.4,2.8C93.9,176.2,94.3,175.2,94.5,174.3z" style="fill: rgb(249, 255, 254);"/>
	</g>
	<g transform="matrix(1, 0, 0, 1, 0, 0)">
		<path d="M 82.5999984741211 169.1999969482422 L 84.4000015258789 169.89999389648438 L 84.5 169.6999969482422 Z" class="st26" style="fill: rgb(249, 255, 254);"/>
	</g>
	<path class="st21" d="M103.4,145.2c-0.1,0.4-0.8,0.5-1.5,0.3L77.8,139c-0.7-0.2-1.2-0.6-1.1-1l0.4-1.4c0.1-0.4,0.8-0.5,1.5-0.3&#10;&#9;&#9;l24.2,6.5c0.7,0.2,1.2,0.6,1.1,1L103.4,145.2z" style="fill: rgb(222, 223, 224);" transform="matrix(1, 0, 0, 1, 0, 0)"/>
	<path d="M 76.900002 145.899994 H 95.500002 V 165.699993 H 76.900002 V 145.899994 Z" transform="matrix(0.9661000370979309, 0.25829997658729553, -0.25829997658729553, 0.9661000370979309, 43.17419815063474, -16.981000900268555)" class="st27" style="fill: rgb(226, 103, 87);"/>

	<path d="M 102.900002 151.600006 H 103.900002 V 158.800006 H 102.900002 V 151.600006 Z" transform="matrix(0.25839999318122864, -0.9660000205039978, 0.9660000205039978, 0.25839999318122864, -73.29290008544923, 215.03269958496094)" class="st27" style="fill: rgb(226, 103, 87);"/>
	<path d="M 99.300003 165.300003 H 100.300003 V 172.500003 H 99.300003 V 165.300003 Z" transform="matrix(0.25780001282691956, -0.9661999940872192, 0.9661999940872192, 0.25780001282691956, -89.12899780273439, 221.73069763183594)" class="st27" style="fill: rgb(226, 103, 87);"/>
	<path d="M 102.5 153.399994 H 103.5 V 160.599994 H 102.5 V 153.399994 Z" transform="matrix(0.25829997658729553, -0.9661000370979309, 0.9661000370979309, 0.25829997658729553, -75.3415985107422, 215.9071044921875)" class="st27" style="fill: rgb(226, 103, 87);"/>
	<path d="M 70.699997 144.899994 H 71.699997 V 152.099994 H 70.699997 V 144.899994 Z" transform="matrix(0.2587999999523163, -0.9659000039100647, 0.9659000039100647, 0.2587999999523163, -90.71179962158205, 178.8430938720703)" class="st27" style="fill: rgb(226, 103, 87);"/>
	<path d="M 71.199997 143.100006 H 72.199997 V 150.300006 H 71.199997 V 143.100006 Z" transform="matrix(0.2586999833583832, -0.9660000205039978, 0.9660000205039978, 0.2586999833583832, -88.6539993286133, 177.9969024658203)" class="st27" style="fill: rgb(226, 103, 87);"/>
	<path d="M 101 158.899994 H 102 V 166.099994 H 101 V 158.899994 Z" transform="matrix(0.2581999897956848, -0.9661000370979309, 0.9661000370979309, 0.2581999897956848, -81.75109863281251, 218.57369995117188)" class="st27" style="fill: rgb(226, 103, 87);"/>
	<path d="M 100.5 160.699997 H 101.5 V 167.899997 H 100.5 V 160.699997 Z" transform="matrix(0.25839999318122864, -0.9660000205039978, 0.9660000205039978, 0.25839999318122864, -83.81490325927736, 219.4010009765625)" class="st27" style="fill: rgb(226, 103, 87);"/>
	<path d="M 87.599998 170.699997 H 88.599998 V 182.699997 H 87.599998 V 170.699997 Z" transform="matrix(0.2581999897956848, -0.9661000370979309, 0.9661000370979309, 0.2581999897956848, -105.3050994873047, 216.1721954345703)" class="st18" style="fill: rgb(27, 178, 204);"/>
	<path d="M 87.199997 172.399994 H 88.199997 V 184.399994 H 87.199997 V 172.399994 Z" transform="matrix(0.258899986743927, -0.9659000039100647, 0.9659000039100647, 0.258899986743927, -107.38580322265626, 216.8950958251953)" class="st18" style="fill: rgb(27, 178, 204);"/>
	<path d="M 86.099998 176.399994 H 87.099998 V 188.399994 H 86.099998 V 176.399994 Z" transform="matrix(0.258899986743927, -0.9659000039100647, 0.9659000039100647, 0.258899986743927, -111.99109649658205, 218.81109619140625)" class="st27" style="fill: rgb(226, 103, 87);"/>
	<path d="M 73.599998 166.899994 H 74.599998 V 178.899994 H 73.599998 V 166.899994 Z" transform="matrix(0.25829997658729553, -0.9661000370979309, 0.9661000370979309, 0.25829997658729553, -112.08370208740236, 199.843505859375)" class="st18" style="fill: rgb(27, 178, 204);"/>
	<path d="M 73.099998 168.699997 H 74.099998 V 180.699997 H 73.099998 V 168.699997 Z" transform="matrix(0.2578999996185303, -0.9661999940872192, 0.9661999940872192, 0.2578999996185303, -114.1280975341797, 200.77099609375)" class="st18" style="fill: rgb(27, 178, 204);"/>
	<path d="M 72.099998 172.600006 H 73.099998 V 184.600006 H 72.099998 V 172.600006 Z" transform="matrix(0.25780001282691956, -0.9661999940872192, 0.9661999940872192, 0.25780001282691956, -118.73410034179689, 202.70449829101562)" class="st27" style="fill: rgb(226, 103, 87);"/>
	<path d="M 68.699997 152.199997 H 69.699997 V 159.399997 H 68.699997 V 152.199997 Z" transform="matrix(0.2581999897956848, -0.9661000370979309, 0.9661000370979309, 0.2581999897956848, -99.16259765625001, 182.44569396972656)" class="st27" style="fill: rgb(226, 103, 87);"/>
	<path d="M 69.199997 150.399994 H 70.199997 V 157.599994 H 69.199997 V 150.399994 Z" transform="matrix(0.25839999318122864, -0.9660000205039978, 0.9660000205039978, 0.25839999318122864, -97.11100006103517, 181.5717010498047)" class="st27" style="fill: rgb(226, 103, 87);"/>
	<path d="M 67.5 156.800003 H 68.5 V 164.000003 H 67.5 V 156.800003 Z" transform="matrix(0.2578999996185303, -0.9661999940872192, 0.9661999940872192, 0.2578999996185303, -104.49929809570314, 184.72869873046875)" class="st27" style="fill: rgb(226, 103, 87);"/>
	<path d="M 81 147.600006 H 86.4 V 150.800006 H 81 V 147.600006 Z" transform="matrix(0.9661000370979309, 0.25829997658729553, -0.25829997658729553, 0.9661000370979309, 41.400100708007784, -16.5718994140625)" class="st26" style="fill: rgb(249, 255, 254);"/>
	<path d="M 78.699997 156.5 H 84.099997 V 159.7 H 78.699997 V 156.5 Z" transform="matrix(0.9661000370979309, 0.25829997658729553, -0.25829997658729553, 0.9661000370979309, 43.60300064086911, -15.66100025177002)" class="st26" style="fill: rgb(249, 255, 254);"/>
	<path d="M 80.099998 152.5 H 89.399999 V 153.8 H 80.099998 V 152.5 Z" transform="matrix(0.9661000370979309, 0.25829997658729553, -0.25829997658729553, 0.9661000370979309, 42.438899993896456, -16.690900802612305)" class="st26" style="fill: rgb(249, 255, 254);"/>
	<path d="M 79.599998 154.399994 H 88.899999 V 155.699994 H 79.599998 V 154.399994 Z" transform="matrix(0.9661000370979309, 0.25829997658729553, -0.25829997658729553, 0.9661000370979309, 42.9081001281738, -16.49690055847168)" class="st26" style="fill: rgb(249, 255, 254);"/>
	<path d="M 77.699997 161.199997 H 83.199997 V 162.499997 H 77.699997 V 161.199997 Z" transform="matrix(0.9661000370979309, 0.2580999732017517, -0.2580999732017517, 0.9661000370979309, 44.492000579833956, -15.277000427246094)" class="st26" style="fill: rgb(249, 255, 254);"/>
	<path d="M 88.800003 149.699997 H 94.200003 V 152.999997 H 88.800003 V 149.699997 Z" transform="matrix(0.9661000370979309, 0.25829997658729553, -0.25829997658729553, 0.9661000370979309, 42.19580078124997, -18.49959945678711)" class="st26" style="fill: rgb(249, 255, 254);"/>
	<path d="M 86.400002 158.600006 H 91.800002 V 161.800006 H 86.400002 V 158.600006 Z" transform="matrix(0.9661000370979309, 0.25829997658729553, -0.25829997658729553, 0.9661000370979309, 44.4003982543945, -17.589099884033203)" class="st26" style="fill: rgb(249, 255, 254);"/>
	<path d="M 87.900002 154.100006 H 93.400002 V 155.400006 H 87.900002 V 154.100006 Z" transform="matrix(0.9661000370979309, 0.2580999732017517, -0.2580999732017517, 0.9661000370979309, 43.008201599121065, -18.146900177001953)" class="st26" style="fill: rgb(249, 255, 254);"/>
	<path d="M 87.400002 156 H 92.900002 V 157.3 H 87.400002 V 156 Z" transform="matrix(0.9660000205039978, 0.25839999318122864, -0.25839999318122864, 0.9660000205039978, 43.532600402832, -17.96780014038086)" class="st26" style="fill: rgb(249, 255, 254);"/>
	<path d="M 81.199997 162.699997 H 90.999997 V 163.999997 H 81.199997 V 162.699997 Z" transform="matrix(0.9661000370979309, 0.25829997658729553, -0.25829997658729553, 0.9661000370979309, 45.12590026855466, -16.702299118041992)" class="st26" style="fill: rgb(249, 255, 254);"/>















	<g transform="matrix(1, 0, 0, 1, 0, 0)" style="opacity: 0.1;">
		<path class="st2" d="M81,212.1c0-3.2,2.9-5.9,6.6-5.9h62.2c3.6,0,6.6,2.6,6.6,5.9v2.3c0,3.2-3,5.9-6.6,5.9H87.6&#10;&#9;&#9;&#9;&#9;c-3.6,0-6.6-2.6-6.6-5.9V212.1z" style="fill: rgb(255, 255, 255);"/>
	</g>
	<g transform="matrix(1, 0, 0, 1, 0, 0)" style="opacity: 0.1;">
		<path class="st2" d="M143.8,208.7c0,0-8.5-6.5,0-14.8h-35.2v12.4" style="fill: rgb(255, 255, 255);"/>
	</g>
	<g transform="matrix(1, 0, 0, 1, 7.953757410362925, 1.5907514576797084)">
		<path class="st2" d="M105.1,130.3c13.1,1.3,26.7-0.6,37-9.5c4.3-3.7,12.4-14.9,2.9-18c-10-3.3-14.1,11.7-13.4,18.8&#10;&#9;&#9;&#9;c0.5,5.5,3.4,10.6,6.5,15.1c3,4.5,6.7,9.7,11.3,12.6c6.2,3.9,18.3,0.1,18.7-8c0.2-4-5.6-5.1-8.3-5.5c-5-0.7-10.6,0.7-14.9,3.3&#10;&#9;&#9;&#9;c-3,1.9-4.7,5.7-4.9,9.2c-0.5,8.6-0.9,17.1-2.2,25.7c-0.5,3.6-1.6,7-3.2,10.3c-2.6,5.4-7.7,3.8-10.4-0.4c-3.4-5.2-4.7-16.1,3-17.8&#10;&#9;&#9;&#9;c4.3-1,9.3,1,13.3,2.4c5.7,2.1,10.9,5,16.1,8.1c13.1,7.6,25.3,16.4,38.2,24.3c11,6.7,22.4,13.4,35.4,15c12.3,1.5,23.5-5,31.2-14.1&#10;&#9;&#9;&#9;c8.7-10.1,14.5-22.6,19.3-34.9c4.8-12.3,7.3-25.7,4.9-38.9c-4.5-23.8-28.1-35.9-50.8-31.7c-7.9,1.4-15.3,5.1-22.3,8.8&#10;&#9;&#9;&#9;c-1.4,0.8-0.2,2.9,1.3,2.2c13.7-7.2,27.9-11.9,43.3-7.6c13.2,3.7,22.3,14.4,25.7,27.4c3.9,14.6-0.7,30.4-6.4,43.8&#10;&#9;&#9;&#9;c-5.7,13.5-13.1,28.5-25.4,37.1c-13.8,9.7-29.9,4.6-43.4-2.5c-13-6.9-25.1-15.4-37.4-23.3c-9.8-6.4-19.9-12.8-31.1-16.6&#10;&#9;&#9;&#9;c-6-2.1-14.8-4-18.6,2.6c-5.1,8.6,5.5,31.1,14.8,19.6c4.8-5.9,5.4-15,6.1-22.3c0.6-5.9,0.3-12,1.1-17.9c0.8-5.7,5.9-7.9,11-9&#10;&#9;&#9;&#9;c2.8-0.6,5.7-0.3,8.4,0.3c3.5,2.5,4,4.7,1.3,6.5c-0.7,0.6-1.4,1.1-2.2,1.6c-5.6,3.5-11.6,0.2-15.3-4.2c-6.9-8.4-14.2-18-11.1-29.4&#10;&#9;&#9;&#9;c1.2-4.3,6.4-10.9,11.1-7.1c4.8,3.9-3.5,11.3-6.3,13.7c-9.3,8.1-22.7,9.2-34.4,8C103.5,127.7,103.5,130.2,105.1,130.3L105.1,130.3&#10;&#9;&#9;&#9;z" style="fill: rgb(255, 255, 255);"/>
	</g>
	<path class="st2" d="M108.4,121.3c0,0.1-0.1,0.1-0.1,0.2c-2.6,8.3-8,14.9-15.3,19.2l9.3,2.5c3.3-1.9,6.3-5.9,7.3-9.9&#10;&#9;&#9;C110.6,129.6,110.1,125.1,108.4,121.3z" style="fill: rgb(255, 255, 255); opacity: 0.1;" transform="matrix(1, 0, 0, 1, 0, 0)"/>
	<path class="st14" d="M174.7,207.3c-0.1-1-0.4-2-0.9-2.8c2.8,0.4,5.1,2.7,5.4,5.5C178.2,208.5,176.6,207.5,174.7,207.3z" style="fill: rgb(29, 29, 27); opacity: 0.1;" transform="matrix(1, 0, 0, 1, 0, 0)"/>
</svg>