<?xml version="1.0" encoding="utf-8"?>
<!-- Generator: Adobe Illustrator 18.1.1, SVG Export Plug-In . SVG Version: 6.00 Build 0)  -->
<svg version="1.1" id="Layer_1" xmlns="http://www.w3.org/2000/svg" xmlns:xlink="http://www.w3.org/1999/xlink" x="0px" y="0px"
	 width="1400px" height="980px" viewBox="0 0 1400 980" enable-background="new 0 0 1400 980" xml:space="preserve">
<g>
	<rect fill-rule="evenodd" clip-rule="evenodd" fill="#DAFCE4" width="1400" height="980"/>
</g>
<g>
	<path fill-rule="evenodd" clip-rule="evenodd" fill="#B8E3D9" d="M1400,224.5V980H0V382.7c42,5.4,120.3,24.7,212.7,25.9
		c146.4,2,325.5-33.7,354-44.3c86.5-32.3,215.7-4.6,307-22.8c48.9-9.8,71.9-2.5,98.6,6.1c0.5-1,1-2,1.6-3.1
		c4.3-7.6,3.1-22.4,5.6-23.4c8.9-3.9,9.9,18.5,10.1,31.9c9.3,2.7,19.6,5.1,31.8,7c1.8-10.3,4.4-5.2,5.1,0.7
		c10.6,1.3,22.6,2.1,36.5,2.1c13.3,0,23.8-0.1,32.7-0.3c2.5-8.1,5.6-16.2,7.3-24.1c4.7-20.5,2.2-53.6,5.2-59.2
		c5.3-10,5.9,21.1,7.4,32.6c2.1,16.2,6.2,32.1,9.7,48.1c13.8-2.4,27.6-6.6,51.8-14c-0.1-7.6,1.9-15.5,3.5-22.8
		c0.5-2,3.8,2.2,4.4,4.1c1.7,4.8,4.1,9.7,6.1,14.6c40.1-11.6,24.5-2.1,45.4-26.7c-0.4-8.7-0.5-17.3,3.7-24.6
		c6.4-11.2,6.8-4.9,9.7-23.2c5.2-32.1,3.3,28.7,10.9,12.5c3.2-6.8,6.1-1.2,8.4,6.6C1297.5,268.9,1348.1,244.3,1400,224.5L1400,224.5
		z"/>
	<path fill-rule="evenodd" clip-rule="evenodd" fill="#FFFFFF" d="M1021.7,357.9c-10.7-1.7-21.5-3.3-32.2-5
		c3.4,96.2,6.9,226.3,10.1,288.5C1004.5,736,1014.3,452.4,1021.7,357.9L1021.7,357.9z M1219.7,582.4c-0.7,0-1.3,1.7-1.3,3.8
		c0,2.1,0.6,3.8,1.3,3.8c0.7,0,1.2-1.7,1.2-3.8C1220.9,584.1,1220.3,582.4,1219.7,582.4L1219.7,582.4z M1199.9,637.6
		c-0.3,0-0.6,0.7-0.6,1.7s0.3,1.7,0.6,1.7c0.3,0,0.6-0.8,0.6-1.7S1200.2,637.6,1199.9,637.6L1199.9,637.6z M1211.5,601.5
		c-0.3,0-0.6,0.7-0.6,1.7s0.2,1.7,0.6,1.7c0.3,0,0.6-0.8,0.6-1.7S1211.8,601.5,1211.5,601.5L1211.5,601.5z M1215.6,611.7
		c-0.3,0-0.6,0.8-0.6,1.7c0,0.9,0.2,1.7,0.6,1.7c0.3,0,0.6-0.8,0.6-1.7C1216.2,612.4,1215.9,611.7,1215.6,611.7L1215.6,611.7z
		 M1200.7,628.7c-0.1,0-0.2,1.6-0.2,3.6c0,2,0.1,3.6,0.2,3.6c0.1,0,0.2-1.6,0.2-3.6C1200.9,630.3,1200.8,628.7,1200.7,628.7
		L1200.7,628.7z M1219.6,525.4c-0.1,0-0.2,1.6-0.2,3.6c0,2,0.1,3.6,0.2,3.6c0.1,0,0.1-1.6,0.1-3.6
		C1219.7,527,1219.6,525.4,1219.6,525.4L1219.6,525.4z M1206.9,621.6c-0.1,0-0.2,1.6-0.2,3.6c0,2,0.1,3.6,0.2,3.6
		c0.1,0,0.1-1.6,0.1-3.6C1207.1,623.3,1207,621.6,1206.9,621.6L1206.9,621.6z M1221.7,642.8c-0.1,0-0.1,1.6-0.1,3.6
		c0,2,0.1,3.6,0.1,3.6c0.1,0,0.2-1.6,0.2-3.6C1221.9,644.5,1221.8,642.8,1221.7,642.8L1221.7,642.8z M1216.9,631.4
		c-0.1,0-0.2,1.6-0.2,3.6c0,2,0.1,3.6,0.2,3.6c0.1,0,0.2-1.6,0.2-3.6C1217.1,633,1217,631.4,1216.9,631.4L1216.9,631.4z
		 M1214.1,582.5c-0.2,0-0.3,3.6-0.3,8s0.2,8,0.3,8c0.2,0,0.4-3.6,0.4-8S1214.3,582.5,1214.1,582.5L1214.1,582.5z M1220.2,560.1
		c-0.2,0-0.3,3.6-0.3,8c0,4.4,0.1,7.9,0.3,7.9c0.2,0,0.3-3.6,0.3-7.9C1220.6,563.7,1220.4,560.1,1220.2,560.1L1220.2,560.1z
		 M1212.5,615.7c-0.3,0-0.5,5.3-0.5,11.8c0,6.5,0.2,11.8,0.5,11.8c0.3,0,0.5-5.3,0.5-11.8C1213.1,621,1212.8,615.7,1212.5,615.7
		L1212.5,615.7z M1202.1,492.3c-0.5,0-0.9,9.2-0.9,20.5c0,11.3,0.4,20.5,0.9,20.5c0.5,0,0.9-9.2,0.9-20.5
		C1203.1,501.5,1202.6,492.3,1202.1,492.3L1202.1,492.3z M1204.4,569.1c-0.5,0-0.9,9.2-0.9,20.5c0,11.3,0.4,20.5,0.9,20.5
		c0.5,0,0.9-9.2,0.9-20.5C1205.3,578.3,1204.9,569.1,1204.4,569.1L1204.4,569.1z M993.6,784.7c0.7,0,1.3,1.7,1.3,3.8
		c0,2.1-0.6,3.8-1.3,3.8c-0.7,0-1.3-1.7-1.3-3.8C992.3,786.4,992.9,784.7,993.6,784.7L993.6,784.7z M1013.3,839.8
		c0.3,0,0.6,0.8,0.6,1.7c0,0.9-0.2,1.7-0.6,1.7c-0.3,0-0.6-0.8-0.6-1.7C1012.8,840.6,1013,839.8,1013.3,839.8L1013.3,839.8z
		 M1001.7,803.7c0.3,0,0.6,0.8,0.6,1.7c0,0.9-0.2,1.7-0.6,1.7c-0.3,0-0.6-0.8-0.6-1.7C1001.2,804.5,1001.4,803.7,1001.7,803.7
		L1001.7,803.7z M997.6,813.9c0.3,0,0.6,0.8,0.6,1.7s-0.2,1.7-0.6,1.7c-0.3,0-0.6-0.7-0.6-1.7S997.3,813.9,997.6,813.9L997.6,813.9z
		 M1012.5,830.9c0.1,0,0.2,1.6,0.2,3.6c0,2-0.1,3.6-0.2,3.6c-0.1,0-0.1-1.6-0.1-3.6C1012.4,832.5,1012.5,830.9,1012.5,830.9
		L1012.5,830.9z M993.7,727.6c0.1,0,0.1,1.6,0.1,3.6c0,2-0.1,3.6-0.1,3.6c-0.1,0-0.2-1.6-0.2-3.6
		C993.5,729.2,993.6,727.6,993.7,727.6L993.7,727.6z M1006.4,823.9c0.1,0,0.2,1.6,0.2,3.6s-0.1,3.6-0.2,3.6c-0.1,0-0.2-1.6-0.2-3.6
		S1006.2,823.9,1006.4,823.9L1006.4,823.9z M991.5,845.1c0.1,0,0.2,1.6,0.2,3.6s-0.1,3.6-0.2,3.6c-0.1,0-0.1-1.6-0.1-3.6
		S991.4,845.1,991.5,845.1L991.5,845.1z M996.3,833.6c0.1,0,0.1,1.6,0.1,3.6c0,2-0.1,3.6-0.1,3.6c-0.1,0-0.2-1.6-0.2-3.6
		C996.2,835.2,996.2,833.6,996.3,833.6L996.3,833.6z M999.2,784.7c0.2,0,0.3,3.6,0.3,8c0,4.4-0.1,8-0.3,8c-0.2,0-0.3-3.6-0.3-8
		C998.8,788.3,999,784.7,999.2,784.7L999.2,784.7z M993,762.4c0.2,0,0.4,3.6,0.4,8s-0.2,8-0.4,8c-0.2,0-0.3-3.6-0.3-8
		S992.8,762.4,993,762.4L993,762.4z M1000.7,818c0.3,0,0.5,5.3,0.5,11.8c0,6.5-0.2,11.8-0.5,11.8c-0.3,0-0.6-5.3-0.6-11.8
		C1000.2,823.3,1000.4,818,1000.7,818L1000.7,818z M1011.1,694.5c0.5,0,0.9,9.2,0.9,20.5c0,11.4-0.4,20.5-0.9,20.5
		c-0.5,0-0.9-9.2-0.9-20.5C1010.2,703.7,1010.6,694.5,1011.1,694.5L1011.1,694.5z M1008.8,771.3c0.5,0,0.9,9.2,0.9,20.5
		c0,11.3-0.4,20.5-0.9,20.5s-0.9-9.2-0.9-20.5C1007.9,780.6,1008.3,771.3,1008.8,771.3L1008.8,771.3z M1124.5,356.7
		c28.7-3.5,72.7-16.7,99.7-26.2c-40.2,143.3-31.6,389.1-37.8,389.9c-19,2.4-8.6-161.7-3.7-211.5c-28.8,124.4-36.1,310.2-45.6,471.2
		c-14.7,0-29.4,0-44,0C1081.1,719,1100.8,473.7,1124.5,356.7L1124.5,356.7z M1096.7,359.3c-28.9,85.7-36.6,393.7-41,620.7
		c-8.4,0-16.8,0-25.2,0c-10.5-210-16.8-564.5-4.4-621.2C1049.1,359.4,1073.6,358.6,1096.7,359.3L1096.7,359.3z"/>
</g>
<g>
	<path fill-rule="evenodd" clip-rule="evenodd" fill="#A5CDC4" d="M248.2,0H1400v521.9c-2.5,4.8-4.1,9.5-6.3,14.2
		c-6.6,14.6-4.1-169.6-11.8-170.3c-8.2-0.8-2.2,22-10.4,22.2c-6.3,0.1-4.8-76.7-13.3-77c-9.5-0.4-9.7,44.6-14.8,44.4
		c-6.6-0.2,4-86.4-24.4-107c-91.3-66.2-171-149.6-280.4-122.2c-11.4,2.9-12.6,161.8-22.6,161.1c-25-1.8-33.5-148.2-45.9-148.1
		c-13.3,0.1-28.7,185.3-34.1,185.2c-8.7-0.2-6.4-95.7-16.3-96.3c-25.7-1.5-24.4,144.8-35.6,143.7c-13.8-1.4-2.2-148.3-22.2-149.6
		c-6.8-0.5,3.5,90.8-7.4,90c-7.1-0.5-3.5-86.9-10.4-87c-12.5-0.2-12.3,199.7-20.8,199.9c-6.8,0.2-6.4-117.2-16.3-117
		c-9.5,0.2-13.1,73.3-20.7,72.6c-6.6-0.7-5.3-144.1-20.8-143.7c-30.5,0.9-36.7,213.1-56.3,213.3c-27.1,0.3-14.9-150.8-121.5-228.1
		c-39.4-28.6-93.8-30.1-134.8-56.2C379.4,119,325.1,38.3,248.2,0L248.2,0z M1106.3,980H0V383.7c30.9,14.1,67.1,48.2,97.4,56.2
		c27.9,7.3,57.7,3.5,86,8.9c11.1,2.1,20.1,11.4,31.2,13.3c64.8,11.4,129.9,23,195.6,26.7c67.6,3.7,135.5,0.8,203-4.4
		c27.7-2.2,53.8-15.8,81.5-17.8c28.6-2,57.6,1.5,85.9,5.9c13.4,2.1,26.2,7.6,38.5,13.3c1.4,0.6-1,3.4,0,4.4c6.2,6.6,25.2,2.4,33.9,0
		c32-9,34.6,25.8,44.6,44.4c14.5,27,0.7,61.6,5.9,91.8c1.4,8.1,11.9,12.6,13.3,20.7c6.1,34.6,2.3,70.6,8.9,105.2
		c2,10.6,11.9,18.2,16.3,28.1c4.6,10.5,3.3,23.7,10.4,32.6c20.2,25.4,45.5,46.4,69.6,68.1c1.9,1.7,5.9-0.3,7.4,1.7
		C1052,912.5,1125.8,966.4,1106.3,980L1106.3,980z"/>
	<path fill-rule="evenodd" clip-rule="evenodd" fill="#FFFFFF" d="M853,490h-33.9c3.5,100,8,247.7,11.4,312
		C835.6,899.7,845.4,587.5,853,490L853,490z M825.3,819.3c0.7,0,1.2,1.7,1.2,3.8c0,2.1-0.6,3.8-1.2,3.8c-0.7,0-1.3-1.7-1.3-3.8
		C824.1,821,824.6,819.3,825.3,819.3L825.3,819.3z M845.1,874.5c0.3,0,0.6,0.8,0.6,1.7c0,0.9-0.2,1.7-0.6,1.7
		c-0.3,0-0.5-0.7-0.5-1.7C844.5,875.2,844.8,874.5,845.1,874.5L845.1,874.5z M833.5,838.3c0.3,0,0.6,0.8,0.6,1.7
		c0,0.9-0.3,1.7-0.6,1.7c-0.3,0-0.6-0.7-0.6-1.7C832.9,839.1,833.2,838.3,833.5,838.3L833.5,838.3z M829.3,848.5
		c0.3,0,0.6,0.8,0.6,1.7c0,0.9-0.2,1.7-0.6,1.7c-0.3,0-0.6-0.8-0.6-1.7C828.8,849.3,829,848.5,829.3,848.5L829.3,848.5z
		 M844.3,865.6c0.1,0,0.1,1.6,0.1,3.6c0,2-0.1,3.6-0.1,3.6c-0.1,0-0.2-1.6-0.2-3.6C844.1,867.2,844.2,865.6,844.3,865.6L844.3,865.6
		z M825.4,762.1c0.1,0,0.2,1.6,0.2,3.6c0,2-0.1,3.6-0.2,3.6c-0.1,0-0.1-1.6-0.1-3.6C825.2,763.7,825.3,762.1,825.4,762.1
		L825.4,762.1z M838.1,858.5c0.1,0,0.2,1.6,0.2,3.6c0,2-0.1,3.6-0.2,3.6s-0.2-1.6-0.2-3.6C837.9,860.1,838,858.5,838.1,858.5
		L838.1,858.5z M823.3,879.8c0.1,0,0.1,1.6,0.1,3.6c0,2-0.1,3.6-0.1,3.6c-0.1,0-0.2-1.6-0.2-3.6
		C823.1,881.4,823.1,879.8,823.3,879.8L823.3,879.8z M828,868.2c0.1,0,0.2,1.6,0.2,3.6c0,2-0.1,3.6-0.2,3.6c-0.1,0-0.1-1.6-0.1-3.6
		C827.9,869.9,828,868.2,828,868.2L828,868.2z M830.9,819.3c0.2,0,0.3,3.6,0.3,8s-0.2,8-0.3,8c-0.2,0-0.4-3.6-0.4-8
		S830.7,819.3,830.9,819.3L830.9,819.3z M824.8,796.9c0.2,0,0.3,3.6,0.3,8c0,4.4-0.1,8-0.3,8c-0.2,0-0.4-3.6-0.4-8
		C824.4,800.5,824.5,796.9,824.8,796.9L824.8,796.9z M832.4,852.6c0.3,0,0.6,5.3,0.6,11.8s-0.2,11.8-0.6,11.8
		c-0.3,0-0.5-5.3-0.5-11.8S832.1,852.6,832.4,852.6L832.4,852.6z M842.9,729c0.5,0,0.9,9.2,0.9,20.6c0,11.3-0.4,20.5-0.9,20.5
		c-0.5,0-0.9-9.2-0.9-20.5C841.9,738.2,842.4,729,842.9,729L842.9,729z M840.6,805.9c0.5,0,0.9,9.2,0.9,20.6
		c0,11.3-0.4,20.5-0.9,20.5c-0.5,0-0.9-9.2-0.9-20.5C839.6,815.1,840.1,805.9,840.6,805.9L840.6,805.9z"/>
</g>
<g>
	<path fill-rule="evenodd" clip-rule="evenodd" fill="#607E88" d="M0,0h122.6c-37.1,103.7-30,287.1-40,286.4
		c-5.3-0.4-7-61.1-17.8-56.2c-21.4,9.9-15.5,255.3-30.8,253.3c-8.9-1.1-8.1-102.9-34.1-127V0z M155.3,0h751.9
		c3.6,17.3,6.3,33.9,2.1,46.5c-10.9,32.2-37.8,44.6-49.6,76.4c-19.4,51.9-21.3,181.1-29.3,180c-15.2-2-21.2-192.1-33.7-191
		c-16.2,1.4-31,332.7-39.6,331.8c-7.7-0.8-1.6-109.1-12.6-109.6c-17.6-0.8-11.6,91.6-21.8,91.8c-7.7,0.2-3-160.1-13.3-158.5
		c-21.7,3.3-23.3,268.4-45.9,271c-23.5,2.7-19.6-233.9-44.4-228.1c-31.1,7.3-22.2,263.5-47.4,260.7c-15.8-1.7-15.3-114.4-29.6-127.4
		c-25-22.6-9.9,67-8.9,100.7c0.9,31,1.5,63.8,14.8,91.8c16.3,34.3,35.9,103.1,71.1,88.9c42.9-17.4,24-130.7,38.5-133.3
		c22.7-4.1,6.4,133.4,44.4,183.6c16.8,22.2,20.9-72,38.5-74.1c12.7-1.4,5.5,62.5,23.7,85.9c19,24.5,57.8,25.8,80,47.4
		c19.6,19.2,16.8,59.2,41.5,71.1c63,30.4,139.9,20.4,204.4,47.4c20.9,8.7,50.3,17,78.1,26.9H0V864.6c44-7.8,96.4-3,139.3-15.1
		c27.7-7.9,56.7-15.5,79.8-32.6c25.6-18.9,47.3-44.4,62.1-72.6c10.3-19.5,12.4-43.3,10.3-65.2c-1.8-18.8-20.4-33.7-21.5-52.6
		c-3.6-60.2,9.4-120.5,7.4-180.7c-1.5-45.3,14.8-103.3-17.8-134.8c-22.9-22.2-17.1,91.8-26.7,91.8c-9.3,0-8.2-56.6-14.8-84.4
		c-15-62.6-35.3-124.2-50.4-186.9C160.7,101.9,159.6,40.7,155.3,0L155.3,0z"/>
	<path fill-rule="evenodd" clip-rule="evenodd" fill="#FFFFFF" d="M244.1,0h-75.7c7.8,222.2,18,553.4,25.5,696.8
		C205.3,915.1,227.2,218.5,244.1,0L244.1,0z M182.4,735.3c1.5,0,2.8,3.8,2.8,8.6c0,4.7-1.3,8.6-2.8,8.6c-1.6,0-2.8-3.8-2.8-8.6
		C179.6,739.2,180.8,735.3,182.4,735.3L182.4,735.3z M226.5,858.6c0.7,0,1.3,1.7,1.3,3.8c0,2.1-0.6,3.8-1.3,3.8
		c-0.7,0-1.2-1.7-1.2-3.8C225.3,860.3,225.8,858.6,226.5,858.6L226.5,858.6z M200.6,777.9c0.7,0,1.2,1.7,1.2,3.8
		c0,2.1-0.6,3.8-1.2,3.8c-0.7,0-1.3-1.7-1.3-3.8C199.3,779.6,199.9,777.9,200.6,777.9L200.6,777.9z M191.4,800.7
		c0.7,0,1.2,1.7,1.2,3.8s-0.6,3.8-1.2,3.8c-0.7,0-1.3-1.7-1.3-3.8S190.7,800.7,191.4,800.7L191.4,800.7z M224.8,838.8
		c0.2,0,0.3,3.6,0.3,8c0,4.4-0.1,8-0.3,8s-0.4-3.6-0.4-8C224.4,842.4,224.6,838.8,224.8,838.8L224.8,838.8z M182.6,607.7
		c0.2,0,0.3,3.6,0.3,8c0,4.4-0.1,8-0.3,8c-0.2,0-0.3-3.6-0.3-8C182.2,611.3,182.4,607.7,182.6,607.7L182.6,607.7z M210.9,823
		c0.2,0,0.3,3.6,0.3,8c0,4.4-0.1,8-0.3,8s-0.4-3.6-0.4-8C210.5,826.6,210.7,823,210.9,823L210.9,823z M177.8,870.4
		c0.2,0,0.3,3.6,0.3,8c0,4.4-0.2,8-0.3,8c-0.2,0-0.4-3.6-0.4-8C177.4,874,177.6,870.4,177.8,870.4L177.8,870.4z M188.5,844.7
		c0.2,0,0.3,3.6,0.3,8c0,4.4-0.2,8-0.3,8c-0.2,0-0.4-3.6-0.4-8C188.1,848.3,188.3,844.7,188.5,844.7L188.5,844.7z M194.9,735.5
		c0.4,0,0.8,8,0.8,17.8c0,9.9-0.4,17.8-0.8,17.8c-0.5,0-0.8-8-0.8-17.8C194.1,743.5,194.4,735.5,194.9,735.5L194.9,735.5z
		 M181.1,685.4c0.5,0,0.8,8,0.8,17.8c0,9.8-0.3,17.8-0.8,17.8c-0.5,0-0.8-8-0.8-17.8C180.3,693.4,180.7,685.4,181.1,685.4
		L181.1,685.4z M198.3,809.8c0.7,0,1.2,11.8,1.2,26.4c0,14.6-0.5,26.4-1.2,26.4c-0.7,0-1.2-11.8-1.2-26.4
		C197.1,821.6,197.6,809.8,198.3,809.8L198.3,809.8z M221.6,533.7c1.2,0,2.1,20.5,2.1,45.9c0,25.4-0.9,45.9-2.1,45.9
		c-1.2,0-2.1-20.6-2.1-45.9C219.5,554.3,220.4,533.7,221.6,533.7L221.6,533.7z M216.5,705.6c1.2,0,2.1,20.5,2.1,45.9
		c0,25.4-0.9,45.9-2.1,45.9c-1.2,0-2.1-20.6-2.1-45.9C214.4,726.1,215.3,705.6,216.5,705.6L216.5,705.6z"/>
</g>
<g>
	<path fill-rule="evenodd" clip-rule="evenodd" fill="#161E2B" d="M0,414.7C44.4,452,30.5,517.1,30.5,578.5
		c0,36.1-19.8,261.3,35.4,262.1c9.2,0.1,38.7-193.1,61.7-115.3c1.8,6.2-1.4,235.5,55.2,170.5c6.1-7,21.6-78.8,57.3-3.8
		c8.4,17.6,31.8,15.1,44.8-1.4c25.9-32.6,81.2-257.9,83.4-258c33.7-1,17.2,149.5,30.3,193.1c7,23.1-8.8,45.3,48.2,28.5
		c12-3.5,13,20.9,37.6,36.5c8.7,5.5,98-11.2,145.7,46c0.3,0.3,48.7,26.2,77.3,43.2H0V414.7z M930.9,980c6.8-11,16.7-28.9,46-29.9
		c37.1-1.3,72.3-41.1,96.6-40c5.2,0.2,14.3-31.3-13.4-42.8c-9.2-3.8-50.1-35.4-1.2-41.6c29.9-3.8,68-41.5,18.4-72.7
		c-0.6-0.4-88.7-85.1-59-84.3c64.8,1.7,118.6-13,184.3-4.3c65.3,8.6,66.3-17.1,126.7-21.2c12.9-0.9,43.6-13.3,70.8-19.4V980H930.9z"
		/>
</g>
<g>
	<path fill-rule="evenodd" clip-rule="evenodd" fill="#FFFFFF" d="M1293,0h-15.1C1283.7,834,1277.4,1005,1293,0L1293,0z
		 M1274.2,903.7c0.5,0,0.9,1.5,0.9,3.4c0,1.9-0.4,3.4-0.9,3.4c-0.5,0-0.9-1.5-0.9-3.4C1273.3,905.2,1273.7,903.7,1274.2,903.7
		L1274.2,903.7z M1282,843c0.5,0,0.9,4.8,0.9,10.6c0,5.9-0.4,10.7-0.9,10.7c-0.5,0-0.9-4.8-0.9-10.7
		C1281.1,847.8,1281.5,843,1282,843L1282,843z M1279.6,716.6c1.2,0,2.2,12,2.2,26.7c0,14.7-1,26.7-2.2,26.7s-2.2-11.9-2.2-26.7
		C1277.4,728.6,1278.4,716.6,1279.6,716.6L1279.6,716.6z"/>
</g>
<g>
	<path fill-rule="evenodd" clip-rule="evenodd" fill="#161E2B" d="M0,296.2c44.4,27,81.2-160.6,121.7-161.7
		c44.6-1.2,16,242.4,41.5,244.4c21.9,1.6,24-210.7,45.9-208.8c18.1,1.5,12.3,122.2,20.8,122.9c19.1,1.5-6-117.7,35.6-145.1
		c32.4-21.4,60.4,10.2,86.7,38.9c15,16.5,10.7,79.2,23,81.1c18.4,2.9,21.3-177.7,33.4-131.1c15.7,61.2,14.3,244.1,30.4,248.1
		c16.1,4,19.8-182.1,41.5-231.1c32.9-74.2,172.1-74.8,241.5-32.6c21.7,13.2,22.6,153.5,40,152.5c14.9-0.8,20.1-254.7,37.8-254.4
		c9.6,0.2,11,96.4,22.2,98.5c6.1,1.1,15.3-100.4,25.5-100.3c15.9,0.1,36.5,205.7,59.6,204.2c15.6-1,43.3-138.7,49.4-221.7H0V296.2z
		 M1066.9,0c6,23,4.2,52.6,9,52.7c5,0.1,4.3-27.7,9.5-52.7H1066.9z M1118.5,0c15,96,14.6,274.8,24,274.9
		c8.4,0.1-0.1-180.9,27.8-274.9H1118.5z M1224,0c17.2,49,11.8,135.6,17.8,135.6c5.1,0.1,12.9-97.6,19.9-135.6H1224z M1270.1,0
		c9.7,67,18.8,254.4,25.4,253.8c5.5-0.5,7.3-162.8,28.8-253.8H1270.1z M1365.3,0c11.3,109,6.4,329.2,17.3,328.4
		c5.9-0.5,5.7-193.8,9.9-191c2.6,1.7,5.6,3.9,6.6,6.1V0H1365.3z"/>
</g>
</svg>
