<?xml version="1.0" encoding="iso-8859-1"?>
<!-- Generator: Adobe Illustrator 19.0.0, SVG Export Plug-In . SVG Version: 6.00 Build 0)  -->
<svg version="1.1" id="Capa_1" xmlns="http://www.w3.org/2000/svg" xmlns:xlink="http://www.w3.org/1999/xlink" x="0px" y="0px"
	 viewBox="0 0 520.008 520.008" style="enable-background:new 0 0 520.008 520.008;" xml:space="preserve">
<circle style="fill:#CCCCCC;" cx="260.008" cy="260.016" r="214.864"/>
<path style="fill:#999999;" d="M263.36,519.992l-0.096-8c2.616-0.032,5.224-0.112,7.824-0.216l0.36,7.984
	C268.76,519.88,266.072,519.96,263.36,519.992z M255.272,519.976c-2.696-0.056-5.384-0.144-8.056-0.272l0.376-7.984
	c2.608,0.12,5.216,0.2,7.848,0.256L255.272,519.976z M279.512,519.296l-0.592-7.984c2.608-0.184,5.2-0.424,7.792-0.704l0.872,7.952
	C284.904,518.856,282.216,519.096,279.512,519.296z M239.144,519.184c-2.696-0.216-5.368-0.48-8.04-0.768l0.872-7.952
	c2.592,0.288,5.2,0.528,7.824,0.752L239.144,519.184z M295.576,517.6l-1.08-7.92c2.584-0.36,5.168-0.752,7.736-1.184l1.344,7.888
	C300.928,516.84,298.256,517.24,295.576,517.6z M223.08,517.416c-2.672-0.384-5.328-0.808-7.984-1.264l1.376-7.872
	c2.56,0.448,5.144,0.848,7.736,1.216L223.08,517.416z M311.52,514.912l-1.576-7.84c2.568-0.512,5.128-1.072,7.648-1.664l1.832,7.8
	C316.808,513.816,314.176,514.384,311.52,514.912z M207.16,514.632c-2.648-0.544-5.272-1.136-7.888-1.76l1.856-7.784
	c2.536,0.608,5.088,1.176,7.656,1.712L207.16,514.632z M327.264,511.232l-2.064-7.736c2.528-0.672,5.048-1.392,7.536-2.136
	l2.296,7.656C332.472,509.8,329.872,510.528,327.264,511.232z M191.432,510.872c-2.6-0.72-5.184-1.464-7.76-2.24l2.344-7.656
	c2.496,0.768,5,1.496,7.52,2.176L191.432,510.872z M342.792,506.56l-2.56-7.576c2.488-0.832,4.952-1.712,7.408-2.624l2.8,7.504
	C347.896,504.808,345.352,505.696,342.792,506.56z M175.976,506.152c-2.552-0.872-5.096-1.792-7.608-2.744l2.832-7.488
	c2.44,0.92,4.896,1.808,7.376,2.648L175.976,506.152z M357.984,500.92l-3.032-7.408c2.44-0.992,4.84-2.016,7.232-3.08l3.248,7.312
	C362.968,498.848,360.488,499.896,357.984,500.92z M160.848,500.44c-2.496-1.032-4.96-2.096-7.416-3.192l3.296-7.296
	c2.36,1.072,4.752,2.104,7.168,3.088L160.848,500.44z M372.784,494.352l-3.472-7.2c2.36-1.144,4.696-2.312,7.008-3.52l3.704,7.096
	C377.632,491.96,375.216,493.176,372.784,494.352z M146.152,493.832c-2.424-1.176-4.816-2.4-7.184-3.648l3.736-7.08
	c2.296,1.216,4.624,2.392,6.968,3.536L146.152,493.832z M387.152,486.856l-3.92-6.968c2.28-1.288,4.544-2.6,6.776-3.944l4.144,6.84
	C391.84,484.176,389.512,485.536,387.152,486.856z M131.88,486.312c-2.344-1.328-4.664-2.696-6.952-4.096l4.16-6.832
	c2.224,1.352,4.472,2.672,6.752,3.968L131.88,486.312z M401.008,478.504l-4.344-6.72c2.192-1.424,4.376-2.872,6.52-4.36l4.544,6.576
	C405.52,475.528,403.28,477.032,401.008,478.504z M118.104,477.904c-2.256-1.472-4.496-2.976-6.696-4.512l4.576-6.56
	c2.144,1.496,4.296,2.952,6.48,4.376L118.104,477.904z M414.32,469.296l-4.768-6.44c2.104-1.552,4.176-3.144,6.232-4.752l4.952,6.28
	C418.624,466.064,416.488,467.696,414.32,469.296z M104.864,468.672c-2.16-1.608-4.288-3.248-6.4-4.92l4.968-6.264
	c2.048,1.624,4.12,3.216,6.208,4.784L104.864,468.672z M427.024,459.28l-5.144-6.128c2-1.68,3.976-3.384,5.928-5.136l5.328,5.968
	C431.128,455.792,429.088,457.552,427.024,459.28z M92.224,458.64c-2.064-1.744-4.096-3.512-6.104-5.32l5.36-5.936
	c1.928,1.744,3.896,3.456,5.896,5.136L92.224,458.64z M439.08,448.512l-5.512-5.8c1.896-1.808,3.768-3.632,5.6-5.496l5.688,5.64
	C442.952,444.776,441.024,446.664,439.08,448.512z M80.208,447.824c-1.944-1.864-3.864-3.76-5.752-5.68l5.704-5.608
	c1.832,1.856,3.696,3.704,5.576,5.504L80.208,447.824z M450.44,437.024l-5.856-5.44c1.776-1.92,3.52-3.856,5.248-5.832l6.016,5.264
	C454.072,433.056,452.272,435.056,450.44,437.024z M68.896,436.296c-1.832-1.976-3.624-3.984-5.4-6.024l6.048-5.248
	c1.712,1.976,3.456,3.92,5.224,5.848L68.896,436.296z M461.08,424.864l-6.184-5.08c1.656-2.016,3.28-4.064,4.88-6.136l6.328,4.888
	C464.456,420.68,462.784,422.792,461.08,424.864z M58.296,424.072c-1.712-2.088-3.384-4.208-5.016-6.352l6.36-4.856
	c1.584,2.08,3.192,4.128,4.84,6.152L58.296,424.072z M470.936,412.072l-6.496-4.672c1.528-2.12,3.024-4.264,4.496-6.432l6.608,4.496
	C474.04,407.696,472.504,409.888,470.936,412.072z M48.472,411.232c-1.568-2.2-3.112-4.416-4.608-6.664l6.656-4.44
	c1.456,2.168,2.944,4.32,4.472,6.448L48.472,411.232z M479.968,398.704l-6.768-4.28c1.392-2.192,2.752-4.416,4.072-6.664
	l6.904,4.048C482.816,394.136,481.408,396.432,479.968,398.704z M39.472,397.776c-1.432-2.28-2.824-4.584-4.184-6.912l6.904-4.048
	c1.32,2.264,2.68,4.504,4.064,6.728L39.472,397.776z M488.16,384.808l-7.016-3.84c1.256-2.288,2.472-4.592,3.656-6.92l7.128,3.64
	C490.704,380.072,489.448,382.456,488.16,384.808z M31.312,383.8c-1.288-2.376-2.536-4.768-3.752-7.176l7.144-3.592
	c1.176,2.336,2.4,4.664,3.64,6.96L31.312,383.8z M495.464,370.432l-7.232-3.408c1.104-2.352,2.168-4.728,3.2-7.12l7.344,3.168
	C497.712,365.544,496.608,368,495.464,370.432z M24.032,369.32c-1.144-2.448-2.232-4.912-3.296-7.408l7.36-3.144
	c1.032,2.416,2.096,4.808,3.184,7.168L24.032,369.32z M501.856,355.632l-7.44-2.952c0.96-2.424,1.88-4.856,2.768-7.32l7.528,2.704
	C503.808,350.6,502.848,353.136,501.856,355.632z M17.688,354.424c-0.984-2.52-1.928-5.056-2.832-7.608l7.544-2.672
	c0.872,2.48,1.792,4.928,2.744,7.36L17.688,354.424z M507.336,340.432l-7.608-2.488c0.808-2.472,1.576-4.96,2.296-7.472l7.688,2.2
	C508.96,335.28,508.176,337.864,507.336,340.432z M12.264,339.136c-0.824-2.568-1.6-5.152-2.336-7.752l7.688-2.184
	c0.72,2.504,1.472,5.008,2.272,7.504L12.264,339.136z M511.848,324.888l-7.752-1.984c0.648-2.52,1.256-5.064,1.832-7.632l7.8,1.768
	C513.144,319.672,512.512,322.288,511.848,324.888z M7.832,323.56c-0.648-2.6-1.264-5.216-1.84-7.848l7.816-1.72
	c0.56,2.552,1.168,5.112,1.8,7.632L7.832,323.56z M515.376,309.136l-7.856-1.512c0.496-2.552,0.944-5.12,1.352-7.704l7.904,1.248
	C516.352,303.832,515.88,306.488,515.376,309.136z M4.384,307.776c-0.48-2.632-0.928-5.288-1.344-7.952l7.904-1.216
	c0.4,2.584,0.832,5.168,1.312,7.736L4.384,307.776z M517.912,293.168l-7.936-1.016c0.328-2.576,0.624-5.168,0.864-7.784l7.968,0.752
	C518.552,287.824,518.256,290.496,517.912,293.168z M1.936,291.824c-0.328-2.672-0.608-5.352-0.856-8.04l7.968-0.736
	c0.232,2.608,0.512,5.208,0.832,7.808L1.936,291.824z M519.464,277.064l-7.984-0.512c0.168-2.6,0.304-5.208,0.392-7.832l8,0.28
	C519.768,271.696,519.632,274.384,519.464,277.064z M0.48,275.72c-0.16-2.68-0.28-5.368-0.36-8.072l8-0.232
	c0.08,2.624,0.184,5.232,0.344,7.832L0.48,275.72z M520.008,260.904h-8v-0.888c0-2.616-0.04-5.232-0.128-7.824l8-0.264
	c0.088,2.68,0.128,5.376,0.128,8.088V260.904z M8,259.584l-8-0.024c0.008-2.712,0.056-5.408,0.144-8.088l8,0.264
	C8.056,254.344,8.008,256.96,8,259.584z M511.528,244.368c-0.168-2.616-0.36-5.216-0.608-7.816l7.968-0.752
	c0.248,2.672,0.464,5.368,0.624,8.064L511.528,244.368z M8.512,243.904l-7.984-0.496c0.168-2.688,0.384-5.384,0.632-8.056
	l7.968,0.752C8.872,238.696,8.672,241.296,8.512,243.904z M510.088,228.752c-0.328-2.6-0.688-5.192-1.08-7.776l7.904-1.2
	c0.408,2.656,0.784,5.312,1.112,7.992L510.088,228.752z M9.976,228.312l-7.936-0.984c0.336-2.688,0.712-5.352,1.136-8.016
	l7.904,1.248C10.672,223.136,10.296,225.72,9.976,228.312z M507.68,213.272c-0.488-2.584-1.008-5.152-1.56-7.696l7.816-1.704
	c0.568,2.624,1.112,5.264,1.608,7.912L507.68,213.272z M12.416,212.848l-7.856-1.504c0.504-2.648,1.048-5.288,1.624-7.904L14,205.16
	C13.432,207.72,12.904,210.28,12.416,212.848z M504.32,197.976c-0.648-2.536-1.336-5.064-2.048-7.576l7.688-2.184
	c0.744,2.576,1.448,5.176,2.112,7.8L504.32,197.976z M15.816,197.544l-7.752-1.984c0.664-2.608,1.376-5.208,2.12-7.8l7.688,2.216
	C17.144,192.496,16.464,195.016,15.816,197.544z M499.992,182.912c-0.8-2.496-1.632-4.968-2.512-7.432l7.528-2.704
	c0.912,2.536,1.784,5.112,2.608,7.696L499.992,182.912z M20.144,182.512l-7.608-2.488c0.84-2.568,1.704-5.12,2.608-7.64l7.528,2.688
	C21.8,177.528,20.952,180,20.144,182.512z M494.72,168.112c-0.952-2.44-1.944-4.856-2.976-7.264l7.36-3.16
	c1.064,2.488,2.088,4.984,3.072,7.504L494.72,168.112z M25.432,167.752l-7.44-2.936c0.984-2.496,2.008-4.984,3.072-7.456
	l7.344,3.168C27.376,162.92,26.384,165.328,25.432,167.752z M488.536,153.68c-1.112-2.376-2.248-4.728-3.432-7.056l7.144-3.608
	c1.208,2.408,2.4,4.832,3.536,7.288L488.536,153.68z M31.608,153.4l-7.248-3.376c1.136-2.44,2.312-4.856,3.52-7.256l7.144,3.608
	C33.848,148.696,32.712,151.04,31.608,153.4z M481.464,139.664c-1.248-2.296-2.536-4.576-3.856-6.832l6.904-4.048
	c1.368,2.336,2.688,4.68,3.984,7.056L481.464,139.664z M38.656,139.472l-7.016-3.84c1.288-2.36,2.616-4.696,3.968-7.016l6.904,4.048
	C41.192,134.896,39.912,137.176,38.656,139.472z M473.536,126.128c-1.4-2.208-2.824-4.4-4.28-6.568l6.64-4.472
	c1.504,2.232,2.976,4.496,4.408,6.792L473.536,126.128z M46.576,125.976l-6.768-4.264c1.44-2.272,2.896-4.528,4.4-6.76l6.64,4.472
	C49.4,121.584,47.968,123.768,46.576,125.976z M464.784,113.112c-1.52-2.12-3.08-4.208-4.672-6.28l6.344-4.872
	c1.64,2.136,3.256,4.304,4.832,6.496L464.784,113.112z M55.312,112.992l-6.488-4.672c1.584-2.184,3.184-4.344,4.816-6.472
	l6.344,4.856C58.4,108.776,56.848,110.864,55.312,112.992z M455.24,100.664c-1.656-2.024-3.344-4.024-5.056-5.992l6.032-5.248
	c1.776,2.032,3.504,4.096,5.208,6.176L455.24,100.664z M64.848,100.568l-6.184-5.064c1.704-2.088,3.44-4.144,5.208-6.168
	l6.032,5.248C68.184,96.552,66.504,98.544,64.848,100.568z M444.96,88.848c-1.784-1.912-3.592-3.816-5.424-5.68l5.72-5.592
	c1.872,1.912,3.736,3.856,5.56,5.832L444.96,88.848z M75.128,88.768l-5.856-5.44c1.832-1.976,3.688-3.912,5.576-5.832l5.704,5.608
	C78.72,84.96,76.904,86.848,75.128,88.768z M433.96,77.688c-1.888-1.808-3.816-3.576-5.76-5.328l5.344-5.952
	c2.008,1.8,3.976,3.632,5.928,5.488L433.96,77.688z M86.136,77.616l-5.52-5.792c1.952-1.848,3.92-3.688,5.928-5.488l5.344,5.952
	C89.944,74.04,88.024,75.816,86.136,77.616z M422.288,67.216c-1.984-1.68-4.008-3.336-6.048-4.944l4.952-6.28
	c2.12,1.672,4.2,3.376,6.264,5.12L422.288,67.216z M97.8,67.16l-5.144-6.128c2.064-1.736,4.152-3.44,6.264-5.112l4.952,6.28
	C101.824,63.832,99.8,65.488,97.8,67.16z M410.024,57.512c-2.096-1.552-4.216-3.08-6.36-4.568l4.56-6.56
	c2.216,1.536,4.408,3.112,6.56,4.712L410.024,57.512z M110.104,57.432l-4.768-6.424c2.168-1.608,4.36-3.176,6.576-4.72l4.56,6.56
	C114.336,54.344,112.208,55.864,110.104,57.432z M397.176,48.576c-2.184-1.424-4.392-2.808-6.624-4.16l4.16-6.84
	c2.296,1.4,4.576,2.832,6.832,4.296L397.176,48.576z M122.984,48.488l-4.36-6.704c2.264-1.472,4.544-2.904,6.856-4.304l4.144,6.84
	C127.392,45.672,125.176,47.064,122.984,48.488z M383.808,40.48c-2.272-1.288-4.56-2.528-6.872-3.752l3.736-7.08
	c2.376,1.248,4.744,2.536,7.08,3.856L383.808,40.48z M136.416,40.352l-3.952-6.952c2.352-1.336,4.728-2.624,7.136-3.88l3.704,7.096
	C140.984,37.824,138.688,39.064,136.416,40.352z M369.96,33.2c-2.336-1.136-4.696-2.232-7.072-3.288l3.248-7.312
	c2.472,1.104,4.904,2.232,7.32,3.416L369.96,33.2z M150.304,33.088l-3.488-7.2c2.432-1.168,4.872-2.312,7.344-3.416l3.264,7.296
	C155.04,30.84,152.656,31.944,150.304,33.088z M355.704,26.824c-2.416-1-4.84-1.952-7.296-2.872l2.832-7.488
	c2.512,0.952,5.024,1.936,7.512,2.952L355.704,26.824z M164.648,26.68l-3.032-7.408c2.496-1.024,5.016-2.008,7.56-2.952l2.784,7.504
	C169.512,24.736,167.072,25.688,164.648,26.68z M341.032,21.328c-2.464-0.832-4.944-1.64-7.456-2.4l2.328-7.656
	c2.584,0.792,5.152,1.608,7.704,2.48L341.032,21.328z M179.368,21.192l-2.56-7.576c2.552-0.864,5.136-1.688,7.736-2.48l2.312,7.656
	C184.344,19.552,181.848,20.36,179.368,21.192z M326.048,16.76c-2.512-0.68-5.04-1.328-7.576-1.928l1.832-7.784
	c2.632,0.616,5.248,1.28,7.84,1.992L326.048,16.76z M194.392,16.648l-2.08-7.736c2.6-0.696,5.208-1.352,7.84-1.968l1.832,7.784
	C199.448,15.328,196.912,15.968,194.392,16.648z M310.808,13.136c-2.552-0.52-5.12-1.008-7.696-1.464l1.36-7.872
	c2.656,0.456,5.312,0.952,7.944,1.496L310.808,13.136z M209.64,13.056l-1.608-7.84c2.64-0.536,5.296-1.032,7.96-1.488l1.344,7.888
	C214.752,12.056,212.184,12.528,209.64,13.056z M295.376,10.48c-2.576-0.36-5.168-0.688-7.784-0.968l0.872-7.952
	c2.688,0.296,5.36,0.624,8.016,1L295.376,10.48z M225.088,10.416l-1.112-7.92c2.664-0.376,5.336-0.704,8.032-0.984l0.84,7.952
	C230.248,9.744,227.656,10.056,225.088,10.416z M279.816,8.784c-2.608-0.192-5.216-0.36-7.84-0.496l0.408-7.984
	c2.688,0.136,5.376,0.296,8.048,0.504L279.816,8.784z M240.656,8.752l-0.608-7.968c2.68-0.208,5.376-0.376,8.072-0.496l0.36,7.984
	C245.856,8.392,243.256,8.552,240.656,8.752z M264.144,8.048l-4.136-0.032l-3.712,0.024l-0.096-8l3.808-0.024l4.272,0.032
	L264.144,8.048z"/>
<polygon points="260.008,392.096 141.032,281.472 168.264,252.176 260.008,337.472 351.752,252.176 378.984,281.472 "/>
<rect x="240.008" y="139.248" width="40" height="218.664"/>
<g>
</g>
<g>
</g>
<g>
</g>
<g>
</g>
<g>
</g>
<g>
</g>
<g>
</g>
<g>
</g>
<g>
</g>
<g>
</g>
<g>
</g>
<g>
</g>
<g>
</g>
<g>
</g>
<g>
</g>
</svg>
