<?xml version="1.0" encoding="utf-8"?>
<svg id="master-artboard" viewBox="0 0 264.23004150390625 153.85012817382812" version="1.1" xmlns="http://www.w3.org/2000/svg" x="0px" y="0px" width="264.23004150390625px" height="153.85012817382812px" enable-background="new 0 0 1400 980"><rect id="ee-background" x="0" y="0" width="264.23004150390625" height="153.85012817382812" style="fill: white; fill-opacity: 0; pointer-events: none;"/>



<g transform="matrix(1, 0, 0, 1, -302.1773681640625, -272.4061737060547)">
	<path fill="#FFFFFF" d="M240.021,126.521c1.202-3.915,1.852-8.072,1.852-12.381c0-23.244-18.84-42.085-42.084-42.085&#10;&#9;&#9;c-5.509,0-10.767,1.07-15.589,2.995c-8.45-10.249-21.245-16.782-35.565-16.782c-25.448,0-46.076,20.629-46.076,46.077&#10;&#9;&#9;c0,2.246,0.168,4.452,0.479,6.612c-17.767,4.344-30.956,20.36-30.956,39.464c0,22.44,18.193,40.634,40.634,40.634&#10;&#9;&#9;c7.119,0,13.809-1.836,19.629-5.054c7.039,10.796,19.214,17.94,33.066,17.94c13.129,0,24.751-6.418,31.926-16.282&#10;&#9;&#9;c7.172,9.864,18.797,16.282,31.927,16.282c21.793,0,39.458-17.666,39.458-39.457C268.722,146.421,256.583,131.205,240.021,126.521z&#10;&#9;&#9;"/>
	<path fill="#FFFFFF" d="M490.411,119.582c-3.682-18.719-20.174-32.843-39.974-32.843c-4.249,0-8.344,0.653-12.196,1.86&#10;&#9;&#9;c-6.547-15.291-21.727-26.005-39.413-26.005c-23.667,0-42.857,19.189-42.857,42.858c0,4.662,0.754,9.145,2.132,13.347&#10;&#9;&#9;c-0.707-0.041-1.415-0.068-2.132-0.068c-20.002,0-36.215,16.215-36.215,36.218c0,20.003,16.213,36.218,36.215,36.218&#10;&#9;&#9;c7.336,0,14.156-2.188,19.861-5.937c6.386,4.858,14.352,7.747,22.997,7.747c8.342,0,16.049-2.692,22.318-7.245&#10;&#9;&#9;c6.336,6.34,15.093,10.263,24.764,10.263c5.019,0,9.788-1.064,14.104-2.967c6.356,4.16,13.95,6.588,22.114,6.588&#10;&#9;&#9;c22.336,0,40.441-18.107,40.441-40.442C522.569,139.676,508.773,123.404,490.411,119.582z"/>
	<path fill="#FFFFFF" d="M814.332,148.499c0.441-2.416,0.682-4.899,0.682-7.441c0-20.416-14.797-37.363-34.248-40.733&#10;&#9;&#9;c0.004-0.208,0.016-0.413,0.016-0.621c0-26.771-21.703-48.475-48.475-48.475c-25.39,0-46.209,19.527-48.289,44.383&#10;&#9;&#9;c-6.114-3.405-13.15-5.352-20.644-5.352c-23.47,0-42.493,19.025-42.493,42.493c0,2.918,0.295,5.768,0.854,8.521&#10;&#9;&#9;c-0.284-0.008-0.567-0.021-0.854-0.021c-16.69,0-30.217,13.528-30.217,30.218c0,16.688,13.526,30.216,30.217,30.216&#10;&#9;&#9;c5.604,0,10.85-1.532,15.348-4.191c6.066,8.18,15.791,13.484,26.756,13.484c8.934,0,17.039-3.526,23.018-9.253&#10;&#9;&#9;c5.705,3.752,12.527,5.942,19.865,5.942c9.012,0,17.246-3.3,23.58-8.748c4.385,1.778,9.17,2.766,14.191,2.766&#10;&#9;&#9;c7.951,0,15.324-2.463,21.412-6.659c6.199,8.741,16.395,14.452,27.93,14.452c18.906,0,34.232-15.327,34.232-34.232&#10;&#9;&#9;C827.213,164.418,822.182,154.771,814.332,148.499z"/>
	<path fill="#FFFFFF" d="M792.561,337.219c-1.719,0-3.406,0.126-5.061,0.349c-1.176-19.224-17.131-34.453-36.652-34.453&#10;&#9;&#9;c-1.801,0-3.566,0.133-5.297,0.384c-7.137-12.749-20.766-21.373-36.415-21.373c-16.769,0-31.216,9.899-37.843,24.167&#10;&#9;&#9;c-0.413-0.018-0.828-0.033-1.246-0.033c-15.648,0-28.333,12.687-28.333,28.333c0,2.551,0.344,5.021,0.974,7.373&#10;&#9;&#9;c-0.323-0.011-0.647-0.026-0.974-0.026c-17.678,0-32.007,14.33-32.007,32.007c0,17.675,14.329,32.004,32.007,32.004&#10;&#9;&#9;c8.047,0,15.394-2.977,21.018-7.88c6.253,7.689,15.785,12.604,26.468,12.604c10.351,0,19.617-4.617,25.872-11.898&#10;&#9;&#9;c6.774,7.618,16.646,12.424,27.644,12.424c9.275,0,17.746-3.423,24.24-9.063c6.705,6.269,15.703,10.111,25.605,10.111&#10;&#9;&#9;c20.721,0,37.514-16.796,37.514-37.516C830.074,354.016,813.281,337.219,792.561,337.219z"/>
	<path fill="#FFFFFF" d="M505.037,319.219c-4.479,0-8.783,0.746-12.805,2.101c0.037-0.696,0.058-1.396,0.058-2.101&#10;&#9;&#9;c0-21.381-17.335-38.715-38.717-38.715c-15.66,0-29.14,9.304-35.236,22.681c-5.036-2.813-10.836-4.422-17.015-4.422&#10;&#9;&#9;c-18.074,0-32.942,13.725-34.75,31.322c-0.064,0-0.125-0.004-0.187-0.004c-22.165,0-40.133,17.969-40.133,40.133&#10;&#9;&#9;c0,22.164,17.968,40.131,40.133,40.131c7.019,0,13.617-1.807,19.355-4.974c7.316,7.711,17.649,12.528,29.118,12.528&#10;&#9;&#9;c10.732,0,20.475-4.223,27.677-11.084c6.19,4.775,13.947,7.623,22.374,7.623c12.648,0,23.802-6.406,30.393-16.15&#10;&#9;&#9;c3.117,0.778,6.377,1.195,9.736,1.195c22.165,0,40.133-17.968,40.133-40.131S527.202,319.219,505.037,319.219z"/>
	<path fill="#FFFFFF" d="M253.74,359.073c-2.852-17.784-16.334-32.005-33.727-35.959c-1.113-12.567-11.656-22.425-24.515-22.425&#10;&#9;&#9;c-1.013,0-2.008,0.08-2.99,0.198c-7.744-12.89-21.857-21.516-37.987-21.516c-19.527,0-36.089,12.643-41.981,30.184&#10;&#9;&#9;c-11.485,1.498-20.467,10.893-21.326,22.568c-16.717,5.637-28.759,21.43-28.759,40.05c0,23.343,18.922,42.265,42.265,42.265&#10;&#9;&#9;c9.167,0,17.644-2.928,24.571-7.886c6.605,7.639,16.36,12.48,27.251,12.48c12.408,0,23.348-6.274,29.825-15.823&#10;&#9;&#9;c6.875,4.426,15.05,7.003,23.834,7.003c8.773,0,16.939-2.572,23.809-6.986c3.986,2.774,8.822,4.412,14.047,4.412&#10;&#9;&#9;c13.6,0,24.623-11.026,24.623-24.623C272.681,371.373,264.595,361.642,253.74,359.073z"/>
	<path fill="#FFFFFF" d="M221.269,554.174c-8.535,0-16.574,2.109-23.638,5.826c-1.284-21.361-19.007-38.289-40.69-38.289&#10;&#9;&#9;c-22.518,0-40.771,18.256-40.771,40.775c0,0.703,0.017,1.402,0.052,2.096c-26.548,1.709-47.557,23.77-47.557,50.75&#10;&#9;&#9;c0,28.092,22.774,50.865,50.867,50.865c9.729,0,18.817-2.734,26.545-7.471c6.753,8.102,16.913,13.258,28.284,13.258&#10;&#9;&#9;c13.596,0,25.44-7.389,31.816-18.354c4.768,1.48,9.836,2.277,15.092,2.277c28.094,0,50.868-22.773,50.868-50.867&#10;&#9;&#9;S249.363,554.174,221.269,554.174z"/>
	<path fill="#FFFFFF" d="M501.378,586.289c-0.521-17.936-15.43-32.111-33.393-31.697c-3.142,0.072-6.168,0.596-9.023,1.492&#10;&#9;&#9;c-6.693-16.424-22.989-27.83-41.771-27.398c-22.067,0.51-39.959,17.172-42.646,38.426c-2.777-0.533-5.651-0.791-8.594-0.725&#10;&#9;&#9;c-22.301,0.514-39.961,19.008-39.446,41.309c0.513,22.299,19.004,39.959,41.305,39.445c3.991-0.092,7.83-0.768,11.445-1.932&#10;&#9;&#9;c6.292,9.074,16.872,14.918,28.736,14.646c9.541-0.221,18.066-4.354,24.093-10.83c7.628,7.438,18.12,11.922,29.61,11.656&#10;&#9;&#9;c6.991-0.16,13.531-2.063,19.221-5.279c6.009,3.789,13.16,5.914,20.793,5.738c20.669-0.475,37.042-17.617,36.565-38.289&#10;&#9;&#9;C537.809,602.646,521.417,586.561,501.378,586.289z"/>
	<path fill="#FFFFFF" d="M803.178,573.436c-0.424-17.182-14.475-30.984-31.756-30.984c-6.42,0-12.389,1.908-17.383,5.182&#10;&#9;&#9;c-4.939-16.887-20.529-29.227-39.012-29.227c-16.84,0-31.286,10.236-37.457,24.828c-2.129-0.506-4.347-0.783-6.63-0.783&#10;&#9;&#9;c-13.831,0-25.37,9.811-28.044,22.848c-20.878,0.012-37.8,16.938-37.8,37.816c0,20.887,16.932,37.814,37.817,37.814&#10;&#9;&#9;c8.117,0,15.63-2.564,21.791-6.918c6.557,12.131,19.389,20.373,34.146,20.373c11.168,0,21.224-4.725,28.302-12.277&#10;&#9;&#9;c7.543,7.584,17.984,12.277,29.527,12.277c13.371,0,25.262-6.309,32.883-16.102c3.623,1.342,7.541,2.074,11.629,2.074&#10;&#9;&#9;c18.498,0,33.494-14.994,33.494-33.492C834.686,589.033,820.75,574.463,803.178,573.436z"/>
	<path fill="#FFFFFF" d="M236.501,808.18c-2.388,0-4.721,0.236-6.981,0.668c-3.983-17.328-19.492-30.258-38.029-30.258&#10;&#9;&#9;c-4.488,0-8.792,0.768-12.805,2.16c-5.899-10.668-17.262-17.896-30.317-17.896c-14.948,0-27.683,9.471-32.531,22.74&#10;&#9;&#9;c-0.692-0.045-1.389-0.078-2.093-0.078c-15.678,0-28.646,11.58-30.833,26.65c-15.278,3.125-26.771,16.643-26.771,32.844&#10;&#9;&#9;c0,18.514,15.01,33.521,33.523,33.521c6.271,0,12.137-1.727,17.156-4.723c5.851,9.801,16.555,16.369,28.8,16.369&#10;&#9;&#9;c10.883,0,20.552-5.191,26.675-13.229c6.124,8.037,15.792,13.229,26.675,13.229c11.36,0,21.394-5.658,27.456-14.301&#10;&#9;&#9;c5.775,3.766,12.665,5.959,20.074,5.959c20.34,0,36.828-16.49,36.828-36.828C273.329,824.668,256.841,808.18,236.501,808.18z"/>
	<path fill="#FFFFFF" d="M500.081,807.209c-2.812,0-5.562,0.271-8.229,0.764c-2.82-18.607-18.883-32.869-38.278-32.869&#10;&#9;&#9;c-7.131,0-13.808,1.938-19.545,5.301c-7.115-7.523-17.184-12.227-28.356-12.227c-21.558,0-39.033,17.475-39.033,39.031&#10;&#9;&#9;c0,1.877,0.141,3.721,0.397,5.527c-0.217-0.006-0.434-0.018-0.651-0.018c-20.861,0-37.771,16.91-37.771,37.773&#10;&#9;&#9;c0,20.859,16.91,37.771,37.771,37.771c0.496,0,0.987-0.02,1.476-0.039c3.891,13.943,16.676,24.176,31.861,24.176&#10;&#9;&#9;c8.934,0,17.036-3.549,22.989-9.307c6.532,8.131,16.553,13.338,27.792,13.338c14.928,0,27.704-9.178,33.011-22.197&#10;&#9;&#9;c5.13,2.029,10.717,3.156,16.567,3.156c24.902,0,45.091-20.188,45.091-45.092C545.171,827.396,524.983,807.209,500.081,807.209z"/>
	<path fill="#FFFFFF" d="M804.631,837.561c0.004-0.229,0.018-0.453,0.018-0.682c0-25.107-20.354-45.461-45.463-45.461&#10;&#9;&#9;c-6.859,0-13.359,1.527-19.189,4.248c-3.576-18.055-19.498-31.672-38.603-31.672c-16.814,0-31.159,10.551-36.797,25.389&#10;&#9;&#9;c-2.181-0.469-4.44-0.723-6.761-0.723c-17.678,0-32.012,14.334-32.012,32.012c0,1.664,0.128,3.297,0.372,4.891&#10;&#9;&#9;c-13.245,7.734-22.152,22.092-22.152,38.535c0,24.637,19.974,44.609,44.609,44.609c4.154,0,8.171-0.58,11.985-1.645&#10;&#9;&#9;c7.022,8.289,17.498,13.553,29.209,13.553c11.597,0,21.979-5.164,28.999-13.311c8.224,8.225,19.589,13.311,32.138,13.311&#10;&#9;&#9;c11.355,0,21.73-4.172,29.697-11.055c5.066,2.475,10.762,3.869,16.781,3.869c21.137,0,38.273-17.135,38.273-38.275&#10;&#9;&#9;C835.736,856.465,822.342,840.916,804.631,837.561z"/>
	<path fill="#FFFFFF" d="M1078.279,153.463c0.013-0.259,0.032-0.516,0.038-0.776c0.409-17.668-13.581-32.323-31.25-32.733&#10;&#9;&#9;c-2.789-0.065-5.503,0.231-8.098,0.842c-0.634-15.342-11.949-28.039-26.842-30.629c-2.864-17.728-18.021-31.457-36.621-31.888&#10;&#9;&#9;c-20.979-0.486-38.384,16.128-38.87,37.109c-0.092,3.962,0.428,7.797,1.47,11.415c-0.573-0.039-1.15-0.071-1.732-0.084&#10;&#9;&#9;c-20.813-0.482-38.077,15.999-38.559,36.812c-0.209,9.027,2.776,17.385,7.92,23.997c-4.082,4.937-6.602,11.225-6.761,18.125&#10;&#9;&#9;c-0.379,16.317,12.544,29.853,28.861,30.23c10.057,0.233,19.052-4.59,24.566-12.142c4.623,2.269,9.796,3.603,15.283,3.73&#10;&#9;&#9;c9.069,0.21,17.44-2.898,23.968-8.208c6.318,5.61,14.577,9.102,23.686,9.313c15.826,0.367,29.555-9.263,35.161-23.116&#10;&#9;&#9;c3.578,7.927,11.462,13.527,20.737,13.742c12.884,0.299,23.569-9.903,23.869-22.787&#10;&#9;&#9;C1095.356,165.6,1088.204,156.335,1078.279,153.463z"/>
	<path fill="#FFFFFF" d="M1329.789,141.763c0-16.458-12.175-30.065-28.009-32.324c0.001-0.112,0.009-0.223,0.009-0.335&#10;&#9;&#9;c0-17.535-14.215-31.75-31.75-31.75c-3.229,0-6.342,0.485-9.277,1.381c-4.98-8.878-14.478-14.881-25.382-14.881&#10;&#9;&#9;c-12.686,0-23.469,8.123-27.448,19.449c-2.709-0.935-5.615-1.449-8.643-1.449c-14.636,0-26.5,11.864-26.5,26.5&#10;&#9;&#9;c0,0.004,0,0.008,0,0.013c-0.167-0.003-0.332-0.013-0.5-0.013c-14.912,0-27,12.088-27,27s12.088,27,27,27c0.009,0,0.017,0,0.025,0&#10;&#9;&#9;c-0.012,0.333-0.025,0.665-0.025,1c0,15.464,12.536,28,28,28c7.661,0,14.602-3.08,19.657-8.066&#10;&#9;&#9;c4.838,4.973,11.597,8.066,19.082,8.066c4.272,0,8.307-1.012,11.885-2.8c6.14,6.058,14.569,9.8,23.876,9.8&#10;&#9;&#9;c15.918,0,29.277-10.941,32.979-25.713C1320.58,168.228,1329.789,156.075,1329.789,141.763z"/>
	<path fill="#FFFFFF" d="M1101.789,356.672c0-19.192-15.559-34.75-34.75-34.75c-2.804,0-5.525,0.341-8.137,0.968&#10;&#9;&#9;c-5.773-14.062-19.596-23.968-35.738-23.968c-0.262,0-0.52,0.015-0.78,0.02c-5.613-15.468-20.438-26.52-37.845-26.52&#10;&#9;&#9;c-18.891,0-34.734,13.017-39.07,30.568c-1.835-0.372-3.734-0.568-5.68-0.568c-15.74,0-28.5,12.76-28.5,28.5&#10;&#9;&#9;c0,2.475,0.316,4.876,0.909,7.166c-17.828,3.017-31.409,18.523-31.409,37.209c0,20.849,16.901,37.75,37.75,37.75&#10;&#9;&#9;c0.898,0,1.787-0.043,2.671-0.104c2.937,21.451,21.322,37.979,43.579,37.979c14.488,0,27.338-7.005,35.355-17.81&#10;&#9;&#9;c6.552,3.864,14.185,6.089,22.342,6.089c15.126,0,28.468-7.626,36.399-19.24c2.447,0.627,5.011,0.961,7.653,0.961&#10;&#9;&#9;c16.982,0,30.75-13.767,30.75-30.75c0-4.424-0.941-8.627-2.624-12.428C1099.131,371.898,1101.789,364.597,1101.789,356.672z"/>
	<path fill="#FFFFFF" d="M1343.437,379.675c-2.098-12.696-11.575-22.329-23.318-25.244c3.585-6.728,5.074-14.642,3.735-22.745&#10;&#9;&#9;c-3.236-19.595-21.746-32.856-41.341-29.619c-2.737,0.452-5.345,1.212-7.807,2.221c-8.108-12.901-23.416-20.375-39.393-17.736&#10;&#9;&#9;c-15.499,2.56-27.335,13.935-31.249,28.148c-5.293-3.335-11.776-4.824-18.435-3.724c-14.439,2.385-24.212,16.024-21.827,30.464&#10;&#9;&#9;c0.376,2.272,1.03,4.427,1.922,6.439c-17.331,6.27-28.285,24.173-25.173,43.012c3.51,21.251,23.583,35.633,44.835,32.123&#10;&#9;&#9;c2.657-0.439,5.207-1.137,7.629-2.064c0.053,1.747,0.211,3.51,0.504,5.281c3.555,21.524,23.886,36.09,45.409,32.535&#10;&#9;&#9;c9.396-1.552,17.465-6.302,23.28-12.951c7.912,7.647,19.216,11.585,30.907,9.654c19.542-3.228,32.786-21.629,29.683-41.163&#10;&#9;&#9;C1336.955,409.437,1345.958,394.939,1343.437,379.675z"/>
	<path fill="#FFFFFF" d="M1089.38,585.283c-2.796-23.582-24.181-40.434-47.764-37.637c-2.363,0.279-4.655,0.754-6.87,1.391&#10;&#9;&#9;c-4.854-16.883-21.349-28.256-39.362-26.121c-13.056,1.549-23.677,9.811-28.83,20.922c-3.529-0.805-7.253-1.035-11.053-0.584&#10;&#9;&#9;c-17.825,2.113-30.562,18.275-28.448,36.1c0.109,0.924,0.266,1.83,0.449,2.725c-11.707,5.707-19.097,18.357-17.477,32.021&#10;&#9;&#9;c1.511,12.746,10.438,22.801,21.952,26.379c0.002,1.064,0.059,2.139,0.187,3.221c1.788,15.082,15.465,25.859,30.547,24.072&#10;&#9;&#9;c5.419-0.643,10.277-2.826,14.202-6.053c3.579,13.002,16.214,21.793,30.016,20.156c10.926-1.295,19.61-8.771,22.976-18.518&#10;&#9;&#9;c7.729,5.918,17.677,8.953,28.108,7.717c21.252-2.52,36.438-21.791,33.918-43.043c-0.8-6.748-3.295-12.883-7-18.035&#10;&#9;&#9;C1088.718,602.641,1090.428,594.117,1089.38,585.283z"/>
	<path fill="#FFFFFF" d="M1312.468,596.428c-5.337-16.223-21.96-25.977-38.725-22.725c-0.157-1.842-0.462-3.695-0.943-5.545&#10;&#9;&#9;c-4.591-17.639-22.609-28.215-40.247-23.625c-12.114,3.152-20.898,12.641-23.724,23.988c-4.897-1.172-10.145-1.197-15.357,0.16&#10;&#9;&#9;c-15.139,3.939-24.861,18.162-23.65,33.232c-2.724-0.098-5.507,0.188-8.28,0.908c-15.366,4-24.582,19.699-20.583,35.064&#10;&#9;&#9;c3.999,15.367,19.698,24.582,35.064,20.582c0.277-0.072,0.548-0.156,0.822-0.234c6.794,12.9,21.779,19.928,36.5,16.098&#10;&#9;&#9;c1.357-0.354,2.667-0.797,3.934-1.309c7.991,7.553,19.571,10.949,30.997,7.977c4.394-1.145,8.348-3.121,11.741-5.719&#10;&#9;&#9;c6.723,2.379,14.202,2.842,21.623,0.91c12.138-3.158,21.284-11.992,25.355-22.914c2.207-0.047,4.443-0.34,6.674-0.92&#10;&#9;&#9;c15.366-4,24.582-19.697,20.583-35.064C1331.424,606.426,1322.743,598.643,1312.468,596.428z"/>
	<path fill="#FFFFFF" d="M1093.598,837.465c-1.156,0-2.299,0.059-3.431,0.152c-5.518-15.953-20.659-27.414-38.487-27.414&#10;&#9;&#9;c-1.47,0-2.921,0.082-4.351,0.234c-5.044-15.156-19.285-26.105-36.107-26.219c-5.881-15.604-20.941-26.707-38.603-26.707&#10;&#9;&#9;c-22.779,0-41.244,18.465-41.244,41.244c0,0.695,0.019,1.387,0.053,2.074c-11.535,2.703-20.398,12.322-21.98,24.248&#10;&#9;&#9;c-17.683,2.352-31.326,17.482-31.326,35.807c0,19.631,15.655,35.594,35.161,36.111c6.269,16.688,22.366,28.566,41.244,28.566&#10;&#9;&#9;c10.646,0,20.41-3.777,28.025-10.064c6.074,6.031,14.438,9.758,23.674,9.758c9.901,0,18.801-4.283,24.951-11.098&#10;&#9;&#9;c5.674,4.379,12.782,6.988,20.504,6.988c7.309,0,14.066-2.34,19.581-6.301c6.467,4.08,14.122,6.453,22.336,6.453&#10;&#9;&#9;c23.149,0,41.916-18.768,41.916-41.918S1116.747,837.465,1093.598,837.465z"/>
	<path fill="#FFFFFF" d="M1317.994,836.42c0.516-2.402,0.793-4.893,0.793-7.449c0-19.514-15.819-35.332-35.333-35.332&#10;&#9;&#9;c-5.896,0-11.449,1.451-16.336,4.006c-5.822-10.375-16.921-17.391-29.664-17.391c-17.064,0-31.189,12.574-33.626,28.961&#10;&#9;&#9;c-5.441-3.955-12.133-6.293-19.374-6.293c-18.226,0-33,14.773-33,33c0,8.686,3.361,16.584,8.849,22.477&#10;&#9;&#9;c-2.66,4.744-4.183,10.211-4.183,16.037c0,18.141,14.706,32.846,32.847,32.846c4.166,0,8.146-0.783,11.813-2.197&#10;&#9;&#9;c5.987,9.322,16.438,15.504,28.341,15.504c3.941,0,7.722-0.684,11.236-1.93c6.414,6.254,15.174,10.113,24.839,10.113&#10;&#9;&#9;c15.921,0,29.396-10.455,33.945-24.873c1.627,0.23,3.288,0.355,4.979,0.355c19.514,0,35.333-15.818,35.333-35.332&#10;&#9;&#9;C1339.453,854.334,1330.61,841.813,1317.994,836.42z"/>
</g></svg>