<?xml version="1.0" encoding="utf-8"?>
<svg id="master-artboard" viewBox="0 0 1400 980" version="1.1" xmlns="http://www.w3.org/2000/svg" x="0px" y="0px" width="1400px" height="980px" enable-background="new 0 0 1400 980">
<path d="M 0 1 H 1400 V 980 H 0 V 1 Z" fill-rule="evenodd" clip-rule="evenodd" fill="#FBD340" transform="matrix(1, 0, 0, 1, 2.842170943040401e-14, 0)"/>
<path fill-rule="evenodd" clip-rule="evenodd" fill="#FAAB00" d="M0,0h1400v297.5c-9.9,28.5-18.9,50.5-18.9,68.5&#10;&#9;&#9;c0,54.9-8.9,42.5-12.1,61.6c-7.6,46.6-21.2,17.4-25.1,35.7c-21.8,101.9,8.9,67.7,4.6,109.2c-6.5,62.2,21.1,52.7,22.3,73.9&#10;&#9;&#9;c1.2,19,16.8,14.6,29.1,4.7V980H0V726.1c25.9-25.2,45.2-49.8,77.3-61.4c15.8-5.7,13.3-56.7,26.2-25.3c16.7,40.7,20.3-3,25.3,16.8&#10;&#9;&#9;c15.9,62.1,8.7-12.6,25.7,13.2c33.9,51.5,106.1,12.3,137.5,13.1c18.2,0.5,37.2-27.6,37.2-28c-1.2-29.1,13.3-68.2,13.3-106.7&#10;&#9;&#9;c0-19,2.9-61.3-4.4-73c-8.7-13.7-6.8,6.2-15.8,4.8c-13.7-2-3.7-143.9-12.5-149.1c-15.9-9.4-22.7,40.5-27.3,50.1&#10;&#9;&#9;c-17.6,37.1-54.9,23.9-57.2,42.8c-6.2,50.3-55.3-13.3-74-11.9C103,415.3,45.7,248.2,0,208.9V0z M575,656.2&#10;&#9;&#9;c-11.3-17-9.7-168.8-4.7-166.9c12.7,4.8,10.8,78.2,14.5,89.5c0.5,1.6,12.8,90.7-6.5,78.7C577,656.7,575.7,657.2,575,656.2&#10;&#9;&#9;L575,656.2z M1230.9,489.9c-19.9,9.5,3,74.1,14.2,34.3C1248.8,511.1,1240.6,497.7,1230.9,489.9L1230.9,489.9z M1292,622.8&#10;&#9;&#9;c13.9-29.2-10.6-114.9-9.6-36.5c0,0.2-13.4,76.4,0.6,61.3C1285.8,644.6,1286.7,622.4,1292,622.8L1292,622.8z M959.8,485.8&#10;&#9;&#9;c-6.5-16.8-5.6-58.8-1.9-78.5c5.7-31,17.1-96.6,63.2-59.4c8.8,7.1,16.5,148.3,13.3,162.9c-7.7,35.5-24.8-3.1-25.7-3.1&#10;&#9;&#9;c-13.4,0.2-12,25.5-16.6,39.4c-3.4,10.4-6.6,78-16.4,26.3c-2-10.8,2.9-56.2-9.9-62.1C963.9,510.3,961.2,489.5,959.8,485.8&#10;&#9;&#9;L959.8,485.8z M819,638c-5.2-31.9,11.2-87.9,27.5-116.8c7.3-13.1,7.6-72.2,44.1-18.6c14.2,20.8-0.1,21.1,27.5,52.6&#10;&#9;&#9;c22.3,25.4,41.2,47.8,40.2,83.2c-0.6,21.4-30.4-14.8-35.7,16.9c-1.6,9.8-17,18.5-19-19.3c-1.3-23-13.5-70.7-13.5-16.5&#10;&#9;&#9;c0,27.8-13.2-6-18.9,14.1c-3.1,10.9-16.1,36.9-31.6,24.1C831.1,650.6,825.7,647.8,819,638L819,638z M738.3,545.8&#10;&#9;&#9;c3.5-13.5-8.5-160.2,6.1-163.3c26.3-5.5,15.3,8.4,21.7,33.7c8,32,10.4,120.5,0.9,149.7c-6.8,20.7-6.4,18.8-16.7,34&#10;&#9;&#9;c-19.7,29.1-23.7-43.6-26.7-51.7c-7.6-20.6-5-52.8,3.2-12.2c1.5,7.7,10.3,33.7,10.8,11.7L738.3,545.8z M511.3,660.2&#10;&#9;&#9;c-23.1-2.8-48.5-53-54.5-73.5c-6.8-23.4-22.4-39.3-22.9-72c-0.3-27.7-25.4-103.9-3.2-125.4c9.7-9.3,13.4,118.1,26.2,89.7&#10;&#9;&#9;c15.5-34.5,15-56.5,25.3-92.9c0.8-2.7,11.3-87.2,29.5-73.2c0.8,0.6,14.8,57.4,14.8,64.6c0,36,15.6,31.5,15.6,86.1&#10;&#9;&#9;c0,28.3-1.5,139.2,3.5,157.5c4.9,17.9,0.2,32.1-15.4,38.5C528.3,660.5,513.9,660.6,511.3,660.2L511.3,660.2z" transform="matrix(1, 0, 0, 1, 2.842170943040401e-14, 0)"/>
<path fill-rule="evenodd" clip-rule="evenodd" fill="#D97F00" d="M0,0h1400v168.5c-1.2,0.7-2.6,1-3.1,0.9&#10;&#9;&#9;c-12.2-1.1-14.3,47-18.3,44.8c-0.1-0.1-4-35-5.1-39.3c-7.9-31.4-18.5,16.7-20.6,7.7c-9-38.1-13.3-5.9-18.9,3.9&#10;&#9;&#9;c-8,14.1-7,5.3-10.4,21.4c-2.4,11.5,2.3,37.4-2.3,43.7c-6.5,8.7-5.3-46.9-5.3-47.1c0-18.2-8.4-63.6-15.6-22.5&#10;&#9;&#9;c-2.7,15.1-1.5,16.6-2.6,30.3c-2.1,27.5-2.6-7.9-5.7-17.3c-6.9-21-7.4,18.2-10.1,24.4c-3,6.8-0.6,18.1-1.6,24.2&#10;&#9;&#9;c-2.4,14.9-5.1-19.1-6.6-21c-6.9,0-2.1,25.8-6,15.1c-3.1-8.6-2.7-57.9-4.7-59.4c-4.5-3.4-3.4,15.2-3.4,15.3&#10;&#9;&#9;c-2.6,16-4.5-19-6.5-20.7c-8.8-7.3-6,50.9-6.9,54.9c-5.5,26.4-9.7-34.7-12-40.5c-12.4-31.8-15.8,5-19.3,16.7&#10;&#9;&#9;c-7,23.4-2,26.7-4.9,43.5c-8,46.2-6.4-48.5-7.4-52.7c-7.8-32.7-9.6,23.8-10.7,25.9c-2.1-9.2-6.6-61.8-13.8-60&#10;&#9;&#9;c-16.7,4.3-20,11.6-20,27.5c0,10.5-2.1,16.4-2.3,23.7c-0.7,27.9-2.5-31-2.5-31.6c-0.1-8.8-12.8-19.7-17-17.1&#10;&#9;&#9;c-9.7,5.9-19.6,15.1-24,25.4c-4.8,11.5-4.4,52.9-6.4,57.3c-4,0,0.4-60.5-7.2-52.8c-7,7.1-2.8-4.4-5.6-12.3&#10;&#9;&#9;c-5.8-16.4-5.5,29.8-5.5,30c-9.1,46.3-0.4-39-9.8-43.7c-11-5.6-8.2,29.9-9.5,33.6c-2.3,6.3,3.4,66-3.5,66c-1.2,0-3.7-60.3-3.7-64.9&#10;&#9;&#9;c0-9.5-1.6-13.1-1.9-18.4c-0.2-5.4-4.1-12.8-9.7-15c-1.3-0.5-2.3,1-2.8,0.9c-12.2-1.1-14.1,47-18.2,44.8c-0.1-0.1-3.9-35-5-39.3&#10;&#9;&#9;c-7.9-31.4-18.5,16.7-20.6,7.7c-9-38.1-13.3-5.9-18.9,3.9c-8,14.1-7,5.3-10.4,21.4c-2.4,11.5,2.3,37.4-2.3,43.7&#10;&#9;&#9;c-6.5,8.7-5.3-46.9-5.3-47.1c0-18.2-8.4-63.6-15.6-22.5c-2.7,15.1-1.5,16.6-2.6,30.3c-2.1,27.5-2.6-7.9-5.7-17.3&#10;&#9;&#9;c-6.9-21-7.4,18.2-10.1,24.4c-3,6.8-0.6,18.1-1.6,24.2c-2.4,14.9-5.1-19.1-6.6-21c-6.9,0-2.1,25.8-6,15.1&#10;&#9;&#9;c-3.1-8.6-2.7-57.9-4.7-59.4c-4.5-3.4-3.4,15.2-3.4,15.3c-2.6,16-4.5-19-6.5-20.7c-8.7-7.3-6,50.9-6.9,54.9&#10;&#9;&#9;c-5.5,26.4-9.7-34.7-12-40.5c-12.4-31.8-15.8,5-19.3,16.7c-7,23.4-2,26.7-4.9,43.5c-8,46.2-6.4-48.5-7.4-52.7&#10;&#9;&#9;c-7.8-32.7-9.6,23.8-10.7,25.9c-2.1-9.2-6.6-61.8-13.8-60c-16.7,4.3-20,11.6-20,27.5c0,10.5-2.1,16.4-2.3,23.7&#10;&#9;&#9;c-0.7,27.9-2.5-31-2.5-31.6c-0.1-8.8-12.8-19.7-17-17.1c-9.7,5.9-19.6,15.1-24,25.4c-4.8,11.5-4.4,52.9-6.4,57.3&#10;&#9;&#9;c-4,0,0.4-60.5-7.2-52.8c-7,7.1-2.8-4.4-5.6-12.3c-5.8-16.4-5.5,29.8-5.5,30c-9.1,46.3-0.4-39-9.8-43.7c-11-5.6-8.2,29.9-9.5,33.6&#10;&#9;&#9;c-2.3,6.3,3.4,66-3.5,66c-1.2,0-3.7-60.3-3.7-64.9c0-9.5-1.6-13.1-1.9-18.4c-0.2-5.4-4.1-12.8-9.7-15c-1.3-0.5-2.3,1-2.8,0.9&#10;&#9;&#9;c-12.2-1.1-14.1,47-18.2,44.8c-0.1-0.1-3.9-35-5-39.3c-7.9-31.4-18.5,16.7-20.6,7.7c-9-38.1-13.3-5.9-18.9,3.9&#10;&#9;&#9;c-8,14.1-7,5.3-10.4,21.4c-2.4,11.5,2.3,37.4-2.3,43.7c-6.5,8.7-5.3-46.9-5.3-47.1c0-18.2-8.4-63.6-15.6-22.5&#10;&#9;&#9;c-2.7,15.1-1.5,16.6-2.6,30.3c-2.1,27.5-2.6-7.9-5.7-17.3c-6.9-21-7.4,18.2-10.1,24.4c-3,6.8-0.6,18.1-1.6,24.2&#10;&#9;&#9;c-2.4,14.9-5.1-19.1-6.6-21c-6.9,0-2.1,25.8-6,15.1c-3.1-8.6-2.7-57.9-4.7-59.4c-4.5-3.4-3.4,15.2-3.4,15.3&#10;&#9;&#9;c-2.6,16-4.5-19-6.5-20.7c-8.7-7.3-6,50.9-6.9,54.9c-5.5,26.4-9.7-34.7-12-40.5c-12.4-31.8-15.8,5-19.3,16.7&#10;&#9;&#9;c-7,23.4-2,26.7-4.9,43.5c-8,46.2-6.4-48.5-7.4-52.7c-7.8-32.7-9.6,23.8-10.7,25.9c-2.1-9.2-6.6-61.8-13.8-60&#10;&#9;&#9;c-16.7,4.3-20,11.6-20,27.5c0,10.5-2.1,16.4-2.3,23.7c-0.7,27.9-2.5-31-2.5-31.6c-0.1-8.8-12.8-19.7-17-17.1&#10;&#9;&#9;c-9.7,5.9-19.6,15.1-24,25.4c-4.8,11.5-4.4,52.9-6.4,57.3c-4,0,0.4-60.5-7.2-52.8c-7,7.1-2.8-4.4-5.6-12.3&#10;&#9;&#9;c-5.8-16.4-5.5,29.8-5.5,30c-9.1,46.3-0.4-39-9.8-43.7c-11-5.6-8.2,29.9-9.5,33.6c-2.3,6.3,3.4,66-3.5,66c-1.2,0-3.7-60.3-3.7-64.9&#10;&#9;&#9;c0-9.5-1.6-13.1-1.9-18.4c-0.2-5.4-4.1-12.8-9.7-15c-1.3-0.5-2.3,1-2.8,0.9c-12.2-1.1-14.1,47-18.2,44.8c-0.1-0.1-3.9-35-5-39.3&#10;&#9;&#9;c-7.9-31.4-18.5,16.7-20.6,7.7c-9-38.1-13.3-5.9-18.9,3.9c-8,14.1-7,5.3-10.4,21.4c-2.4,11.5,2.3,37.4-2.3,43.7&#10;&#9;&#9;c-6.5,8.7-5.3-46.9-5.3-47.1c0-18.2-8.4-63.6-15.6-22.5c-2.7,15.1-1.5,16.6-2.6,30.3c-2.1,27.5-2.6-7.9-5.7-17.3&#10;&#9;&#9;c-6.9-21-7.4,18.2-10.1,24.4c-3,6.8-0.6,18.1-1.6,24.2c-2.4,14.9-5.1-19.1-6.6-21c-6.9,0-2.1,25.8-6,15.1&#10;&#9;&#9;c-3.1-8.6-2.7-57.9-4.7-59.4c-4.5-3.4-3.4,15.2-3.4,15.3c-2.6,16-4.5-19-6.5-20.7c-8.7-7.3-6,50.9-6.9,54.9&#10;&#9;&#9;c-5.5,26.4-9.7-34.7-12-40.5c-12.4-31.8-15.8,5-19.3,16.7c-7,23.4-2,26.7-4.9,43.5c-8,46.2-6.4-48.5-7.4-52.7&#10;&#9;&#9;c-7.8-32.7-9.6,23.8-10.7,25.9c-2.1-9.2-6.6-61.8-13.8-60c-16.7,4.3-20,11.6-20,27.5c0,10.5-2.1,16.4-2.3,23.7&#10;&#9;&#9;c-0.7,27.9-2.5-31-2.5-31.6c-0.1-8.8-12.8-19.7-17-17.1c-9.7,5.9-19.6,15.1-24,25.4c-4.8,11.5-4.4,52.9-6.4,57.3&#10;&#9;&#9;c-4,0,0.4-60.5-7.2-52.8c-7,7.1-2.8-4.4-5.6-12.3c-5.8-16.4-5.5,29.8-5.5,30c-9.1,46.3-0.4-39-9.8-43.7c-11-5.6-8.2,29.9-9.5,33.6&#10;&#9;&#9;c-2.3,6.3,3.4,66-3.5,66c-1.2,0-3.7-60.3-3.7-64.9c0-9.5-1.5-13.1-1.7-18.4c-0.2-5.4-4.6-11.9-9.5-15V0z" transform="matrix(1, 0, 0, 1, 2.842170943040401e-14, 0)"/>
<path fill-rule="evenodd" clip-rule="evenodd" fill="#AA5900" d="M0,0h1400v117.6c-4.9,2.7-9.1,4-11.1,3.8&#10;&#9;&#9;c-48.9-4.5-56.5,161.1-72.6,152.4c-0.5-0.3-15.6-139.9-19.9-157c-31.7-125.5-74,66.9-82.5,30.9c-36.1-152.5-53.2-23.7-75.6,15.7&#10;&#9;&#9;c-32.2,56.5-28,21.3-41.5,85.8c-9.6,46,9.4,149.7-9.4,174.8c-26.2,35-21.2-187.7-21.2-188.5c0-72.8-33.5-254.4-62.5-90.2&#10;&#9;&#9;c-10.7,60.4-6.1,66.4-10.4,121.3c-8.5,110.2-10.3-31.5-22.5-69.1c-27.5-83.9-29.8,72.7-40.7,97.6c-11.9,27.3-2.2,72.2-6.3,96.7&#10;&#9;&#9;c-9.8,59.8-20.5-76.2-26.7-83.9c-27.4,0-8.5,103.2-23.9,60.4c-12.4-34.3-11-231.6-18.9-237.6c-17.8-13.5-13.5,60.9-13.6,61.3&#10;&#9;&#9;c-10.5,63.9-17.9-76.1-25.8-82.7c-35.1-29.4-24.1,203.6-27.4,219.6c-21.8,105.7-39-139-47.9-162c-49.6-127.3-63.1,20-77.2,66.9&#10;&#9;&#9;c-28,93.6-8.1,106.8-19.7,174c-32,184.7-25.6-194-29.6-210.8c-31.4-130.6-38.5,95-43,103.6c-8.5-36.8-26.6-247.2-55-239.8&#10;&#9;&#9;c-66.8,17.3-80,46.4-80,109.9c0,42.1-8.3,65.6-9,94.8c-2.8,111.7-10.1-123.9-10.1-126.5c-0.6-35.2-51.2-78.6-68-68.3&#10;&#9;&#9;c-38.7,23.7-78.6,60.4-95.8,101.7c-19.3,46.1-17.6,211.6-25.8,229.2c-16.1,0,1.7-241.9-28.8-210.9c-28,28.4-11.3-17.6-22.5-49.3&#10;&#9;&#9;c-23.2-65.8-21.9,119.4-22,120c-36.3,185-1.8-155.9-39.2-175C69.8,63.8,81.2,206,75.9,220.3c-9.1,25.1,13.6,263.9-14.2,263.9&#10;&#9;&#9;c-4.5,0-14.8-241.2-14.8-259.6c0-38.1-6.8-52.2-7.8-73.7c-1-21.6-18.1-47.5-39-60.1V0z" transform="matrix(1, 0, 0, 1, 2.842170943040401e-14, 0)"/>
<path d="M 0 717 H 1400 V 980 H 0 V 717 Z" fill-rule="evenodd" clip-rule="evenodd" fill="#633000" transform="matrix(1, 0, 0, 1, 2.842170943040401e-14, 0)"/>
<path d="M 0 710 H 1400 V 719 H 0 V 710 Z" fill-rule="evenodd" clip-rule="evenodd" fill="#4D4D4D" transform="matrix(1, 0, 0, 1, 2.842170943040401e-14, 0)"/>

<path d="M 466 689 H 650 V 702 H 466 V 689 Z" fill-rule="evenodd" clip-rule="evenodd" fill="#333333" transform="matrix(1, 0, 0, 1, 2.842170943040401e-14, 0)"/><path fill-rule="evenodd" clip-rule="evenodd" fill="#4D4D4D" d="M498.8,675.8c9.9,0,18,8,18,17.9c0,9.9-8,17.9-18,17.9&#10;&#9;&#9;c-9.9,0-17.9-8-17.9-17.9C480.9,683.9,488.9,675.8,498.8,675.8L498.8,675.8z" transform="matrix(1, 0, 0, 1, 2.842170943040401e-14, 0)"/><path fill-rule="evenodd" clip-rule="evenodd" fill="#333333" d="M498.8,677.2c9.2,0,16.6,7.4,16.6,16.6s-7.5,16.6-16.6,16.6&#10;&#9;&#9;s-16.6-7.4-16.6-16.6S489.7,677.2,498.8,677.2L498.8,677.2z" transform="matrix(1, 0, 0, 1, 2.842170943040401e-14, 0)"/><path fill-rule="evenodd" clip-rule="evenodd" fill="#4D4D4D" d="M510.9,700.7c-1,1.8-3.4,2.4-5.2,1.4c-1.8-1-2.4-3.4-1.4-5.2&#10;&#9;&#9;c1-1.8,3.4-2.4,5.2-1.4C511.3,696.6,511.9,698.9,510.9,700.7L510.9,700.7z M510.9,686.9c1,1.8,0.5,4.1-1.4,5.2&#10;&#9;&#9;c-1.8,1-4.1,0.4-5.2-1.4c-1-1.8-0.5-4.1,1.4-5.2C507.5,684.4,509.8,685,510.9,686.9L510.9,686.9z M498.8,679.9&#10;&#9;&#9;c2.1,0,3.8,1.7,3.8,3.8c0,2.1-1.7,3.8-3.8,3.8s-3.8-1.7-3.8-3.8C495.1,681.6,496.7,679.9,498.8,679.9L498.8,679.9z M486.8,686.9&#10;&#9;&#9;c1-1.8,3.4-2.4,5.2-1.4c1.8,1,2.4,3.4,1.4,5.2c-1,1.8-3.4,2.4-5.2,1.4C486.4,691,485.8,688.7,486.8,686.9L486.8,686.9z&#10;&#9;&#9; M486.8,700.7c-1-1.8-0.4-4.1,1.4-5.2c1.8-1,4.1-0.4,5.2,1.4c1,1.8,0.4,4.1-1.4,5.2S487.9,702.5,486.8,700.7L486.8,700.7z&#10;&#9;&#9; M498.8,707.6c-2.1,0-3.8-1.7-3.8-3.8c0-2.1,1.7-3.8,3.8-3.8s3.8,1.7,3.8,3.8C502.7,706,500.9,707.6,498.8,707.6L498.8,707.6z" transform="matrix(1, 0, 0, 1, 2.842170943040401e-14, 0)"/><path fill-rule="evenodd" clip-rule="evenodd" fill="#4D4D4D" d="M615.7,675.8c9.9,0,17.9,8,17.9,17.9c0,9.9-8,17.9-17.9,17.9&#10;&#9;&#9;s-18-8-18-17.9C597.7,683.9,605.8,675.8,615.7,675.8L615.7,675.8z" transform="matrix(1, 0, 0, 1, 2.842170943040401e-14, 0)"/><path fill-rule="evenodd" clip-rule="evenodd" fill="#333333" d="M615.7,677.2c9.2,0,16.6,7.4,16.6,16.6s-7.4,16.6-16.6,16.6&#10;&#9;&#9;c-9.2,0-16.6-7.4-16.6-16.6S606.5,677.2,615.7,677.2L615.7,677.2z" transform="matrix(1, 0, 0, 1, 2.842170943040401e-14, 0)"/><path fill-rule="evenodd" clip-rule="evenodd" fill="#4D4D4D" d="M627.7,700.7c-1,1.8-3.4,2.4-5.2,1.4s-2.4-3.4-1.4-5.2&#10;&#9;&#9;c1-1.8,3.4-2.4,5.2-1.4S628.8,698.9,627.7,700.7L627.7,700.7z M627.7,686.9c1,1.8,0.4,4.1-1.4,5.2c-1.8,1-4.1,0.4-5.2-1.4&#10;&#9;&#9;c-1-1.8-0.4-4.1,1.4-5.2C624.3,684.4,626.7,685,627.7,686.9L627.7,686.9z M615.7,679.9c2.1,0,3.8,1.7,3.8,3.8&#10;&#9;&#9;c0,2.1-1.7,3.8-3.8,3.8s-3.8-1.7-3.8-3.8C611.9,681.6,613.6,679.9,615.7,679.9L615.7,679.9z M603.7,686.9c1-1.8,3.4-2.4,5.2-1.4&#10;&#9;&#9;c1.8,1,2.4,3.4,1.4,5.2c-1,1.8-3.4,2.4-5.2,1.4C603.2,691,602.6,688.7,603.7,686.9L603.7,686.9z M603.7,700.7&#10;&#9;&#9;c-1-1.8-0.5-4.1,1.4-5.2s4.1-0.4,5.2,1.4c1,1.8,0.5,4.1-1.4,5.2S604.7,702.5,603.7,700.7L603.7,700.7z M615.7,707.6&#10;&#9;&#9;c-2.1,0-3.8-1.7-3.8-3.8c0-2.1,1.7-3.8,3.8-3.8s3.8,1.7,3.8,3.8C619.5,706,617.8,707.6,615.7,707.6L615.7,707.6z" transform="matrix(1, 0, 0, 1, 2.842170943040401e-14, 0)"/><path d="M 455 577 H 661 V 689 H 455 V 577 Z" fill-rule="evenodd" clip-rule="evenodd" fill="#4D4D4D" transform="matrix(1, 0, 0, 1, 2.842170943040401e-14, 0)"/><path fill-rule="evenodd" clip-rule="evenodd" fill="#333333" d="M470.7,577l7.8-4.3l5.2-0.3l4.8-4.8l6.7-1.5l3.3-4.4l5.2-0.4&#10;&#9;&#9;l3.7-4.1l8.5,1.5l4.4,2.6l6.6-1.1l1.1-3.7v-4.8l3.8-4.1l4.5,2.6l4.2-1.3l9.5-9.8l7,4.1l10.7-2.2l5.1,4.1l13.2,1.9v1.1l2.9,0.4&#10;&#9;&#9;l9.1,6.3c0,0.6,0,1.2,0,1.9l2.3,2.9c1.7,0.7,1.9,0.6,3.7,0.6h4.8c0.3,1,0.2,1.7,1.1,2.5l2.2,2.5h1.1h10l2.9,4.3l9.7,1.7l8.2,6.1&#10;&#9;&#9;H470.7z" transform="matrix(1, 0, 0, 1, 2.842170943040401e-14, 0)"/><path d="M 650 689 H 695 V 696 H 650 V 689 Z" fill-rule="evenodd" clip-rule="evenodd" fill="#333333" transform="matrix(1, 0, 0, 1, 2.842170943040401e-14, 0)"/><path d="M 668 684 H 676 V 700 H 668 V 684 Z" fill-rule="evenodd" clip-rule="evenodd" fill="#333333" transform="matrix(1, 0, 0, 1, 2.842170943040401e-14, 0)"/><path d="M 695 689 H 879 V 702 H 695 V 689 Z" fill-rule="evenodd" clip-rule="evenodd" fill="#333333" transform="matrix(1, 0, 0, 1, 2.842170943040401e-14, 0)"/><path fill-rule="evenodd" clip-rule="evenodd" fill="#4D4D4D" d="M726.8,675.8c9.9,0,18,8,18,17.9c0,9.9-8,17.9-18,17.9&#10;&#9;&#9;c-9.9,0-17.9-8-17.9-17.9C708.9,683.9,716.9,675.8,726.8,675.8L726.8,675.8z" transform="matrix(1, 0, 0, 1, 2.842170943040401e-14, 0)"/><path fill-rule="evenodd" clip-rule="evenodd" fill="#333333" d="M726.8,677.2c9.2,0,16.6,7.4,16.6,16.6s-7.5,16.6-16.6,16.6&#10;&#9;&#9;c-9.2,0-16.6-7.4-16.6-16.6S717.6,677.2,726.8,677.2L726.8,677.2z" transform="matrix(1, 0, 0, 1, 2.842170943040401e-14, 0)"/><path fill-rule="evenodd" clip-rule="evenodd" fill="#4D4D4D" d="M738.8,700.7c-1,1.8-3.4,2.4-5.2,1.4s-2.4-3.4-1.4-5.2&#10;&#9;&#9;c1-1.8,3.4-2.4,5.2-1.4C739.3,696.6,739.9,698.9,738.8,700.7L738.8,700.7z M738.8,686.9c1,1.8,0.4,4.1-1.4,5.2&#10;&#9;&#9;c-1.8,1-4.1,0.4-5.2-1.4c-1-1.8-0.5-4.1,1.4-5.2C735.5,684.4,737.8,685,738.8,686.9L738.8,686.9z M726.8,679.9&#10;&#9;&#9;c2.1,0,3.8,1.7,3.8,3.8c0,2.1-1.7,3.8-3.8,3.8c-2.1,0-3.8-1.7-3.8-3.8C723,681.6,724.7,679.9,726.8,679.9L726.8,679.9z&#10;&#9;&#9; M714.8,686.9c1-1.8,3.4-2.4,5.2-1.4c1.8,1,2.4,3.4,1.4,5.2c-1,1.8-3.4,2.4-5.2,1.4C714.4,691,713.8,688.7,714.8,686.9L714.8,686.9&#10;&#9;&#9;z M714.8,700.7c-1-1.8-0.4-4.1,1.4-5.2s4.1-0.4,5.2,1.4c1,1.8,0.4,4.1-1.4,5.2C718.2,703.2,715.9,702.5,714.8,700.7L714.8,700.7z&#10;&#9;&#9; M726.8,707.6c-2.1,0-3.8-1.7-3.8-3.8c0-2.1,1.7-3.8,3.8-3.8c2.1,0,3.8,1.7,3.8,3.8C730.6,706,728.9,707.6,726.8,707.6L726.8,707.6&#10;&#9;&#9;z" transform="matrix(1, 0, 0, 1, 2.842170943040401e-14, 0)"/><path fill-rule="evenodd" clip-rule="evenodd" fill="#4D4D4D" d="M843.7,675.8c9.9,0,17.9,8,17.9,17.9c0,9.9-8,17.9-17.9,17.9&#10;&#9;&#9;c-9.9,0-18-8-18-17.9C825.7,683.9,833.8,675.8,843.7,675.8L843.7,675.8z" transform="matrix(1, 0, 0, 1, 2.842170943040401e-14, 0)"/><path fill-rule="evenodd" clip-rule="evenodd" fill="#333333" d="M843.7,677.2c9.2,0,16.6,7.4,16.6,16.6s-7.4,16.6-16.6,16.6&#10;&#9;&#9;c-9.2,0-16.6-7.4-16.6-16.6S834.5,677.2,843.7,677.2L843.7,677.2z" transform="matrix(1, 0, 0, 1, 2.842170943040401e-14, 0)"/><path fill-rule="evenodd" clip-rule="evenodd" fill="#4D4D4D" d="M855.7,700.7c-1,1.8-3.4,2.4-5.2,1.4s-2.4-3.4-1.4-5.2&#10;&#9;&#9;c1-1.8,3.4-2.4,5.2-1.4C856.1,696.6,856.7,698.9,855.7,700.7L855.7,700.7z M855.7,686.9c1,1.8,0.4,4.1-1.4,5.2&#10;&#9;&#9;c-1.8,1-4.1,0.4-5.2-1.4c-1-1.8-0.4-4.1,1.4-5.2C852.3,684.4,854.6,685,855.7,686.9L855.7,686.9z M843.7,679.9&#10;&#9;&#9;c2.1,0,3.8,1.7,3.8,3.8c0,2.1-1.7,3.8-3.8,3.8c-2.1,0-3.8-1.7-3.8-3.8C839.8,681.6,841.6,679.9,843.7,679.9L843.7,679.9z&#10;&#9;&#9; M831.7,686.9c1-1.8,3.4-2.4,5.2-1.4c1.8,1,2.4,3.4,1.4,5.2c-1,1.8-3.4,2.4-5.2,1.4C831.2,691,830.6,688.7,831.7,686.9L831.7,686.9&#10;&#9;&#9;z M831.7,700.7c-1-1.8-0.5-4.1,1.4-5.2s4.2-0.4,5.2,1.4c1,1.8,0.5,4.1-1.4,5.2C835,703.2,832.7,702.5,831.7,700.7L831.7,700.7z&#10;&#9;&#9; M843.7,707.6c-2.1,0-3.8-1.7-3.8-3.8c0-2.1,1.7-3.8,3.8-3.8c2.1,0,3.8,1.7,3.8,3.8C847.4,706,845.8,707.6,843.7,707.6L843.7,707.6&#10;&#9;&#9;z" transform="matrix(1, 0, 0, 1, 2.842170943040401e-14, 0)"/><path d="M 684 577 H 890 V 689 H 684 V 577 Z" fill-rule="evenodd" clip-rule="evenodd" fill="#4D4D4D" transform="matrix(1, 0, 0, 1, 2.842170943040401e-14, 0)"/><path fill-rule="evenodd" clip-rule="evenodd" fill="#333333" d="M698.6,577l7.8-4.3l5.2-0.3l4.8-4.8l6.7-1.5l3.3-4.4l5.2-0.4&#10;&#9;&#9;l3.7-4.1l8.5,1.5l4.4,2.6l6.6-1.1l1.1-3.7v-4.8l3.7-4.1l4.5,2.6l4.2-1.3l9.5-9.8l7,4.1l10.7-2.2l4.6,4.1l12.7,1.9v1.1l3.9,0.4&#10;&#9;&#9;l10.1,6.3c0,0.6,0,1.2,0,1.9l1.8,2.9c1.7,0.7,1.4,0.6,3.2,0.6h4.8c0.3,1,0.2,1.7,1.1,2.5l2.2,2.5h1.1h10l2.9,4.3l9.7,1.7l8.2,6.1&#10;&#9;&#9;H698.6z" transform="matrix(1, 0, 0, 1, 2.842170943040401e-14, 0)"/><path d="M 879 689 H 922 V 696 H 879 V 689 Z" fill-rule="evenodd" clip-rule="evenodd" fill="#333333" transform="matrix(1, 0, 0, 1, 2.842170943040401e-14, 0)"/><path d="M 896 684 H 905 V 700 H 896 V 684 Z" fill-rule="evenodd" clip-rule="evenodd" fill="#333333" transform="matrix(1, 0, 0, 1, 2.842170943040401e-14, 0)"/><path d="M 922 689 H 1107 V 702 H 922 V 689 Z" fill-rule="evenodd" clip-rule="evenodd" fill="#333333" transform="matrix(1, 0, 0, 1, 2.842170943040401e-14, 0)"/><path fill-rule="evenodd" clip-rule="evenodd" fill="#4D4D4D" d="M954.8,675.8c9.9,0,18,8,18,17.9c0,9.9-8,17.9-18,17.9&#10;&#9;&#9;c-9.9,0-17.9-8-17.9-17.9C936.9,683.9,944.9,675.8,954.8,675.8L954.8,675.8z" transform="matrix(1, 0, 0, 1, 2.842170943040401e-14, 0)"/><path fill-rule="evenodd" clip-rule="evenodd" fill="#333333" d="M954.8,677.2c9.2,0,16.6,7.4,16.6,16.6s-7.5,16.6-16.6,16.6&#10;&#9;&#9;c-9.2,0-16.6-7.4-16.6-16.6S945.6,677.2,954.8,677.2L954.8,677.2z" transform="matrix(1, 0, 0, 1, 2.842170943040401e-14, 0)"/><path fill-rule="evenodd" clip-rule="evenodd" fill="#4D4D4D" d="M966.8,700.7c-1,1.8-3.4,2.4-5.2,1.4c-1.8-1-2.4-3.4-1.4-5.2&#10;&#9;&#9;c1-1.8,3.4-2.4,5.2-1.4C967.2,696.6,967.8,698.9,966.8,700.7L966.8,700.7z M966.8,686.9c1,1.8,0.4,4.1-1.4,5.2&#10;&#9;&#9;c-1.8,1-4.1,0.4-5.2-1.4c-1-1.8-0.4-4.1,1.4-5.2C963.4,684.4,965.8,685,966.8,686.9L966.8,686.9z M954.8,679.9&#10;&#9;&#9;c2.1,0,3.8,1.7,3.8,3.8c0,2.1-1.7,3.8-3.8,3.8c-2.1,0-3.8-1.7-3.8-3.8C951,681.6,952.7,679.9,954.8,679.9L954.8,679.9z&#10;&#9;&#9; M942.8,686.9c1-1.8,3.4-2.4,5.2-1.4c1.8,1,2.4,3.4,1.4,5.2c-1,1.8-3.4,2.4-5.2,1.4C942.3,691,941.7,688.7,942.8,686.9L942.8,686.9&#10;&#9;&#9;z M942.8,700.7c-1-1.8-0.4-4.1,1.4-5.2s4.1-0.4,5.2,1.4c1,1.8,0.4,4.1-1.4,5.2C946.2,703.2,943.8,702.5,942.8,700.7L942.8,700.7z&#10;&#9;&#9; M954.8,707.6c-2.1,0-3.8-1.7-3.8-3.8c0-2.1,1.7-3.8,3.8-3.8c2.1,0,3.8,1.7,3.8,3.8C958.6,706,956.9,707.6,954.8,707.6L954.8,707.6&#10;&#9;&#9;z" transform="matrix(1, 0, 0, 1, 2.842170943040401e-14, 0)"/><path fill-rule="evenodd" clip-rule="evenodd" fill="#4D4D4D" d="M1071.6,675.8c9.9,0,17.9,8,17.9,17.9c0,9.9-8,17.9-17.9,17.9&#10;&#9;&#9;c-9.9,0-18-8-18-17.9C1053.7,683.9,1061.7,675.8,1071.6,675.8L1071.6,675.8z" transform="matrix(1, 0, 0, 1, 2.842170943040401e-14, 0)"/><path fill-rule="evenodd" clip-rule="evenodd" fill="#333333" d="M1071.6,677.2c9.2,0,16.6,7.4,16.6,16.6s-7.4,16.6-16.6,16.6&#10;&#9;&#9;s-16.6-7.4-16.6-16.6S1062.5,677.2,1071.6,677.2L1071.6,677.2z" transform="matrix(1, 0, 0, 1, 2.842170943040401e-14, 0)"/><path fill-rule="evenodd" clip-rule="evenodd" fill="#4D4D4D" d="M1083.6,700.7c-1,1.8-3.4,2.4-5.2,1.4c-1.8-1-2.4-3.4-1.4-5.2&#10;&#9;&#9;c1-1.8,3.4-2.4,5.2-1.4C1084,696.6,1084.7,698.9,1083.6,700.7L1083.6,700.7z M1083.6,686.9c1,1.8,0.4,4.1-1.4,5.2&#10;&#9;&#9;c-1.8,1-4.1,0.4-5.2-1.4c-1-1.8-0.4-4.1,1.4-5.2C1080.3,684.4,1082.6,685,1083.6,686.9L1083.6,686.9z M1071.6,679.9&#10;&#9;&#9;c2.1,0,3.8,1.7,3.8,3.8c0,2.1-1.7,3.8-3.8,3.8s-3.8-1.7-3.8-3.8C1067.8,681.6,1069.5,679.9,1071.6,679.9L1071.6,679.9z&#10;&#9;&#9; M1059.6,686.9c1-1.8,3.4-2.4,5.2-1.4c1.8,1,2.4,3.4,1.4,5.2c-1,1.8-3.4,2.4-5.2,1.4C1059.2,691,1058.6,688.7,1059.6,686.9&#10;&#9;&#9;L1059.6,686.9z M1059.6,700.7c-1-1.8-0.4-4.1,1.4-5.2c1.8-1,4.2-0.4,5.2,1.4c1,1.8,0.4,4.1-1.4,5.2&#10;&#9;&#9;C1063,703.2,1060.7,702.5,1059.6,700.7L1059.6,700.7z M1071.6,707.6c-2.1,0-3.8-1.7-3.8-3.8c0-2.1,1.7-3.8,3.8-3.8s3.8,1.7,3.8,3.8&#10;&#9;&#9;C1075.4,706,1073.7,707.6,1071.6,707.6L1071.6,707.6z" transform="matrix(1, 0, 0, 1, 2.842170943040401e-14, 0)"/><path d="M 912 577 H 1117 V 689 H 912 V 577 Z" fill-rule="evenodd" clip-rule="evenodd" fill="#4D4D4D" transform="matrix(1, 0, 0, 1, 2.842170943040401e-14, 0)"/><path fill-rule="evenodd" clip-rule="evenodd" fill="#333333" d="M926.6,577l7.8-4.3l5.2-0.3l4.8-4.8l6.7-1.5l3.3-4.4l5.2-0.4&#10;&#9;&#9;l3.7-4.1l8.5,1.5l4.4,2.6l6.6-1.1l1.1-3.7v-4.8l3.7-4.1l4.5,2.6l4.2-1.3l9.5-9.8l7,4.1l10.7-2.2l5.1,4.1l13.2,1.9v1.1l3.4,0.4&#10;&#9;&#9;l9.6,6.3c0,0.6,0,1.2,0,1.9l1.7,2.9c1.7,0.7,1.4,0.6,3.2,0.6h4.8c0.3,1,0.2,1.7,1.1,2.5l2.2,2.5h1.1h10l2.9,4.3l9.7,1.7l8.2,6.1&#10;&#9;&#9;H926.6z" transform="matrix(1, 0, 0, 1, 2.842170943040401e-14, 0)"/><path d="M 1107 689 H 1150 V 696 H 1107 V 689 Z" fill-rule="evenodd" clip-rule="evenodd" fill="#333333" transform="matrix(1, 0, 0, 1, 2.842170943040401e-14, 0)"/><path d="M 1124 684 H 1133 V 700 H 1124 V 684 Z" fill-rule="evenodd" clip-rule="evenodd" fill="#333333" transform="matrix(1, 0, 0, 1, 2.842170943040401e-14, 0)"/><path d="M 1150 689 H 1400 V 702 H 1150 V 689 Z" fill-rule="evenodd" clip-rule="evenodd" fill="#333333" transform="matrix(1, 0, 0, 1, 2.842170943040401e-14, 0)"/><path fill-rule="evenodd" clip-rule="evenodd" fill="#4D4D4D" d="M1182.7,675.8c9.9,0,18,8,18,17.9c0,9.9-8,17.9-18,17.9&#10;&#9;&#9;c-9.9,0-17.9-8-17.9-17.9C1164.8,683.9,1172.8,675.8,1182.7,675.8L1182.7,675.8z" transform="matrix(1, 0, 0, 1, 2.842170943040401e-14, 0)"/><path fill-rule="evenodd" clip-rule="evenodd" fill="#333333" d="M1182.7,677.2c9.2,0,16.6,7.4,16.6,16.6s-7.5,16.6-16.6,16.6&#10;&#9;&#9;c-9.1,0-16.6-7.4-16.6-16.6S1173.6,677.2,1182.7,677.2L1182.7,677.2z" transform="matrix(1, 0, 0, 1, 2.842170943040401e-14, 0)"/><path fill-rule="evenodd" clip-rule="evenodd" fill="#4D4D4D" d="M1194.8,700.7c-1,1.8-3.4,2.4-5.2,1.4c-1.8-1-2.4-3.4-1.4-5.2&#10;&#9;&#9;c1-1.8,3.4-2.4,5.2-1.4S1195.8,698.9,1194.8,700.7L1194.8,700.7z M1194.8,686.9c1,1.8,0.4,4.1-1.4,5.2c-1.8,1-4.1,0.4-5.2-1.4&#10;&#9;&#9;c-1-1.8-0.4-4.1,1.4-5.2C1191.4,684.4,1193.7,685,1194.8,686.9L1194.8,686.9z M1182.7,679.9c2.1,0,3.8,1.7,3.8,3.8&#10;&#9;&#9;c0,2.1-1.7,3.8-3.8,3.8c-2.1,0-3.8-1.7-3.8-3.8C1179,681.6,1180.7,679.9,1182.7,679.9L1182.7,679.9z M1170.7,686.9&#10;&#9;&#9;c1-1.8,3.4-2.4,5.2-1.4c1.8,1,2.4,3.4,1.4,5.2c-1,1.8-3.4,2.4-5.2,1.4C1170.3,691,1169.7,688.7,1170.7,686.9L1170.7,686.9z&#10;&#9;&#9; M1170.7,700.7c-1-1.8-0.4-4.1,1.4-5.2s4.1-0.4,5.2,1.4c1,1.8,0.4,4.1-1.4,5.2C1174.1,703.2,1171.8,702.5,1170.7,700.7&#10;&#9;&#9;L1170.7,700.7z M1182.7,707.6c-2.1,0-3.8-1.7-3.8-3.8c0-2.1,1.7-3.8,3.8-3.8c2.1,0,3.8,1.7,3.8,3.8&#10;&#9;&#9;C1186.5,706,1184.8,707.6,1182.7,707.6L1182.7,707.6z" transform="matrix(1, 0, 0, 1, 2.842170943040401e-14, 0)"/><path fill-rule="evenodd" clip-rule="evenodd" fill="#4D4D4D" d="M1233.4,675.8c9.9,0,18,8,18,17.9c0,9.9-8,17.9-18,17.9&#10;&#9;&#9;c-9.9,0-17.9-8-17.9-17.9C1215.5,683.9,1223.5,675.8,1233.4,675.8L1233.4,675.8z" transform="matrix(1, 0, 0, 1, 2.842170943040401e-14, 0)"/><path fill-rule="evenodd" clip-rule="evenodd" fill="#333333" d="M1233.4,677.2c9.2,0,16.6,7.4,16.6,16.6s-7.4,16.6-16.6,16.6&#10;&#9;&#9;s-16.6-7.4-16.6-16.6S1224.2,677.2,1233.4,677.2L1233.4,677.2z" transform="matrix(1, 0, 0, 1, 2.842170943040401e-14, 0)"/><path fill-rule="evenodd" clip-rule="evenodd" fill="#4D4D4D" d="M1245.4,700.7c-1,1.8-3.4,2.4-5.2,1.4c-1.8-1-2.4-3.4-1.4-5.2&#10;&#9;&#9;c1-1.8,3.4-2.4,5.2-1.4C1245.8,696.6,1246.4,698.9,1245.4,700.7L1245.4,700.7z M1245.4,686.9c1,1.8,0.4,4.1-1.4,5.2&#10;&#9;&#9;c-1.8,1-4.2,0.4-5.2-1.4c-1-1.8-0.4-4.1,1.4-5.2C1242,684.4,1244.3,685,1245.4,686.9L1245.4,686.9z M1233.4,679.9&#10;&#9;&#9;c2.1,0,3.8,1.7,3.8,3.8c0,2.1-1.7,3.8-3.8,3.8s-3.8-1.7-3.8-3.8C1229.6,681.6,1231.3,679.9,1233.4,679.9L1233.4,679.9z&#10;&#9;&#9; M1221.4,686.9c1-1.8,3.4-2.4,5.2-1.4c1.8,1,2.4,3.4,1.4,5.2c-1,1.8-3.4,2.4-5.2,1.4C1220.9,691,1220.3,688.7,1221.4,686.9&#10;&#9;&#9;L1221.4,686.9z M1221.4,700.7c-1-1.8-0.4-4.1,1.4-5.2s4.1-0.4,5.2,1.4c1,1.8,0.4,4.1-1.4,5.2&#10;&#9;&#9;C1224.7,703.2,1222.4,702.5,1221.4,700.7L1221.4,700.7z M1233.4,707.6c-2.1,0-3.8-1.7-3.8-3.8c0-2.1,1.7-3.8,3.8-3.8&#10;&#9;&#9;s3.8,1.7,3.8,3.8C1237.2,706,1235.5,707.6,1233.4,707.6L1233.4,707.6z" transform="matrix(1, 0, 0, 1, 2.842170943040401e-14, 0)"/><path d="M 1139 577 H 1400 V 689 H 1139 V 577 Z" fill-rule="evenodd" clip-rule="evenodd" fill="#4D4D4D" transform="matrix(1, 0, 0, 1, 2.842170943040401e-14, 0)"/><path fill-rule="evenodd" clip-rule="evenodd" fill="#333333" d="M1154.6,577l7.8-4.3l5.2-0.3l4.8-4.8l6.6-1.5l3.3-4.4l5.2-0.4&#10;&#9;&#9;l3.7-4.1l8.5,1.5l4.4,2.6l6.7-1.1l1.1-3.7v-4.8l3.7-4.1l4.4,2.6l4.2-1.3l9.4-9.8l7,4.1l10.7-2.2l5.1,4.1l13.3,1.9v1.1l2.9,0.4&#10;&#9;&#9;l9.1,6.3c0,0.6,0,1.2,0,1.9l2.2,2.9c1.7,0.7,1.9,0.6,3.7,0.6h4.8c0.3,1,0.2,1.7,1.1,2.5l2.2,2.5h1.1h10l3,4.3l9.6,1.7l8.2,6.1&#10;&#9;&#9;H1154.6z" transform="matrix(1, 0, 0, 1, 2.842170943040401e-14, 0)"/><path fill-rule="evenodd" clip-rule="evenodd" fill="#333333" d="M1253.8,577l7.8-4.3l5.2-0.3l4.8-4.8l6.6-1.5l3.4-4.4l5.2-0.4&#10;&#9;&#9;l3.7-4.1l8.5,1.5l4.4,2.6l6.6-1.1l1-3.7v-4.8l3.8-4.1l4.5,2.6l4.3-1.3l9.5-9.8l7,4.1l10.8-2.2l5,4.1l13.2,1.9v1.1l3.4,0.4l9.6,6.3&#10;&#9;&#9;c0,0.6,0,1.2,0,1.9l1.9,2.9c1.7,0.7,1.5,0.6,3.3,0.6h4.8c0.3,1,0.2,1.7,1.1,2.5l2.2,2.5h1.1h3.6v12H1253.8z" transform="matrix(1, 0, 0, 1, 2.842170943040401e-14, 0)"/><path fill-rule="evenodd" clip-rule="evenodd" fill="#4D4D4D" d="M1379.7,675.8c9.9,0,17.9,8,17.9,17.9c0,9.9-8,17.9-17.9,17.9&#10;&#9;&#9;c-9.9,0-18-8-18-17.9C1361.7,683.9,1369.7,675.8,1379.7,675.8L1379.7,675.8z" transform="matrix(1, 0, 0, 1, 2.842170943040401e-14, 0)"/><path fill-rule="evenodd" clip-rule="evenodd" fill="#333333" d="M1379.7,677.2c9.1,0,16.6,7.4,16.6,16.6s-7.5,16.6-16.6,16.6&#10;&#9;&#9;c-9.2,0-16.6-7.4-16.6-16.6S1370.5,677.2,1379.7,677.2L1379.7,677.2z" transform="matrix(1, 0, 0, 1, 2.842170943040401e-14, 0)"/><path fill-rule="evenodd" clip-rule="evenodd" fill="#4D4D4D" d="M1391.7,700.7c-1,1.8-3.4,2.4-5.2,1.4c-1.8-1-2.4-3.4-1.4-5.2&#10;&#9;&#9;c1-1.8,3.4-2.4,5.2-1.4S1392.7,698.9,1391.7,700.7L1391.7,700.7z M1391.7,686.9c1,1.8,0.4,4.1-1.4,5.2c-1.8,1-4.1,0.4-5.2-1.4&#10;&#9;&#9;c-1-1.8-0.4-4.1,1.4-5.2C1388.3,684.4,1390.6,685,1391.7,686.9L1391.7,686.9z M1379.7,679.9c2.1,0,3.8,1.7,3.8,3.8&#10;&#9;&#9;c0,2.1-1.7,3.8-3.8,3.8c-2.1,0-3.8-1.7-3.8-3.8C1375.9,681.6,1377.6,679.9,1379.7,679.9L1379.7,679.9z M1367.6,686.9&#10;&#9;&#9;c1-1.8,3.4-2.4,5.2-1.4c1.8,1,2.4,3.4,1.4,5.2c-1,1.8-3.4,2.4-5.2,1.4C1367.2,691,1366.6,688.7,1367.6,686.9L1367.6,686.9z&#10;&#9;&#9; M1367.6,700.7c-1-1.8-0.4-4.1,1.4-5.2c1.8-1,4.1-0.4,5.2,1.4c1,1.8,0.4,4.1-1.4,5.2C1371,703.2,1368.7,702.5,1367.6,700.7&#10;&#9;&#9;L1367.6,700.7z M1379.7,707.6c-2.1,0-3.8-1.7-3.8-3.8c0-2.1,1.7-3.8,3.8-3.8c2.1,0,3.8,1.7,3.8,3.8&#10;&#9;&#9;C1383.5,706,1381.8,707.6,1379.7,707.6L1379.7,707.6z" transform="matrix(1, 0, 0, 1, 2.842170943040401e-14, 0)"/>


</svg>