<?xml version="1.0" encoding="utf-8"?>
<svg id="master-artboard" viewBox="0 0 1372.930908203125 964.3284301757812" version="1.1" xmlns="http://www.w3.org/2000/svg" x="0px" y="0px" width="1372.930908203125px" height="964.3284301757812px" enable-background="new 0 0 1400 980"><rect id="ee-background" x="0" y="0" width="1372.930908203125" height="964.3284301757812" style="fill: white; fill-opacity: 0; pointer-events: none;"/>






<path fill-rule="evenodd" clip-rule="evenodd" fill="#4F2200" d="M1400,811.8V980H0V845.3c14.8-1,28.9,0.2,42.8-17.5&#10;&#9;&#9;c25.5-32.5,148.5,39.6,154.8-37.4c4.5-56.2,41.1-84.2,39.8-14.1c-0.8,45.9,46.3,25.3,81.6,48.4c62.9,41.1,55.6-22.7,136.9,23&#10;&#9;&#9;c53,29.8,47.3-147.8,96-51.4c14.5,28.6,32.1-65.5,46.2-54.5c34.3,26.9,4.7,68.6,55.7,35.8c34-21.9,17.6,61,91.9,59.6&#10;&#9;&#9;c39.5-0.8,33.1,36.2,85.4,0.5c34.9-23.8,90.5-21.9,104.2-63.1c5.4-16.2,31.8-29.5,46.3,5.2c14.9,35.7,41.6-9.7,92.9,33.3&#10;&#9;&#9;c18.9,15.8,121.2,10.9,137.5-1c70.2-51.1,101.5-65.6,177.3-8.6c3.6,2.8,6.9,5.3,10.6,8V811.8z" transform="matrix(1, 0, 0, 1, -15.67169189453125, -8.548076152801514)"/>

<path fill-rule="evenodd" clip-rule="evenodd" fill="#4A1400" d="M0,0h1400v54.4c-2.5,3.8-5.6,7.6-7.6,11.4&#10;&#9;&#9;c-45.9,84.6-37.6,159.1-45.6,195c-10.3,46.3-19.3-49-20.6-57.7c-38-254-56.4,79.6-62.5,107c-6.1,27.3,0,186.2-22.5,114.2&#10;&#9;&#9;c-3-9.7-3-339.4-37.9-247c-19.4,51.2-7.1,219.2-42.4,220.2c-25.8,0.8-9.7,47-31.1,60.5c-39,24.5-23.3,150.9-32.5,115.5&#10;&#9;&#9;c-30.7-118.6-39.2-304.9-85.6-437.8c-70.7-202.5-119.3,87.6-133.4,71.8C841,166,855.4-6.9,791.1,95.8&#10;&#9;&#9;c-63.4,101.4-66.3,160-84.1,266.6c-10.3,61.7-11.6,98.7-14,73.1c-5.3-57.6-56.1-246.4-62.2-311.3C625,62.5,583.9,43.8,563.7,88&#10;&#9;&#9;C484.3,261.6,478.5,50.2,430,44.6C330.8,33.2,325.2,190,314.4,195.1C295.9,203.8,298,57,256.8,79.8c-59,32.7-15.1-2.8-53.8-43.4&#10;&#9;&#9;c-36.9-38.7-50.6,0.8-62.4,24.7c-15.6,31.6-8.5,117-25.7,150.8c-31.1,61.1-6.5,173.6-30.2,171.8C55.6,381.4,103.7,82.3,0,40.1V0z" transform="matrix(1, 0, 0, 1, -15.78582763671875, -8.833012580871582)"/>
<path fill-rule="evenodd" clip-rule="evenodd" fill="#4A1400" d="M1400,669.5V980H0V860.2c13.6,22.3,25.8,41.8,29,42.6&#10;&#9;&#9;c55.5,15.2,23.1-61.2,58.3,12.8c14.6,30.5,19-20.2,19-26.3c0-48.6,23.2-61.2,28.7-103.6c9.3-72.1,29.1-32.5,29.1,11.7&#10;&#9;&#9;c0,68.9,7.5,16,32.7,93.2c10.1,31.1,32.6,42.1,35.3,13.6c3.6-38.2,48.9,21.4,56.3-38.5c2.6-20.7,17.4-67.8,19.4-97.6&#10;&#9;&#9;c2.3-33.5,19.6-125.1,33-35.9c6.8,45.1,48.5,81.4,48.5-29c0-16.8,3.8-178.1,8.9-176.9c18.5,4.4,28.6,113.5,28.1,129.2&#10;&#9;&#9;c-0.7,24.4,46.4,192.9,53.6,192.4c51.3-3.5,20.6-43.2,71.3,46.3c0.7,1.2,30.4,26.5,41.1,4.3c26.4-54.6,84.7,153.8,83-72&#10;&#9;&#9;c-0.4-49.8,44.4-47,44.4,12.8c0,17.2,10.6,97.2,38.4,97.6C778,937.4,825,758.3,845.6,759c23,0.7,70.7,242.5,91.7,172.6&#10;&#9;&#9;c7.6-25.2-2.6-73.2,34.6-40.2c11.9,10.6,10,50.2,42.4,39.1c9.6-3.3,17.8-89,24.7-114.5c3.4-12.5,13-134,65-92.3&#10;&#9;&#9;c20.2,16.2,17,2.9,28.7-16.8c17.6-29.6,10.3-85,54.6-55.3c11.7,7.8-14.8,7,19.6,15.9c0.7,0.2,41.6,95,29.8,4.9&#10;&#9;&#9;c-12.6-95.6,14.9-82.8,27.8,19c0.6,4.4,43.1,241.7,54,127.6c6.3-66,35.5-0.7,35.5-47c0-0.4,23.9-63.6,46.1-102.4V669.5z" transform="matrix(1, 0, 0, 1, -18.52105712890625, -12.822135925292969)"/>
</svg>